<?xml version="1.0" encoding="UTF-8"?><svg id="Layer_2" xmlns="http://www.w3.org/2000/svg" viewBox="0 0 349.13 326.48"><g id="BG"><path d="M259.68,108.64c5,.03,11.24-.51,16.03-.03.56.06,1.18-.03,1.4.61v1.16c0,.97.01,1.94,0,2.9-.07,4.3-.51,8.5-.58,12.78h18.3c.54,0,.55.82.6,1.22.55,4.22-1.35,13.05-.23,16.42.48,1.45,2.76.89,3.99.95.77.04,1.55-.02,2.32,0,2.12.04,4.27-.04,6.39,0,1.93.03,3.88-.03,5.81,0,.11,3.45-.55,6.73-.61,10.2-.04,2.48,1.1,4.57.03,7.23h18.01v36.6h18.01v17.43l-18.01.58v34.56c0,.17.71.41.58.87-2.7,1-16.94-.04-17.75,1.13-.51.73-.33,9.65-.28,11.39.04,1.16,1.57,7.24-.27,7.24h-17.72l-.58,18.59-84.01-.04c-.89-.25-1.41.4-1.96.62-.22.09-.74-.19-1.08.06-.05,4.5-.24,9.09-.08,13.61.04,1.12-.59,2.33,1.16,2.01,0,.19-.01.39,0,.58.03.38-.04.78,0,1.16,2.03.44,15.15-.57,15.69,0,.27.28-.58,3,.58,3.49.05,1.93.02,3.88,0,5.81-1.76-.32-1.12.89-1.16,2.01-.07,1.84.05,3.71,0,5.55l-31.95-.59v-2.32c.49-.55,2.28,2.43,4.47-.18,3.82-4.54-3.79-1.48-4.47-2.15.27-1.31-.43-4.9.09-5.72.22-.34,3.69-.89,2.72-2.35-.07-.11-1.05-.05-1.1-.36-.18-1.21.99-1.82,1.09-2.43.07-.41-2.04-3.81-1.06-4.82,2.37-2.45,1.73,6.39,6.09,5.81,1.87-.25-.78-2.61-.83-2.76-.47-1.49.13-2.91-1.24-4.46-1.82-2.08-3.8-.8-3.98-.93-.12-.08-1.09-2.55-1.1-2.7-.06-.92,2.04-3.48,1.57-5.05-.27-.88-3.72-2.09-2.27-5.6-.88-.29-1.09.57-1.16.58-.18.03-.39-.02-.58,0-.57.05-1.17-.04-1.74,0-1.73-1.46-12.77.02-13.36-.58-.13-4.74.19-9.52,0-14.26-.04-1.12.6-2.33-1.16-2.01.02-.19-.04-.4,0-.58.01-.06.88-.23.58-1.16-1.56.39-5.68-1.07-5.23,1.16-.77.05-1.55-.04-2.32,0-2.16-1-5.49-.67-7.87-.58-1.12.04-2.33-.6-2.01,1.16-.19,0-.39-.01-.58,0-.38.03-.78-.04-1.16,0-.57.76.36,16.05,0,18.89-.38,3.03-1.66-.68-1.77-2.31-.34-4.82,1.22-11.53.56-16.25-.32-2.3-2.44-3.46-2.34-5.85.12-2.67,5.21-3.28,2.42-7.6-1.03-1.6-3.17-.72-2.94-2.57,3.23.71,4.52,1.24,5.57-2.37l17.66,1.2c.26-.73-.57-1.09-.58-1.16-.81-5.96.6-13.59,0-19.75,5.63-.11,11.22-.46,16.85-.58l.05-88.63c.18-1.16-1.12-.74-1.21-.83s.32-1.39-.83-1.21l-32.86.05c-.54-3.69,3.8-1.34,5.4-1.32.59,0,2.76-.57,3.06-.97,1.5-1.99-.85-1.64-1.8-2.32-.88-.62-1.03-1.66-1.59-2.2s-1.73-.44-2.04-.87c-.75-1.05-1.08-5.47-1.29-5.68-.28-.29-2.75.82-4.35-1.18-1.35-1.69-.13-2.58-.39-4.19-.23-1.39-1.75-2.39-1.64-3.92,5.4-.67.75,5.58,4.95,6.37,16.74.03,33.5.02,50.23.02.19,0,.39,0,.58,0-.92,1.65,4.28,1.45,5.44,1.17.68-.16.31-.64.37-1.17.39,0,.77,0,1.16,0l.87.58.3-.58c.39,0,.77,0,1.16,0,1.08.98,4.15.98,5.23,0,.19,0,.39,0,.58,0h.58c.38.02.78-.02,1.16,0-.11.44.03,1.19,0,1.74-.02.38,0,.78,0,1.16.02,1.69-.69,4.62,1.16,4.07-.1.68-.54,1.37-.58,1.74,0,.06-.44.16-.58,1.16-.15,1.09-.08,2.91,0,4.07.2,3.01.79,1.27,1.16,1.74.11.14-.03,1.78,0,2.32-2.45-.39-.78,2.8-.58,4.07.11.71-.08,1.58,0,2.32-.87.91-.58,2.07-.6,3.17-.33,16.5-.87,35.41-.01,51.75.09,1.74.24,4,1.19,5.49,0,5.99-.08,12.02,0,18.01-1.24,1.38-.33,3.98-.58,5.81-1.31.11-2.73-.01-4.07,0-3.72-1.33-8.28-.23-12.2-.58-.03.38.02.77,0,1.16-.26,5.38-.12,11.43,0,16.85.02.72.54,1.68.57,2.6.19,5.72-.51,11.53.59,17.15h33.69c-.15-3.66.2-7.39,0-11.04l-.58-27.89c4.61-.46,9.15.44,13.69.63,1.44.06,1.89-.51,2.58-.63.19-.03,1.06,1.03,1.16.29-.09-2.91.11-5.83,0-8.74-.04-1.12.6-2.33-1.16-2.01v-1.74c1.75.32,1.12-.89,1.16-2.01.39-11.69.46-24.98,0-36.65-.04-1.12.6-2.33-1.16-2.01v-32.53c.96-.6.58-2.2.59-3.19.05-5.13.61-12.68.02-17.48-.08-.69.19-1.03-.61-1.41-2.91-1.35-12.89-.04-16.85,0v-18.01c5.8-.02,11.63-.04,17.43,0ZM192.29,234.11v-88.88h-.58v88.88h.58ZM295.11,250.96c.05.77-.04,1.56,0,2.33l18.59-.58c-.8-5.97-.54-11.99-.58-18.01-.16-24,.12-48.03,0-72.03h-17.43c-.02,3.28.02,6.59,0,9.88-1.14-2.45-.5-5.74-.58-8.43-.02-.5.24-2.09-.58-1.15.24,28.27-.3,56.55,0,84.82.01.98-.37,2.58.59,3.19ZM294.53,254.44l-16.85-1.16v17.43l16.85-.58v-15.68Z" fill="#3a2820"/><path d="M123.17,103.99c.11.91-.06,1.96,0,2.9l-.58.87.58.3,32.53-.58c0,.19,0,.39,0,.58,0,.41-.58,1.48-.61,2.57-.05,2.21-.33,15.14.57,15.76,1.6,1.11,34.03.25,38.96.25,3.92,0,8.49-.49,12.2.58-16.74,0-33.49.01-50.23-.02-4.2-.79.45-7.04-4.95-6.37-.1,1.53,1.42,2.53,1.64,3.92.26,1.6-.96,2.5.39,4.19,1.6,2,4.07.89,4.35,1.18.2.21.53,4.63,1.29,5.68.31.43,1.48.33,2.04.87s.71,1.58,1.59,2.2c.95.67,3.29.32,1.8,2.32-.3.4-2.46.97-3.06.97-1.6-.02-5.95-2.37-5.4,1.32l32.86-.05c1.16-.18.74,1.12.83,1.21h-33.7s0,90.04,0,90.04c-5.05.07-10.1-.25-15.1.58l-.59,17.43,33.7,1.74c0,.06.84.43.58,1.16l-17.66-1.2c-1.05,3.61-2.34,3.08-5.57,2.37-.23,1.86,1.91.97,2.94,2.57,2.78,4.32-2.31,4.92-2.42,7.6-.1,2.38,2.02,3.55,2.34,5.85.66,4.72-.9,11.43-.56,16.25.11,1.63,1.38,5.34,1.77,2.31.36-2.84-.57-18.14,0-18.89.38-.03.78.03,1.16,0v25.56c-1.71.86-.8-3.04-2.32-1.74-.17.14-.35,2.32-.87,2.91-.84.95-2.45.29-3.24.82-.68.46-.35,2.11-1.11,2.95-1.09,1.2-4.67.6-4.66,1.16,0,.51.46,1.92.98,2.05,2.76.68,8.11-.54,11.22-.02v1.16c-.68-.11-1.58.02-2.32,0-.39,0-.77,0-1.16,0-.77-.01-1.55,0-2.32,0-3.86-.03-7.76.02-11.62,0-.01-3.28.03-6.59,0-9.88-.02-3.09.01-6.2,0-9.29-.05-11.42.04-22.86,0-34.28l-16.85.59c-.03.38.02.78,0,1.16-.05.95.1,1.98,0,2.9-.01.13-.55.64-.6,1.41-.23,3.53.21,7.24.02,10.79-.14.51.38,1.59-.32,1.77l-16.53.55v16.56c-.37.56-2.09.87-2.61.87h-32.24v-17.43l17.42-.58c.22-.63-.58-1.27-.58-1.45v-17.72h16.27l1.16-17.42-67.38.58v-18.59l-18.59.58v-18.59l-16.27.58H.6c.02-.19-.03-.39,0-.58.02-.1.57-.76.61-2,.73-23.68-.61-47.51-.03-71.2.19-.03.39.01.58,0,5.47-.38,11.33.28,16.85,0v-17.43c5.99-.01,12.01.01,18.01,0,.19,0,.39,0,.58,0l.58,17.43h-17.72v73.19h17.72v18.01h67.96v-19.17l16.27-.58c.04-30-.06-60.04,0-90.04,0-2.95-.49-6.7.58-9.29.05,2.16.37,3.44.58,5.23ZM155.69,253.87h-2.9c-.05,2.38,2.95,2.38,2.9,0Z" fill="#34221d"/><path d="M55.78,38.93v16.85c5.81-.14,11.69.42,17.43-.58v36.02c3.33-.35,7.35.74,10.46-.58,12.91.64,25.98-1.32,38.92-.58.11.73-.14,1.66,0,2.33.03,2.12-.05,4.27,0,6.39-1.07,2.6-.57,6.34-.58,9.29-6.18.11-12.41-.15-18.59,0,.17-2.14-1.65-1.59-1.16.58-21.67.45-43.38.48-65.06.58-.19,0-.39,0-.58,0v-17.43s18.59,0,18.59,0c0-.82-.41-1.55-.58-2.32-.07-.34.06-.79,0-1.16,1.04-.96.57-3.19.58-4.65.07-8.9-.06-17.82,0-26.72l-.34-.53c-.46-.14-.94-.01-1.4-.05-.38-.03-.78.02-1.16,0-2.66-.14-4.99.5-6.97.58-.39.02-.78-.02-1.16,0h-.58c-2.31.11-4.66-.08-6.97,0v-18.59c5.64.49,12.27-.65,17.78-.03.81.09.83.04,1.39.61Z" fill="#382620"/><path d="M166.15,54.03c2.51-.03,5.04.02,7.55,0l.58-17.43h16.85c1.38-5.25-.31-12.26.58-17.14.09-.48.46-1.45.87-1.45h16.56c.08-6.02-.43-12.12.91-18.02l66.48.59c0,5.61-.02,11.24,0,16.85-5.32.05-10.74.55-15.95.6-16.97.17-33.96-.39-50.85.56v19.17l-17.43-.58v17.14c0,.64-1.42.83-2,.9-5.33.63-11.25-.67-16.59-.61l-.58,20.92c0-.08-.54-.66-.6-1.41-.15-1.82.15-3.73.02-5.56-1.48.72-1.38,3.8-1.6,5.53-.52,4.01.28,8.01-1.43,12.06-.39.92-1.46,1.34-1.62,2.45-.22,1.54,1.98.61,2.33,1.76.51,1.67-1.33,1.81-1.97,2.66-.5.67-1.5,2.77-1.92,2.86-2.39.57-6.65-.14-9.47,1.15-.09-13.97-.64-27.87-.58-41.83,2.61-.06,5.25.09,7.87,0,1.12-.04,2.33.59,2.01-1.16Z" fill="#3f87ab"/><path d="M259.1,62.17c.33-.05,1.09.1,1.16,0,.34-.45-.24-5.77,0-6.98h9.29c.31,1.44-1.77,1.81-1.65,3.09.05.57,1.44,3.13,2,3.26,2.97-.86,4.94-3.13,4.3-6.35h1.74v17.14c0,.18.8.82.58,1.45-2.02.14-4.13-.18-6.14-.02-.75.06-1.33.6-1.41.6-1.68.08-6.79-.61-7.22-.52-.26.06-.92.7-.92.81v12.2c0,.23-.6,4.34-.67,4.56-.14.45-.41.76-.86.92l-14.99-1.05-.65.49c-.65,5.28-.37,10.88-1.42,16.01l17.42.86c-5.8-.04-11.63-.02-17.43,0-5.61.02-11.24,0-16.85,0v18.01c-.2.02-.44-.05-.58,0-.4.15-.46.09-.58.58-.39-.02-.78.02-1.16,0-.35-.02-.36,0-.58,0-.19,0-.39,0-.58,0-1.74,0-3.49,0-5.23,0-.39,0-.77,0-1.16,0s-.77,0-1.16,0-.77,0-1.16,0c-1.93,0-3.88,0-5.81,0-.19,0-.39,0-.58,0-3.7-1.07-8.28-.58-12.2-.58,1.61-1.45,11.62,0,12.2-.58l.58-18.01h16.27l1.16-17.43h16.85l.58-18.01h16.27l.58-10.46Z" fill="#448db1"/><path d="M289.3,17.44c.8,1.3,4.85.19,5.23.58,1.16,1.18-1.32,29.1.58,33.11-.04,1.54.03,3.11,0,4.65l-18.01-1.16v19.75h-8.13c.08,0,.66-.55,1.41-.6,2.02-.16,4.12.16,6.14.02.22-.63-.58-1.27-.58-1.45v-17.14h-1.74c.64,3.22-1.33,5.49-4.3,6.35-.56-.13-1.94-2.7-2-3.26-.12-1.27,1.96-1.65,1.65-3.09h-9.29c-.24,1.21.34,6.52,0,6.98-.07.1-.84-.06-1.16,0,.14-2.54.24-5.03.58-7.55h15.97c.64,0,.83-1.42.9-2,1.16-9.88,0-24.72-.03-35.17,4.24-.04,8.54-.07,12.78,0Z" fill="#4189ad"/><path d="M169.64,271.87c1.34-.08,2.72.06,4.07,0l.58,1.16c-.12,2.1,0,4.28,0,6.39-1.7-.34-1.19.92-1.18,2.02.02,2.66.9,5.16.6,7.85-2.54.23-3.72-2.59-5-3.43-.74-.48-2.21-.47-2.45-.74-.34-.39-.42-3.9-1.63-4.59-.68-.1-6.73,1.44-7.09,1.88-.32.38-.07,2.57-.1,3.4-.17,5.78.54,12.41,0,18.01h-.58v-31.37c.19-.01.39,0,.58,0,3.35-.08,6.73-.4,9.88-.58.77-.04,1.55.05,2.32,0Z" fill="#6db9cf"/><path d="M191.13,289.3c.06-.01.28-.87,1.16-.58-1.45,3.51,2,4.72,2.27,5.6.47,1.57-1.63,4.13-1.57,5.05,0,.15.98,2.61,1.1,2.7.18.12,2.16-1.16,3.98.93,1.36,1.56.76,2.97,1.24,4.46.05.15,2.7,2.51.83,2.76-4.37.58-3.72-8.26-6.09-5.81-.98,1.01,1.12,4.41,1.06,4.82-.1.61-1.27,1.22-1.09,2.43.05.32,1.03.26,1.1.36.96,1.46-2.51,2.01-2.72,2.35-.52.83.18,4.42-.09,5.72.68.66,8.29-2.4,4.47,2.15-2.19,2.61-3.98-.38-4.46.18v2.32s31.95.59,31.95.59c.05-1.84-.07-3.7,0-5.55.04-1.12-.6-2.33,1.16-2.01-.03,2.9.02,5.82,0,8.72l-33.73-.84-.54-36.34Z" fill="#34221d"/><path d="M166.15,54.03c.32,1.75-.89,1.12-2.01,1.16-2.62.09-5.26-.06-7.87,0-.05,13.96.5,27.86.58,41.83.02,3.48-.01,6.98,0,10.46h16.85c-.69,2.24-15.32.81-18.01.58,0-.19,0-.39,0-.58.02-.92-.04-2.08-.02-3.17.23-16.52-.83-32.81-.48-49.32.19-.75.71-.83,1.37-.95,2.39-.44,6.86.03,9.59,0Z" fill="#387b9e"/><path d="M122.58,255.6c.02-.39-.03-.78,0-1.16l16.85-.59c.03,11.42-.05,22.86,0,34.28-.97,2.36-.98,6.82,0,9.29.02,3.28-.02,6.59,0,9.88,3.87.02,7.76-.03,11.62,0,.24.9,2.14.87,2.32,0,.39,0,.77,0,1.16,0,.32,1.76-.89,1.12-2.01,1.16-3.17.13-10.03.51-12.81,0-.48-.09-1.45-.46-1.45-.87v-52.57c-5.24.09-10.52-.36-15.68.58Z" fill="#81cfe7"/><path d="M55.78,38.93c1.25,1.26.22,2.85.57,4.28.14.59,1.06.13,1.18.67.29,1.33-.99.58-1.17,1.24-.59,2.1.98,6.83.01,9.5l.58-1.16c5.14,2.42,11.8.61,17.42,1.16v35.43c2.45-.33,5.41-.19,7.89-.03.74.05,1.33.6,1.4.61-3.11,1.33-7.13.23-10.46.58v-36.02c-5.74,1.01-11.62.44-17.43.58v-16.85Z" fill="#6db9cf"/><path d="M1.18,126.65c-.58,23.69.76,47.51.03,71.2-.04,1.23-.6,1.89-.61,2L0,127c-.07-.65.75-.28,1.17-.35Z" fill="#81cfe7"/><path d="M174.28,272.45c1.76-.32,1.12.89,1.16,2.01.19,4.74-.14,9.53,0,14.26.6.6,11.63-.89,13.36.58-.93.06-2.41-.38-2.9.58-3.87.03-7.76-.03-11.62,0,0-3.48,0-6.98,0-10.46,0-2.11-.12-4.29,0-6.39.01-.19-.02-.39,0-.58Z" fill="#34221d"/><path d="M54.62,89.47c.17.77.59,1.5.58,2.32h-18.59s0,17.43,0,17.43c-5.99.01-12.01-.01-18.01,0v17.43c-5.51.28-11.38-.38-16.85,0-.33-1.75.89-1.13,2.01-1.16,4.6-.13,9.52,1.16,14.26.58.22-.63-.58-1.27-.58-1.45v-15.39c6.12-1.18,12.37-1.27,18.59-1.16v-15.97c0-.64,1.42-.83,2-.9,4.64-.54,10.63.68,15.17.08,1.28-.17.71-1.08,1.41-1.79Z" fill="#81cfe7"/><path d="M277.1,113.28c1.33,3.72.23,8.28.58,12.2h17.14c.2,0,1.39.63,1.47.98.57,2.4-.62,16.43-.02,17.03.43.43,3.4-1.04,2.91,1.16-1.23-.06-3.5.49-3.99-.95-1.12-3.37.78-12.2.23-16.42-.05-.39-.06-1.22-.6-1.22h-18.3c.07-4.28.52-8.48.58-12.78Z" fill="#81cfe7"/><path d="M289.3,17.44c1.93.03,3.88-.02,5.81,0-.2,11.21.26,22.48,0,33.7-1.9-4.01.59-31.94-.58-33.11-.39-.39-4.43.72-5.23-.58Z" fill="#387b9e"/><path d="M55.2,56.94v26.72c-.01,1.45.45,3.68-.58,4.65-1.39-9.23-.27-19.29-.56-28.78-.03-1.11.05-2.2-.6-3.17.46.04.94-.09,1.4.05l.34.53Z" fill="#81cfe7"/><path d="M209.14,307.3h16.27c.03,1.54-.04,3.1,0,4.65-1.16-.49-.31-3.21-.58-3.49-.54-.57-13.66.44-15.69,0-.03-.38.03-.78,0-1.16Z" fill="#34221d"/><path d="M209.14,291.04c-.11,5.2-.13,10.47,0,15.68-1.75.32-1.12-.89-1.16-2.01-.15-4.52.04-9.11.08-13.61.33-.25.86.03,1.08-.06Z" fill="#34221d"/><path d="M157.44,285.81l.58,22.07c-.73.26-1.09-.57-1.16-.58v-2.9c.27-.06.56-.32.58-.58.54-5.59-.17-12.23,0-18.01Z" fill="#81cfe7"/><path d="M122.58,258.51l1.14,4.33c-1.4,2.68-.94,5.05-1.72,7.87.19-3.55-.26-7.26-.02-10.79.05-.77.59-1.27.6-1.41Z" fill="#81cfe7"/><path d="M52.3,56.36c-.05.33.1,1.09,0,1.16-.28.21-6.22.25-6.98-.58,1.98-.08,4.31-.72,6.97-.58Z" fill="#81cfe7"/><path d="M123.17,103.99c-.21-1.78-.53-3.07-.58-5.23s.03-4.27,0-6.39c.81,3.85.61,7.59.58,11.62Z" fill="#693f2f"/><path d="M2.34,200.42l3.48,1.16-4.87.02c-.58.09-.39-.79-.35-1.17h1.74Z" fill="#81cfe7"/><path d="M307.89,144.65c-2.12-.04-4.27.04-6.39,0,1.36-.97,4.92-.99,6.39,0Z" fill="#81cfe7"/><path d="M188.81,289.3c.58-.04,1.17.05,1.74,0-.96,1.04-3.19.57-4.65.58.5-.96,1.98-.52,2.9-.58Z" fill="#693f2f"/><path d="M277.1,110.38v-1.16c1.14.26,0,1.04,0,1.16Z" fill="#81cfe7"/><path d="M123.17,108.06l-.58-.3.58-.87c.03.38-.02.78,0,1.16Z" fill="#693f2f"/><path d="M43.58,56.94h.58c-.27.01-.47,0-.58,0Z" fill="#81cfe7"/><path d="M259.1,126.65v107.47c-.69.12-1.14.69-2.58.63-4.54-.2-9.07-1.1-13.69-.63l.58,27.89c0-.08-.55-.66-.6-1.41-.13-1.78.74-6.68-.93-7.23l-33.32-.08c-.12-5.41-.26-11.47,0-16.85.97,0,1.94,0,2.9,0,2.56,0,5.95.49,8.13-.58.39,0,.77,0,1.16,0,1.33-.01,2.76.11,4.07,0,.38-.03.78.03,1.16,0-.92-1.81-.55-3.84-.58-5.8-.08-5.99,0-12.02,0-18.01,0-19.25,1.35-41.67-.58-60.41-.08-.75.11-1.61,0-2.32.95-.75.64-2.84.58-4.07-.03-.55.11-2.18,0-2.32,0-.85-.32-1.49-1.16-1.74-.08-1.15-.15-2.98,0-4.07l.58-1.16c.04-.38.48-1.07.58-1.74.16-1.14.03-2.83,0-4.07,0-.39.02-.78,0-1.16-.05-.83-.09-1.61-.58-2.32.14-.05.38.02.58,0,5.33-.4,11.4.06,16.85,0,3.96-.04,13.94-1.35,16.85,0Z" fill="#eb9e33"/><path d="M189.97,144.65c.09.09,1.39-.32,1.21.83l-.05,88.63c-5.63.12-11.21.47-16.85.58-5.99.12-12.02-.08-18.01,0v-90.04s33.69,0,33.69,0Z" fill="#eb9e33"/><path d="M295.69,172.54c.02-3.28-.02-6.59,0-9.88h17.43c.12,24-.16,48.03,0,72.03h-17.43c.03-15.09-.04-30.22,0-45.31,0-1.35,0-2.71,0-4.07.01-3.86-.02-7.75,0-11.62,0-.39,0-.77,0-1.16Z" fill="#eb9e33"/><path d="M243.41,261.99c.2,3.65-.15,7.38,0,11.04h-33.69c-1.1-5.62-.4-11.43-.59-17.15-.03-.93-.56-1.88-.57-2.6l33.32.08c1.67.55.79,5.45.93,7.23.06.75.6,1.33.6,1.41Z" fill="#e17926"/><path d="M156.28,234.69c5.99-.08,12.02.12,18.01,0,.6,6.16-.81,13.79,0,19.75l-33.7-1.74.59-17.43c5-.83,10.05-.51,15.1-.58Z" fill="#e17926"/><path d="M313.12,234.69c.04,6.02-.22,12.03.58,18.01l-18.59.58c-.04-.77.05-1.56,0-2.33-.32-5.23.03-10.96,0-16.27h18.01Z" fill="#e17926"/><path d="M242.25,108.64v18.01c-5.45.06-11.52-.4-16.85,0v-18.01c5.6,0,11.24.02,16.85,0Z" fill="#e17926"/><polygon points="294.53 254.44 294.53 270.13 277.68 270.71 277.68 253.28 294.53 254.44" fill="#e17926"/><path d="M225.4,212.04c-.95-1.49-1.1-3.76-1.19-5.49-.86-16.34-.32-35.25.01-51.75.02-1.1-.27-2.26.6-3.17,1.93,18.74.59,41.16.58,60.41Z" fill="#34221d"/><path d="M295.69,172.54c0,.39,0,.77,0,1.16-.97,3.33-.98,8.24,0,11.62,0,1.35,0,2.71,0,4.07-.96.6-.58,2.2-.59,3.19-.15,14.03-.06,28.1.01,42.12.03,5.3-.32,11.04,0,16.27-.96-.6-.58-2.2-.59-3.19-.3-28.27.25-56.55,0-84.82.82-.94.57.65.58,1.15.08,2.69-.56,5.98.58,8.43Z" fill="#17131c"/><rect x="191.71" y="145.23" width=".58" height="88.88" fill="#17131c"/><path d="M259.1,181.25c1.76-.32,1.12.89,1.16,2.01.46,11.67.39,24.96,0,36.65-.04,1.12.59,2.33-1.16,2.01v-40.66Z" fill="#17131c"/><path d="M259.1,148.72v-22.07c.8.37.53.72.61,1.41.59,4.8.03,12.35-.02,17.48-.01.98.37,2.58-.59,3.19Z" fill="#17131c"/><path d="M259.1,223.66c1.76-.32,1.12.89,1.16,2.01.11,2.9-.09,5.83,0,8.74-.1.74-.97-.32-1.16-.29v-10.46Z" fill="#17131c"/><path d="M167.31,271.87c-3.15.18-6.53.5-9.88.58-.32-1.76.89-1.12,2.01-1.16,2.38-.09,5.71-.42,7.87.58Z" fill="#34221d"/><path d="M220.76,235.85c-.39,0-.77,0-1.16,0-2.58.03-5.93-.51-8.13.58-.97,0-1.94,0-2.9,0,.02-.39-.03-.78,0-1.16,3.92.35,8.48-.75,12.2.58Z" fill="#34221d"/><path d="M213.2,127.23c-.05.54.31,1.01-.37,1.17-1.17.27-6.36.47-5.44-1.17,1.93,0,3.88,0,5.81,0Z" fill="#34221d"/><path d="M169.64,271.87c-.45-2.23,3.66-.77,5.23-1.16.3.93-.57,1.1-.58,1.16h-.58c-1.35.06-2.72-.08-4.07,0Z" fill="#34221d"/><path d="M225.4,130.13c.03,1.23.16,2.93,0,4.07-1.85.56-1.14-2.38-1.16-4.07h1.16Z" fill="#34221d"/><path d="M225.4,145.23c.06,1.22.37,3.32-.58,4.07-.2-1.27-1.87-4.45.58-4.07Z" fill="#34221d"/><path d="M225.4,230.05c.03,1.96-.34,3.99.58,5.8-.38.03-.78-.03-1.16,0,.25-1.83-.66-4.43.58-5.81Z" fill="#34221d"/><path d="M221.92,127.23c-1.08.98-4.15.98-5.23,0,1.74,0,3.49,0,5.23,0Z" fill="#34221d"/><path d="M225.4,128.97h-1.16c.03-.55-.11-1.3,0-1.74.13-.49.18-.43.58-.58.49.72.53,1.49.58,2.32Z" fill="#34221d"/><path d="M225.4,142.91c-.37-.47-.96,1.27-1.16-1.74.84.25,1.16.89,1.16,1.74Z" fill="#34221d"/><path d="M225.4,128.97c.02.38,0,.78,0,1.16h-1.16c0-.38-.02-.78,0-1.16h1.16Z" fill="#382620"/><path d="M224.24,137.1c.14-1,.57-1.1.58-1.16l-.58,1.16Z" fill="#34221d"/><path d="M174.28,272.45c-.02.19.01.39,0,.58l-.58-1.16h.58c-.04.18.02.39,0,.58Z" fill="#78c3db"/><path d="M215.53,127.23l-.3.58-.87-.58c.39,0,.77,0,1.16,0Z" fill="#34221d"/><path d="M223.08,127.23h-.58c.22,0,.23-.02.58,0Z" fill="#34221d"/><path d="M122,108.06c-.06,30,.04,60.04,0,90.04l-16.27.58v19.17H37.77v-18.01h-17.72v-73.19h17.72l-.58-17.43c21.68-.1,43.39-.13,65.06-.58.52-.01,1.05-.58,1.16-.58,6.18-.15,12.41.11,18.59,0ZM74.95,144.65h-20.91l.58,36.02,20.33-.58v-35.43Z" fill="#693f2f"/><path d="M276.52,17.44c.03,10.45,1.19,25.3.03,35.17-.07.59-.26,2-.9,2h-15.97c-.34,2.52-.44,5.01-.58,7.55l-.58,10.46h-16.27l-.58,18.01h-16.85l-1.16,17.43h-16.27l-.58,18.01c-.58.58-10.59-.88-12.2.58-4.93,0-37.36.86-38.96-.25-.9-.63-.62-13.55-.57-15.76.03-1.09.6-2.16.61-2.57,2.68.23,17.32,1.67,18.01-.58-.59-8.45.88-17.26-.58-25.56-.05-1.35.08-2.72,0-4.07-.04-.77.05-1.55,0-2.32l.58-20.92c5.34-.06,11.26,1.24,16.59.61.59-.07,2-.26,2-.9v-17.14l17.43.58v-19.17c16.89-.95,33.88-.39,50.85-.56,5.21-.05,10.63-.55,15.95-.6Z" fill="#b7e0f3"/><path d="M156.86,306.14c-3.11-.52-8.46.7-11.22.02-.53-.13-.97-1.54-.98-2.05,0-.56,3.57.05,4.66-1.16.77-.84.43-2.49,1.11-2.95.79-.53,2.4.13,3.24-.82.52-.59.7-2.77.87-2.91,1.52-1.3.6,2.6,2.32,1.74v1.16c-.96.73-.96,3.33,0,4.07v2.9Z" fill="#3a2820"/><path d="M139.43,297.43c-.98-2.48-.97-6.94,0-9.29.01,3.09-.02,6.2,0,9.29Z" fill="#78c3db"/><path d="M155.69,253.87c.05,2.38-2.95,2.38-2.9,0h2.9Z" fill="#3a2820"/><path d="M153.37,307.3c-.19.87-2.08.9-2.32,0,.77,0,1.55-.01,2.32,0Z" fill="#78c3db"/><path d="M55.2,83.66v-26.72c-.06,8.9.07,17.82,0,26.72Z" fill="#78c3db"/><path d="M102.25,108.64c-.49-2.17,1.33-2.72,1.16-.58-.11,0-.64.57-1.16.58Z" fill="#34221d"/><path d="M173.12,75.53c.05.77-.04,1.55,0,2.32-1.58,1.18-.16,3.14,0,4.07,1.46,8.3,0,17.11.58,25.56h-16.85c-.01-3.48.02-6.98,0-10.46,2.81-1.29,7.08-.58,9.47-1.15.41-.1,1.41-2.19,1.92-2.86.64-.85,2.49-.99,1.97-2.66-.35-1.15-2.56-.22-2.33-1.76.16-1.11,1.24-1.53,1.62-2.45,1.7-4.05.91-8.05,1.43-12.06.22-1.73.13-4.81,1.6-5.53.14,1.83-.17,3.74-.02,5.56.06.75.6,1.32.6,1.41Z" fill="#448db1"/><path d="M156.86,303.24c-.96-.73-.96-3.33,0-4.07v4.07Z" fill="#34221d"/><path d="M156.86,304.4v-.58h.58c-.03.26-.31.52-.58.58Z" fill="#34221d"/><path d="M219.59,235.85c-2.19,1.07-5.57.58-8.13.58,2.2-1.09,5.56-.55,8.13-.58Z" fill="#3a2820"/><path d="M295.69,234.69h-.58c-.07-14.02-.16-28.1-.01-42.12.01-.98-.37-2.58.59-3.19-.04,15.09.03,30.22,0,45.31Z" fill="#3a2820"/><path d="M295.69,185.32c-.98-3.38-.97-8.29,0-11.62-.02,3.86.01,7.75,0,11.62Z" fill="#3a2820"/><polygon points="74.95 144.65 74.95 180.09 54.62 180.67 54.04 144.65 74.95 144.65" fill="#34221d"/><path d="M173.12,81.92c-.16-.93-1.58-2.89,0-4.07.08,1.35-.05,2.72,0,4.07Z" fill="#3f87ab"/></g></svg>