<?xml version="1.0" encoding="UTF-8"?><svg id="Layer_2" xmlns="http://www.w3.org/2000/svg" viewBox="0 0 298.53 186.49"><g id="Layer_1-2"><path d="M20.67,134c.94,3.35.94,6.74,0,10.09,1.19,3.54,1.19,7.03,0,10.57,1.2,3.38,1.18,6.7,0,10.09-3.52-.02-7.06.01-10.57,0,0-3.36.02-6.74,0-10.09s.01-7.05,0-10.57c-1.2-3.38-1.19-6.7,0-10.09.04-.37.16-.93.42-.96,1.21-.12,9.36-.13,9.83.32.16.16.25.39.32.64Z" fill="#2a293b"/><path d="M30.76,164.76c1.2,3.38,1.18,6.7,0,10.09-3.36-.02-6.74.01-10.09,0,0-3.36.02-6.74,0-10.09,3.39-1.18,6.71-1.2,10.09,0Z" fill="#2e2b3b"/><path d="M112.92,21.08c1.31,3.5,1.33,7.08,0,10.57,1.31,3.33,1.33,6.76,0,10.09-3.54,1.21-7.03,1.2-10.57,0-3.23,1.39-6.87,1.42-10.09,0,0-3.36.02-6.73,0-10.09,3.16-.77,6.37-1.18,9.57-.57-.69-3.37-.53-6.71.52-10,.04-.37.16-.93.42-.96,1.21-.12,9.36-.13,9.83.32.16.16.25.39.32.64Z" fill="#2c2c3d"/><path d="M10.1,123.91c.95,3.35.94,6.74,0,10.09-3.38,1.19-6.7,1.18-10.09,0-.02-3.36,0-6.73,0-10.09l.54-.96h8.87l.68.96Z" fill="#2b2a3c"/><path d="M205.18,174.85c.1-.37.25-.93.54-.96.87-.11,8.47-.18,8.87,0,.36.16.53.58.68.96.37.05.93.15.96.42.11.89.16,8.93,0,9.46l-.96.68-.54.96h-8.87l-.68-.96c-.05.37-.15.93-.42.96-.89.11-8.92.16-9.46,0l-.68-.96h-20.18c-.37-.04-.93-.16-.96-.42-.12-1.21-.13-9.36.32-9.83.16-.16.39-.25.64-.32l.45-.96h29.72l.58.96Z" fill="#2a283b"/><path d="M174.43,174.85v10.57c-3.52,0-7.05,0-10.57,0-3.35.94-6.74.95-10.09,0-.37-.04-.93-.16-.96-.42-.12-1.21-.13-9.36.32-9.83.16-.16.39-.25.64-.32,6.88-.94,13.78-.94,20.66,0Z" fill="#282738"/><path d="M51.42,174.85c3.35-.94,6.74-.95,10.09,0,.95,3.51.95,7.06,0,10.57-6.88,0-13.78.03-20.66,0,.01-3.52.01-7.06,0-10.57,3.55-1.19,7.03-1.19,10.57,0Z" fill="#2a283a"/><path d="M10.1,134c0,3.36,0,6.73,0,10.09H0c0-3.36.02-6.73,0-10.09,3.36-.02,6.73,0,10.09,0Z" fill="#0f1130"/><path d="M40.85,93.16c1.17-.26,2.34-.49,3.52-.64,2.36-.29,6.93-.81,7.56.06,1.31,1.81.17,7.94-.51,10.67,1.21,3.38,1.2,6.7,0,10.09l.96.55v8.37l-.96.69-.75.73c-6.07.69-12.17,1.1-18.28,1.22-.58.33-.16,7.2.11,8.25l-.78.86c0-.37.09-.95.32-.96,2.29-.12,18-.48,18.81,0l.57.96c.37.1.93.25.96.54.12,1.18.13,8.78-.32,9.24-.16.16-.39.25-.64.31-3.19,1.09-6.52,1.06-9.84.94l-10.05.92-.76-.9c-3.03-.02-6.16-.02-9.41,0l-.68-.96c0-3.36,0-6.73,0-10.09-.94-3.35-.94-6.74,0-10.09l-.96-.55v-8.37l.96-.69.28-.98,18.99-.9c-.21-6.44.16-12.87.91-19.27Z" fill="#f8e2b8"/><path d="M20.67,123.91c0,3.36,0,6.73,0,10.09h-10.57c0-3.36,0-6.73,0-10.09.04-.37.16-.93.42-.96,1.21-.12,9.36-.13,9.83.32.16.16.25.39.32.64Z" fill="#2b2637"/><path d="M20.67,144.09h9.78c.46.11.27.64.31.96l1.04.75c.45,1.25.3,8.07-1.04,8.87l-.54.96h-8.87l-.68-.96c-.01-3.52,0-7.05,0-10.57Z" fill="#efd399"/><path d="M30.76,154.67c1.41,3.23,1.38,6.86,0,10.09-3.36,0-6.73.02-10.09,0-.02-3.36.01-6.73,0-10.09h10.09Z" fill="#282739"/><path d="M40.85,164.76c1.2,3.38,1.19,6.7,0,10.09-3.36-.01-6.73.02-10.09,0-.02-3.36.01-6.73,0-10.09,3.39-1.19,6.71-1.19,10.09,0Z" fill="#27283b"/><path d="M92.26,51.83c.95,3.51.95,7.06,0,10.57-.1.37-.25.93-.54.96-1.18.12-8.78.13-9.24-.32-.16-.16-.25-.39-.31-.64.03-2.94-.35-6.85,0-9.61.04-.32-.15-.84.31-.97,3.26-.01,6.53.03,9.78,0Z" fill="#262639"/><path d="M102.35,41.74l.96.54v8.88l-.96.68c-3.33,1.33-6.76,1.3-10.09,0,0-3.36,0-6.73,0-10.09,3.36.04,6.73,0,10.09,0Z" fill="#2a293d"/><path d="M112.92,41.74c.7,2.56,1.79,9.45.54,10.65-1.35,1.3-8.4.1-11.11-.55v-10.09c3.52,0,7.05.02,10.57,0Z" fill="#fbe8b9"/><path d="M123.02,21.08c1.2,3.55,1.21,7.03,0,10.57-.1.37-.25.93-.54.96-1.18.12-8.78.13-9.24-.32-.16-.16-.25-.39-.31-.64.02-3.52-.02-7.05,0-10.57.1-.37.25-.93.54-.96,2.05-.21,6.83-.21,8.87,0l.68.96Z" fill="#262435"/><path d="M123.02,31.65c.69,2.58,1.81,9.38.55,10.64s-8.06.14-10.64-.55c.02-3.36-.01-6.73,0-10.09h10.09Z" fill="#fae3b7"/><path d="M297.43,103.25v10.09c.37.05.92.15.96.42.17,1.03.2,8.5,0,9.46l-.96.68.96.54v8.88l-.96.68c-.05.37-.15.92-.42.96-1.03.17-8.5.2-9.46,0l-.68-.96c-1.32-6.85-1.29-13.81,0-20.66-1.33-3.33-1.3-6.75,0-10.09.04-.37.16-.93.42-.96,1.21-.12,9.36-.13,9.83.32.16.16.25.39.32.64Z" fill="#2a273a"/><path d="M297.43,93.16v10.09h-10.57c-1.45-3.13-1.39-6.95,0-10.09,3.52,0,7.05-.01,10.57,0Z" fill="#2b2636"/><path d="M10.1,113.34c.94,3.51.94,7.06,0,10.57H0c0-3.52-.02-7.06,0-10.57h10.09Z" fill="#232337"/><path d="M92.26,174.85c3.35-.94,6.74-.95,10.09,0,1.19,3.54,1.18,7.03,0,10.57-10.24,0-20.51,0-30.75,0-.37-.05-.93-.16-.96-.42-.1-.92-.19-9.03,0-9.46.16-.36.58-.54.96-.68,6.88-.94,13.78-.95,20.66,0Z" fill="#2b2a3b"/><path d="M153.77,164.76c3.35-.94,6.74-.94,10.09,0,3.51-.94,7.06-.95,10.57,0,3.35-.94,6.74-.95,10.09,0,6.88-.94,13.78-.95,20.66,0l.96.54v8.88l-.96.68h-30.75c-6.88,0-13.78,0-20.66,0-13.61.95-27.24.95-40.84,0-3.51.94-7.06.95-10.57,0-.37-.1-.93-.25-.96-.54-.21-2.05-.21-6.83,0-8.88l.96-.68c17.13-1.19,34.28-1.19,51.41,0Z" fill="#f2d499"/><path d="M225.36,174.85c.37.05.93.15.96.42.11.89.16,8.93,0,9.46l-.96.68h-10.09v-10.57c.1-.37.25-.93.54-.96.87-.11,8.47-.18,8.87,0,.36.16.53.58.68.96Z" fill="#2a2b3c"/><path d="M215.27,164.76c.37.1.93.25.96.54.1.89.22,8.49,0,8.88-.2.36-.58.55-.96.68h-10.09v-10.09c3.35-.94,6.74-.95,10.09,0Z" fill="#f2d59c"/><path d="M112.92,174.85c1.33,3.49,1.31,7.08,0,10.57-3.52,0-7.05,0-10.57,0-.01-3.52,0-7.05,0-10.57,3.52,0,7.05,0,10.57,0Z" fill="#272537"/><path d="M153.77,174.85v10.57c-6.88,0-13.78,0-20.66,0-6.72,0-13.46,0-20.18,0-.02-3.52.01-7.05,0-10.57,13.61,0,27.24,0,40.84,0Z" fill="#2a283b"/><path d="M266.68,174.85c.37.05.93.15.96.42.11.89.16,8.93,0,9.46l-.96.68h-10.57c-1.18-3.55-1.19-7.03,0-10.57.05-.37.15-.92.42-.96,1.01-.15,8.61-.2,9.46,0l.68.96Z" fill="#27263b"/><path d="M276.77,174.85c1.49,3.07,1.4,7.45,0,10.57h-10.09v-10.57c.1-.37.25-.93.54-.96.87-.11,8.47-.18,8.87,0,.36.16.53.58.68.96Z" fill="#0f112e"/><path d="M51.42,164.76c.37.1.93.25.96.54.21,2.05.21,6.83,0,8.88l-.96.68c-3.52,0-7.05.01-10.57,0-.01-3.36.02-6.73,0-10.09,3.51-.94,7.06-.95,10.57,0Z" fill="#7c695c"/><path d="M71.6,174.85v10.57c-3.36,0-6.73,0-10.09,0,0-3.52,0-7.05,0-10.57,3.35-.94,6.74-.95,10.09,0Z" fill="#262436"/><path d="M61.51,164.76c.37.1.93.25.96.54.1.89.22,8.49,0,8.88-.2.36-.58.55-.96.68-3.36,0-6.73,0-10.09,0v-10.09c3.35-.94,6.74-.95,10.09,0Z" fill="#f5d19a"/><path d="M143.68,21.08c.37.04.94.16.96.42.11,1.17.2,10.66-.6,10.79-3.7.58-7.35.46-10.93-.64,1.33,3.33,1.31,6.76,0,10.09,0-.37.09-.95.32-.96,5.17-.29,11.72-.25,16.89,0,1.83-.33,2.98-.01,3.45.96,1.33,3.33,1.31,6.76,0,10.09,1.18,3.07,1.14,6.38.82,9.61h8.59s.68.96.68.96c1.18,3.39,1.2,6.71,0,10.09l-.55.96h-8.62l-.68-.96c.24,3.08.33,6.26.28,9.54l-1,.55c-3.17,1.33-6.44,1.31-9.61,0,.37.05.93.15.96.42.11.89.16,8.93,0,9.46l-.96.68c-6.81,1.38-13.86,1.42-20.66,0-1.18-3.55-1.2-7.03,0-10.57l.54-.96h8.87l.68.96-.96-.55v-8.62l.96-.68c-6.25.32-12.62.6-19.1.84l-1.08-1.08.96.32v19.77l-.96.56c3.39-1.19,6.71-1.2,10.09,0,.86,3.41,1.24,6.91,1.13,10.51l6.29.1c6.11-2.57,15.18-1.91,22-1.38l1.33.87c.37,0,.94.09.96.32.33,4.64.62,14.95,0,19.29l-.96.57c.66-.38,1.36-.69,2.13-.73,2.42-.12,16.45.09,17.5.58.37.17.7.39,1.03.64.94,3.35.94,6.74,0,10.09-3.54,1.2-7.02,1.19-10.57,0-6.69,1.34-13.49,1.31-20.18,0,.37.1.93.25.96.54.1.89.22,8.49,0,8.88-.2.36-.58.55-.96.68,6.69-1.31,13.49-1.34,20.18,0,3.55-1.18,7.03-1.19,10.57,0,.37.05.92.15.96.42.14.99.19,8.67,0,9.46l-.96.68c-3.49,1.33-7.07,1.31-10.57,0-2.97.96-6.04,1.2-9.13.82v8.6s-.96.68-.96.68c-17.13,0-34.28,0-51.41,0-3.35.94-6.74.95-10.09,0-.63-2.96-1.02-5.95-1.14-8.98-6.18-.48-12.33-.66-18.45-.54-.18,3-.2,6-.06,9.02l-1.01.5c-3.35.94-6.74.95-10.09,0-3.36,0-6.73,0-10.09,0-3.52,0-7.05,0-10.57,0-1.06-3.12-1.2-6.3-.51-9.52-3.21.61-6.42.19-9.58-.57-.03-2.94.35-6.85,0-9.61l10.79-.98c3.29.03,6.59.02,9.87.02,3.03-.94,6.1-.94,9.13,0,1.64-.08.96,1.56-.38,1.95l-6.26.02c-.15,1.07-.46,6.11.31,6.5l16.86.64.53.98-.96-.54v-8.88l.96-.68c0-.37.09-.95.32-.96,5.17-.29,11.72-.25,16.89,0,1.83-.33,2.98-.01,3.45.96l-.96-.54v-8.88l.96-.68c0,.37-.08.93-.32.96-4.69.6-14.86.36-19.77,0l-.56-.96-.96-.54v-8.88l.96-.68c0-.37.09-.95.33-.96,2.33-.12,18.22-.48,19.04,0l.57.96c-.11-3.21-.19-6.54-.23-9.97l.96-.6c-.94-3.35-.95-6.74,0-10.09l-.54.96h-8.87l-.68-.96c.37.1.93.26.96.55.13,1.13.13,8.28-.32,8.74-.16.16-.39.25-.64.32-2.81,1.5-7.77,1.51-10.57,0l-.96-.55v-8.06s-18.65-.04-18.65-.04l-.57-.96c-.02-3.36.01-6.74,0-10.09-3.52,0-7.06,0-10.57,0-.37-.05-.93-.16-.96-.42-.1-.92-.19-9.03,0-9.46.16-.36.58-.54.96-.68,0-.37.09-.94.32-.96,4.92-.36,15.08-.6,19.77,0l.56.96c.37.05.93.15.96.42.11.89.16,8.93,0,9.46l-.96.68.54-.96h8.87l.68.96c-1.19-3.55-1.2-7.03,0-10.57.05-.37.16-.93.42-.96.92-.1,9.03-.19,9.46,0,.36.16.54.58.68.96,1.2,3.54,1.19,7.03,0,10.57l.54-.96h8.87l.68.96c-1.19-3.55-1.2-7.03,0-10.57-1.18-3.39-1.2-6.71,0-10.09l.54-.96h8.57c-.07-3.08-.03-6.17.98-9.13-1.18-3.55-1.19-7.03,0-10.57,3.52-.02,7.06.01,10.57,0,0-3.36-.02-6.74,0-10.09,3.36-.02,6.74.01,10.09,0,0-3.36-.02-6.74,0-10.09,3.38-1.19,6.7-1.18,10.09,0-1.33-3.49-1.31-7.08,0-10.57,3.51-.94,7.06-.95,10.57,0Z" fill="#fae4ba"/><path d="M51.42,122.95c3.2.15,6.41.13,9.64-.07l.45,1.03c.47,2.14.91,4.3.96,6.5.1,4.33.12,8.7.04,13.03-.02,1.4-1.53,2.22-1.96.66-3.04,0-6.09,0-9.13,0v-10.09h-19.7c-.55-1.55-.93-9.25-.03-9.88.81-.56,6.74-.09,8.41-.24,1.87-.16,9.77-1.95,11.32-.93Z" fill="#fae4bb"/><path d="M40.85,93.16c0,6.72,0,13.46,0,20.18l-20.18.96c-.37-.1-.92-.25-.96-.55-.14-1.1-.2-9.01,0-9.8l.96-.69c3.13-1.04,6.33-1.22,9.55-.54-.68-3.22-.5-6.42.54-9.55.1-.37.25-.93.54-.96,2.05-.21,6.83-.21,8.87,0l.68.96Z" fill="#fae4bb"/><path d="M20.67,103.25v20.66h-10.57c0-3.52,0-7.05,0-10.57s0-6.73,0-10.09c3.49-1.33,7.07-1.31,10.57,0Z" fill="#292a3a"/><path d="M51.42,103.25h20.18s0,9.61,0,9.61c-2.36,1.55-7.71,1.99-10.09.48-3.35.95-6.74.94-10.09,0,0-3.36.02-6.73,0-10.09Z" fill="#fae4bb"/><path d="M61.51,113.34c.37.05.93.15.96.42.11.89.16,8.93,0,9.46l-.96.68c-2.64-.46-7.47.62-9.78,0-.51-.14-.27-.94-.32-.97v-9.61c3.36,0,6.73,0,10.09,0Z" fill="#f9e2b6"/><path d="M30.76,154.67c3.36,0,6.74,0,10.09,0,0,3.36-.02,6.74,0,10.09-3.36,0-6.73,0-10.09,0-.01-3.36.03-6.73,0-10.09Z" fill="#f0d299"/><path d="M71.6,62.4c.37.1.93.25.96.54.1.89.22,8.49,0,8.88-.2.36-.58.55-.96.68,1.2,3.39,1.21,6.71,0,10.09-.1.37-.25.93-.54.96-1.18.12-8.78.13-9.24-.32-.16-.16-.25-.39-.31-.64h-20.66l-.54.96h-8.87l-.68-.96c-1.31-3.33-1.33-6.76,0-10.09,3.36-.02,6.73.02,10.09,0,3.12-.97,6.37-1.2,9.61-.82v-8.6s.96-.68.96-.68c6.72-.02,13.46,0,20.18,0Z" fill="#2b293a"/><path d="M51.42,62.4v10.09c-3.52,0-7.05-.02-10.57,0v-10.09c3.52-.02,7.05.01,10.57,0Z" fill="#38313b"/><path d="M92.26,62.4c1.19,3.39,1.2,6.71,0,10.09,0,3.36.02,6.73,0,10.09-.1.37-.25.93-.54.96-1.18.12-8.78.13-9.24-.32-.16-.16-.25-.39-.31-.64-1.2-3.38-1.19-6.7,0-10.09,0-3.36-.03-6.74,0-10.09h10.09Z" fill="#2e2c3d"/><path d="M102.35,51.83c0,3.52.02,7.05,0,10.57l-.54.96h-8.87l-.68-.96c0-3.52,0-7.05,0-10.57,3.36-.02,6.73.02,10.09,0Z" fill="#2a293b"/><path d="M133.11,10.99c3.55-1.2,7.03-1.21,10.57,0,3.43-1.12,6.89-1.19,10.44-.64.82.13.73,8.9.61,10.06l-.96.68c-3.35.94-6.74.94-10.09,0-3.52,0-7.05,0-10.57,0-.1.37-.25.93-.54.96-1.18.12-8.78.13-9.24-.32-.16-.16-.25-.39-.31-.64-.37-.1-.93-.25-.96-.54-.11-.87-.18-8.47,0-8.88.16-.36.58-.53.96-.68,3.36-.02,6.73,0,10.09,0Z" fill="#2b2a3c"/><path d="M153.77.9c3.35-.95,6.74-.95,10.09,0,.25.03.48.08.64.22.47.4.43,8.12.32,9.2l-.96.68c.25.03.48.08.64.22.47.4.43,8.12.32,9.2l-.96.68c-3.39,1.19-6.71,1.19-10.09,0v-10.09c-3.36,0-6.73.02-10.09,0-1.43-.62-1.11-5.2-.96-6.99-.32-1.63,0-2.66.96-3.1,3.36-.02,6.73,0,10.09,0Z" fill="#292839"/><path d="M143.68.9v10.09c-3.52-.02-7.05,0-10.57,0V.89c3.52,0,7.05.02,10.57,0Z" fill="#1c1436"/><path d="M123.02,10.99v10.09h-10.09c.02-3.36-.01-6.74,0-10.09,3.36,0,6.74.02,10.09,0Z" fill="#2d2d36"/><path d="M133.11,21.08c.01,3.52-.02,7.05,0,10.57-3.36.02-6.73,0-10.09,0,.02-3.52,0-7.05,0-10.57h10.09Z" fill="#f8dfbb"/><path d="M215.27,31.65c0,6.72-.03,13.46,0,20.18-3.39,1.19-6.71,1.2-10.09,0-.95-3.35-.95-6.74,0-10.09-.94-3.35-.94-6.74,0-10.09,3.39-1.19,6.71-1.19,10.09,0Z" fill="#2b283a"/><path d="M225.36,51.83c1.18,3.55,1.2,7.03,0,10.57-.1.37-.25.93-.54.96-1.18.12-10.07.19-10.19-.6-.58-3.7-.46-7.35.64-10.93,3.36,0,6.73,0,10.09,0Z" fill="#29213c"/><path d="M297.43,144.09v10.57c-.05.37-.15.92-.42.96-.99.14-8.67.19-9.46,0l-.68-.96c-.94-3.51-.94-7.06,0-10.57,3.54-1.19,7.03-1.18,10.57,0Z" fill="#28273a"/><path d="M297.43,154.67v10.09c-3.52-.02-7.05.01-10.57,0-.94-3.35-.95-6.74,0-10.09h10.57Z" fill="#282234"/><path d="M276.77,82.59l.55-.96h8.37l.69.96c.16,3.4.43,6.99.48,10.57-3.35.94-6.74.95-10.09,0-3.35.94-6.74.95-10.09,0-.37-.04-.83-.12-.96-.42-.19-.43-.11-8.51,0-9.46l.96-.68.54-.96h8.87l.68.96Z" fill="#2b283b"/><path d="M276.77,113.34c.6-1.42,5.23-1.12,6.99-.96,1.63-.32,2.66,0,3.1.96.03,6.88,0,13.78,0,20.66.95,3.35.94,6.74,0,10.09-.1.37-.25.93-.54.96-1.18.12-8.78.13-9.24-.32-.16-.16-.25-.39-.31-.64-1.34-6.69-1.31-13.49,0-20.18-.1.37-.25.93-.54.96-.89.1-8.49.22-8.87,0-.36-.2-.55-.58-.68-.96-1.2-3.54-1.18-7.03,0-10.57,3.39-1.18,6.71-1.19,10.09,0Z" fill="#f9e5bb"/><path d="M297.43,134v10.09c-3.52.02-7.05,0-10.57,0,0-3.36,0-6.73,0-10.09h10.57Z" fill="#262436"/><path d="M286.86,103.25c.03,3.36-.02,6.73,0,10.09h-10.09c-.37-.1-.93-.25-.96-.54-.1-.89-.26-8.52,0-8.88.25-.34.54-.58.96-.68l.54-.96h8.87l.68.96Z" fill="#f5e0ae"/><path d="M286.86,93.16c.05,3.36-.03,6.74,0,10.09h-10.09c-.37-.1-.93-.25-.96-.54-.1-.89-.26-8.52,0-8.88.25-.34.54-.58.96-.68,3.36,0,6.73,0,10.09,0Z" fill="#2c2d3e"/><path d="M30.76,82.59c1.31,3.5,1.33,7.08,0,10.57-.02,3.36.01,6.74,0,10.09-3.36,0-6.74-.02-10.09,0-3.52.02-7.05-.02-10.57,0v-10.09h10.57c.01-3.51-.02-7.05,0-10.57l.54-.96h8.87l.68.96Z" fill="#2b2a3c"/><path d="M71.6,164.76c6.88-.94,13.78-.95,20.66,0,.95,3.35.94,6.74,0,10.09-6.88,0-13.78,0-20.66,0-3.36,0-6.73,0-10.09,0v-10.09c3.36,0,6.73,0,10.09,0Z" fill="#f2d399"/><path d="M102.35,164.76v10.09c-3.36,0-6.73,0-10.09,0,0-3.36,0-6.73,0-10.09,3.36,0,6.73,0,10.09,0Z" fill="#f1d098"/><path d="M205.18,154.67c1.37.03,1.31,1.12,0,1.44.37.05.9.15.96.43.11.58.13,7.02,0,7.53l-.96.69c-6.88,0-13.78,0-20.66,0-.37-.1-.93-.25-.96-.54-.21-2.05-.21-6.83,0-8.88l.96-.68c0-.37.09-.95.32-.96,5.19-.29,11.68-.23,16.89,0,1.83-.33,2.98-.01,3.45.96Z" fill="#fae7be"/><path d="M184.52,144.09c1.35,3.4,1.38,7.18,0,10.57v10.09c-3.36,0-6.73,0-10.09,0-.37-.1-.93-.25-.96-.54-.21-2.05-.21-6.83,0-8.88l.96-.68v-10.57l.54-.96h8.87l.68.96Z" fill="#fbe3ba"/><path d="M174.43,154.67v10.09c-3.52,0-7.05,0-10.57,0-.37-.1-.93-.25-.96-.54-.21-2.05-.21-6.83,0-8.88l.96-.68c3.52-.02,7.05.01,10.57,0Z" fill="#fbe4bc"/><path d="M163.86,154.67v10.09c-3.36,0-6.73,0-10.09,0v-10.09c3.35,0,6.73.02,10.09,0Z" fill="#fbe2b8"/><path d="M235.93,174.85c0-.37.08-.93.32-.96,4.61-.57,14.5-.37,19.29,0l.57.96c0,3.52.01,7.05,0,10.57h-30.75v-10.57c.05-.37.15-.92.42-.96,1.01-.15,8.61-.2,9.46,0l.68.96Z" fill="#2a283a"/><path d="M225.36,164.76l.96.54v8.88l-.96.68h-10.09v-10.09c3.35-.94,6.74-.95,10.09,0Z" fill="#f3d499"/><path d="M205.18,134c3.39-1.21,6.71-1.21,10.09,0,3.24-1.38,6.87-1.42,10.09,0,.8-1.4,4.7-1.2,6.42-1.05,2.24-.11,6.59.39,5.11,3.21,1.56.62,1.49,6.21,0,6.97.02-.37.14-.94.37-.94,2.34,0,17.34.48,18.33.91.38.16,1.16.55,1.17.63.55,3.7.45,7.35-.66,10.93,3.54-1.2,7.03-1.19,10.57,0,.37.1.93.25.96.54.21,2.05.21,6.83,0,8.88l-.96.68c-3.51.94-7.06.95-10.57,0-1.2-3.38-1.18-6.7,0-10.09-6.49,1.27-13.11,1.2-19.66.56.59,3.19.27,6.38-.52,9.53-3.51.94-7.06.95-10.57,0-3.36,0-6.73,0-10.09,0s-6.73,0-10.09,0v-8.65c.06-.38.17-.95.45-1.01,2.04-.4,6.8-.86,8.87-.85l.77.89-.96-.55v-9.8l.96-.69c-3.33,1.31-6.76,1.33-10.09,0-3.48,1.18-7.32,1.31-10.93.64-.81-.15-.72-8.88-.61-10.06l.96-.68c3.49-1.34,7.07-1.31,10.57,0Z" fill="#fbe3bb"/><path d="M266.68,164.76c.37.1.93.25.96.54.21,2.05.21,6.83,0,8.88l-.96.68h-10.57c-.94-3.35-.94-6.74,0-10.09,3.52,0,7.05,0,10.57,0Z" fill="#c3ae7f"/><path d="M276.77,164.76c1.33,3.33,1.3,6.75,0,10.09h-10.09v-10.09c3.35-.94,6.74-.95,10.09,0Z" fill="#272437"/><path d="M153.77,21.08c3.36,0,6.73,0,10.09,0,3.55-1.19,7.03-1.2,10.57,0,.25.87.47,1.75.64,2.64.43,2.36.79,6.59-.06,8.45-.41.89-8.87.56-11.14-.52-3.01,1.33-6.12,1.31-9.13,0,1.37-.4,1.14,7.8.96,8.21-.16.36-.58.54-.96.68,2.75-.24,5.59-.32,8.53-.24l.59.97c1.04-.21,11.08-.88,11.2.13.83,6.87.54,14.21-.63,21.02,1.02,3.14,1.26,6.36.58,9.6,3.14-.72,6.52-.87,9.51.49.37,0,.94.09.96.32.39,5,.56,14.93,0,19.77l-.96.56-.54.96h-8.87l-.68-.96c1.19,3.39,1.2,6.71,0,10.09-3.51.95-7.06.94-10.57,0-1.33-3.33-1.31-6.76,0-10.09-1.05-3.29-1.23-6.65-.55-10.03-3.22.68-6.41.51-9.54-.54-.09.43-.25.41-.48,0,.23-1.41-.61-10.09.72-10.09h9.85c0-3.36-.01-6.73,0-10.09-.95-3.13-1.21-6.37-.82-9.61h-8.59s-.68-.96-.68-.96c-.02-3.36.02-6.73,0-10.09h-20.66c-.01-3.36.02-6.73,0-10.09,3.52-.02,7.06.01,10.57,0v-10.57c3.35,0,6.73,0,10.09,0Z" fill="#fbe3ba"/><path d="M82.17,112.86c2.58-1.23,7.16-.62,10.09.48,0,2.59.42,7.09,0,9.37-.07.4-.38,1.2-.72,1.2h-19.94v10.09h20.66v10.09h-20.66v10.09l-18.29-.69c-.65-.45-.69-7.34-.24-7.99.76-1.09,5.68-.05,7.16-.44.53-.14.26-.91.32-.97.08-.08,1.15.27,1-.69-.07-6.5-.04-13-.04-19.5v-10.57c3.33,0,6.98-.48,10.09-.48,3.37,0,7.14-.01,10.57,0Z" fill="#f8e4b9"/><path d="M153.29,82.59c.16,0,.32,0,.48,0l.96.43v9.15s8.45.03,8.45.03l.68.96c.02,3.36-.02,6.73,0,10.09,1.02,3.14,1.26,6.37.59,9.61,3.26-.73,6.9-.97,9.98.48,1.19,3.55,1.19,7.03,0,10.57-6.86,0-13.9.38-20.66-.48v-20.18c-6.09.58-13.57-.78-19.48-.02-1.48.19-2.02,1.22-3.37,1.44-2.38.39-5.44-.23-7.91.03.02-3.84-.02-7.7,0-11.54,6.88.03,13.78-.02,20.66,0v-10.57c3.2-.01,6.41.02,9.61,0Z" fill="#fbe4bc"/><path d="M123.02,93.16c-3.36-.02-6.73.01-10.09,0v-20.66c5.91.79,12.81-1.18,18.52-.5.48.06,1.66.22,1.66.75v9.85h-10.09c-.01,3.52.02,7.05,0,10.57Z" fill="#f9e1b9"/><path d="M71.6,164.76c.28-1.77-.58-9.65.45-10.36,1.94-1.35,16.83,1.11,20.21.27,0,3.36,0,6.74,0,10.09-6.88,0-13.78,0-20.66,0Z" fill="#fbe4bc"/><path d="M163.86,134c.25.03.48.08.64.22.47.4.43,8.12.32,9.2l-.96.68c-6.72-.02-13.46.02-20.18,0v-10.09c6.72-.02,13.46.02,20.18,0Z" fill="#fbe4bc"/><path d="M174.43,134l.96.54v8.88l-.96.68c-3.52,0-7.05.01-10.57,0v-10.09c3.52-.01,7.05.02,10.57,0Z" fill="#f9e4b8"/><path d="M92.26,82.59c-.02,3.52.01,7.05,0,10.57h-10.09c-.01-3.52.02-7.05,0-10.57h10.09Z" fill="#191d30"/><path d="M71.6,82.59c-.02,3.52.01,7.05,0,10.57h-10.09v-10.57h10.09Z" fill="#f8e3b7"/><path d="M40.85,82.59v10.57h-10.09c.02-3.52-.02-7.05,0-10.57h10.09Z" fill="#302e3d"/><path d="M82.17,72.5c0,3.36-.02,6.73,0,10.09h-10.57c.02-3.36,0-6.73,0-10.09h10.57Z" fill="#2d2a3d"/><path d="M153.77,51.83h10.09c-.01,3.52.01,7.05,0,10.57h-10.09c-.01-3.51.02-7.05,0-10.57Z" fill="#f7e1b6"/><path d="M102.35,62.4c-.02,3.36.01,6.74,0,10.09h-10.09c0-3.36,0-6.74,0-10.09h10.09Z" fill="#edd9be"/><path d="M184.52,123.91l.85.71c.11.98.49,8.53.21,8.87-2.07,2.51-7.83,1.47-11.15.52,0-3.36,0-6.73,0-10.09l.54-.96h8.87l.68.96Z" fill="#fbe3ba"/><rect x="123.02" y="123.91" width="10.09" height="10.09" fill="#fae1b6"/><path d="M82.17,112.86v-9.61h10.09c0,3.36,0,6.73,0,10.09-2.97-.03-5.95.03-8.93.02-.62,0-1.1-.5-1.16-.5Z" fill="#f6e1b6"/><path d="M174.43,10.99c1.19,3.39,1.2,6.71,0,10.09-3.52-.02-7.05.01-10.57,0v-10.09c.05-.37.13-.89.42-.96.7-.18,8.48-.14,9.46,0l.68.96Z" fill="#2f2b3e"/><path d="M174.43.9c.95,3.35.95,6.74,0,10.09h-10.57V.9c3.55-1.19,7.03-1.2,10.57,0Z" fill="#2c273a"/><path d="M184.52,10.99h10.09c1.18,3.39,1.2,6.71,0,10.09.93,3.51.93,7.06,0,10.57-3.39,1.18-6.71,1.2-10.09,0-.37-.04-.93-.16-.96-.42-.12-1.21-.13-9.36.32-9.83.16-.16.39-.25.64-.32-3.39,1.19-6.71,1.2-10.09,0,.02-3.36,0-6.73,0-10.09.1-.37.25-.93.54-.96,2.05-.21,6.83-.21,8.87,0l.68.96Z" fill="#2b283b"/><path d="M246.02,72.5c3.36,0,6.73,0,10.09,0,.37.1.93.25.96.54.12,1.18.13,8.78-.32,9.24-.16.16-.39.25-.64.31,0,.37-.09.95-.32.96-4.93.27-12.44.44-17.25,0-1.45.3-2.31-.03-2.61-.96-.04.37-.16.94-.42.96-2.28.22-7.16.22-9.46,0l-.68-.96c-.37-.1-.93-.25-.96-.54-.21-2.05-.21-6.83,0-8.88l.96-.68c6.88,0,13.78,0,20.66,0Z" fill="#272638"/><path d="M266.68,72.5c.37.1.93.25.96.54.21,2.05.21,6.83,0,8.88l-.96.68c-.04.37-.16.94-.42.96-2.28.22-7.16.22-9.46,0l-.68-.96v-10.09c3.52.01,7.05-.02,10.57,0Z" fill="#2d2d3b"/><path d="M276.77,72.5v10.09h-10.09v-10.09c3.36.01,6.74-.06,10.09,0Z" fill="#211835"/><path d="M215.27,51.83c.02,3.52,0,7.06,0,10.57h10.09c0,3.35,0,6.73,0,10.09l-.54.96h-8.87l-.68-.96-.54.96h-8.87l-.68-.96c-.43-.09-.41-.25,0-.48-1.2-3.23-1.19-6.38,0-9.61-.95-3.51-.94-7.06,0-10.57,3.36.02,6.73,0,10.09,0Z" fill="#2e2c3f"/><path d="M205.18,41.74c0,3.36,0,6.73,0,10.09-2.71.66-9.76,1.86-11.11.55-1.25-1.2-.16-8.08.54-10.65.04-.37.16-.93.42-.96,1.21-.12,9.36-.13,9.83.32.16.16.25.39.32.64Z" fill="#f8e6b7"/><path d="M205.18,31.65c0,3.36,0,6.73,0,10.09h-10.57c-1.2-3.38-1.19-6.7,0-10.09,3.55-1.18,7.03-1.2,10.57,0Z" fill="#282637"/><path d="M286.86,164.76c0,3.36,0,6.73,0,10.09h-10.09c-.03-3.36.02-6.73,0-10.09,3.39-1.19,6.71-1.2,10.09,0Z" fill="#2b293c"/><path d="M286.86,144.09c0,3.52,0,7.05,0,10.57l-.54.96h-8.87l-.68-.96c-1.2-3.54-1.18-7.03,0-10.57h10.09Z" fill="#f0d293"/><path d="M286.86,154.67c0,3.36,0,6.73,0,10.09-3.36,0-6.73,0-10.09,0-1.2-3.38-1.19-6.7,0-10.09h10.09Z" fill="#2c2a3a"/><path d="M276.77,93.16v20.18c-3.36,0-6.73.02-10.09,0,.02,3.52-.01,7.05,0,10.57h10.09c.02,6.72-.02,13.46,0,20.18.01,3.52,0,7.05,0,10.57-3.35.94-6.74.94-10.09,0-3.52,0-7.05-.01-10.57,0-.02-3.52.01-7.06,0-10.57l-19.22-.96v-6.97c0-.12-.95-1.56-1.17-1.72-1.21-.87-8.25-.42-10.37-.45-.37-.1-.93-.25-.96-.54-.21-2.05-.21-6.83,0-8.88l.96-.68c3.12-1.02,6.37-1.04,9.61-.99v-8.89s.96-.69.96-.69c3.38-1.2,6.7-1.19,10.09,0-.37-.05-.92-.15-.96-.42-.12-.7-.14-7.76,0-8.28l.96-.67c-.15-.41.14-1.15.59-1.43.69-.44,7.72-.4,8.93-.26l.57.97.96.54v8.57c3.24-.07,6.49-.03,9.61.98-1.2-3.38-1.19-6.7,0-10.09-.95-3.35-.95-6.74,0-10.09,3.36,0,6.73,0,10.09,0Z" fill="#f8e2b9"/><path d="M266.68,82.59v10.57c-3.51.94-7.06.95-10.57,0-.94-3.51-.94-7.06,0-10.57h10.57Z" fill="#16132a"/><path d="M194.61,134v10.09c3.51.01,7.05-.02,10.57,0,.37.05.93.15.96.42.11.89.16,8.93,0,9.46l-.96.68h-20.66c0-3.52-.05-7.06,0-10.57-.37-.02-.92-.11-.96-.36-.16-1.13-.15-8.99.39-9.44.86-.73,1.92-1.07,3.22-1.25,2.3-.31,5.49-.26,7.44.96Z" fill="#f9e4b9"/><path d="M205.18,144.09c3.36.02,6.73-.02,10.09,0v11.05l-10.09.96v-12.01Z" fill="#fae3ba"/><path d="M194.61,62.4l.96.41.14,8.09c2.93.21,5.86.25,8.81.11l.67,1c0,.16,0,.32,0,.48,1.2,3.38,1.18,6.7,0,10.09,1.05,3.29,1.23,6.65.55,10.03,3.22-.68,6.41-.51,9.54.54,3.39-1.18,6.71-1.2,10.09,0,.27-.92.69-.92.96,0l1.01.52c-.14,2.55-.12,5.09.06,7.61,2.91-.06,5.71.03,8.41.28l.14.71c3.03.22,6.08.16,9.13-.19v-8.26s.96-.68.96-.68c3.35-.94,6.74-.95,10.09,0,3.52,0,7.05,0,10.57,0,0,3.36,0,6.73,0,10.09-3.29,1.46-7.26,1.4-10.57,0-1.43.02-10.09-.44-10.09.72v9.37c-3.36.01-6.73-.02-10.09,0-6.61,1.41-13.43,1.16-20.11.54.6,3.36.23,6.72-.55,10.03-3.39,1.2-6.71,1.21-10.09,0-1.19-3.54-1.18-7.03,0-10.57-1.01-3.15-1.29-6.42-.61-9.66-2.95.87-7.18,1.02-9.96-.43-.87,2.69-7.89,1.67-10.09.48.37.1.93.26.96.55.12,1.12.16,8.24-.32,8.74-.15.16-.38.25-.64.32l.54-1.15c1.42-.68,8.5-.73,9.55.67.42.14.41.3,0,.48-.61,3.14-.93,6.44-.11,9.7,3.82-.51,7.38-.22,10.68.87l.96.54v8.88l-.96.68c-3.52.01-7.05-.03-10.57,0-3.17.02-6.37-.08-9.54.07-.88.55-.53,8.39-.55,10.02h-10.09v-10.09c3.36-.02,6.74.01,10.09,0,.41-.41-.47-8.7,0-10.09l-.39-1c3.72-9.07-1.41-9.51-8.97-8.61l-.73-.96c-1.19-3.39-1.2-6.71,0-10.09l.54-.96,9.07-.05.43-1.59c-.64-3.91.14-6.24,2.34-6.98,2.43.23,4.7.03,6.83-.59l-.43-19.58-8.03-.05-.65-.96c-3.36-.04-6.74.03-10.09,0,0-3.36.02-6.74,0-10.09,0-.37.09-.95.32-.96,3.8-.23,16.22-.68,19.29,0l.57.96Z" fill="#fae3ba"/><path d="M256.11,164.76c0,3.36,0,6.73,0,10.09h-20.18l-.96-.54v-8.88l.96-.68c6.72-.94,13.46-.95,20.18,0Z" fill="#f2d39a"/><path d="M235.93,164.76v10.09h-10.57v-10.09c3.52,0,7.05,0,10.57,0Z" fill="#f5d59c"/><path d="M256.11,154.67c.02,3.36,0,6.73,0,10.09-6.72,0-13.46,0-20.18,0,0-3.36,0-6.74,0-10.09,6.72-.01,13.46.02,20.18,0Z" fill="#f8e4b9"/><path d="M225.36,123.91v10.09c-3.36-.04-6.73.02-10.09,0-.37-.1-.93-.25-.96-.54-.21-2.05-.21-6.83,0-8.88l.96-.68c3.38-1.2,6.7-1.18,10.09,0Z" fill="#fbe1b4"/><path d="M215.27,123.91v10.09c-3.36-.02-6.73-.01-10.09,0v-10.09c3.36.02,6.73,0,10.09,0Z" fill="#fbe6bc"/><path d="M276.77,154.67c0,3.36-.02,6.73,0,10.09-3.36,0-6.73,0-10.09,0v-10.09c3.36,0,6.73,0,10.09,0Z" fill="#f1d098"/><path d="M174.43,21.08c3.36.02,6.73-.01,10.09,0v10.57c3.36.01,6.73-.02,10.09,0,.01,3.36-.02,6.73,0,10.09s-.01,6.74,0,10.09c3.52,0,7.06-.02,10.57,0,0,3.52,0,7.05,0,10.57-.05.37-.15.93-.42.96-.89.11-8.92.16-9.46,0l-.68-.96h-20.18c-.03-6.88.02-13.78,0-20.67l-9.9.29c-.48-.07-.63-.76-.68-.76l-.96-.55v-8.37l.96-.69c3.52-.02,7.06.01,10.57,0,0-3.52-.02-7.06,0-10.57Z" fill="#f9e4b9"/><path d="M184.52,72.5c1.48.02,9.26-.28,9.66.28l.35,20.54c-.75,2.24-6.67.76-8.6,1.49-1.17.81.46,7.21-1.51,8.33-.65.37-8.38.1-9.99.11.02-3.36-.01-6.73,0-10.09h10.09v-20.66Z" fill="#f9e4b9"/><path d="M174.43,103.25c-.02,3.36.01,6.73,0,10.09-3.52-.05-7.06.03-10.57,0,0-3.36.02-6.74,0-10.09,3.52,0,7.05,0,10.57,0Z" fill="#f8e5ba"/><path d="M153.77,82.59c3.36.01,6.74,0,10.09,0,0,3.52-.02,7.06,0,10.57h-10.09s0-10.57,0-10.57Z" fill="#fae4ba"/><path d="M163.86,31.65v9.61c-1.36-.07-9.13.47-9.13-.72v-8.89c3.04-.01,6.09.02,9.13,0Z" fill="#fae4ba"/><path d="M184.52,123.91h-10.09c0-3.52-.01-7.05,0-10.57,8.18.11,12.74-2.55,11.54,7.94-.23,1.98-1.34,2.3-1.45,2.63Z" fill="#f9e4b9"/><path d="M256.11,82.59v10.57c-3.36,0-6.73,0-10.09,0-3.35.94-6.74.95-10.09,0-.37-.04-.93-.16-.96-.42-.12-1.21-.13-9.36.32-9.83.16-.16.39-.25.64-.32h20.18Z" fill="#fbe5bb"/><path d="M225.36,72.5v10.09c.37.05.93.15.96.42.11.89.16,8.93,0,9.46l-.96.68c-3.36-.01-6.73.02-10.09,0-.94-3.51-.94-7.06,0-10.57-.37-.1-.93-.25-.96-.54-.21-2.05-.21-6.83,0-8.88l.96-.68h10.09Z" fill="#2a2839"/><path d="M235.93,82.59v10.57c-3.23,1.19-6.38,1.2-9.61,0-.32,0-.64,0-.96,0v-10.57h10.57Z" fill="#f8e0b4"/><path d="M215.27,72.5v10.09c-.1.37-.25.93-.54.96-1.18.12-8.78.13-9.24-.32-.16-.16-.25-.39-.31-.64-.02-3.36.01-6.73,0-10.09h10.09Z" fill="#bca796"/><path d="M205.18,62.4c0,3.2,0,6.41,0,9.61-1.69-.2-9.86.49-10.5-.55l-.07-9.06h10.57Z" fill="#fbe3ba"/><path d="M266.68,103.25c0,3.36-.02,6.73,0,10.09-3.52-.02-7.06.01-10.57,0v-10.09c3.52-.05,7.06.03,10.57,0Z" fill="#f9e5bd"/><path d="M235.93,113.34v10.57c-3.52,0-7.05-.02-10.57,0-3.36.02-6.73,0-10.09,0,0-3.52,0-7.06,0-10.57,6.88-.02,13.78.04,20.66,0Z" fill="#fbe3bb"/><rect x="246.02" y="123.91" width="10.09" height="10.09" fill="#fbe3bb"/><path d="M205.18,113.34c.02,3.52,0,7.05,0,10.57-3.81-.02-7.65.08-11.46-.07-.64-2.07-1.5-9.95.89-10.5.08-.99.81-1.38,2.2-1.16l7.67.28.7.89Z" fill="#f9e4b9"/><path d="M194.61,103.25c3.51-.12,7.06.09,10.57,0,0,3.36-.02,6.74,0,10.09-3,.46-7.85-.63-10.57,0v-.48l-.96-.55v-8.37l.96-.69Z" fill="#fae5bd"/><path d="M194.61,112.86c-3.31.24-6.95-.55-10.09.48v-9.61c2.8-.1,5.63.13,8.43,0,.7-.03,1.39-.47,1.66-.48v9.61Z" fill="#fbe3ba"/><path d="M215.27,82.59v10.57c-3.36-.02-6.74.01-10.09,0,0-3.52.02-7.06,0-10.57h10.09Z" fill="#fcf7d9"/><path d="M246.02,93.16v10.09c-2.64-.47-7.46.62-9.78,0-.51-.14-.27-.94-.32-.97-.37-.05-.92-.15-.96-.42-.11-.65-.13-7.58,0-8.03l.96-.68c3.36,0,6.73,0,10.09,0Z" fill="#fbe4be"/><path d="M235.93,93.16v9.13c-.79-.52-7.98.61-9.16-.21-1.01-.7-.18-7.29-.45-8.92,3.2,0,6.41,0,9.61,0Z" fill="#fbe3bb"/></g></svg>