<?xml version="1.0" encoding="UTF-8"?><svg id="Layer_2" xmlns="http://www.w3.org/2000/svg" viewBox="0 0 411.75 355.23"><g id="Layer_4"><path d="M178.42,106.57c.05,5.87-.14,11.78.11,17.65,1.32,2.11,14.3.33,17.14.37.58,0,1.09.55,1.32.55v16.95h17.36c1.95,0,1.18-14.56,1.21-16.95,2.71-.03,15.65.61,16.6-.76,1.33-1.91-.26-13.8.35-17.01.62-.63.88-.98,1.93-.85,17.39.13,34.78-.02,52.16.04,0,.54,0,1.08,0,1.61.02,3.76-.07,7.55,0,11.3,0,.27,0,.54,0,.81.05,1.61-.04,3.23,0,4.84,1.02.36,1.52-.79,1.61-.8,4.18-.57,9.4.41,13.72,0,.01.52,1.93.87,1.68,1.99l-.07,51.29h-16.95c-.51,4.93.67,11,.06,15.76-.11.87-.95,1.83-1.67,2-.89.21-2.24-.15-3.23,0l-12.43-.85c-.97.14-.32,1.22-.48,1.66-1.56,4.27-.73,10.59-.81,15.34.45,2.45-1.23,1.55-2.79,1.61-4.71.19-9.47-.13-14.17,0-.02,5.91.04,11.86,0,17.77,0,.27,0,.54,0,.81-4.72-1.11-10.46-1.11-15.34-.81-.72.04-1.97-.17-2.42,0-1.43.54-.78,10.54-.81,12.92,0,.81,0,1.61,0,2.42,0,.27,0,.54,0,.81s0,.54,0,.81h-16.95c-6.18,0-12.39,0-18.57,0-.27,0-.54,0-.81,0,1.34-5.54.29-10.63.47-16.19-.98-1.39-15.35-.73-18.23-.77-.02-4.83.14-9.71,0-14.53-.02-.81.04-1.62,0-2.42-5.63-.15-11.33.21-16.96,0-.21,0-.62-.8-.81-.81.04-.8-.06-1.62,0-2.42.04-.53-.07-1.1,0-1.61.05-.4.81-1.18.86-2.72.11-2.87-.6-4.16-.86-6.16-.1-.77.12-1.66,0-2.42s.1-1.64,0-2.42c-1.07-.06-2.16.06-3.23,0-4.81-.25-9.72.18-14.53,0,0-.27,0-.54,0-.81-.04-2.71.61-15.65-.76-16.6-1.21-.84-14.18-.32-17.01-.35-.26-17.46-.04-35.01,0-52.48.02-5.91-.02-11.85,0-17.76,0-.27,0-.54,0-.81,17.74-.07,35.54-.07,53.28,0ZM251.08,140.48c.03.54-.04,1.08,0,1.61,1.88.04,3.78-.04,5.66,0s3.77-.06,5.65,0,3.78-.05,5.66,0v18.57s18.56,0,18.56,0v-18.57c-5.24-.19-10.55.26-15.79,0-1.22-.06-2.21-.76-2.78-.81-.49-2.99.99-15.3-.78-16.62-2.56.87-14.79-.45-15.42,0-1.23.9-.88,13.29-.76,15.81Z" fill="#ed2225"/><path d="M230.9,106.57c.04-.12,1.3-.36,1.6-2,.84-4.48-.59-11.02.01-15.76h54.09c.02,5.91-.03,11.85,0,17.76-17.37-.07-34.77.09-52.16-.04-1.05-.13-1.31.23-1.93.85-1.55,1.56-.7,7.43-.81,10.1-.04.98.61,3-.8,2.81.65-3.58-.92-10.69,0-13.72Z" fill="#5d1a17"/><path d="M125.14,106.57c.03-5.91-.02-11.85,0-17.76h53.28c.03,5.91-.05,11.85,0,17.76-17.74-.07-35.54-.07-53.28,0Z" fill="#5d1a17"/><path d="M322.13,125.95c.72,14.73.67,32.88,0,47.63-3.45-1.85-7.83-2.09-11.75-1.66-1.83.2-2.8.28-2.79,2.47h-1.61c-.35-.46-1.69-.65-1.62-1.61.59-.1,2.42.11,2.42,0v-46.02c5.09-.26,10.4.71,15.34-.81Z" fill="#571211"/><path d="M107.38,124.33c-.08.61-2.05,2.21-1.65,3.59l.04,44.85c-3.24.24-6.86-.39-10.05.04-1.44.19-7.69,1.96-4.18,3.27s7.08-.18,10.18,1.53c-4.03-.04-8.08.03-12.11,0v-52.07c0-2.25,15.34-.81,17.76-1.21ZM93.65,127.16v44.81c2.08.27,2.28-1.26,2.46-2.78.79-6.71-1.45-37.61.7-40.5.64-.86,2.07-.7,2.49-1.53.75-2.19-5.2-1.48-5.66,0ZM103.34,125.95c-3.36-.4-3.36,1.19,0,.79v-.79Z" fill="#581816"/><path d="M215.56,36.33h-18.57V0h17.36c.09,0,1.21,1.13,1.21,1.21v35.12Z" fill="#f26b6c"/><path d="M196.99,355.23v-36.33h17.36c.09,0,1.21,1.13,1.21,1.21v33.91c0,.09-1.13,1.21-1.21,1.21h-17.36Z" fill="#f26b6c"/><rect x="375.42" y="160.66" width="36.33" height="16.95" fill="#f16868"/><path d="M302.75,106.57c.54.03,1.08-.04,1.61,0v17.77s17.77,0,17.77,0c.04.53-.03,1.08,0,1.61-4.94,1.52-10.25.55-15.34.81v46.02c0,.12-1.84-.09-2.42,0-.08.96,1.27,1.15,1.62,1.61.12.16-.27,1.17.1,1.48.98.8,12.07-.3,14.42.13,1.31-1-.02-1.46-1.19-1.61-3.37-.43-8.13,0-11.72,0-.01-2.19.96-2.26,2.79-2.47,3.92-.43,8.29-.19,11.75,1.66-.06,1.34.05,2.7,0,4.04h-17.77s0,16.55,0,16.55c0,2.32-14.95.73-17.3,1.16-1.01.18.05,2.89-1.26,3.28-.07-.54-1.44-1.93-.81-3.23.72-.17,1.56-1.14,1.67-2,.61-4.76-.56-10.83-.06-15.76h16.95l.07-51.29c.25-1.13-1.67-1.47-1.68-1.99,0-.22.66-2.23.81-4.04,0-.07.73.28.82-1.19.23-3.45.47-8.66-.82-11.73v-.81Z" fill="#621716"/><rect y="160.66" width="35.52" height="16.95" fill="#f16868"/><path d="M55.71,36.33v13.72h12.51c3.76,0,1.37-10.78,2.02-13.72.54.03,1.08-.04,1.61,0v16.96h17.76v18.57h-18.57v-18.57c-5.72-1.51-11.23-.64-16.95,0v-16.96c.53-.04,1.08.03,1.61,0Z" fill="#f26b6c"/><path d="M74.28,266.42c1.01,2.34-1.45,16.15,1.21,16.15h12.51v-15.34c-3.63-.18-7.34.24-10.97.04-1.09-.06-1.78-.83-1.95-.84h14.53v16.95h-15.74c-.27,0-1.23,1.07-2.02.81v17.76h-17.76v-18.57h16.95v-16.96c1.06.06,2.17-.1,3.23,0ZM72.66,279.34v-11.3h-.81v11.3h.81Z" fill="#f26b6c"/><path d="M178.42,106.57c6.18.03,12.39-.02,18.57,0v17.76c5.45.49,11.78-1.04,16.95.81-5.63.04-11.32.07-16.95,0-.23,0-.74-.54-1.32-.55-2.83-.04-15.81,1.74-17.14-.37-.25-5.86-.07-11.78-.11-17.65Z" fill="#5a1513"/><path d="M142.9,211.52c.08.05-.2,1.09.16,1.41.7.62,14.94.1,17.61.2.19,0,.6.8.81.81.53,3.16-1.07,15.01.81,16.55.38.31,1.1.31,1.62.41l.8,3.23h-3.23c-.05-.31-1.1-3.25-1.27-3.28l-17.3.06c-.56-.56.44-13.21-.01-15.76-.31-1.75-1.05-1.41-1.6-2.01-.7-.75-1.9-.6-1.61-1.61.8.15,2.87-.25,3.23,0Z" fill="#5a1513"/><path d="M196.18,247.85c.27,0,.54,0,.81,0,.02,6.18-.03,12.39,0,18.57-6.18-.03-12.39.02-18.57,0-.01-6.18.03-12.39,0-18.57,5.91.04,11.85-.01,17.76,0Z" fill="#5a1513"/><path d="M339.89,53.28c-.03,6.18.02,12.39,0,18.57h-17.76v-18.57c5.91-.04,11.85.05,17.76,0Z" fill="#f26b6c"/><path d="M107.38,177.62c5.91.02,11.85-.07,17.76,0,.09,6.02.56,12.05.81,17.76.13,2.99-.57,15.68.35,17.01,1.17,1.68,11.52.32,14.18.76-.84,1.34-3.06.81-4.43.82-2.71.03-10.91,1.11-10.91-2.03v-16.55h-17.36c-2.04,0-1.04-12.7-1.21-14.98-.09-1.25-.66-1.99-.81-2.78.54,0,1.08,0,1.61,0Z" fill="#5d1a17"/><path d="M124.33,106.57l.81.81c-.02,5.91.02,11.85,0,17.76h-17.77s0,52.48,0,52.48c-.54,0-1.08,0-1.61,0-.09-.5.12-1.16,0-1.61-.14-.55.44-1.72-.48-1.63l-10.81.02c-1.3.99,0,1.46,1.19,1.61,2.26.28,5.29,0,7.69,0v1.61c-.54,0-1.08,0-1.61,0-3.11-1.71-6.65-.2-10.18-1.53s2.74-3.08,4.18-3.27c3.18-.43,6.8.2,10.05-.04l-.04-44.85c-.39-1.38,1.57-2.98,1.65-3.59.37-2.82-.63-17.14,0-17.77,5.64-.01,11.32.03,16.96,0Z" fill="#5c1211"/><path d="M358.46,285.8c.73,4.8-.54,11.15,0,16.15h-18.57v-17.76c6.32.34,12.55-.97,18.57,1.61Z" fill="#f26a6a"/><path d="M339.89,284.18c-5.8-.31-11.81-1.44-17.76-.81v-16.95h17.76v16.95c3.27.54,16.66-1.07,18.22.78.36.43.27,1.11.35,1.64-6.02-2.58-12.25-1.27-18.57-1.61Z" fill="#f26b6c"/><path d="M232.52,247.85c-.04,6.18.03,12.39,0,18.57-5.64.01-11.32-.03-16.96,0,.04-6.18-.03-12.39,0-18.57h16.95Z" fill="#5a1513"/><path d="M230.9,106.57c-.91,3.03.66,10.14,0,13.72,1.41.19.76-1.83.8-2.81.11-2.67-.74-8.54.81-10.1-.61,3.2.98,15.09-.35,17.01-.95,1.37-13.89.72-16.6.76-.03,2.4.74,16.95-1.21,16.95h-17.36v-16.95c5.63.07,11.32.04,16.95,0,.54,0,1.08,0,1.61,0,.08-6.18-.05-12.4,0-18.57h15.34Z" fill="#571211"/><path d="M339.89,53.28c.03-5.64-.02-11.31,0-16.95h17.76v16.95c-5.91.04-11.85-.05-17.76,0Z" fill="#f16868"/><path d="M268.85,213.14c0,.11-.83.91-.84,1.96-.04,5.27.09,10.55.03,15.81h-16.96c.03-5.91-.02-11.86,0-17.77,4.7-.13,9.46.19,14.17,0,1.55-.06,3.24.83,2.79-1.61,0,.09.82.72.81,1.61Z" fill="#621716"/><path d="M140.48,195.38c.35.05,1.45,1.21,2.42.81,0,.54,0,1.08,0,1.61v13.72c-.36-.24-2.43.16-3.23,0-.29,1.01.91.86,1.61,1.61h-.81c-2.66-.44-13.01.93-14.18-.76-.92-1.32-.22-14.02-.35-17.01,4.54.46,10.16-.63,14.53,0Z" fill="#571211"/><path d="M211.52,266.42c.38,2.1-1.01,16.13,1.21,16.13s.83-14.03,1.21-16.13c.54,0,1.08,0,1.61,0-.03,4.4.71,11.88,0,15.74-.12.67-.64,2.02-1.21,2.02h-17.36c-.02-5.91.03-11.85,0-17.76,4.83.02,9.7.02,14.53,0Z" fill="#581816"/><path d="M284.99,195.38c-.63,1.3.74,2.69.81,3.23.48,3.68-.26,8.25,0,12.11h-3.23s0,1.61,0,1.61c1.91-.64,2.7-1.77,2.41.81-5.35.22-10.79-.16-16.15,0,0-.9-.81-1.52-.81-1.61.08-4.74-.75-11.07.81-15.34,3.57-.24,7.45.33,10.96.03,1.08-.09,1.72-.8,1.95-.84.99-.15,2.34.21,3.23,0ZM281.76,196.99h-12.11v.81h12.11v-.81Z" fill="#571211"/><path d="M165.51,230.9c4.16.28,8.69-.05,12.92,0,.03,5.64-.02,11.31,0,16.95-5.64-.04-11.32.04-16.96,0-.12-.51.11-1.17,0-1.61,4.17.58,3.33-12.79.81-9.68l-.8,6.45c-.15-2.4.18-4.87,0-7.26-.04-.53.07-1.1,0-1.61h3.23s-.8-3.23-.8-3.23c.47.09,1.08-.04,1.61,0ZM165.1,244.62v.81c.52-.27.52-.54,0-.81Z" fill="#571211"/><path d="M299.52,106.57c2.46,4.19,1.07,8.31,1.61,12.53.19,1.48-.23,1.3,1.62,1.19-.15,1.81-.81,3.81-.81,4.04-4.33.41-9.55-.57-13.72,0-.45-2.45,1.24-1.55,2.79-1.61,2.43-.1,4.88.1,7.31,0,.98-.04,3,.61,2.81-.8-4.12-.76-10.95,1.75-13.72-1.62l-.81-.81c-.07-3.76.02-7.55,0-11.3l.81-1.61c4.02.02,8.1-.13,12.11,0Z" fill="#571211"/><path d="M251.08,236.55c-.03,2.4.14,4.87,0,7.27-1.96-.42-1.86.57-1.61,2.42.04.77-.52.78-1.17.83-3.84.32-8.61.04-12.56-.02-.7-.01-.35-.14-1.61,0-.27.03-.54-.02-.81,0l-.81-.81c0-.81,0-1.61,0-2.42l4.03.8c.79-2.87-2.71-1.09-3.23-1.61-.29-.29.22-6.01.01-7.27,3.71,1.89,3.01-.61,3.76-.8,2.81-.7,11.56-.47,13.99,1.61Z" fill="#571211"/><path d="M70.24,36.33c-.65,2.94,1.74,13.72-2.02,13.72h-12.51v-13.72c4.55-.22,9.98-.22,14.53,0Z" fill="#f16868"/><path d="M233.32,230.9c-.5,2.47,1.31,1.52,3.23,1.61l-.81-1.61c4.88-.3,10.62-.3,15.34.81-.01,1.61.02,3.23,0,4.84-2.43-2.08-11.18-2.31-13.99-1.61-.76.19-.06,2.69-3.76.8.2,1.26-.3,6.98-.01,7.27.53.52,4.02-1.27,3.23,1.61l-4.03-.8c.02-2.37-.62-12.38.81-12.92ZM249.47,233.32h-12.92v.81h12.92v-.81Z" fill="#621716"/><path d="M161.47,235.74c.18,2.39-.14,4.87,0,7.26l.8-6.45c2.51-3.1,3.36,10.27-.81,9.68-.76-2.93-1.67-7.83,0-10.5Z" fill="#5a1513"/><path d="M302.75,106.57v13.72c-1.86.11-1.43.29-1.62-1.19-.54-4.22.85-8.35-1.61-12.53,1.07.03,2.16-.06,3.23,0Z" fill="#5c1211"/><path d="M250.28,247.85c-1.36.47-12.14.14-14.53,0v-.81c3.95.06,8.72.34,12.56.02.65-.05,1.21-.06,1.17-.83.01.09,1.12.8.81,1.61Z" fill="#521511"/><path d="M285.8,210.72c.01.21,1.32,1.28.8,2.42-.53.03-1.07-.02-1.61,0,.28-2.58-.5-1.44-2.41-.81v-1.61s3.22,0,3.22,0Z" fill="#621716"/><path d="M251.08,243.82c-.07,1.18.17,2.39-.07,3.57-.07.52-.42.36-.74.46.32-.82-.8-1.53-.81-1.61-.24-1.85-.35-2.84,1.61-2.42Z" fill="#621716"/><path d="M105.76,176c.12.46-.09,1.11,0,1.61-.81,0-1.61,0-2.42,0v-1.61h2.42Z" fill="#581816"/><path d="M235.74,247.05v.81c-.68-.04-1.4-.03-1.61-.81,1.26-.14.91-.01,1.61,0Z" fill="#621716"/><path d="M286.61,108.18c0-.54,0-1.08,0-1.61.27,0,.54,0,.81,0l-.81,1.61Z" fill="#5c1211"/><path d="M233.32,247.05h-.81c0-.27,0-.54,0-.81l.81.81Z" fill="#621716"/><path d="M75.08,266.42c.17.02.86.78,1.95.84,3.63.21,7.34-.22,10.97-.04v15.34h-12.51c-2.66,0-.2-13.81-1.21-16.15.27.03.54-.03.81,0Z" fill="#f16868"/><path d="M125.14,107.38l-.81-.81c.27,0,.54,0,.81,0,0,.27,0,.54,0,.81Z" fill="#bd2125"/><path d="M125.14,125.14c-.04,17.46-.26,35.02,0,52.48-5.91-.07-11.85.02-17.76,0v-52.48s17.76,0,17.76,0Z" fill="#bf2126"/><path d="M268.04,141.28c.58.05,1.56.75,2.78.81,5.24.25,10.55-.19,15.79,0v18.57h-18.57v-18.57c-1.87-.04-3.77.06-5.65,0,.99-1.28,4.02-.95,5.65-.81Z" fill="#fdf3f0"/><path d="M215.56,247.85c-.03,6.18.04,12.39,0,18.57-.54,0-1.08,0-1.61,0-.81,0-1.61,0-2.42,0-4.83.02-9.7.02-14.53,0-.03-6.18.02-12.39,0-18.57,6.18,0,12.39,0,18.57,0Z" fill="#bd2125"/><path d="M142.9,194.57l-2.42.81c-4.37-.63-9.99.46-14.53,0-.25-5.71-.72-11.74-.81-17.76,2.82.03,15.8-.49,17.01.35,1.37.95.72,13.89.76,16.6Z" fill="#bd2125"/><path d="M178.42,216.37c.14,4.82-.02,9.71,0,14.53,2.88.04,17.25-.62,18.23.77-.18,5.56.86,10.64-.47,16.19-5.91-.01-11.85.04-17.76,0-.02-5.64.03-11.31,0-16.95-4.23-.05-8.76.28-12.92,0v-14.54s12.92,0,12.92,0Z" fill="#bf2126"/><path d="M268.04,141.28c-1.64-.14-4.66-.47-5.65.81-1.88-.06-3.77.04-5.65,0-.81-2.32-3.62-1.58-5.65-1.61-.12-2.52-.48-14.91.76-15.81.63-.46,12.86.87,15.42,0,1.77,1.32.29,13.63.78,16.62Z" fill="#fcf9f6"/><path d="M157.43,195.38c-.09,2.09,1.34,2.64,3.23,2.42.12.76-.1,1.65,0,2.42-.45.07-1.51-.14-1.61,0-.25.34-.2,7.6-.02,8.38.22.94.88.43,1.63.51-.07.52.04,1.09,0,1.61h-15.34c-.2-3.59.29-7.35,0-10.94-.19-2.48.4-2.08-2.42-1.98,0-.54,0-1.08,0-1.61,0-.27,0-.54,0-.81,4.82.18,9.72-.25,14.53,0Z" fill="#bf2126"/><path d="M161.47,213.95c5.63.21,11.33-.15,16.96,0,.03.8-.03,1.62,0,2.42h-12.92s0,14.53,0,14.53c-.53-.04-1.14.09-1.61,0-.51-.1-1.24-.1-1.62-.41-1.87-1.54-.28-13.39-.81-16.55Z" fill="#bd2125"/><path d="M142.9,197.8c2.82-.1,2.23-.5,2.42,1.98.28,3.59-.21,7.35,0,10.94h15.34c-.06.79.04,1.62,0,2.42-2.67-.11-16.9.41-17.61-.2-.36-.32-.08-1.36-.16-1.41v-13.72Z" fill="#bd2125"/><path d="M160.66,200.22c.26,1.99.97,3.29.86,6.16-.06,1.54-.81,2.32-.86,2.72-.75-.08-1.41.43-1.63-.51-.18-.78-.23-8.04.02-8.38.1-.13,1.16.08,1.61,0Z" fill="#bd2125"/><path d="M281.76,195.38c-.24.04-.88.75-1.95.84-3.52.3-7.4-.28-10.96-.03.16-.43-.49-1.52.48-1.66l12.43.85Z" fill="#621716"/><path d="M287.41,120.29c2.77,3.37,9.6.86,13.72,1.62.19,1.41-1.83.76-2.81.8-2.43.1-4.88-.1-7.31,0-1.55.06-3.24-.83-2.79,1.61-.09.01-.59,1.17-1.61.8-.04-1.61.04-3.23,0-4.84h.81Z" fill="#621716"/><path d="M256.74,142.09c-1.88-.04-3.78.04-5.66,0-.04-.53.03-1.08,0-1.61,2.03.04,4.85-.7,5.65,1.61Z" fill="#fdf3f0"/><path d="M157.43,195.38c1.07.06,2.16-.06,3.23,0,.09.78-.12,1.67,0,2.42-1.89.22-3.32-.34-3.23-2.42Z" fill="#bd2125"/><path d="M235.74,230.9l.81,1.61c-1.92-.09-3.73.86-3.23-1.61.46-.17,1.7.04,2.42,0Z" fill="#521511"/><path d="M142.9,194.57c0,.27,0,.54,0,.81s0,.54,0,.81c-.97.41-2.07-.76-2.42-.81l2.42-.81Z" fill="#5a1513"/><path d="M287.41,120.29h-.81c0-.27,0-.54,0-.81l.81.81Z" fill="#5c1211"/><path d="M307.6,174.39c3.59,0,8.35-.43,11.72,0,1.18.15,2.5.62,1.19,1.61-2.36-.44-13.44.67-14.42-.13-.37-.31.02-1.32-.1-1.48h1.61Z" fill="#521511"/><path d="M93.65,127.16c.46-1.49,6.41-2.2,5.66,0-.42.83-1.85.67-2.49,1.53-2.15,2.88.09,33.79-.7,40.5-.18,1.53-.38,3.06-2.46,2.78v-44.81Z" fill="#5c1211"/><path d="M103.34,125.95v.79c-3.36.4-3.36-1.19,0-.79Z" fill="#5c1211"/><path d="M302.75,120.29v-12.92c1.3,3.07,1.06,8.29.82,11.73-.1,1.46-.82,1.11-.82,1.19Z" fill="#521511"/><rect x="71.85" y="268.04" width=".81" height="11.3" fill="#f16868"/><path d="M213.95,266.42c-.38,2.1,1.01,16.13-1.21,16.13s-.83-14.03-1.21-16.13c.81,0,1.61,0,2.42,0Z" fill="#5a1513"/><rect x="269.65" y="196.99" width="12.11" height=".81" fill="#621716"/><path d="M165.1,244.62c.52.27.52.54,0,.81v-.81Z" fill="#5a1513"/><path d="M103.34,176c-2.4,0-5.43.29-7.69,0-1.18-.15-2.49-.62-1.19-1.61l10.81-.02c.93-.09.35,1.08.48,1.63h-2.42Z" fill="#521511"/><rect x="236.55" y="233.32" width="12.92" height=".81" fill="#521511"/></g></svg>