<?xml version="1.0" encoding="UTF-8"?><svg id="Layer_2" xmlns="http://www.w3.org/2000/svg" viewBox="0 0 316.62 298.5"><g id="Layer_4"><path d="M316.62,168.11v18.75c-.04.34-.14.83-.39.87-.94.15-7.71.18-8.59,0l-.62-.87c-.34-.09-.85-.23-.87-.49-.19-1.86-.19-6.2,0-8.05l.87-.61c-.34-.04-.84-.14-.87-.39-.1-.83-.17-8.19,0-8.59.14-.33.53-.49.87-.62.04-.34.14-.85.39-.87,1.1-.11,8.5-.12,8.92.29.15.14.23.35.29.58Z" fill="#27253d"/><path d="M316.62,140.2c0,5.95,0,11.93,0,17.88,0,.29,0,.58,0,.87-.04.34-.14.83-.39.87-.94.15-7.71.18-8.59,0l-.62-.87c-.34-.09-.85-.23-.87-.49-.19-1.86-.19-6.2,0-8.05l.87-.61c-.34-.04-.84-.14-.87-.39-.1-.83-.17-8.19,0-8.59.14-.33.53-.49.87-.62.04-.34.14-.84.39-.87.83-.1,8.19-.17,8.59,0,.33.14.49.53.62.87Z" fill="#25243d"/><path d="M316.62,121.88c0,3.05,0,6.11,0,9.16-3.22,1.07-6.38,1.09-9.59,0-.34-.09-.85-.23-.87-.49-.19-1.86-.19-6.2,0-8.05l.87-.61c3.22-1.08,6.38-1.09,9.59,0Z" fill="#0d142d"/><path d="M316.62,158.95c0,3.05,0,6.11,0,9.16h-9.59c-.34-.09-.85-.23-.87-.49-.19-1.86-.19-6.2,0-8.05l.87-.61h9.59Z" fill="#242138"/><path d="M316.62,186.86v9.16c-3.17,1.21-6.42,1.19-9.59,0-.34-.09-.85-.23-.87-.49-.19-1.86-.19-6.2,0-8.05l.87-.61h9.59Z" fill="#453239"/><path d="M316.62,131.04c0,3.05,0,6.11,0,9.16h-9.59c-.34-.09-.85-.23-.87-.49-.19-1.86-.19-6.2,0-8.05l.87-.61c3.19,0,6.4-.02,9.59,0Z" fill="#25263a"/><path d="M307.02,168.11v9.59c-.09.34-.23.84-.49.87-.8.09-7.7.2-8.05,0-.33-.18-.5-.52-.61-.87-.34-.04-.84-.14-.87-.39-.1-.83-.17-8.19,0-8.59.14-.33.53-.49.87-.62.55-1.29,4.75-1.01,6.34-.87,1.48-.29,2.41,0,2.81.87Z" fill="#2c7ea7"/><path d="M307.02,177.7v9.16l-.49.87h-8.05l-.61-.87c-.34-.09-.85-.23-.87-.49-.19-1.86-.19-6.2,0-8.05l.87-.61h9.16Z" fill="#222e4d"/><path d="M307.02,131.04v18.75l-.49.87h-8.05l-.61-.87c-.86-3.19-.86-6.41,0-9.59-.86-3.04-.86-6.12,0-9.16,3.07-1.08,6.09-1.09,9.16,0Z" fill="#719a3f"/><path d="M307.02,149.79v9.16l-.49.87h-8.05l-.61-.87c-.86-3.04-.86-6.12,0-9.16h9.16Z" fill="#21243b"/><path d="M307.02,121.88v9.16c-3.05,0-6.11,0-9.16,0-.86-3.04-.86-6.12,0-9.16,3.04-.86,6.12-.86,9.16,0Z" fill="#70a041"/><path d="M307.02,158.95v9.16h-9.16c-.86-3.04-.86-6.12,0-9.16h9.16Z" fill="#287ba3"/><path d="M307.02,186.86v9.16c-3.07,1.09-6.08,1.08-9.16,0-.34-.09-.85-.23-.87-.49-.19-1.86-.19-6.2,0-8.05l.87-.61h9.16Z" fill="#171242"/><path d="M83.74,19.4c1.09,3.07,1.07,6.08,0,9.16-.09.34-.23.84-.49.87-1.07.11-7.97.12-8.38-.29-.15-.14-.22-.35-.28-.58v-9.16h9.16Z" fill="#23243a"/><path d="M307.02,196.02v18.75c-.09.34-.23.84-.49.87-.8.09-7.7.2-8.05,0-.33-.18-.5-.52-.61-.87-.34,0-.86-.08-.87-.29-.24-4.59-.45-11.9,0-16.33-.25-1.19.04-1.9.87-2.13,3.05,0,6.11,0,9.16,0Z" fill="#252840"/><path d="M297.87,168.11v9.59c-.09.34-.23.84-.49.87-.8.09-7.7.2-8.05,0-.33-.18-.5-.52-.61-.87-.86-3.19-.86-6.41,0-9.59.55-1.29,4.75-1.01,6.34-.87,1.48-.29,2.41,0,2.81.87Z" fill="#3c98c0"/><path d="M297.87,177.7v9.16l-.49.87h-8.05l-.61-.87c-.86-3.04-.86-6.12,0-9.16h9.16Z" fill="#20769e"/><path d="M297.87,140.2c0,3.19,0,6.4,0,9.59l-.49.87h-8.05l-.61-.87c-.86-3.19-.86-6.41,0-9.59l.49-.87h8.05l.61.87Z" fill="#91c83f"/><path d="M297.87,131.04c0,3.05,0,6.11,0,9.16h-9.16c-.86-3.04-.85-6.12,0-9.16,3.04-.86,6.12-.86,9.16,0Z" fill="#6c953e"/><path d="M297.87,149.79c0,3.05,0,6.11,0,9.16-.09.34-.23.84-.49.87-1.07.11-7.97.12-8.38-.29-.15-.14-.22-.35-.28-.58-.86-3.04-.86-6.12,0-9.16h9.16Z" fill="#46bae4"/><path d="M307.02,112.29v9.59c-3.05,0-6.11,0-9.16,0-.86-3.19-.86-6.41,0-9.59l.49-.87h8.05l.61.87Z" fill="#181343"/><path d="M297.87,121.88c0,3.05,0,6.11,0,9.16-3.05,0-6.11,0-9.16,0-1.08-3.07-1.08-6.08,0-9.16,3.04-.86,6.12-.86,9.16,0Z" fill="#70983f"/><path d="M297.87,158.95c0,3.05,0,6.11,0,9.16h-9.16c-.86-3.04-.86-6.12,0-9.16h9.16Z" fill="#3e9ac1"/><path d="M297.87,186.86v9.16c-3.04.86-6.12.86-9.16,0-1.3-.57-1-4.72-.87-6.34-.29-1.48,0-2.41.87-2.81h9.16Z" fill="#28243d"/><path d="M102.49,10.24l.49-.87h8.05l.61.87c.86,3.04.86,6.12,0,9.16l-.49.87h-8.05l-.61-.87-.49.87h-8.05l-.61-.87c0-3.05.01-6.11,0-9.16h9.16Z" fill="#26253b"/><path d="M93.33,19.4c1.09,3.07,1.08,6.08,0,9.16-.04.34-.14.84-.39.87-.8.1-8.1.15-8.59,0l-.62-.87c-.01-3.05,0-6.11,0-9.16h9.59Z" fill="#25253d"/><path d="M74.58,28.55c.24,1.06.45,2.12.58,3.2.27,2.14.73,6.29-.05,6.86-1.64,1.19-7.21.15-9.69-.46-1.07-3.22-1.07-6.38,0-9.59h9.16Z" fill="#232338"/><path d="M83.74,28.55c.95,2.99,1.11,6.03.49,9.1,3.07-.61,6.11-.46,9.1.49.86,3.04.86,6.12,0,9.16-2.99.95-6.04,1.11-9.11.5.62,2.92.46,5.82-.49,8.66,1.07,3.22,1.09,6.38,0,9.59l-.49.87h-7.78c.06,2.8.03,5.6-.89,8.29-.09.34-.23.84-.49.87-.8.09-7.7.2-8.05,0-.33-.18-.5-.52-.61-.87l-.93-.4c.2-3.25.22-6.16.06-8.75-.22,0-.43-.03-.62-.11-.54-.23.33-7.83.58-8.97l.91-.52.49-.87h8.05l.61.87c-.34-.09-.85-.23-.87-.49-.19-1.86-.19-6.2,0-8.05l.87-.61c-3.07,1.08-6.09,1.09-9.16,0-1.24-2.94-1.27-6.23,0-9.16,3.05-.01,6.11,0,9.16,0,0-3.19,0-6.4,0-9.6h9.16Z" fill="#71993f"/><path d="M223.29,10.24c-.04,3.04-.01,6.11,0,9.16-3.04.86-6.12.86-9.16,0l-.49.87h-8.05l-.61-.87-.87-.49v-8.05l.87-.61h18.32Z" fill="#24253c"/><path d="M232.89,19.4c1.07,3.07,1.07,6.09,0,9.16-2.46.6-8.86,1.69-10.09.5-1.13-1.09-.14-7.33.49-9.66,3.19,0,6.4,0,9.59,0Z" fill="#23243b"/><path d="M139.56.64c3.19-.86,6.41-.86,9.59,0,1.31,3,1.35,6.61,0,9.59-.04.34-.14.84-.39.87-.8.1-8.1.15-8.59,0l-.62-.87c-.09.34-.23.84-.49.87-.8.09-7.7.2-8.05,0-.33-.18-.5-.52-.61-.87-.34-.04-.85-.14-.87-.39-.11-1.1-.12-8.5.29-8.92.14-.15.35-.23.58-.29,3.05,0,6.11,0,9.16,0Z" fill="#24263e"/><path d="M297.87,223.93v9.59c-3.07,1.07-6.09,1.08-9.16,0-.34-.04-.85-.14-.87-.39-.11-1.1-.12-8.5.29-8.92.14-.15.35-.23.58-.29,3.04-.86,6.12-.86,9.16,0Z" fill="#222439"/><path d="M307.02,214.77v9.16c-3.05,0-6.11,0-9.16,0-.34-.09-.85-.23-.87-.49-.19-1.86-.19-6.2,0-8.05l.87-.61h9.16Z" fill="#2c2f3e"/><path d="M297.87,75.22c1.09,3.07,1.08,6.08,0,9.16,0,3.19,0,6.4,0,9.59-3.04.86-6.12.86-9.16,0-.34-.04-.85-.14-.87-.39-.11-1.1-.12-8.5.29-8.92.14-.15.35-.23.58-.29-1.3-.57-1-4.72-.87-6.34-.29-1.48,0-2.41.87-2.81,3.05,0,6.11-.02,9.16,0Z" fill="#24243b"/><path d="M307.02,93.97v9.16c-.09.34-.23.84-.49.87-1.07.11-7.97.12-8.38-.29-.15-.14-.22-.35-.28-.58-.86-3.04-.86-6.12,0-9.16,3.05,0,6.11-.01,9.16,0Z" fill="#242035"/><path d="M297.87,196.02v18.75c-.09.34-.23.84-.49.87-.8.09-7.7.2-8.05,0-.33-.18-.5-.52-.61-.87-1.3-.57-1-4.72-.87-6.34-.29-1.48,0-2.41.87-2.81-.34-.04-.85-.14-.87-.39-.11-1.1-.12-8.5.29-8.92.14-.15.35-.23.58-.29,3.05,0,6.11,0,9.16,0Z" fill="#59863c"/><path d="M288.71,168.11c0,3.19,0,6.4,0,9.59-.04.34-.14.84-.39.87-.8.1-8.1.15-8.59,0l-.62-.87c-.34-.04-.84-.14-.87-.39-.1-.83-.17-8.19,0-8.59.14-.33.53-.49.87-.62.04-.34.13-.83.39-.87.93-.16,7.68-.17,8.59,0l.62.87Z" fill="#3b92ba"/><path d="M279.11,177.7h9.59c0,3.05,0,6.11,0,9.16-.04.34-.14.83-.39.87-.94.15-7.71.18-8.59,0l-.62-.87-.49.87h-8.05l-.61-.87-.49.87h-8.05l-.61-.87c-.34-.09-.85-.23-.87-.49-.19-1.86-.19-6.2,0-8.05l.87-.61c0-.34.08-.86.29-.87,3.45-.21,14.72-.61,17.51,0l.51.87Z" fill="#3b95bd"/><path d="M288.71,140.2c0,3.19,0,6.4,0,9.59-3.19.86-6.41.86-9.59,0-.86-3.19-.85-6.41,0-9.59.04-.34.14-.84.39-.87.83-.1,8.19-.17,8.59,0,.33.14.49.53.62.87Z" fill="#26273c"/><path d="M288.71,131.04c0,3.05,0,6.11,0,9.16h-9.59c-1.08-3.07-1.08-6.08,0-9.16,3.19-.86,6.41-.86,9.59,0Z" fill="#3d4339"/><path d="M288.71,149.79c0,3.05,0,6.11,0,9.16-.04.34-.14.85-.39.87-.86.09-8.24.25-8.59,0-.31-.22-.53-.49-.62-.87-1.3-.57-1-4.72-.87-6.34-.29-1.48,0-2.41.87-2.81,3.19,0,6.4,0,9.59,0Z" fill="#3992ba"/><path d="M307.02,103.13v9.16h-9.16c-.86-3.04-.86-6.12,0-9.16h9.16Z" fill="#25243c"/><path d="M297.87,112.29c0,3.19,0,6.4,0,9.59-3.05,0-6.11,0-9.16,0-1.09-3.22-1.07-6.38,0-9.59.57-1.3,4.72-1,6.34-.87,1.48-.29,2.41,0,2.81.87Z" fill="#6b933e"/><path d="M288.71,121.88c0,3.05,0,6.11,0,9.16-3.19,0-6.4,0-9.59,0-1.09-3.07-1.07-6.08,0-9.16,3.19-.86,6.41-.86,9.59,0Z" fill="#6e963e"/><path d="M288.71,158.95c0,3.05,0,6.11,0,9.16h-9.59c-1.3-.57-1-4.72-.87-6.34-.29-1.48,0-2.41.87-2.81h9.59Z" fill="#3c95bd"/><path d="M288.71,186.86v9.16c-3.19.86-6.41.86-9.59,0-1.3-.57-1-4.72-.87-6.34-.29-1.48,0-2.41.87-2.81h9.59Z" fill="#3ca9d2"/><path d="M74.58,279.75c3.04-.85,6.12-.86,9.16,0,.86,3.19.86,6.41,0,9.59-3.05,0-6.11,0-9.16,0-3.07,1.08-6.09,1.08-9.16,0v-9.59c3.07-1.08,6.09-1.08,9.16,0Z" fill="#22263b"/><path d="M65.42,270.59c.34.09.84.23.87.49.11,1.07.12,7.97-.29,8.38-.14.15-.35.22-.58.28-3.19,0-6.4.02-9.59,0l-.87-.49v-8.05l.87-.61c.04-.34.14-.85.39-.87,1.1-.11,8.5-.12,8.92.29.15.14.23.35.29.58Z" fill="#24263e"/><path d="M46.67,251.84c1.08,3.22,1.08,6.38,0,9.59-3.05,0-6.11,0-9.16,0-1.07-3.22-1.09-6.38,0-9.59.09-.34.23-.84.49-.87.79-.1,7.69-.16,8.05,0,.32.14.48.53.61.87Z" fill="#211f38"/><path d="M55.83,261.43l.87.49v8.05l-.87.61-.49.87h-8.05l-.61-.87c-.01-3.05,0-6.11,0-9.16,3.04-.86,6.12-.86,9.16,0Z" fill="#222239"/><path d="M130.4,279.75c.86,3.19.86,6.41,0,9.59,0,3.05,0,6.11,0,9.16h-9.16c-.34-.09-.84-.23-.87-.49-.1-.79-.16-7.69,0-8.05.14-.32.53-.48.87-.61-.34-.04-.85-.14-.87-.39-.11-1.1-.12-8.5.29-8.92.14-.15.35-.23.58-.29,3.04-.86,6.12-.86,9.16,0Z" fill="#2d7da6"/><path d="M93.33,279.75c1.08,3.22,1.08,6.38,0,9.59h-9.59c0-3.19,0-6.4,0-9.59,3.19-.86,6.41-.86,9.59,0Z" fill="#26263f"/><path d="M111.65,279.75c.34.04.84.14.87.39.13.9.17,7.87,0,8.59l-.87.62v9.16h-9.16v-9.16c-.34-.04-.85-.14-.87-.39-.11-1.1-.12-8.5.29-8.92.14-.15.35-.23.58-.29,3.04-.86,6.12-.86,9.16,0Z" fill="#287ca5"/><path d="M251.2,28.55v9.59c-3.07,1.08-6.09,1.09-9.16,0-.34-.04-.85-.14-.87-.39-.11-1.1-.12-8.5.29-8.92.14-.15.35-.23.58-.29,3.05,0,6.11,0,9.16,0Z" fill="#26263d"/><path d="M242.04,19.4v9.16c-3.07,1.08-6.09,1.09-9.16,0-.01-3.05-.01-6.11,0-9.16,3.05,0,6.11.01,9.16,0Z" fill="#29283e"/><path d="M121.24,10.24l.87.49v8.05l-.87.61c-.04.34-.14.84-.39.87-.9.13-7.87.17-8.59,0l-.62-.87c0-3.05,0-6.11,0-9.16.04-.34.14-.84.39-.87.83-.1,8.19-.17,8.59,0,.33.14.49.53.62.87Z" fill="#222338"/><path d="M102.49,19.4c.34.09.84.23.87.49.11,1.07.12,7.97-.29,8.38-.14.15-.35.22-.58.28-.09.34-.23.84-.49.87-1.07.11-7.97.12-8.38-.29-.15-.14-.22-.35-.28-.58,0-3.05,0-6.11,0-9.16h9.16Z" fill="#6d963e"/><path d="M111.65,19.4l.87.49v8.05l-.87.61c-.09.34-.23.84-.49.87-1.07.11-7.97.12-8.38-.29-.15-.14-.22-.35-.28-.58v-9.16h9.16Z" fill="#70983f"/><path d="M93.33,28.55c.86,3.19.86,6.41,0,9.59-3.19-.01-6.4,0-9.6,0,0-3.19.02-6.4,0-9.6h9.59Z" fill="#739d3f"/><path d="M65.42,47.31c1.33,2.66,1.41,6.56,0,9.16-.04,1.45-1.16,9.21-.87,9.59l-.5.87h-7.32c.03,2.8.01,5.6-.9,8.29.04-.34.14-.85.39-.87,1.1-.11,8.5-.12,8.92.29.15.14.23.35.29.58h9.16c1.07,3.07,1.09,6.09,0,9.16-2.69.92-5.49.94-8.29.9v8.07s-.87.62-.87.62c-.04.34-.14.84-.39.87-.8.1-8.1.15-8.59,0l-.62-.87c-1.08-3.22-1.09-6.38,0-9.59-1.08-3.07-1.09-6.09,0-9.16-3.04.86-6.12.86-9.16,0l-.87-.49v-8.05l.87-.61c-.34-.04-.85-.14-.87-.39-.11-1.1-.12-8.5.29-8.92.14-.15.35-.23.58-.29,2.84-.95,5.74-1.11,8.66-.49-.62-2.92-.45-5.82.49-8.66,3.22-1.08,6.38-1.09,9.59,0Z" fill="#739b3f"/><path d="M93.33,56.46c.86,3.19.86,6.41,0,9.59.86,3.04.86,6.12,0,9.16-.04.34-.14.84-.39.87-.8.1-8.1.15-8.59,0l-.62-.87c-1.08-3.07-1.09-6.09,0-9.16,0-3.19-.02-6.4,0-9.59.04-.34.14-.85.39-.87,1.1-.11,8.5-.12,8.92.29.15.14.23.35.29.58Z" fill="#27263b"/><path d="M102.49,38.15c3.04-.85,6.12-.86,9.16,0l.87.49v8.05l-.87.61c-3.04.86-6.12.86-9.16,0-3.07,1.08-6.08,1.07-9.16,0,0-3.05,0-6.11,0-9.16,3.07-1.07,6.09-1.09,9.16,0Z" fill="#739e40"/><path d="M93.33,47.31c.86,3.04.86,6.12,0,9.16h-9.59c.01-3.05,0-6.11,0-9.16,3.19,0,6.4.02,9.6,0Z" fill="#739b3f"/><path d="M65.42,38.15c-.02,3.05.03,6.11,0,9.16-3.19-.02-6.4,0-9.59,0-1.07-3.07-1.09-6.09,0-9.16,3.19,0,6.4.02,9.59,0Z" fill="#25263a"/><path d="M64.55,66.06s.76-.17.88.28c.56,2.1-.42,6.47,0,8.87h-9.59c.01-3.05,0-6.11,0-9.16h8.72Z" fill="#75a040"/><path d="M83.74,66.06c0,3.05,0,6.11,0,9.16-.09.34-.23.84-.49.87-.8.09-7.7.2-8.05,0-.33-.18-.5-.52-.61-.87.01-3.05,0-6.11,0-9.16h9.16Z" fill="#769e3f"/><path d="M65.42,47.31c3.05.02,6.11-.01,9.16,0v9.16h-9.16c.09-3.04-.03-6.12,0-9.16Z" fill="#77a040"/><path d="M186.22.64c.34.04.83.14.87.39.15.94.18,7.71,0,8.59l-.87.62c-.09.34-.23.84-.49.87-.8.09-7.7.2-8.05,0-.33-.18-.5-.52-.61-.87-.85-3.19-.85-6.41,0-9.59,3.05,0,6.11,0,9.16,0Z" fill="#26253e"/><path d="M195.38.64v9.59c-.09.34-.23.84-.49.87-.8.09-7.7.2-8.05,0-.33-.18-.5-.52-.61-.87V.64c3.05,0,6.11,0,9.16,0Z" fill="#262a3e"/><path d="M223.29,19.4c.01,3.05,0,6.11,0,9.16,3.19,0,6.4-.02,9.6,0,.95,2.99,1.11,6.04.5,9.11,2.92-.62,5.82-.46,8.66.49.34.09.84.23.87.49.11,1.07.12,7.97-.29,8.38-.14.15-.35.22-.58.28-3.07,1.08-6.08,1.08-9.16,0-6.04,1.14-12.21,1.1-18.31.54.63,2.91.54,5.79-.44,8.62l-.49.87h-8.05l-.61-.87-.87-.49v-8.05l.87-.61-.87-.49v-8.05l.87-.61c2.84-.97,5.72-1.08,8.63-.46-.56-3.06-.17-6.12.52-9.14-.34-.09-.85-.23-.87-.49-.19-1.86-.19-6.2,0-8.05l.87-.61c3.05,0,6.11,0,9.16,0Z" fill="#749d3f"/><path d="M204.98,10.24v9.16c-.04.34-.14.84-.39.87-.9.13-7.87.17-8.59,0l-.62-.87c-.34-.09-.85-.23-.87-.49-.19-1.86-.19-6.2,0-8.05l.87-.61h9.59Z" fill="#210c0d"/><path d="M214.13,19.4v9.16c-.09.34-.23.84-.49.87-1.07.11-7.97.12-8.38-.29-.15-.14-.22-.35-.28-.58l-.87-.49v-8.05l.87-.61h9.16Z" fill="#27293b"/><path d="M9.6,158.95c.86,3.04.86,6.12,0,9.16.86,3.19.86,6.41,0,9.59-.04.34-.14.84-.39.87-.8.1-8.1.15-8.59,0l-.62-.87c0-6.24,0-12.51,0-18.75.04-.34.13-.83.39-.87.93-.16,7.68-.17,8.59,0l.62.87Z" fill="#212038"/><path d="M9.6,149.79c.86,3.04.86,6.12,0,9.16H0c0-3.05,0-6.11,0-9.16.04-.34.14-.84.39-.87.83-.1,8.19-.17,8.59,0,.33.14.49.53.62.87Z" fill="#24243c"/><path d="M9.6,177.7c.86,3.04.86,6.12,0,9.16-.04.34-.15.85-.39.87-2.07.2-6.5.2-8.59,0l-.62-.87c0-3.05,0-6.11,0-9.16h9.59Z" fill="#27273f"/><path d="M9.6,186.86c.86,3.04.85,6.12,0,9.16H0c0-3.05,0-6.11,0-9.16h9.59Z" fill="#121030"/><path d="M149.15,10.24c1.21.81,1.38,7.3.95,8.48l-.95.68.76.79c-.66,2.51-.95,5.05-.86,7.62,1.62,1.7,1.37,7.18.98,9.64l-.88.7c.62,2.48,1.65,8.05.46,9.69-.57.79-4.72.32-6.86.05-1.07-.13-2.14-.35-3.2-.58l-.87-.49v-8.05l.87-.61c-.34-.04-.84-.14-.87-.39-.1-.83-.17-8.19,0-8.59.14-.33.53-.49.87-.62-.34,0-.86-.08-.87-.29-.11-2.12-.33-16.7,0-17.51l.87-.51h9.59Z" fill="#3f9ac2"/><path d="M139.56,10.24v18.32c-.09.34-.23.84-.49.87-1.07.11-7.97.12-8.38-.29-.15-.14-.22-.35-.28-.58-.34,0-.86-.08-.87-.29-.26-4.6-.3-10.85,0-15.41-.28-1.44.01-2.3.87-2.61h9.16Z" fill="#3f9ac3"/><path d="M130.4.64v9.59c-.09.34-.23.84-.49.87-.8.09-7.7.2-8.05,0-.33-.18-.5-.52-.61-.87V.64c3.05,0,6.11,0,9.16,0Z" fill="#1f1d35"/><path d="M158.31.64c.34.04.83.14.87.39.15.94.18,7.71,0,8.59l-.87.62c-.09.34-.23.84-.49.87-.8.09-7.7.2-8.05,0-.33-.18-.5-.52-.61-.87.05-3.19,0-6.4,0-9.59,3.05,0,6.11,0,9.16,0Z" fill="#222239"/><path d="M297.87,233.52v9.16c-.09.34-.23.84-.49.87-1.07.11-7.97.12-8.38-.29-.15-.14-.22-.35-.28-.58-1.3-.57-1-4.72-.87-6.34-.29-1.48,0-2.41.87-2.81,3.05,0,6.11-.01,9.16,0Z" fill="#101129"/><path d="M279.11,223.93c3.22-1.09,6.38-1.08,9.59,0v9.59c-3.19.85-6.41.86-9.59,0-3.04.85-6.12.86-9.16,0-.86-3.19-.86-6.41,0-9.59,3.07-1.09,6.08-1.08,9.16,0Z" fill="#56823b"/><path d="M297.87,214.77v9.16c-3.05,0-6.11,0-9.16,0-1.3-.57-1-4.72-.87-6.34-.29-1.48,0-2.41.87-2.81h9.16Z" fill="#507a38"/><path d="M288.71,93.97c3.05,0,6.11,0,9.16,0,0,3.05,0,6.11,0,9.16s0,6.11,0,9.16h-9.16c-.95-2.84-1.11-5.74-.49-8.66-3.07.61-6.12.45-9.11-.5-.86-3.04-.85-6.12,0-9.16.04-.34.14-.85.39-.87,1.1-.11,8.5-.12,8.92.29.15.14.23.35.29.58Z" fill="#6f983f"/><path d="M288.71,84.37v9.59h-9.59c-.84-.4-.84-.91,0-1.31-.89-.98-1.16-2.49-.81-4.54-.37-1.42-.25-2.53.38-3.31-.58-.61-.33-.84.44-.44.04-.34.14-.85.39-.87,1.1-.11,8.5-.12,8.92.29.15.14.23.35.29.58Z" fill="#67923e"/><path d="M288.71,75.22v9.16h-9.59c-1.3-.57-1-4.72-.87-6.34-.29-1.48,0-2.41.87-2.81,3.19-.86,6.41-.86,9.59,0Z" fill="#739a3f"/><path d="M288.71,66.06v9.16c-3.19,0-6.4,0-9.59,0-1.3-.57-1-4.72-.87-6.34-.29-1.48,0-2.41.87-2.81,3.22-1.08,6.38-1.07,9.59,0Z" fill="#22213a"/><path d="M288.71,196.02v9.59c-.04.34-.14.84-.39.87-.8.1-8.1.15-8.59,0l-.62-.87c-.34-.04-.84-.14-.87-.39-.1-.83-.17-8.19,0-8.59.14-.33.53-.49.87-.62,3.19,0,6.4,0,9.59,0Z" fill="#729b3f"/><path d="M288.71,205.61v9.16c-.04.34-.14.84-.39.87-.8.1-8.1.15-8.59,0l-.62-.87c-1.3-.57-1-4.72-.87-6.34-.29-1.48,0-2.41.87-2.81h9.59Z" fill="#517e3a"/><path d="M269.96,168.11c.55-1.29,4.75-1.01,6.34-.87,1.48-.29,2.41,0,2.81.87v9.59h-18.32c-.34-.04-.84-.14-.87-.39-.12-.87-.17-7.94,0-8.59l.87-.62c.55-1.29,4.75-1.01,6.34-.87,1.48-.29,2.41,0,2.81.87Z" fill="#3c99c1"/><path d="M251.2,177.7c.04-.34.14-.85.39-.87,1.1-.11,8.5-.12,8.92.29.15.14.23.35.29.58v9.16c-.04.34-.14.83-.39.87-.94.15-7.71.18-8.59,0l-.62-.87-.49.87h-8.05l-.61-.87c-.85-3.04-.86-6.12,0-9.16.09-.34.23-.85.49-.87,1.86-.19,6.2-.19,8.05,0l.61.87Z" fill="#3e98c1"/><path d="M260.8,186.86h9.16l.87.49v8.05l-.87.61c-3.04.86-6.12.86-9.16,0-.04.34-.15.85-.39.87-2.07.2-6.5.2-8.59,0l-.62-.87c-.34-.09-.85-.23-.87-.49-.19-1.86-.19-6.2,0-8.05l.87-.61h9.59Z" fill="#242239"/><path d="M279.11,186.86v9.16c-3.04.86-6.12.86-9.16,0v-9.16h9.16Z" fill="#25283e"/><path d="M279.11,140.2c0,3.19,0,6.4,0,9.59-3.04.86-6.12.86-9.16,0-.34-.04-.85-.14-.87-.39-.11-1.1-.12-8.5.29-8.92.14-.15.35-.23.58-.29l.49-.87h8.05l.61.87Z" fill="#3d96c0"/><path d="M279.11,131.04c0,3.05,0,6.11,0,9.16h-9.16c-.34-.09-.85-.23-.87-.49-.19-1.86-.19-6.2,0-8.05l.87-.61c3.04-.86,6.12-.86,9.16,0Z" fill="#58c7f3"/><path d="M279.11,149.79v9.16c-.09.34-.23.84-.49.87-1.07.11-7.97.12-8.38-.29-.15-.14-.22-.35-.28-.58-.34-.09-.85-.23-.87-.49-.19-1.86-.19-6.2,0-8.05l.87-.61c3.05,0,6.11,0,9.16,0Z" fill="#409fc6"/><path d="M279.11,103.13c3.19.01,6.4,0,9.6,0,0,3.05-.02,6.11,0,9.16s0,6.4,0,9.59c-3.19,0-6.4,0-9.59,0-1.09-3.22-1.08-6.38,0-9.59-.09.34-.23.84-.49.87-.8.09-7.7.2-8.05,0-.33-.18-.5-.52-.61-.87-.86-3.04-.85-6.12,0-9.16,3.07-1.09,6.09-1.09,9.16,0Z" fill="#739e40"/><path d="M279.11,121.88c.01,3.05,0,6.11,0,9.16-3.05,0-6.11,0-9.16,0-.34-.09-.85-.23-.87-.49-.19-1.86-.19-6.2,0-8.05l.87-.61c3.04-.86,6.12-.86,9.16,0Z" fill="#212439"/><path d="M279.11,158.95v9.16h-9.16c-.34-.09-.85-.23-.87-.49-.19-1.86-.19-6.2,0-8.05l.87-.61h9.16Z" fill="#3896bb"/><path d="M74.58,270.59c.34.09.84.23.87.49.09.8.2,7.7,0,8.05-.18.33-.52.5-.87.61-3.05,0-6.11,0-9.16,0v-9.16c.09-.34.23-.85.49-.87,1.86-.19,6.2-.19,8.05,0l.61.87Z" fill="#29293e"/><path d="M83.74,270.59c.86,3.04.86,6.12,0,9.16-3.05,0-6.11,0-9.16,0v-9.16c3.04-.86,6.12-.85,9.16,0Z" fill="#56823b"/><path d="M37.51,242.68c1.08,3.07,1.09,6.09,0,9.16h-9.59c0-3.05,0-6.11,0-9.16,3.22-1.09,6.38-1.08,9.59,0Z" fill="#25243c"/><path d="M27.92,233.52c.86,3.04.85,6.12,0,9.16-3.05,0-6.11-.01-9.16,0,0-3.05,0-6.11,0-9.16.09-.34.23-.85.49-.87,1.86-.19,6.2-.19,8.05,0l.61.87Z" fill="#0f1237"/><path d="M65.42,261.43l.87.49v8.05l-.87.61h-9.59v-9.16c3.19-.86,6.41-.86,9.59,0Z" fill="#29131c"/><path d="M55.83,251.84c.34.04.84.14.87.39.1.8.15,8.1,0,8.59l-.87.62c-3.05,0-6.11,0-9.16,0,0-3.19,0-6.4,0-9.59.09-.34.23-.84.49-.87.79-.1,7.69-.16,8.05,0,.32.14.48.53.61.87Z" fill="#2577a1"/><path d="M46.67,242.68c.86,3.04.85,6.12,0,9.16h-9.16c0-3.05,0-6.11,0-9.16,3.04-.86,6.12-.86,9.16,0Z" fill="#2883ae"/><path d="M139.56,279.75c1.29,3.08,1.26,6.51,0,9.59h-9.16c0-3.19,0-6.4,0-9.59,3.04-.86,6.12-.86,9.16,0Z" fill="#1b7099"/><path d="M130.4,261.43c.23,2.4.31,4.89.25,7.45.64,2.6,1.04,7.42.62,10.35l-.87.51c-3.05,0-6.11,0-9.16,0-.34,0-.86-.08-.87-.29-.21-3.45-.61-14.72,0-17.51l.87-.51c3.07-1.09,6.08-1.07,9.16,0Z" fill="#3d9bc1"/><path d="M121.24,279.75v9.59h-9.59v-9.59c3.19-.86,6.41-.86,9.59,0Z" fill="#277aa5"/><path d="M102.49,279.75v9.59h-9.16c0-3.19,0-6.4,0-9.59,3.04-.86,6.12-.86,9.16,0Z" fill="#287ea5"/><path d="M93.33,270.59c.86,3.04.85,6.12,0,9.16-3.19,0-6.4,0-9.59,0,0-3.05,0-6.11,0-9.16,3.22-1.08,6.38-1.08,9.59,0Z" fill="#21213b"/><path d="M121.24,261.43v18.32c-3.19,0-6.4,0-9.59,0-3.05,0-6.11,0-9.16,0-.34-.09-.85-.23-.87-.49-.19-1.86-.19-6.2,0-8.05l.87-.61c2.84-.95,5.74-1.11,8.66-.49-.62-2.92-.45-5.82.49-8.66,3.22-1.08,6.38-1.08,9.59,0Z" fill="#3895bd"/><path d="M232.89,279.75c.34.04.84.14.87.39.1.8.15,8.1,0,8.59l-.87.62.87.49v8.05l-.87.61h-9.59c-.34-.09-.85-.23-.87-.49-.19-1.86-.19-6.2,0-8.05l.87-.61c-.34-.04-.85-.14-.87-.39-.11-1.1-.12-8.5.29-8.92.14-.15.35-.23.58-.29,3.19-.86,6.41-.85,9.59,0Z" fill="#24243a"/><path d="M251.2,279.75v9.59c-3.05-.01-6.11,0-9.16,0-.34-.04-.85-.14-.87-.39-.11-1.1-.12-8.5.29-8.92.14-.15.35-.23.58-.29,3.07-1.09,6.08-1.07,9.16,0Z" fill="#26203e"/><path d="M260.8,270.59c-.01,3.05,0,6.11,0,9.16-3.19,0-6.4-.02-9.6,0-.34-.09-.85-.23-.87-.49-.19-1.86-.19-6.2,0-8.05l.87-.61c.04-.34.14-.85.39-.87,1.1-.11,8.5-.12,8.92.29.15.14.23.35.29.58Z" fill="#24243d"/><path d="M269.96,261.43c0,3.05-.02,6.11,0,9.16-3.05,0-6.11,0-9.16,0-1.07-3.07-1.09-6.09,0-9.16l.49-.87h8.05l.61.87Z" fill="#212238"/><path d="M214.13,279.75c3.04-.86,6.12-.86,9.16,0v9.59h-9.16c-.09.34-.23.84-.49.87-.8.09-7.7.2-8.05,0-.33-.18-.5-.52-.61-.87l.87.49v8.05l-.87.61c-3.19,0-6.4,0-9.59,0-.34-.09-.85-.23-.87-.49-.19-1.86-.19-6.2,0-8.05l.87-.61c.04-.34.14-.85.39-.87,1.1-.11,8.5-.12,8.92.29.15.14.23.35.29.58-.34-.04-.85-.14-.87-.39-.11-1.1-.12-8.5.29-8.92.14-.15.35-.23.58-.29,3.04-.86,6.12-.86,9.16,0Z" fill="#2a7ca6"/><path d="M260.8,38.15c1.09,3.07,1.07,6.08,0,9.16-3.19.86-6.41.86-9.59,0-.86-3.04-.86-6.12,0-9.16,3.19,0,6.4,0,9.59,0Z" fill="#25253d"/><path d="M242.04,28.55v9.59c-3.05-.01-6.11,0-9.16,0,0-3.19.02-6.4,0-9.6,3.05.01,6.11,0,9.16,0Z" fill="#70983f"/><path d="M251.2,38.15c0,3.05,0,6.11,0,9.16-3.04.86-6.12.85-9.16,0v-9.16c3.05.01,6.11,0,9.16,0Z" fill="#6d953e"/><path d="M130.4,10.24v18.32l-.49.87h-8.05l-.61-.87c-.34-.09-.84-.23-.87-.49-.1-.79-.16-7.69,0-8.05.14-.32.53-.48.87-.61v-9.16h9.16Z" fill="#3b96c1"/><path d="M121.24,19.4v9.16c-.04.34-.14.84-.39.87-.8.1-8.1.15-8.59,0l-.62-.87v-9.16h9.59Z" fill="#25253b"/><path d="M102.49,28.55c.34.04.84.14.87.39.13.9.17,7.87,0,8.59l-.87.62c-3.05,0-6.11.01-9.16,0,0-3.19,0-6.4,0-9.59h9.16Z" fill="#709a3f"/><path d="M111.65,28.55c.34.04.84.14.87.39.13.9.17,7.87,0,8.59l-.87.62c-3.05,0-6.11,0-9.16,0v-9.59h9.16Z" fill="#69943e"/><path d="M55.83,38.15c0,3.05.01,6.11,0,9.16-3.07,1.08-6.09,1.08-9.16,0v-9.16c3.05,0,6.11,0,9.16,0Z" fill="#0f1437"/><path d="M37.51,75.22c3.04-.86,6.12-.86,9.16,0,3.05,0,6.11,0,9.16,0-.01,3.05,0,6.11,0,9.16l-.49.87h-8.05l-.61-.87c.34.04.84.14.87.39.1.8.15,8.1,0,8.59l-.87.62c0,.34-.07.84-.29.87-4.26.55-13.49.33-17.95,0l-.51-.87c-.86-3.19-.86-6.41,0-9.59-.86-3.04-.86-6.12,0-9.16,3.19-.86,6.41-.86,9.59,0Z" fill="#749e40"/><path d="M46.67,56.46v9.59l-.49.87h-8.05l-.61-.87c-.34-.04-.85-.14-.87-.39-.11-1.1-.12-8.5.29-8.92.14-.15.35-.23.58-.29,3.07-1.09,6.08-1.07,9.16,0Z" fill="#1f1e36"/><path d="M46.67,66.06v9.16c-3.05,0-6.11,0-9.16,0-.34-.09-.84-.23-.87-.49-.09-.81-.24-7.73,0-8.05.22-.31.49-.53.87-.61h9.16Z" fill="#67913e"/><path d="M55.83,47.31c-.01,3.05,0,6.11,0,9.16-3.05,0-6.11-.02-9.16,0-.34-.09-.84-.23-.87-.49-.1-.79-.16-7.69,0-8.05.14-.32.53-.48.87-.61,3.05,0,6.11,0,9.16,0Z" fill="#222438"/><path d="M55.83,84.37c0,3.19,0,6.4,0,9.59.85,3.04.86,6.12,0,9.16-.09.34-.23.84-.49.87-1.07.11-7.97.12-8.38-.29-.15-.14-.22-.35-.28-.58-.09.34-.23.84-.49.87-1.07.11-7.97.12-8.38-.29-.15-.14-.22-.35-.28-.58-.04.34-.14.84-.39.87-.9.13-7.87.17-8.59,0l-.62-.87c-.86-3.04-.86-6.12,0-9.16h18.75v-9.59h9.16Z" fill="#70983e"/><path d="M65.42,93.97c.09-.34.23-.84.49-.87.79-.1,7.69-.16,8.05,0,.32.14.48.53.61.87.86,3.04.86,6.12,0,9.16,0,.34-.08.86-.29.87-4.75.26-11.14.31-15.85,0-1.44.28-2.31,0-2.61-.87,0-3.05,0-6.11,0-9.16h9.59Z" fill="#26273d"/><path d="M74.58,84.37c1.08,3.22,1.08,6.38,0,9.59h-9.16v-9.6c3.05,0,6.11.02,9.16,0Z" fill="#70983e"/><path d="M83.74,75.22c.85,3.04.86,6.12,0,9.16-3.07,1.08-6.08,1.07-9.16,0,0-3.05-.01-6.11,0-9.16h9.16Z" fill="#6c943e"/><path d="M102.49,66.06c1.01-.23,2.03-.45,3.05-.58,2.05-.27,6.05-.7,6.57.05,1.19,1.71.14,7.18-.47,9.68,1.1,3.07,1.1,6.09,0,9.16.6,2.46,1.69,8.86.5,10.09-1.09,1.13-7.33.14-9.66-.49-.95-2.99-1.11-6.04-.5-9.11-2.92.62-5.82.46-8.66-.49-.86-3.04-.86-6.12,0-9.16,0-3.05,0-6.11,0-9.16,3.04-.86,6.12-.86,9.16,0Z" fill="#3994bc"/><path d="M93.33,75.22c0,3.05,0,6.11,0,9.16-3.22,1.07-6.38,1.08-9.59,0,0-3.05,0-6.11,0-9.16h9.59Z" fill="#1e1b40"/><path d="M102.49,56.46c.86,3.19.86,6.41,0,9.59-3.05,0-6.11,0-9.16,0,0-3.19,0-6.4,0-9.59l.49-.87h8.05l.61.87Z" fill="#244359"/><path d="M121.24,38.15c.86,3.04.86,6.12,0,9.16-.04.34-.14.84-.39.87-.8.1-8.1.15-8.59,0l-.62-.87v-9.16c3.19-.86,6.41-.86,9.59,0Z" fill="#221f3b"/><path d="M111.65,47.31l.87.49v8.05l-.87.61c-.09.34-.23.84-.49.87-.8.09-7.7.2-8.05,0-.33-.18-.5-.52-.61-.87-.34-.09-.85-.23-.87-.49-.19-1.86-.19-6.2,0-8.05l.87-.61c3.05,0,6.11,0,9.16,0Z" fill="#25243b"/><path d="M102.49,47.31v9.16h-9.16c0-3.05,0-6.11,0-9.16,3.05-.01,6.11,0,9.16,0Z" fill="#6c8e3c"/><path d="M167.47.64c.86,3.19.86,6.41,0,9.59-.09.34-.23.84-.49.87-.8.09-7.7.2-8.05,0-.33-.18-.5-.52-.61-.87V.64c3.05,0,6.11,0,9.16,0Z" fill="#25263c"/><path d="M177.07.64c0,3.19,0,6.4,0,9.59-.04.34-.14.84-.39.87-.8.1-8.1.15-8.59,0l-.62-.87c0-3.19,0-6.4,0-9.59,3.19,0,6.4,0,9.59,0Z" fill="#242239"/><path d="M186.22,10.24h9.16v9.16c.34.09.85.23.87.49.19,1.86.19,6.2,0,8.05l-.87.61c.34.04.84.14.87.39.13.9.17,7.87,0,8.59l-.87.62c.34.09.85.23.87.49.19,1.86.19,6.2,0,8.05l-.87.61c-.09.34-.23.85-.49.87-1.86.19-6.2.19-8.05,0l-.61-.87c-.09.34-.23.85-.49.87-1.86.19-6.2.19-8.05,0l-.61-.87-.87-.49v-8.05l.87-.61c3.02-1.21,6.13-1.19,9.16,0-.34,0-.86-.08-.87-.29-.26-4.71-.21-10.6,0-15.33-.3-1.66-.01-2.71.87-3.13-3.07,1.08-6.09,1.09-9.16,0-1.07-3.07-1.09-6.09,0-9.16h9.16Z" fill="#3d98c1"/><path d="M232.89,47.31l.87.49v8.05l-.87.61c-2.99.95-6.03,1.11-9.1.49.61,3.07.46,6.11-.49,9.1-3.04.85-6.12.86-9.16,0-1.09-3.22-1.1-6.38,0-9.59.01-3.05,0-6.11,0-9.16,6.24,0,12.51.02,18.75,0Z" fill="#6e983f"/><path d="M214.13,28.55c0,3.19,0,6.4,0,9.6-3.05,0-6.11-.02-9.16,0-.34-.04-.85-.14-.87-.39-.11-1.1-.12-8.5.29-8.92.14-.15.35-.23.58-.29h9.16Z" fill="#6d963e"/><path d="M204.98,38.15v9.16c-.04.34-.14.84-.39.87-.8.1-8.1.15-8.59,0l-.62-.87v-9.16c3.17-1.2,6.42-1.19,9.59,0Z" fill="#24253d"/><path d="M214.13,56.46c-.02,3.19,0,6.4,0,9.59l-.49.87h-8.05l-.61-.87c-.34-.04-.85-.14-.87-.39-.11-1.1-.12-8.5.29-8.92.14-.15.35-.23.58-.29h9.16Z" fill="#78a13f"/><path d="M204.98,47.31v9.16c-.04.34-.14.84-.39.87-.8.1-8.1.15-8.59,0l-.62-.87c-.34-.09-.85-.23-.87-.49-.19-1.86-.19-6.2,0-8.05l.87-.61h9.59Z" fill="#27273c"/><path d="M242.04,47.31c.34.09.84.23.87.49.11,1.07.12,7.97-.29,8.38-.14.15-.35.22-.58.28-3.07,1.08-6.08,1.07-9.16,0v-9.16c3.05,0,6.11,0,9.16,0Z" fill="#6a933e"/><path d="M204.98,19.4v9.16c-.04.34-.14.84-.39.87-.8.1-8.1.15-8.59,0l-.62-.87v-9.16h9.59Z" fill="#49b9e8"/><path d="M27.92,223.93c.86,3.19.86,6.41,0,9.59h-9.16c0-3.19,0-6.4,0-9.59,3.07-1.07,6.09-1.09,9.16,0Z" fill="#26273e"/><path d="M18.76,214.77c.86,3.04.86,6.12,0,9.16-3.05-.01-6.11,0-9.16,0,0-3.05.02-6.11,0-9.16.09-.34.23-.85.49-.87,1.86-.19,6.2-.19,8.05,0l.61.87Z" fill="#13113c"/><path d="M9.6,131.04c.86,3.04.86,6.12,0,9.16.86,3.19.86,6.41,0,9.59H0c0-6.24-.02-12.51,0-18.75.04-.34.14-.85.39-.87,1.1-.11,8.5-.12,8.92.29.15.14.23.35.29.58Z" fill="#242439"/><path d="M9.6,121.88c.86,3.04.86,6.12,0,9.16H0c0-3.05-.01-6.11,0-9.16.04-.34.14-.84.39-.87.83-.1,8.19-.17,8.59,0,.33.14.49.53.62.87Z" fill="#34323e"/><path d="M18.76,149.79l.49-.87h8.05l.61.87c.86,3.04.86,6.12,0,9.16-2.84.95-5.74,1.11-8.66.49.62,2.92.45,5.82-.49,8.66l-.49.87h-8.05l-.61-.87c0-3.05,0-6.11,0-9.16s0-6.11,0-9.16l.49-.87h8.05l.61.87Z" fill="#3d96c0"/><path d="M18.76,168.11c1.07,3.22,1.09,6.38,0,9.59,1.08,3.07,1.08,6.09,0,9.16l-.49.87h-8.05l-.61-.87c0-3.05,0-6.11,0-9.16s0-6.4,0-9.59h9.16Z" fill="#3b99c0"/><path d="M18.76,196.02c.86,3.19.86,6.41,0,9.59.86,3.04.86,6.12,0,9.16h-9.16c-.01-3.05,0-6.11,0-9.16s0-6.4,0-9.59c.09-.34.23-.85.49-.87,1.86-.19,6.2-.19,8.05,0l.61.87Z" fill="#22203a"/><path d="M18.76,186.86c.85,3.04.86,6.12,0,9.16h-9.16c0-3.05,0-6.11,0-9.16h9.16Z" fill="#3e8fba"/><path d="M18.76,103.13l.87.49v8.05l-.87.61c.34.04.84.14.87.39.13.9.17,7.87,0,8.59l-.87.62-.49.87h-8.05l-.61-.87c-.86-3.19-.86-6.41,0-9.59,0-3.05,0-6.11,0-9.16l.49-.87h8.05l.61.87Z" fill="#24233a"/><path d="M18.76,93.97l.87.49v8.05l-.87.61h-9.16c0-3.05,0-6.11,0-9.16h9.16Z" fill="#28283e"/><path d="M27.92,75.22c0,3.05,0,6.11,0,9.16-.09.34-.23.84-.49.87-1.07.11-7.97.12-8.38-.29-.15-.14-.22-.35-.28-.58v-9.16c3.05,0,6.11,0,9.16,0Z" fill="#27263b"/><path d="M158.31,38.15l.87.49v8.05l-.87.61.87.49v8.05l-.87.61c-2.72.65-5.49.95-8.29.9v8.07s-.87.62-.87.62c-.04.34-.14.85-.39.87-.85.09-8.21.21-8.59,0-.33-.18-.51-.52-.62-.87-.34-.04-.84-.14-.87-.39-.1-.83-.17-8.19,0-8.59.14-.33.53-.49.87-.62-.34-.09-.85-.23-.87-.49-.19-1.86-.19-6.2,0-8.05l.87-.61c3.19,0,6.4,0,9.6,0,0-3.05-.01-6.11,0-9.16l.49-.87h8.05l.61.87Z" fill="#3e98bf"/><path d="M158.31,19.4l.87.49v8.05l-.87.61c.34.04.83.14.87.39.15.94.18,7.71,0,8.59l-.87.62h-9.16c.01-2.65.35-6.51.03-8.97-.11-.83-.84-.42-.94-1.25-.44-3.44.55-5.79.91-8.53.09-.34.23-.85.49-.87,1.86-.19,6.2-.19,8.05,0l.61.87Z" fill="#3c9ac1"/><path d="M158.31,10.24h9.16l.87.49v8.05l-.87.61-.49.87h-8.05l-.61-.87h-9.16c.34-2.64-.05-6.34,0-9.16h9.16Z" fill="#3e98bf"/><path d="M139.56,28.55v9.59l-.49.87h-8.05l-.61-.87c-.34-.04-.85-.14-.87-.39-.11-1.1-.12-8.5.29-8.92.14-.15.35-.23.58-.29h9.16Z" fill="#3a9ac0"/><path d="M139.56,38.15v9.16c-.09.34-.23.85-.49.87-1.86.19-6.2.19-8.05,0l-.61-.87c-.34-.09-.84-.23-.87-.49-.09-.81-.24-7.73,0-8.05.22-.31.49-.53.87-.61h9.16Z" fill="#3f9dc4"/><path d="M279.11,251.84v9.59h-9.16c-1.09-3.22-1.08-6.38,0-9.59.09-.34.23-.85.49-.87,1.86-.19,6.2-.19,8.05,0l.61.87Z" fill="#20213a"/><path d="M288.71,242.68v9.16h-9.59c-1.3-.57-1-4.72-.87-6.34-.29-1.48,0-2.41.87-2.81.04-.34.13-.82.39-.87.86-.17,7.63-.16,8.59,0l.62.87Z" fill="#271f38"/><path d="M288.71,233.52v9.16h-9.59c-1.3-.57-1-4.72-.87-6.34-.29-1.48,0-2.41.87-2.81,3.19,0,6.4,0,9.59,0Z" fill="#211541"/><path d="M279.11,205.61v9.16l.87.49v8.05l-.87.61c-3.05,0-6.11-.01-9.16,0-.34-.09-.85-.23-.87-.49-.19-1.86-.19-6.2,0-8.05l.87-.61c-.34-.09-.85-.23-.87-.49-.19-1.86-.19-6.2,0-8.05l.87-.61.49-.87h8.05l.61.87Z" fill="#759d3f"/><path d="M279.11,233.52v18.32h-9.16c-.86-3.04-.86-6.12,0-9.16-.86-3.04-.86-6.12,0-9.16,3.05,0,6.11,0,9.16,0Z" fill="#59863c"/><path d="M288.71,214.77v9.16c-3.19,0-6.4,0-9.59,0v-9.16h9.59Z" fill="#57863c"/><path d="M269.96,223.93c0,3.19,0,6.4,0,9.59-3.04.86-6.12.86-9.16,0-.6-2.46-1.69-8.86-.5-10.09,1.09-1.13,7.33-.14,9.66.49Z" fill="#739a3e"/><path d="M279.11,47.31v9.16c-3.03,1.19-6.14,1.21-9.16,0-1.25-2.94-1.29-6.23,0-9.16,3.05,0,6.11,0,9.16,0Z" fill="#0f1230"/><path d="M279.11,92.66c0,.44,0,.87,0,1.31,0,3.05,0,6.11,0,9.16-3.05-.01-6.11,0-9.16,0-.86-3.04-.86-6.12,0-9.16-.49-1.34.99-1.94,2.12-2.21,1.49-.35,6.15-.24,7.04.9Z" fill="#719b3f"/><path d="M269.96,66.06c1.09,3.07,1.07,6.08,0,9.16.77,2.72,1.08,5.52.93,8.38,2.51-.22,5.02-.18,7.52.14l.28,1.07c.77,2.38.44,5.3.44,7.85-2.17.27-5.14-.38-7.19,0-.99.19-1.37,1.16-1.97,1.3-.34.94-1.2,1.29-2.58,1.06-1.75.14-5.65.25-6.58-1.06-.87-5.91-1.17-11.87-.9-17.88h-8.07s-.62-.87-.62-.87c-1.38-2.1-.97-7.08.44-9.16,0-.34.08-.86.29-.87,2.15-.11,16.82-.54,17.51,0l.51.87Z" fill="#739d3f"/><path d="M279.11,75.22v9.16l-.44.44c-1.24-1-8.35-.06-8.72-.43,0-3.05.02-6.11,0-9.16.09-.34.23-.85.49-.87,1.86-.19,6.2-.19,8.05,0l.61.87Z" fill="#6e993f"/><path d="M279.11,66.06v9.16h-9.16c-.01-3.05,0-6.11,0-9.16,3.04-.86,6.12-.86,9.16,0Z" fill="#71983e"/><path d="M279.11,196.02v9.59h-9.16c-.34-.04-.85-.14-.87-.39-.11-1.1-.12-8.5.29-8.92.14-.15.35-.23.58-.29,3.05,0,6.11,0,9.16,0Z" fill="#6d973f"/><path d="M260.8,168.11v9.59h-9.59c-.34-.04-.84-.14-.87-.39-.1-.83-.17-8.19,0-8.59.14-.33.53-.49.87-.62.04-.34.13-.83.39-.87.93-.16,7.68-.17,8.59,0l.62.87Z" fill="#3a94b9"/><path d="M269.96,158.95v9.16h-9.16c-.34-.09-.85-.23-.87-.49-.19-1.86-.19-6.2,0-8.05l.87-.61.49-.87h8.05l.61.87Z" fill="#3c95bd"/><path d="M251.2,158.95l.87.49v8.05l-.87.61v9.59h-9.16c-.86-3.19-.86-6.41,0-9.59-.86-3.04-.86-6.12,0-9.16.09-.34.23-.85.49-.87,1.86-.19,6.2-.19,8.05,0l.61.87Z" fill="#3c95bd"/><path d="M242.04,168.11c0,3.19,0,6.4,0,9.59s0,6.11,0,9.16c0,.22-.02.43-.13.58-.29.41-6.59.4-7.54.29l-.61-.87-.91-.88.04-5.34c-.73-1.48-.73-2.46-.01-2.94-1.56-2.31-1.35-7.18,0-9.59.55-1.29,4.75-1.01,6.34-.87,1.48-.29,2.41,0,2.81.87Z" fill="#3693bc"/><path d="M251.2,186.86v9.16c-.09.34-.23.84-.49.87-1.07.11-7.97.12-8.38-.29-.15-.14-.22-.35-.28-.58-1.08-3.07-1.08-6.09,0-9.16h9.16Z" fill="#46b7e1"/><path d="M260.8,196.02c.34.04.84.14.87.39.1.8.15,8.1,0,8.59l-.87.62c-.04.34-.14.84-.39.87-.8.1-8.1.15-8.59,0l-.62-.87c-.34-.04-.84-.14-.87-.39-.1-.83-.17-8.19,0-8.59.14-.33.53-.49.87-.62h9.59Z" fill="#6b953e"/><path d="M269.96,196.02v9.59l-.49.87h-8.05l-.61-.87v-9.59c3.05,0,6.11,0,9.16,0Z" fill="#72983e"/><path d="M269.96,140.2v9.59c-3.07,1.08-6.09,1.09-9.16,0-.34-.04-.84-.14-.87-.39-.12-.87-.17-7.94,0-8.59l.87-.62.49-.87h8.05l.61.87Z" fill="#3e99c1"/><path d="M269.96,131.04v9.16h-9.16c-.86-3.04-.86-6.12,0-9.16,3.04-.86,6.12-.86,9.16,0Z" fill="#3793bc"/><path d="M269.96,149.79v9.16h-9.16c-.34-.09-.85-.23-.87-.49-.19-1.86-.19-6.2,0-8.05l.87-.61c3.05.01,6.11,0,9.16,0Z" fill="#3d97be"/><path d="M269.96,103.13c0,3.05,0,6.11,0,9.16h9.16c.01,3.19-.01,6.4,0,9.59-3.05,0-6.11,0-9.16,0-3.04.86-6.12.85-9.16,0-.86-3.19-.86-6.41,0-9.59-.86-3.04-.85-6.12,0-9.16.09-.34.23-.85.49-.87,1.86-.19,6.2-.19,8.05,0l.61.87Z" fill="#70983f"/><path d="M269.96,121.88v9.16c-3.05,0-6.11,0-9.16,0-.86-3.04-.86-6.12,0-9.16,3.05,0,6.11,0,9.16,0Z" fill="#282641"/><path d="M74.58,261.43c.34.09.84.23.87.49.09.8.2,7.7,0,8.05-.18.33-.52.5-.87.61h-9.16v-9.16c3.04-.86,6.12-.86,9.16,0Z" fill="#4f843d"/><path d="M83.74,261.43c1.09,3.07,1.08,6.08,0,9.16-3.05,0-6.11,0-9.16,0v-9.16c3.04-.86,6.12-.86,9.16,0Z" fill="#6e953e"/><path d="M37.51,233.52c.86,3.04.86,6.12,0,9.16-3.19,0-6.4,0-9.59,0,0-3.05,0-6.11,0-9.16.04-.34.14-.85.39-.87,1.1-.11,8.5-.12,8.92.29.15.14.23.35.29.58Z" fill="#28212f"/><path d="M65.42,242.68l.87.49v8.05l-.87.61c.34.04.85.14.87.39.09.85.21,8.21,0,8.59-.18.33-.52.51-.87.62-3.19,0-6.4,0-9.59,0v-9.59c-.86-3.04-.86-6.12,0-9.16,3.19-.86,6.41-.86,9.59,0Z" fill="#26263c"/><path d="M55.83,242.68c0,3.05,0,6.11,0,9.16h-9.16c0-3.05,0-6.11,0-9.16,3.04-.86,6.12-.86,9.16,0Z" fill="#3d96c0"/><path d="M46.67,233.52c.86,3.04.86,6.12,0,9.16-3.05,0-6.11,0-9.16,0,0-3.05,0-6.11,0-9.16.09-.34.23-.85.49-.87,1.86-.19,6.2-.19,8.05,0l.61.87Z" fill="#3e99c1"/><path d="M149.15,279.75c.34.04.84.14.87.39.13.9.17,7.87,0,8.59l-.87.62h-9.59c0-3.19.04-6.4,0-9.59,3.19-.86,6.41-.86,9.59,0Z" fill="#3086b0"/><path d="M158.31,279.75c.34.04.83.14.87.39.15.94.18,7.71,0,8.59l-.87.62h-9.16v-9.59c3.04-.86,6.12-.86,9.16,0Z" fill="#3189b2"/><path d="M130.84,261.43l.9.36c.05,2.86-.03,5.65-.25,8.37.72-1.43,6.13-1.37,6.98,0,.71-1.42,2.04.03,2.08,1.37.37.99.28,7.72-.99,8.22-3.05,0-6.11,0-9.16,0v-18.32c.08-.39.23-.37.44,0Z" fill="#3b99c1"/><path d="M139.56,214.77c.34,0,.86.08.87.29.35,4.54.51,13.55,0,17.95l-.87.51-.56.87-5.96-.08c-5.03-1.23-3.16,6.8-1.75,9.29l-.11,7.3c2.93-.21,5.72.11,8.38.94.59,2.48,1.7,8.79.51,10.08-1,1.09-7.02.18-9.23-.49-.15,0-.29,0-.44,0-3.05.01-6.11,0-9.16,0-.34-.04-.84-.14-.87-.39-.1-.83-.17-8.19,0-8.59.14-.33.53-.49.87-.62-.34,0-.86-.08-.87-.29-.21-3.45-.61-14.72,0-17.51l.87-.51c-.34-.04-.85-.14-.87-.39-.11-1.1-.12-8.5.29-8.92.14-.15.35-.23.58-.29l.49-.87h7.78c-.07-2.79.25-5.57.89-8.29.09-.34.23-.85.49-.87,1.86-.19,6.2-.19,8.05,0l.61.87Z" fill="#3b95bd"/><path d="M102.49,270.59v9.16c-3.05,0-6.11,0-9.16,0,0-3.05,0-6.11,0-9.16,3.07-1.09,6.08-1.07,9.16,0Z" fill="#3e98c0"/><path d="M93.33,261.43c.85,3.04.86,6.12,0,9.16-3.19,0-6.4,0-9.59,0,0-3.05.01-6.11,0-9.16,3.19-.86,6.41-.86,9.59,0Z" fill="#25263b"/><path d="M121.24,251.84v9.59c-3.19,0-6.4,0-9.59,0-1.07-3.22-1.09-6.38,0-9.59.04-.34.14-.84.39-.87.83-.1,8.19-.17,8.59,0,.33.14.49.53.62.87Z" fill="#3d9ac1"/><path d="M111.65,261.43c-.01,3.05,0,6.11,0,9.16-3.05,0-6.11-.02-9.16,0-.34-.09-.85-.23-.87-.49-.19-1.86-.19-6.2,0-8.05l.87-.61c3.04-.86,6.12-.85,9.16,0Z" fill="#3692b8"/><path d="M232.89,261.43c.34.09.84.23.87.49.11,1.07.12,7.97-.29,8.38-.14.15-.35.22-.58.28l.87.49v8.05l-.87.61c-3.19,0-6.4,0-9.59,0-.34-.09-.85-.23-.87-.49-.19-1.86-.19-6.2,0-8.05l.87-.61c-.34-.09-.85-.23-.87-.49-.19-1.86-.19-6.2,0-8.05l.87-.61c3.22-1.09,6.38-1.07,9.59,0Z" fill="#58873c"/><path d="M242.04,279.75v9.59h-9.16v-9.59c3.07-1.08,6.08-1.08,9.16,0Z" fill="#22253c"/><path d="M251.2,270.59v9.16c-3.05.01-6.11,0-9.16,0-3.05,0-6.11,0-9.16,0v-9.16c0-.34.08-.86.29-.87,2.15-.11,16.82-.54,17.51,0l.51.87Z" fill="#5a863c"/><path d="M260.8,242.68c1.08,3.07,1.08,6.09,0,9.16,1.08,3.22,1.09,6.38,0,9.59,0,3.05.01,6.11,0,9.16h-27.91v-9.16c2.84-.95,5.74-1.11,8.66-.49-.61-3.07-.45-6.12.5-9.11,2.69-.87,5.48-1.09,8.29-.74v-7.8s.87-.61.87-.61c.04-.34.14-.85.39-.87,1.1-.11,8.5-.12,8.92.29.15.14.23.35.29.58Z" fill="#55843c"/><path d="M269.96,251.84c0,3.19,0,6.4,0,9.59h-9.16c0-3.19,0-6.4,0-9.59.09-.34.23-.85.49-.87,1.86-.19,6.2-.19,8.05,0l.61.87Z" fill="#5b873c"/><path d="M195.38,279.75c3.19-.86,6.41-.86,9.59,0v9.59h-18.75c-.34-.04-.85-.14-.87-.39-.11-1.1-.12-8.5.29-8.92.14-.15.35-.23.58-.29,3.04-.86,6.12-.86,9.16,0Z" fill="#277ca4"/><path d="M269.96,38.15c-.1,3.04.04,6.12,0,9.16-3.04.86-6.12.86-9.16,0-.01-3.05,0-6.11,0-9.16h9.16Z" fill="#0e1238"/><path d="M260.8,47.31c.95,2.84,1.11,5.74.49,8.66,2.92-.62,5.82-.45,8.66.49,1.07,3.22,1.07,6.38,0,9.59h-18.32c-1.09-.89-1.64-7.42-1.29-8.43.17-.48.43-.87.85-1.16-.86-3.04-.85-6.12,0-9.16,3.19,0,6.4,0,9.59,0Z" fill="#719a3f"/><path d="M251.2,47.31c0,3.05,0,6.11,0,9.16-.09.34-.23.84-.49.87-.8.09-7.7.2-8.05,0-.33-.18-.5-.52-.61-.87v-9.16c3.05,0,6.11,0,9.16,0Z" fill="#729d40"/><path d="M130.4,28.55v9.59l-.49.87h-8.05l-.61-.87c-.86-3.19-.86-6.41,0-9.59h9.16Z" fill="#409cc5"/><path d="M121.24,28.55c0,3.19,0,6.4,0,9.59-3.19,0-6.4,0-9.59,0v-9.59h9.59Z" fill="#191a3c"/><path d="M46.67,47.31v9.16c-3.05.01-6.11,0-9.16,0v-9.16c3.05,0,6.11,0,9.16,0Z" fill="#11123a"/><path d="M27.92,84.37c0,3.19,0,6.4,0,9.59-.09.34-.23.84-.49.87-.8.09-7.7.2-8.05,0-.33-.18-.5-.52-.61-.87v-9.59h9.16Z" fill="#201d38"/><path d="M37.51,66.06v9.16c-3.19,0-6.4,0-9.59,0,0-3.05,0-6.11,0-9.16.04-.34.14-.83.39-.87.92-.14,7.81-.18,8.59,0l.62.87Z" fill="#201f38"/><path d="M37.51,103.13l.87.49v8.05l-.87.61c-.04.34-.14.84-.39.87-.8.1-8.1.15-8.59,0l-.62-.87c-.86-3.04-.86-6.12,0-9.16h9.59Z" fill="#76a040"/><path d="M55.83,103.13c.86,3.04.85,6.12,0,9.16-.09.34-.23.84-.49.87-.8.09-7.7.2-8.05,0-.33-.18-.5-.52-.61-.87-.34-.09-.84-.23-.87-.49-.1-.79-.16-7.69,0-8.05.14-.32.53-.48.87-.61h9.16Z" fill="#26263d"/><path d="M46.67,103.13v9.16c-.09.34-.23.84-.49.87-.8.09-7.7.2-8.05,0-.33-.18-.5-.52-.61-.87v-9.16h9.16Z" fill="#6b943e"/><path d="M27.92,93.97c0,3.05,0,6.11,0,9.16-.09.34-.23.84-.49.87-1.07.11-7.97.12-8.38-.29-.15-.14-.22-.35-.28-.58v-9.16h9.16Z" fill="#6e993f"/><path d="M74.58,103.13c1.08,3.07,1.09,6.09,0,9.16-3.04.86-6.12.86-9.16,0-3.19.86-6.41.86-9.59,0,0-3.05,0-6.11,0-9.16h18.75Z" fill="#409bc3"/><path d="M83.74,93.97c.86,3.04.86,6.12,0,9.16-.09.34-.23.84-.49.87-1.07.11-7.97.12-8.38-.29-.15-.14-.22-.35-.28-.58,0-3.05,0-6.11,0-9.16,3.04-.86,6.12-.86,9.16,0Z" fill="#230d0e"/><path d="M83.74,84.37c.86,3.19.86,6.41,0,9.59-3.05,0-6.11,0-9.16,0,0-3.19,0-6.4,0-9.59,3.05-.01,6.11,0,9.16,0Z" fill="#698f3d"/><path d="M111.65,56.46c.04-.34.14-.85.39-.87,1.1-.11,8.5-.12,8.92.29.15.14.23.35.29.58.86,3.19.86,6.41,0,9.59.86,3.04.86,6.12,0,9.16-.04.34-.14.84-.39.87-.8.1-8.1.15-8.59,0l-.62-.87c-.01-3.05,0-6.11,0-9.16-3.05,0-6.11,0-9.16,0v-9.59h9.16Z" fill="#3d9ac0"/><path d="M121.24,84.37c1.08,3.22,1.09,6.38,0,9.59,1.08,3.07,1.09,6.09,0,9.16-.04.34-.14.84-.39.87-.9.13-7.87.17-8.59,0l-.62-.87c-.09.34-.23.84-.49.87-1.07.11-7.97.12-8.38-.29-.15-.14-.22-.35-.28-.58-1.08-3.07-1.07-6.08,0-9.16,3.05-.01,6.11,0,9.16,0,0-3.19-.02-6.4,0-9.6.04-.34.14-.85.39-.87,1.1-.11,8.5-.12,8.92.29.15.14.23.35.29.58Z" fill="#3f9bc2"/><path d="M93.33,84.37c3.05.01,6.11,0,9.16,0,0,3.19-.02,6.4,0,9.6-3.07,1.09-6.08,1.08-9.16,0-.86-3.19-.86-6.41,0-9.59Z" fill="#3d9bc4"/><path d="M121.24,75.22c.86,3.04.86,6.12,0,9.16h-9.59c.01-3.05.01-6.11,0-9.16h9.59Z" fill="#3c98c0"/><path d="M93.33,84.37c0,3.19,0,6.4,0,9.59-3.22,1.09-6.38,1.08-9.59,0,0-3.19,0-6.4,0-9.59,3.19,0,6.4-.02,9.59,0Z" fill="#26243e"/><path d="M130.4,38.15v9.16l.87.49v8.05l-.87.61-.49.87h-8.05l-.61-.87c-.86-3.04-.86-6.12,0-9.16,0-3.05,0-6.11,0-9.16h9.16Z" fill="#3a95bb"/><path d="M121.24,47.31c0,3.05,0,6.11,0,9.16h-9.59v-9.16h9.59Z" fill="#3d96c0"/><path d="M177.07,10.24c0,3.05.01,6.11,0,9.16-3.22,1.07-6.38,1.08-9.59,0v-9.16h9.59Z" fill="#3f9bc4"/><path d="M177.07,19.4c3.05.02,6.11-.01,9.16,0v18.75c-3.05.01-6.11-.02-9.16,0-2.92,1.12-6.06,1.11-9.08.47.61,2.93.43,5.84-.51,8.68-.09.34-.23.85-.49.87-1.86.19-6.2.19-8.05,0l-.61-.87v-18.75l.49-.87h8.05l.61.87c3.02-.7,6.08-1.08,9.14-.52-.62-2.91-.51-5.8.46-8.63Z" fill="#3b95bd"/><path d="M204.98,28.55v9.59c-3.19.02-6.4-.01-9.59,0v-9.59h9.59Z" fill="#222039"/><path d="M177.07,38.15v9.16c-.04.34-.14.84-.39.87-.8.1-8.1.15-8.59,0l-.62-.87c.01-3.05,0-6.11,0-9.16,3.19-.01,6.4.02,9.6,0Z" fill="#3f9bc2"/><path d="M195.38,47.31v9.16c-.09.34-.23.84-.49.87-.8.09-7.7.2-8.05,0-.33-.18-.5-.52-.61-.87-.86-3.04-.86-6.12,0-9.16h9.16Z" fill="#3b95be"/><path d="M186.22,47.31c0,3.05,0,6.11,0,9.16-.09.34-.23.84-.49.87-.8.09-7.7.2-8.05,0-.33-.18-.5-.52-.61-.87-.34-.09-.85-.23-.87-.49-.19-1.86-.19-6.2,0-8.05l.87-.61h9.16Z" fill="#409bc3"/><path d="M232.89,56.46c3.05-.01,6.11,0,9.16,0h9.16c0,3.19.44,6.71.44,9.59s-.43,6.14-.44,9.16c.85,6.24.86,12.51,0,18.75.49,1.34-.99,1.94-2.12,2.21-1.49.35-6.15.24-7.04-.9-.84-.4-.84-.91,0-1.31-1.08-3.22-1.08-6.38,0-9.59-1.09-3.07-1.07-6.08,0-9.16-.95-2.84-1.11-5.74-.49-8.66-2.92.62-5.82.45-8.66-.49-3.22,1.07-6.38,1.09-9.59,0,.01-3.19,0-6.4,0-9.6,3.19,0,6.4.02,9.6,0Z" fill="#719b3f"/><path d="M223.29,66.06c1.07,3.07,1.06,6.08,0,9.16-3.04.86-6.12.86-9.16,0-.34-.09-.85-.23-.87-.49-.19-1.86-.19-6.2,0-8.05l.87-.61c3.05,0,6.11,0,9.16,0Z" fill="#242539"/><path d="M204.98,56.46v9.59c-.04.34-.14.85-.39.87-.85.09-8.21.21-8.59,0-.33-.18-.51-.52-.62-.87-.34-.04-.85-.14-.87-.39-.11-1.1-.12-8.5.29-8.92.14-.15.35-.23.58-.29h9.59Z" fill="#27263f"/><path d="M214.13,66.06v9.16c-3.07,1.08-6.09,1.09-9.16,0l-.87-.49v-8.05l.87-.61h9.16Z" fill="#20223b"/><path d="M37.51,223.93c.86,3.19.86,6.41,0,9.59h-9.59c0-3.19,0-6.4,0-9.59,3.22-1.08,6.38-1.08,9.59,0Z" fill="#3e9ac3"/><path d="M27.92,214.77c.86,3.04.86,6.12,0,9.16-3.05,0-6.11.01-9.16,0,0-3.05,0-6.11,0-9.16l.49-.87h8.05l.61.87Z" fill="#47b7e5"/><path d="M18.76,140.2c.86,3.19.86,6.41,0,9.59h-9.16c0-3.19,0-6.4,0-9.59.09-.34.23-.85.49-.87,1.86-.19,6.2-.19,8.05,0l.61.87Z" fill="#3792bb"/><path d="M18.76,131.04l.87.49v8.05l-.87.61h-9.16c0-3.05,0-6.11,0-9.16l.49-.87h8.05l.61.87Z" fill="#3b9ac2"/><path d="M18.76,121.88l.87.49v8.05l-.87.61h-9.16c0-3.05,0-6.11,0-9.16h9.16Z" fill="#3c95bd"/><path d="M27.92,140.2c.86,3.19.86,6.41,0,9.59h-9.16v-9.59c.09-.34.23-.85.49-.87,1.86-.19,6.2-.19,8.05,0l.61.87Z" fill="#3db4e0"/><path d="M37.51,149.79l.87.49v8.05l-.87.61c-3.22,1.09-6.38,1.07-9.59,0,0-3.05,0-6.11,0-9.16.04-.34.14-.84.39-.87.83-.1,8.19-.17,8.59,0,.33.14.49.53.62.87Z" fill="#2a263b"/><path d="M27.92,158.95c.86,3.04.86,6.12,0,9.16-.09.34-.23.84-.49.87-.8.09-7.7.2-8.05,0-.33-.18-.5-.52-.61-.87.01-3.05,0-6.11,0-9.16,3.05,0,6.11.02,9.16,0Z" fill="#3c99c2"/><path d="M27.92,177.7c.86,3.04.86,6.12,0,9.16.86,3.04.86,6.12,0,9.16-.09.34-.23.85-.49.87-1.86.19-6.2.19-8.05,0l-.61-.87c0-3.05,0-6.11,0-9.16s0-6.11,0-9.16l.49-.87h8.05l.61.87Z" fill="#409bc3"/><path d="M27.92,168.11c.86,3.19.86,6.41,0,9.59h-9.16c0-3.19-.02-6.4,0-9.59h9.16Z" fill="#3a95bd"/><path d="M27.92,196.02c.86,3.19.86,6.41,0,9.59l-.49.87h-8.05l-.61-.87c0-3.19,0-6.4,0-9.59h9.16Z" fill="#3b95be"/><path d="M27.92,205.61c.86,3.04.86,6.12,0,9.16h-9.16c0-3.05,0-6.11,0-9.16h9.16Z" fill="#429dc4"/><path d="M27.92,112.29c.86,3.19.86,6.41,0,9.59-.09.34-.23.84-.49.87-1.07.11-7.97.12-8.38-.29-.15-.14-.22-.35-.28-.58v-9.59l.49-.87h8.05l.61.87Z" fill="#121141"/><path d="M27.92,103.13c0,3.05,0,6.11,0,9.16h-9.16v-9.16h9.16Z" fill="#729a3f"/><path d="M158.31,56.46c3.04-.86,6.12-.86,9.16,0,1.08,3.22,1.08,6.38,0,9.59l-.49.87h-8.05l-.61-.87c-.09.34-.23.84-.49.87-1.07.11-7.97.12-8.38-.29-.15-.14-.22-.35-.28-.58v-9.6c3.05,0,6.11,0,9.16,0Z" fill="#3f9ac3"/><path d="M149.15,66.06h9.16l.87.49v8.05l-.87.61c-.09.34-.23.84-.49.87-.8.09-7.7.2-8.05,0-.33-.18-.5-.52-.61-.87-.04.34-.14.84-.39.87-.8.1-8.1.15-8.59,0l-.62-.87c-.34-.09-.85-.23-.87-.49-.19-1.86-.19-6.2,0-8.05l.87-.61h9.59Z" fill="#3c95be"/><path d="M139.56,56.46v9.59l-.49.87h-8.05l-.61-.87c-.34-.04-.85-.14-.87-.39-.11-1.1-.12-8.5.29-8.92.14-.15.35-.23.58-.29l.49-.87h8.05l.61.87Z" fill="#3594bc"/><path d="M167.47,47.31c1.07,3.07,1.09,6.09,0,9.16-3.05,0-6.11,0-9.16,0v-9.16h9.16Z" fill="#409cc4"/><rect x="130.4" y="47.31" width="9.16" height="9.16" fill="#3b96c0"/><path d="M167.47,19.4l.87.49v8.05l-.87.61h-9.16v-9.16h9.16Z" fill="#3591b9"/><path d="M260.8,214.77l.49-.87h8.05l.61.87v9.16c-3.05.01-6.11,0-9.16,0,0,3.19.02,6.4,0,9.6-.04.34-.14.85-.39.87-.85.09-8.21.21-8.59,0-.33-.18-.51-.52-.62-.87-.34,0-.86-.08-.87-.29-.26-4.71-.21-10.6,0-15.33-.3-1.66-.01-2.71.87-3.13.04-.34.14-.83.39-.87.92-.14,7.81-.18,8.59,0l.62.87Z" fill="#6c953e"/><path d="M269.96,205.61v9.16h-9.16c-.34-.09-.85-.23-.87-.49-.19-1.86-.19-6.2,0-8.05l.87-.61h9.16Z" fill="#6a923e"/><path d="M269.96,233.52c0,3.05,0,6.11,0,9.16-.09.34-.23.84-.49.87-1.07.11-7.97.12-8.38-.29-.15-.14-.22-.35-.28-.58-1.08-3.07-1.09-6.09,0-9.16,3.05,0,6.11,0,9.16,0Z" fill="#56833b"/><path d="M269.96,242.68c0,3.05,0,6.11,0,9.16h-9.16c0-3.05,0-6.11,0-9.16h9.16Z" fill="#5b8b3e"/><path d="M279.11,56.46v9.59c-3.05,0-6.11,0-9.16,0,0-3.19-.02-6.4,0-9.59,3.05.01,6.11-.01,9.16,0Z" fill="#242641"/><path d="M269.96,47.31c-.04,3.05.02,6.11,0,9.16-3.05-.01-6.11,0-9.16,0,0-3.05.02-6.11,0-9.16,3.05,0,6.11,0,9.16,0Z" fill="#22273d"/><path d="M269.96,93.97c0,3.05,0,6.11,0,9.16h-9.16c-1.08-3.07-1.08-6.08,0-9.16,2.3-.03,7.34.44,9.16,0Z" fill="#78a340"/><path d="M251.2,75.22h9.6c0,6.24-.02,12.51,0,18.75l-.44.87-8.27-.13-.87-.74c0-6.24,0-12.51,0-18.75Z" fill="#709a3f"/><path d="M260.8,158.95v9.16h-9.59v-9.16c.04-.34.14-.85.39-.87,1.1-.11,8.5-.12,8.92.29.15.14.23.35.29.58Z" fill="#3f9dc5"/><path d="M251.2,140.2c.95,2.99,1.11,6.03.49,9.1,3.07-.61,6.11-.46,9.1.49v9.16h-18.75c-.86-3.04-.86-6.12,0-9.16-.86-3.19-.86-6.41,0-9.59l.49-.87h8.05l.61.87Z" fill="#3d9ac2"/><path d="M242.04,158.95c0,3.05,0,6.11,0,9.16h-9.16c-1.34-2.83-1.29-6.31,0-9.16l.49-.87h8.05l.61.87Z" fill="#3d99c0"/><path d="M232.89,177.7c.04.6.77,1.73.87,2.83.19,2.02-.14,4.27,0,6.32-.14,1.16-.54,1.11-.87,0-.04.34-.15.85-.39.87-2.07.2-6.5.2-8.59,0l-.62-.87c-.86-3.04-.85-6.12,0-9.16.04-.34.14-.85.39-.87,1.1-.11,8.5-.12,8.92.29.15.14.23.35.29.58Z" fill="#3a95bd"/><path d="M232.89,168.11c.05,3.14-.2,6.5,0,9.59h-9.59c-1.09-3.22-1.07-6.38,0-9.59.04-.34.14-.85.39-.87,1.1-.11,8.5-.12,8.92.29.15.14.23.35.29.58Z" fill="#3f99c2"/><path d="M233.76,186.86h8.29c0,3.05,0,6.11,0,9.16-.09.34-.23.84-.49.87-1.07.11-7.97.12-8.38-.29-.15-.14-.22-.35-.28-.58-.34-.09-.85-.23-.87-.49-.19-1.86-.19-6.2,0-8.05l.87-.61h.87Z" fill="#3c98c0"/><path d="M251.2,196.02v9.59l-.49.87h-8.05l-.61-.87c-1.07-3.22-1.09-6.38,0-9.59h9.16Z" fill="#94c33e"/><path d="M260.8,205.61v9.16h-9.59c-.34-.09-.85-.23-.87-.49-.19-1.86-.19-6.2,0-8.05l.87-.61h9.59Z" fill="#749b3f"/><path d="M260.8,140.2v9.59c-3.19-.01-6.4,0-9.6,0,0-3.19.02-6.4,0-9.6.04-.34.14-.84.39-.87.83-.1,8.19-.17,8.59,0,.33.14.49.53.62.87Z" fill="#3d93bd"/><path d="M260.8,131.04c0,3.05,0,6.11,0,9.16h-9.59c-1.09-3.07-1.09-6.08,0-9.16,3.19-.86,6.41-.86,9.59,0Z" fill="#3d9bc0"/><path d="M260.8,93.97c0,3.05,0,6.11,0,9.16s0,6.11,0,9.16c-.04.34-.14.84-.39.87-.9.13-7.87.17-8.59,0l-.62-.87-.87-.49v-7.78s-7.67-.02-7.67-.02l-.61-.87c-.86-2.6-.86-5.25,0-7.85,2.17-.27,5.14.38,7.19,0,.99-.19,1.37-1.16,1.97-1.3,1.9-.46,7.2.03,9.59,0Z" fill="#749c3f"/><path d="M251.2,112.29h9.59c0,3.19,0,6.4,0,9.59-3.22,1.08-6.38,1.08-9.59,0-3.07,1.09-6.08,1.07-9.16,0-.86-3.19-.86-6.41,0-9.59,3.07-1.07,6.09-1.08,9.16,0Z" fill="#202038"/><path d="M260.8,121.88c0,3.05,0,6.11,0,9.16-3.19,0-6.4,0-9.59,0-.34-.09-.85-.23-.87-.49-.19-1.86-.19-6.2,0-8.05l.87-.61c3.19,0,6.4,0,9.59,0Z" fill="#3b96bc"/><path d="M74.58,251.84c1.01-.24,2.03-.45,3.05-.58,2.05-.26,6.08-.69,6.58.06,1.22,1.83.11,7.47-.47,10.12-3.05,0-6.11,0-9.16,0-3.05,0-6.11,0-9.16,0v-9.59c3.04-.86,6.12-.86,9.16,0Z" fill="#749c3f"/><path d="M65.42,233.52l.87.49v8.05l-.87.61c-3.19,0-6.4,0-9.59,0-.86-3.04-.85-6.12,0-9.16.04-.34.14-.85.39-.87,1.1-.11,8.5-.12,8.92.29.15.14.23.35.29.58Z" fill="#272738"/><path d="M74.58,242.68c.34.09.84.23.87.49.09.8.2,7.7,0,8.05-.18.33-.52.5-.87.61-3.05,0-6.11,0-9.16,0v-9.16c.09-.34.23-.85.49-.87,1.86-.19,6.2-.19,8.05,0l.61.87Z" fill="#6e963e"/><path d="M55.83,233.52c0,3.05,0,6.11,0,9.16-3.05,0-6.11,0-9.16,0,0-3.05,0-6.11,0-9.16.09-.34.23-.85.49-.87,1.86-.19,6.2-.19,8.05,0l.61.87Z" fill="#3594bc"/><path d="M46.67,223.93c.86,3.19.86,6.41,0,9.59h-9.16c0-3.19,0-6.4,0-9.59,3.04-.85,6.12-.86,9.16,0Z" fill="#3994bc"/><path d="M139.56,251.84c3.17-1.18,6.43-1.21,9.59,0,.34.04.84.14.87.39.13.9.17,7.87,0,8.59l-.87.62c2.94-1.25,6.23-1.28,9.16,0l.87.49v8.05l-.87.61.87.49v8.05l-.87.61c-3.05,0-6.11,0-9.16,0s-6.4,0-9.59,0c-.02-2.2.43-7.14.02-8.86-.06-.26-.96-.74-1.11-.74h-6.98c-1.19,0-.45-7.47-.65-8.72,2.9-.02,5.82.01,8.72,0,0-3.19-.02-6.4,0-9.6Z" fill="#409bc3"/><path d="M167.47,279.75c1.09,3.22,1.08,6.38,0,9.59h-9.16v-9.59c3.04-.86,6.12-.86,9.16,0Z" fill="#1a6d98"/><path d="M158.31,177.7c1.09,3.07,1.09,6.09,0,9.16l-.49.87h-8.05l-.61-.87c1.09,3.07,1.08,6.08,0,9.16l.49-.87h8.05l.61.87c-1.08-3.07-1.09-6.09,0-9.16.09-.34.23-.85.49-.87,1.86-.19,6.2-.19,8.05,0l.61.87c.95,2.84,1.11,5.74.49,8.66,3.07-.61,6.12-.45,9.11.5,3.07-1.07,6.09-1.08,9.16,0,3.04-.86,6.12-.86,9.16,0,1.08,3.22,1.09,6.38,0,9.59-3.04.86-6.12.86-9.16,0-3.04.86-6.12.85-9.16,0-3.22,1.08-6.38,1.08-9.59,0-3.07,1.09-6.08,1.07-9.16,0-3.07,1.09-6.08,1.08-9.16,0l.87.49v8.05l-.87.61c.04.22.06.45.01.65-.15.69-7.92.41-9.08.24l-.52-.89h-9.16c-.7-2.87-1.08-5.78-.52-8.7-2.92.62-5.8.5-8.64-.46-.34-.04-.84-.14-.87-.39-.1-.83-.17-8.19,0-8.59.14-.33.53-.49.87-.62,3.07-1.09,6.08-1.07,9.16,0,2.84-.95,5.74-1.11,8.66-.49-.62-2.92-.45-5.82.49-8.66.04-.34.14-.85.39-.87,1.1-.11,8.5-.12,8.92.29.15.14.23.35.29.58-1.09-3.07-1.09-6.08,0-9.16l.49-.87h8.05l.61.87Z" fill="#3d97bf"/><path d="M158.31,205.61c.34,0,.84.07.87.29.56,3.94.3,13.31,0,17.51l-.87.51c1.08,3.22,1.07,6.38,0,9.59l-.49.87h-8.05l-.61-.87c-3.17,1.19-6.42,1.17-9.59,0v-18.75c.9,0,9.59.48,9.59,0v-9.16c3.05-.01,6.11.02,9.16,0Z" fill="#3c99c2"/><path d="M121.24,214.77l.87.49v8.05l-.87.61v9.59c-.04.34-.14.84-.39.87-.8.1-8.1.15-8.59,0l-.62-.87c-.86-3.19-.86-6.41,0-9.59-.86-3.04-.86-6.12,0-9.16.04-.34.14-.83.39-.87.92-.14,7.81-.18,8.59,0l.62.87Z" fill="#21213a"/><path d="M139.56,233.52c1.2,6.07,1.22,12.24,0,18.32-3.05-.02-6.11.01-9.16,0-.3-.3.25-7.11-.02-8.49-.17-.87-.9-1.31-1.09-1.96-.4-1.32-.55-6.94.67-7.66.89-.52,7.89-.2,9.6-.21Z" fill="#3d98c0"/><path d="M121.24,233.52v18.32h-9.59c-1.08-3.07-1.08-6.09,0-9.16-.85-3.04-.86-6.12,0-9.16h9.59Z" fill="#3b92ba"/><path d="M121.24,205.61c3.05.01,6.11,0,9.16,0,0,3.05,0,6.11,0,9.16s0,6.11,0,9.16h-9.16v-9.16c-.34-.09-.84-.23-.87-.49-.1-.79-.16-7.69,0-8.05.14-.32.53-.48.87-.61Z" fill="#3d9ac1"/><path d="M102.49,261.43v9.16c-3.05.01-6.11,0-9.16,0,0-3.05,0-6.11,0-9.16,3.04-.86,6.12-.86,9.16,0Z" fill="#3e9ac0"/><path d="M83.74,242.68c.04-.34.13-.82.39-.87.86-.17,7.63-.16,8.59,0l.62.87c1.07,3.07,1.09,6.09,0,9.16,1.08,3.22,1.08,6.38,0,9.59-3.19,0-6.4,0-9.59,0-.01-3.19,0-6.4,0-9.6-3.05,0-6.11,0-9.16,0v-9.16l.49-.87h8.05l.61.87Z" fill="#6f993f"/><path d="M111.65,251.84c0,3.19.02,6.4,0,9.59-3.05,0-6.11,0-9.16,0-.34-.04-.85-.14-.87-.39-.11-1.1-.12-8.5.29-8.92.14-.15.35-.23.58-.29.09-.34.23-.85.49-.87,1.86-.19,6.2-.19,8.05,0l.61.87Z" fill="#3b95bd"/><path d="M214.13,270.59c.34.09.84.23.87.49.09.8.2,7.7,0,8.05-.18.33-.52.5-.87.61-3.05,0-6.11,0-9.16,0l-.87-.49v-8.05l.87-.61c3.07-1.09,6.08-1.09,9.16,0Z" fill="#267aa4"/><path d="M223.29,270.59v9.16c-3.05,0-6.11,0-9.16,0v-9.16c.09-.34.23-.85.49-.87,1.86-.19,6.2-.19,8.05,0l.61.87Z" fill="#271221"/><path d="M232.89,251.84c.34.04.84.14.87.39.1.8.15,8.1,0,8.59l-.87.62c-3.19.02-6.4,0-9.59,0-.34-.04-.85-.14-.87-.39-.11-1.1-.12-8.5.29-8.92.14-.15.35-.23.58-.29,3.22-1.08,6.38-1.07,9.59,0Z" fill="#28223e"/><path d="M223.29,261.43v9.16h-9.16c-.34-.09-.85-.23-.87-.49-.19-1.86-.19-6.2,0-8.05l.87-.61c3.04-.85,6.12-.85,9.16,0Z" fill="#2c2f47"/><path d="M251.2,233.52h9.59c-.01,3.05,0,6.11,0,9.16h-9.59c-.09.34-.23.84-.49.87-1.07.11-7.97.12-8.38-.29-.15-.14-.22-.35-.28-.58-1.08-3.07-1.07-6.08,0-9.16.09-.34.23-.85.49-.87,1.86-.19,6.2-.19,8.05,0l.61.87Z" fill="#70983f"/><path d="M242.04,251.84c-.01,3.19,0,6.4,0,9.6-3.05,0-6.11-.02-9.16,0v-9.59c3.07-1.09,6.08-1.07,9.16,0Z" fill="#76a040"/><path d="M251.2,242.68v9.16c-3.05,0-6.11-.02-9.16,0-1.07-3.07-1.08-6.09,0-9.16h9.16Z" fill="#729a3f"/><path d="M177.07,279.75c.34.04.84.14.87.39.1.8.15,8.1,0,8.59l-.87.62h-9.59c0-3.19,0-6.4,0-9.59,3.19-.86,6.41-.86,9.59,0Z" fill="#2879a4"/><path d="M186.22,279.75v9.59h-9.16v-9.59c3.04-.86,6.12-.86,9.16,0Z" fill="#2c7ca9"/><path d="M186.22,242.68c2.75-.64,7.23-1.63,9.63-.52.8.37.52,7.72-.47,9.68,1.12,2.94,1.1,6.04.47,9.08,3.07-.61,6.13-.43,9.12.52l.87.49v8.05l-.87.61c-2.83.88-5.78,1.09-8.72.74v7.8s-.87.61-.87.61c-3.05,0-6.11,0-9.16,0-.34,0-.86-.08-.87-.29-.21-3.45-.61-14.72,0-17.51l.87-.51c-.34-.04-.85-.14-.87-.39-.11-1.1-.12-8.5.29-8.92.14-.15.35-.23.58-.29-.34-.09-.85-.23-.87-.49-.19-1.86-.19-6.2,0-8.05l.87-.61Z" fill="#3c96be"/><path d="M204.98,270.59v9.16c-3.19,0-6.4,0-9.59,0v-9.16c3.19,0,6.4.02,9.59,0Z" fill="#3d9ac2"/><path d="M37.51,112.29c.34,0,.86.08.87.29.25,4.69.34,11.21,0,15.85.28,1.44,0,2.31-.87,2.61-.04.34-.14.84-.39.87-.8.1-8.1.15-8.59,0l-.62-.87c-.86-3.04-.86-6.12,0-9.16,0-3.19,0-6.4,0-9.59h9.59Z" fill="#729a3e"/><path d="M55.83,112.29c1.08,3.22,1.08,6.38,0,9.59-.09.34-.23.84-.49.87-1.07.11-7.97.12-8.38-.29-.15-.14-.22-.35-.28-.58-.34-.04-.85-.14-.87-.39-.11-1.1-.12-8.5.29-8.92.14-.15.35-.23.58-.29h9.16Z" fill="#3e98c0"/><path d="M46.67,112.29v9.59c.34.09.85.23.87.49.19,1.86.19,6.2,0,8.05l-.87.61c-.09.34-.23.84-.49.87-1.07.11-7.97.12-8.38-.29-.15-.14-.22-.35-.28-.58v-18.75h9.16Z" fill="#25243c"/><path d="M65.42,112.29c.34.04.85.14.87.39.09.85.21,8.21,0,8.59-.18.33-.52.51-.87.62-.04.34-.14.84-.39.87-.8.1-8.1.15-8.59,0l-.62-.87c0-3.19,0-6.4,0-9.59,3.19,0,6.4,0,9.59,0Z" fill="#3a95bb"/><path d="M74.58,112.29c1.08,3.22,1.09,6.38,0,9.59-.09.34-.23.84-.49.87-1.07.11-7.97.12-8.38-.29-.15-.14-.22-.35-.28-.58v-9.59c3.05,0,6.11,0,9.16,0Z" fill="#3996c0"/><path d="M83.74,103.13c.86,3.04.86,6.12,0,9.16-3.04.86-6.12.86-9.16,0,0-3.05,0-6.11,0-9.16h9.16Z" fill="#3d9abf"/><path d="M93.33,93.97c.86,3.04.86,6.12,0,9.16-.04.34-.14.84-.39.87-.8.1-8.1.15-8.59,0l-.62-.87c0-3.05,0-6.11,0-9.16,3.19,0,6.4,0,9.59,0Z" fill="#3f9bc5"/><path d="M130.4,66.06c.34,0,.86.08.87.29.3,4.21.56,13.57,0,17.51l-.87.51-.49.87h-8.05l-.61-.87c0-3.05,0-6.11,0-9.16s0-6.11,0-9.16l.49-.87h8.05l.61.87Z" fill="#3b97bc"/><path d="M130.4,56.46v9.59h-9.16c0-3.19,0-6.4,0-9.59h9.16Z" fill="#3a95bf"/><path d="M102.49,93.97c.01,3.05,0,6.11,0,9.16.86,3.04.86,6.12,0,9.16-3.07,1.09-6.08,1.08-9.16,0-.86-3.04-.86-6.12,0-9.16,0-3.05,0-6.11,0-9.16,3.05,0,6.11.01,9.16,0Z" fill="#3f99c2"/><path d="M121.24,103.13c.64,2.33,1.62,8.57.49,9.66-1.23,1.18-7.62.09-10.09-.5-1.3-.57-1-4.72-.87-6.34-.29-1.48,0-2.41.87-2.81h9.59Z" fill="#25253b"/><path d="M130.4,84.37c.34.04.84.14.87.39.1.8.15,8.1,0,8.59l-.87.62c-.09.34-.23.84-.49.87-1.07.11-7.97.12-8.38-.29-.15-.14-.22-.35-.28-.58,0-3.19,0-6.4,0-9.59h9.16Z" fill="#378bb2"/><path d="M111.65,103.13v9.16c-3.07,1.09-6.08,1.08-9.16,0,0-3.05,0-6.11,0-9.16h9.16Z" fill="#3682b4"/><path d="M130.4,93.97l.87.49v8.05l-.87.61c-.09.34-.23.84-.49.87-1.07.11-7.97.12-8.38-.29-.15-.14-.22-.35-.28-.58.01-3.05,0-6.11,0-9.16h9.16Z" fill="#222138"/><path d="M177.07,19.4c-.01,3.05,0,6.11,0,9.16-3.19,0-6.4,0-9.6,0v-9.16c3.19,0,6.4-.02,9.59,0Z" fill="#3a97bf"/><path d="M177.07,47.31v9.16c.34,0,.84.07.87.29.59,3.96.29,13.67,0,17.95l-.87.51c-.04.34-.14.84-.39.87-.8.1-8.1.15-8.59,0l-.62-.87c-.86-3.04-.86-6.12,0-9.16,0-3.19,0-6.4,0-9.59s-.01-6.11,0-9.16h9.59Z" fill="#3b95be"/><path d="M195.38,56.46v9.59c.34.09.84.23.87.49.11,1.07.12,7.97-.29,8.38-.14.15-.35.22-.58.28-.02.33-.06.79-.3.87-1.04.34-9.18.14-9.56-.73-1.1-2.55-.49-13.86-.19-17.29l.89-1.6h9.16Z" fill="#3a98be"/><path d="M186.22,56.46c0,6.19-.73,12.36-.05,18.5.36.5,7.83.24,9.21.25,3.17-1.18,6.43-1.2,9.59,0,3.05,0,6.11,0,9.16,0s6.11,0,9.16,0c1.22,3.02,1.2,6.13,0,9.16l-.29.87h-17.24c.26,2.94.11,5.89-.78,8.72-3.22,1.08-6.38,1.07-9.59,0-.89-2.83-1.05-5.78-.78-8.72h-17.02s-.51-.87-.51-.87c-.34-.09-.85-.23-.87-.49-.19-1.86-.19-6.2,0-8.05l.87-.61v-18.75h9.16Z" fill="#3d98bf"/><path d="M242.04,93.97c0,.44,0,.87,0,1.31,0,2.61,0,5.24,0,7.85.86,3.04.86,6.12,0,9.16-2.34.63-8.52,1.64-9.66.5s-.13-7.32.5-9.66c-1.09-3.07-1.08-6.08,0-9.16.09-.34.23-.84.49-.87.79-.1,7.69-.16,8.05,0,.32.14.48.53.61.87Z" fill="#25243e"/><path d="M242.04,84.37c0,3.19,0,6.4,0,9.59h-9.16c-1.09-3.22-1.08-6.38,0-9.59.09-.34.23-.85.49-.87,1.86-.19,6.2-.19,8.05,0l.61.87Z" fill="#212038"/><path d="M232.89,66.06l.87.49v8.05l-.87.61c-.04.34-.14.84-.39.87-.8.1-8.1.15-8.59,0l-.62-.87c-.03-3.04-.01-6.11,0-9.16,3.19,0,6.4-.02,9.59,0Z" fill="#26293d"/><path d="M242.04,75.22c.01,3.05,0,6.11,0,9.16h-9.16c-.34-.09-.85-.23-.87-.49-.19-1.86-.19-6.2,0-8.05l.87-.61c.09-.34.23-.85.49-.87,1.86-.19,6.2-.19,8.05,0l.61.87Z" fill="#28273b"/><path d="M232.89,66.06c3.05.01,6.11,0,9.16,0,0,3.05-.02,6.11,0,9.16h-9.16v-9.16Z" fill="#25253d"/><path d="M204.98,66.06v9.16c-3.19-.01-6.4.02-9.59,0v-9.16h9.59Z" fill="#3d98b9"/><path d="M37.51,196.02c.86,3.19.86,6.41,0,9.59.86,3.04.86,6.12,0,9.16.86,3.04.86,6.12,0,9.16-3.19,0-6.4,0-9.59,0,0-3.05,0-6.11,0-9.16s0-6.11,0-9.16,0-6.4,0-9.59c.04-.34.14-.85.39-.87,1.1-.11,8.5-.12,8.92.29.15.14.23.35.29.58Z" fill="#3e98c0"/><path d="M27.92,121.88c0,3.05,0,6.11,0,9.16.86,3.04.86,6.12,0,9.16h-9.16v-18.32h9.16Z" fill="#26233b"/><path d="M37.51,140.2c.34.04.84.14.87.39.1.8.15,8.1,0,8.59l-.87.62h-9.59c0-3.19,0-6.4,0-9.59.04-.34.14-.84.39-.87.83-.1,8.19-.17,8.59,0,.33.14.49.53.62.87Z" fill="#70983e"/><path d="M37.51,158.95l.87.49v8.05l-.87.61c-.04.34-.15.85-.39.87-2.07.2-6.5.2-8.59,0l-.62-.87c0-3.05,0-6.11,0-9.16,3.19-.02,6.4,0,9.59,0Z" fill="#22253b"/><path d="M46.67,149.79c.34.09.85.23.87.49.19,1.86.19,6.2,0,8.05l-.87.61c-3.04.86-6.12.85-9.16,0v-9.16c.09-.34.23-.85.49-.87,1.86-.19,6.2-.19,8.05,0l.61.87Z" fill="#709c40"/><path d="M37.51,177.7l.87.49v8.05l-.87.61c-.04.34-.15.85-.39.87-2.07.2-6.5.2-8.59,0l-.62-.87c0-3.05,0-6.11,0-9.16.04-.34.14-.85.39-.87,1.1-.11,8.5-.12,8.92.29.15.14.23.35.29.58Z" fill="#3c91b9"/><path d="M37.51,186.86c.86,3.04.86,6.12,0,9.16h-9.59c0-3.05,0-6.11,0-9.16h9.59Z" fill="#4397bd"/><path d="M37.51,168.11c.34.04.84.14.87.39.1.8.15,8.1,0,8.59l-.87.62h-9.59c0-3.19,0-6.4,0-9.59h9.59Z" fill="#3c98bc"/><path d="M167.47,66.06c0,3.05,0,6.11,0,9.16.86,3.04.86,6.12,0,9.16l-.49.87h-8.05l-.61-.87c-.34-.09-.85-.23-.87-.49-.19-1.86-.19-6.2,0-8.05l.87-.61v-9.16h9.16Z" fill="#3d9ac1"/><path d="M139.56,66.06v9.16l.87.49v8.05l-.87.61c-.09.34-.23.84-.49.87-1.07.11-7.97.12-8.38-.29-.15-.14-.22-.35-.28-.58v-18.32h9.16Z" fill="#3a99c2"/><path d="M149.15,75.22l.87.49v8.05l-.87.61c-.04.34-.14.85-.39.87-.85.09-8.21.21-8.59,0-.33-.18-.51-.52-.62-.87v-9.16h9.59Z" fill="#3c99bf"/><path d="M158.31,75.22v9.16l-.49.87h-8.05l-.61-.87v-9.16h9.16Z" fill="#3f9ac3"/><path d="M251.2,205.61v27.91h-9.16c-.95-2.99-1.11-6.04-.5-9.11-2.92.62-5.82.46-8.66-.49-.34-.09-.85-.23-.87-.49-.19-1.86-.19-6.2,0-8.05l.87-.61c2.84-.95,5.74-1.11,8.66-.49-.62-2.92-.45-5.82.49-8.66h9.16Z" fill="#729c3f"/><path d="M242.04,131.04c.86,3.04.86,6.12,0,9.16,0,3.19,0,6.4,0,9.59-.09.34-.23.84-.49.87-1.07.11-7.97.12-8.38-.29-.15-.14-.22-.35-.28-.58-1.08-3.22-1.09-6.38,0-9.59-1.08-3.07-1.09-6.09,0-9.16,3.04-.86,6.12-.86,9.16,0Z" fill="#3b95bd"/><path d="M242.04,149.79c0,3.05,0,6.11,0,9.16h-9.16c-1.22-3.02-1.2-6.13,0-9.16h9.16Z" fill="#429bc5"/><path d="M251.2,131.04c0,3.05-.01,6.11,0,9.16h-9.16c0-3.05,0-6.11,0-9.16,3.04-.86,6.12-.86,9.16,0Z" fill="#3993b9"/><path d="M223.29,131.04c1.09,3.07,1.07,6.08,0,9.16.97,2.98,1.08,6.01.46,9.07,3.06-.56,6.12-.18,9.13.52,0,3.05-.02,6.11,0,9.16s-.05,6.11,0,9.16h-9.59c-.95-2.84-1.11-5.74-.49-8.66-2.92.62-5.82.45-8.66-.49-.34-.09-.85-.23-.87-.49-.19-1.86-.19-6.2,0-8.05l.87-.61c-.34,0-.86-.08-.87-.29-.28-4.2-.61-14.11,0-17.95l.87-.51c3.07-1.08,6.09-1.08,9.16,0Z" fill="#3c96be"/><path d="M232.89,186.86v9.16c-.04.34-.15.85-.39.87-2.07.2-6.5.2-8.59,0l-.62-.87c-.86-3.04-.86-6.12,0-9.16h9.59Z" fill="#3f9ac2"/><path d="M223.29,177.7c0,3.05,0,6.11,0,9.16l-.49.87h-8.05l-.61-.87c-.86-3.04-.86-6.12,0-9.16l.49-.87h8.05l.61.87Z" fill="#6bbbd3"/><path d="M223.29,168.11c.02,3.19,0,6.4,0,9.59h-9.16c-.86-3.19-.86-6.41,0-9.59.09-.34.23-.84.49-.87.81-.09,7.73-.24,8.05,0,.31.22.53.49.61.87Z" fill="#6cc0d7"/><path d="M242.04,196.02c0,3.19.02,6.4,0,9.59l-.49.87h-8.05l-.61-.87c-.34-.04-.85-.14-.87-.39-.11-1.1-.12-8.5.29-8.92.14-.15.35-.23.58-.29h9.16Z" fill="#272541"/><path d="M242.04,103.13h9.16s0,9.16,0,9.16c-3.05,0-6.11.01-9.16,0,0-3.05,0-6.11,0-9.16Z" fill="#3e5438"/><path d="M232.89,103.13c.01,3.05,0,6.11,0,9.16,3.05,0,6.11-.02,9.16,0,0,3.19,0,6.4,0,9.59-2.84.95-5.74,1.11-8.66.49.62,2.92.45,5.82-.49,8.66-3.19.86-6.41.86-9.59,0-1.09-3.07-1.08-6.08,0-9.16-.86-3.19-.86-6.41,0-9.59-.85-3.04-.86-6.12,0-9.16.04-.34.14-.85.39-.87,1.1-.11,8.5-.12,8.92.29.15.14.23.35.29.58Z" fill="#3b96be"/><path d="M251.2,121.88v9.16c-3.05,0-6.11,0-9.16,0-.86-3.04-.86-6.12,0-9.16,3.05-.01,6.11,0,9.16,0Z" fill="#348eb7"/><path d="M74.58,223.93c.34,0,.85.08.87.29.42,4.58.43,13.38,0,17.95l-.87.51h-9.16v-9.16c-.34-.04-.85-.14-.87-.39-.11-1.1-.12-8.5.29-8.92.14-.15.35-.23.58-.29.09-.34.23-.84.49-.87.79-.1,7.69-.16,8.05,0,.32.14.48.53.61.87Z" fill="#70983f"/><path d="M65.42,223.93v9.59h-9.59c-1.08-3.22-1.08-6.38,0-9.59,3.19-.86,6.41-.86,9.59,0Z" fill="#8ec33f"/><path d="M55.83,223.93c0,3.19,0,6.4,0,9.59h-9.16c0-3.19,0-6.4,0-9.59,3.04-.86,6.12-.86,9.16,0Z" fill="#45b7e2"/><path d="M46.67,214.77c.86,3.04.86,6.12,0,9.16-3.05,0-6.11,0-9.16,0,0-3.05,0-6.11,0-9.16l.49-.87h8.05l.61.87Z" fill="#3d9bc1"/><path d="M149.15,233.52l.87.49v7.78c2.8-.06,5.6-.03,8.29.89.95,2.84,1.11,5.74.49,8.66,2.92-.62,5.82-.45,8.66.49,3.22-1.07,6.38-1.08,9.59,0,.34.04.84.14.87.39.1.8.15,8.1,0,8.59l-.87.62.87.49v8.05l-.87.61c-.04.34-.14.84-.39.87-.8.1-8.1.15-8.59,0l-.62-.87c-.93-2.85-1.14-5.77-.53-8.71-2.85.66-5.92.78-8.63-.45-3.05-.03-6.11.02-9.16,0v-9.59c-3.19-.01-6.4.02-9.59,0,.03-6.1,0-12.22,0-18.32,3.19-.03,6.4,0,9.59,0Z" fill="#3c96be"/><path d="M158.31,261.43c3.05.03,6.11-.02,9.16,0,0,3.05-.02,6.11,0,9.16l-.49.87h-8.05l-.61-.87v-9.16Z" fill="#3b93bd"/><path d="M167.47,270.59c1.09,3.07,1.08,6.08,0,9.16-3.05,0-6.11,0-9.16,0v-9.16h9.16Z" fill="#3e98c0"/><path d="M167.47,205.61l.87.49v8.05l-.87.61c1.08,3.07,1.07,6.08,0,9.16-.09.34-.23.84-.49.87-1.07.11-7.97.12-8.38-.29-.15-.14-.22-.35-.28-.58v-18.32c3.05-.02,6.11,0,9.16,0Z" fill="#3e98be"/><path d="M121.24,196.02v9.59c-3.22,1.07-6.38,1.09-9.59,0-.86-3.19-.86-6.41,0-9.59,3.22-1.08,6.38-1.07,9.59,0Z" fill="#3894bf"/><path d="M204.98,196.02c.86,3.19.86,6.41,0,9.59-3.19.86-6.41.86-9.59,0,.02-3.19,0-6.4,0-9.59.04-.34.14-.85.39-.87,1.1-.11,8.5-.12,8.92.29.15.14.23.35.29.58Z" fill="#3c9ac1"/><path d="M149.15,177.7c0,3.05-.02,6.11,0,9.16h-9.59c-1.07-3.07-1.09-6.09,0-9.16.04-.34.14-.85.39-.87,1.1-.11,8.5-.12,8.92.29.15.14.23.35.29.58Z" fill="#3994bb"/><path d="M177.07,186.86c.34.09.84.23.87.49.09.8.2,7.7,0,8.05-.18.33-.52.5-.87.61-3.19-.01-6.4,0-9.6,0,0-3.05.02-6.11,0-9.16.04-.34.14-.85.39-.87,1.1-.11,8.5-.12,8.92.29.15.14.23.35.29.58Z" fill="#3793b9"/><path d="M177.07,205.61l.87.49v8.05l-.87.61c-.04.34-.14.85-.39.87-.85.09-8.21.21-8.59,0-.33-.18-.51-.52-.62-.87v-9.16c3.19,0,6.4,0,9.59,0Z" fill="#3c99c2"/><path d="M195.38,205.61c.63,2.34,1.64,8.52.5,9.66s-7.32.13-9.66-.5c-.34-.09-.85-.23-.87-.49-.19-1.86-.19-6.2,0-8.05l.87-.61c3.05,0,6.11,0,9.16,0Z" fill="#3e9bc2"/><path d="M186.22,205.61v9.16c-3.07,1.09-6.08,1.09-9.16,0v-9.16c3.05,0,6.11,0,9.16,0Z" fill="#3b95be"/><path d="M186.22,186.86v9.16c-3.05,0-6.11.01-9.16,0v-9.16c.09-.34.23-.85.49-.87,1.86-.19,6.2-.19,8.05,0l.61.87Z" fill="#3a9ac1"/><path d="M158.31,186.86c-.02,3.05.01,6.11,0,9.16h-9.16c-.01-3.05.02-6.11,0-9.16h9.16Z" fill="#3e99c1"/><path d="M139.56,186.86c-.01,3.05,0,6.11,0,9.16-3.05,0-6.11-.02-9.16,0-.34-.09-.84-.23-.87-.49-.09-.81-.24-7.73,0-8.05.22-.31.49-.53.87-.61.09-.34.23-.85.49-.87,1.86-.19,6.2-.19,8.05,0l.61.87Z" fill="#3f9ec4"/><path d="M167.47,177.7c1.09,3.07,1.07,6.08,0,9.16h-9.16c.02-3.05,0-6.11,0-9.16l.49-.87h8.05l.61.87Z" fill="#3b95bd"/><path d="M167.47,223.93c.95,2.99,1.11,6.03.49,9.1,3.07-.61,6.11-.46,9.1.49,3.07-1.07,6.09-1.09,9.16,0l.87.49v8.05l-.87.61c-6.18,1.24-12.58,1.28-18.75,0-3.07,1.08-6.09,1.09-9.16,0-1.09-3.07-1.08-6.08,0-9.16,0-3.19,0-6.4,0-9.59h9.16Z" fill="#3b95bd"/><path d="M158.31,233.52c0,3.05-.01,6.11,0,9.16-3.05-.01-6.11,0-9.16,0v-9.16h9.16Z" fill="#3594bb"/><path d="M121.24,205.61v9.16h-9.59c-.86-3.04-.86-6.12,0-9.16,3.19,0,6.4-.02,9.59,0Z" fill="#24243c"/><path d="M111.65,223.93c0,3.19,0,6.4,0,9.59-3.07,1.08-6.08,1.07-9.16,0-.34-.04-.85-.14-.87-.39-.11-1.1-.12-8.5.29-8.92.14-.15.35-.23.58-.29.09-.34.23-.84.49-.87.79-.1,7.69-.16,8.05,0,.32.14.48.53.61.87Z" fill="#719e40"/><path d="M111.65,214.77c0,3.05,0,6.11,0,9.16h-9.16c-.34-.09-.85-.23-.87-.49-.19-1.86-.19-6.2,0-8.05l.87-.61.49-.87h8.05l.61.87Z" fill="#6b933e"/><path d="M111.65,233.52c0,3.05,0,6.11,0,9.16-.09.34-.23.84-.49.87-1.07.11-7.97.12-8.38-.29-.15-.14-.22-.35-.28-.58-.34-.09-.85-.23-.87-.49-.19-1.86-.19-6.2,0-8.05l.87-.61c3.05-.01,6.11,0,9.16,0Z" fill="#20213a"/><path d="M111.65,242.68c0,3.05,0,6.11,0,9.16h-9.16c-.34-.09-.85-.23-.87-.49-.19-1.86-.19-6.2,0-8.05l.87-.61h9.16Z" fill="#3c9ac1"/><path d="M102.49,251.84v9.59c-3.05,0-6.11,0-9.16,0,0-3.19,0-6.4,0-9.59.09-.34.23-.84.49-.87.79-.1,7.69-.16,8.05,0,.32.14.48.53.61.87Z" fill="#2e4866"/><path d="M93.33,223.93c.09-.34.23-.84.49-.87.79-.1,7.69-.16,8.05,0,.32.14.48.53.61.87v9.59c-2.84.95-5.74,1.11-8.66.49.62,2.92.45,5.82-.49,8.66h-9.59c-.34,0-.86-.08-.87-.29-.26-4.71-.21-10.6,0-15.33-.3-1.66-.01-2.71.87-3.13.04-.34.14-.85.39-.87,1.1-.11,8.5-.12,8.92.29.15.14.23.35.29.58Z" fill="#739c3f"/><path d="M83.74,223.93v18.75h-9.16v-18.75c.09-.34.23-.85.49-.87,1.86-.19,6.2-.19,8.05,0l.61.87Z" fill="#6c933e"/><path d="M102.49,242.68v9.16h-9.16c0-3.05-.01-6.11,0-9.16l.49-.87h8.05l.61.87Z" fill="#25243d"/><path d="M214.13,261.43v9.16c-3.05,0-6.11-.01-9.16,0v-9.16c3.07-1.07,6.09-1.09,9.16,0Z" fill="#3793ba"/><path d="M223.29,251.84v9.59c-3.05,0-6.11,0-9.16,0-.34-.04-.85-.14-.87-.39-.11-1.1-.12-8.5.29-8.92.14-.15.35-.23.58-.29,3.04-.86,6.12-.86,9.16,0Z" fill="#3b95bd"/><path d="M232.89,242.68l.87.49v8.05l-.87.61c-3.19,0-6.4,0-9.59,0-.34-.09-.85-.23-.87-.49-.19-1.86-.19-6.2,0-8.05l.87-.61c.04-.34.13-.82.39-.87.86-.17,7.63-.16,8.59,0l.62.87Z" fill="#200d11"/><path d="M242.04,233.52c.01,3.05,0,6.11,0,9.16-.09.34-.23.84-.49.87-1.07.11-7.97.12-8.38-.29-.15-.14-.22-.35-.28-.58-.34-.09-.85-.23-.87-.49-.19-1.86-.19-6.2,0-8.05l.87-.61c.09-.34.23-.85.49-.87,1.86-.19,6.2-.19,8.05,0l.61.87Z" fill="#6c953f"/><path d="M242.04,242.68c0,3.05.01,6.11,0,9.16-3.05.01-6.11,0-9.16,0v-9.16h9.16Z" fill="#678e3d"/><path d="M177.07,270.59l.87.49v8.05l-.87.61c-3.19,0-6.4,0-9.59,0,0-3.05.01-6.11,0-9.16h9.59Z" fill="#3b97bc"/><path d="M186.22,261.43v18.32c-3.05,0-6.11,0-9.16,0v-18.32l.49-.87h8.05l.61.87Z" fill="#3d99c1"/><path d="M204.98,233.52l.87.49v8.05l-.87.61.87.49v8.05l-.87.61c-.04.34-.14.85-.39.87-.85.09-8.21.21-8.59,0-.33-.18-.51-.52-.62-.87-.02-3.05.01-6.11,0-9.16-3.05,0-6.11.02-9.16,0v-9.16c6.22-1.18,12.53-1.17,18.75,0Z" fill="#3f9bc2"/><path d="M186.22,242.68v9.16l-.49.87h-8.05l-.61-.87c-3.19,0-6.4.02-9.59,0-.34-.09-.84-.23-.87-.49-.09-.81-.24-7.73,0-8.05.22-.31.49-.53.87-.61,6.24.02,12.51-.03,18.75,0Z" fill="#3f9ac2"/><path d="M204.98,251.84c.34.04.84.14.87.39.13.9.17,7.87,0,8.59l-.87.62c-3.19-.01-6.4,0-9.6,0-.01-3.19.02-6.4,0-9.6h9.59Z" fill="#3d93bd"/><rect x="177.07" y="251.84" width="9.16" height="9.59" fill="#3b93bb"/><path d="M37.51,131.04l.87.49v8.05l-.87.61h-9.59c0-3.05,0-6.11,0-9.16h9.59Z" fill="#77a040"/><path d="M55.83,121.88c1.09,3.07,1.07,6.08,0,9.16-3.04.86-6.12.86-9.16,0v-9.16h9.16Z" fill="#409cc4"/><path d="M46.67,131.04c.34.09.85.23.87.49.19,1.86.19,6.2,0,8.05l-.87.61c-.09.34-.23.84-.49.87-1.07.11-7.97.12-8.38-.29-.15-.14-.22-.35-.28-.58v-9.16h9.16Z" fill="#221f35"/><path d="M65.42,121.88l.87.49v8.05l-.87.61c-3.22,1.09-6.38,1.08-9.59,0-.01-3.05,0-6.11,0-9.16h9.59Z" fill="#3a96be"/><path d="M83.74,112.29c.86,3.19.86,6.41,0,9.59.04-.34.14-.84.39-.87.83-.1,8.19-.17,8.59,0,.33.14.49.53.62.87.34.09.84.23.87.49.09.8.2,7.7,0,8.05-.18.33-.52.5-.87.61-.04.34-.14.84-.39.87-.8.1-8.1.15-8.59,0l-.62-.87c-.86-3.04-.86-6.12,0-9.16-.09.34-.23.84-.49.87-1.07.11-7.97.12-8.38-.29-.15-.14-.22-.35-.28-.58.02-3.19,0-6.4,0-9.59,3.05,0,6.11,0,9.16,0Z" fill="#3a95bc"/><path d="M74.58,121.88c.63,2.34,1.64,8.52.5,9.66s-7.32.13-9.66-.5v-9.16h9.16Z" fill="#3c98be"/><path d="M93.33,103.13c0,3.05,0,6.11,0,9.16-3.19.86-6.41.86-9.59,0,0-3.05,0-6.11,0-9.16h9.59Z" fill="#419cc3"/><path d="M102.49,112.29c.34.04.84.14.87.39.13.9.17,7.87,0,8.59l-.87.62c-.09.34-.23.84-.49.87-1.07.11-7.97.12-8.38-.29-.15-.14-.22-.35-.28-.58-.86-3.19-.86-6.41,0-9.59,3.05,0,6.11,0,9.16,0Z" fill="#21223a"/><path d="M130.4,103.13l.49-.87h8.05l.61.87.87.49v8.05l-.87.61-.49.87h-7.78c.06,2.94.03,5.89-.89,8.72l-.49.87h-8.05l-.61-.87c-.04.34-.14.84-.39.87-.8.1-8.1.15-8.59,0l-.62-.87c-.34-.04-.85-.14-.87-.39-.11-1.1-.12-8.5.29-8.92.14-.15.35-.23.58-.29,3.19-.01,6.4,0,9.6,0,0-3.05-.02-6.11,0-9.16h9.16Z" fill="#3e99c2"/><path d="M139.56,84.37c.34.04.84.14.87.39.1.8.15,8.1,0,8.59l-.87.62c-.09.34-.23.84-.49.87-1.07.11-7.97.12-8.38-.29-.15-.14-.22-.35-.28-.58v-9.59h9.16Z" fill="#3b96c0"/><path d="M111.65,112.29v9.59l-.49.87h-8.05l-.61-.87v-9.59c3.05,0,6.11.01,9.16,0Z" fill="#222d46"/><path d="M139.56,93.97l.87.49v8.05l-.87.61h-9.16v-9.16h9.16Z" fill="#3e9bc3"/><path d="M177.07,75.22v9.16c.34.04.84.14.87.39.1.8.15,8.1,0,8.59l-.87.62c-.04.34-.14.84-.39.87-.8.1-8.1.15-8.59,0l-.62-.87c-.86-3.19-.86-6.41,0-9.59,0-3.05,0-6.11,0-9.16h9.59Z" fill="#419bc3"/><path d="M232.89,75.22v9.16c0,3.19,0,6.4,0,9.59s-.01,6.11,0,9.16h-9.59c-.86-3.04-.86-6.12,0-9.16-1.36-2.62-1.37-6.99,0-9.59,0-3.05.03-6.11,0-9.16h9.59Z" fill="#3895bc"/><path d="M177.07,84.37h18.32c0,3.19-.02,6.4,0,9.59-2.84.95-5.74,1.11-8.66.49.62,2.92.45,5.82-.49,8.66-.09.34-.23.84-.49.87-1.07.11-7.97.12-8.38-.29-.15-.14-.22-.35-.28-.58-.34-.09-.85-.23-.87-.49-.19-1.86-.19-6.2,0-8.05l.87-.61v-9.59Z" fill="#3c95bd"/><path d="M223.29,84.37c0,3.08,0,6.46,0,9.59-.09.34-.23.84-.49.87-.8.09-7.7.2-8.05,0-.33-.18-.5-.52-.61-.87-3.04.86-6.12.86-9.16,0,.01-3.19,0-6.4,0-9.6h18.32Z" fill="#3994bc"/><path d="M204.98,93.97c1.07,3.07,1.09,6.09,0,9.16-.04.34-.14.84-.39.87-.8.1-8.1.15-8.59,0l-.62-.87c-1.09-3.07-1.07-6.08,0-9.16,3.19-.02,6.4,0,9.59,0Z" fill="#3992ba"/><path d="M46.67,186.86c.86,3.33.86,6.7,0,10.03.86,2.9.86,5.83,0,8.72l-.49.87h-8.05l-.61-.87c0-3.19,0-6.4,0-9.59s0-6.11,0-9.16c3.04-.86,6.12-.86,9.16,0Z" fill="#131141"/><path d="M46.67,205.61c.86,3.04.86,6.12,0,9.16h-9.16c0-3.05,0-6.11,0-9.16h9.16Z" fill="#222239"/><path d="M46.67,140.2c.34.04.84.14.87.39.1.8.15,8.1,0,8.59l-.87.62h-9.16v-9.59h9.16Z" fill="#2a273d"/><path d="M46.67,158.95c.34.09.85.23.87.49.19,1.86.19,6.2,0,8.05l-.87.61c-.09.34-.23.84-.49.87-.8.09-7.7.2-8.05,0-.33-.18-.5-.52-.61-.87v-9.16c3.05,0,6.11,0,9.16,0Z" fill="#78a03f"/><path d="M55.83,149.79l.87.49v8.05l-.87.61c-3.04.86-6.12.86-9.16,0v-9.16c.09-.34.23-.85.49-.87,1.86-.19,6.2-.19,8.05,0l.61.87Z" fill="#24273c"/><path d="M46.67,177.7c.86,3.04.86,6.12,0,9.16-3.05,0-6.11,0-9.16,0v-9.16l.49-.87h8.05l.61.87Z" fill="#23233b"/><path d="M46.67,168.11c.34.04.84.14.87.39.1.8.15,8.1,0,8.59l-.87.62h-9.16v-9.59h9.16Z" fill="#2a283b"/><path d="M167.47,84.37c0,3.19,0,6.4,0,9.59-.09.34-.23.84-.49.87-.8.09-7.7.2-8.05,0-.33-.18-.5-.52-.61-.87-.86-3.19-.86-6.41,0-9.59h9.16Z" fill="#4098c2"/><path d="M149.15,84.37c.34.04.84.14.87.39.13.9.17,7.87,0,8.59l-.87.62c-.04.34-.14.84-.39.87-.8.1-8.1.15-8.59,0l-.62-.87v-9.59h9.59Z" fill="#3f9ac2"/><path d="M158.31,84.37c0,3.19,0,6.4,0,9.59-.09.34-.23.84-.49.87-1.07.11-7.97.12-8.38-.29-.15-.14-.22-.35-.28-.58v-9.59h9.16Z" fill="#3a93bc"/><path d="M232.89,214.77v9.16c-3.22,1.07-6.38,1.09-9.59,0-.34-.09-.85-.23-.87-.49-.19-1.86-.19-6.2,0-8.05l.87-.61c3.22-1.08,6.38-1.07,9.59,0Z" fill="#260e12"/><path d="M232.89,223.93c3.05.01,6.11,0,9.16,0,0,3.19-.02,6.4,0,9.6h-9.16c-.34-.04-.85-.14-.87-.39-.11-1.1-.12-8.5.29-8.92.14-.15.35-.23.58-.29Z" fill="#75a040"/><path d="M242.04,205.61c-.01,3.05,0,6.11,0,9.16-3.05,0-6.11-.02-9.16,0-.34-.09-.85-.23-.87-.49-.19-1.86-.19-6.2,0-8.05l.87-.61h9.16Z" fill="#27273e"/><path d="M232.89,140.2c0,3.19,0,6.4,0,9.59-3.19,0-6.4,0-9.6,0,0-3.19.02-6.4,0-9.6.04-.34.14-.84.39-.87.83-.1,8.19-.17,8.59,0,.33.14.49.53.62.87Z" fill="#3892ba"/><path d="M232.89,131.04c-.01,3.05,0,6.11,0,9.16h-9.59c-.01-3.05,0-6.11,0-9.16,3.19,0,6.4,0,9.59,0Z" fill="#338fb7"/><path d="M242.04,121.88c0,3.05,0,6.11,0,9.16-3.05,0-6.11,0-9.16,0,.01-3.05,0-6.11,0-9.16,3.05,0,6.11.02,9.16,0Z" fill="#3e98bf"/><path d="M214.13,131.04v18.75l-.49.87h-7.78c.06,2.8.03,5.6-.89,8.29-.04.34-.14.83-.39.87-.94.15-7.71.18-8.59,0l-.62-.87c-.95-2.84-1.11-5.74-.49-8.66-2.92.62-5.82.45-8.66-.49-.86-3.19-.86-6.41,0-9.59,6.04-1.14,12.21-1.1,18.31-.54-.63-2.91-.54-5.79.44-8.62,3.07-1.07,6.09-1.09,9.16,0Z" fill="#25243c"/><path d="M214.13,121.88c.09-.34.23-.84.49-.87.79-.1,7.69-.16,8.05,0,.32.14.48.53.61.87,0,3.05,0,6.11,0,9.16-3.05,0-6.11,0-9.16,0s-6.11.01-9.16,0c-1.07-3.07-1.09-6.09,0-9.16l.49-.87h8.05l.61.87Z" fill="#409ac2"/><path d="M214.13,158.95c3.05.01,6.11,0,9.16,0,0,3.05-.02,6.11,0,9.16h-9.16c-.34-.09-.85-.23-.87-.49-.19-1.86-.19-6.2,0-8.05l.87-.61Z" fill="#0a608f"/><path d="M214.13,149.79v9.16c-3.07,1.07-6.09,1.08-9.16,0,.01-3.05,0-6.11,0-9.16h9.16Z" fill="#24698e"/><path d="M232.89,196.02v9.59c-.04.34-.14.84-.39.87-.8.1-8.1.15-8.59,0l-.62-.87c-.34-.04-.85-.14-.87-.39-.11-1.1-.12-8.5.29-8.92.14-.15.35-.23.58-.29h9.59Z" fill="#3795bd"/><path d="M223.29,186.86c0,3.05,0,6.11,0,9.16-.09.34-.23.84-.49.87-1.07.11-7.97.12-8.38-.29-.15-.14-.22-.35-.28-.58-.86-3.04-.86-6.12,0-9.16h9.16Z" fill="#3b95bd"/><path d="M214.13,177.7c0,3.05,0,6.11,0,9.16l-.49.87h-8.05l-.61-.87c-.86-3.04-.86-6.12,0-9.16l.49-.87h8.05l.61.87Z" fill="#53a7c6"/><path d="M214.13,168.11c0,3.19,0,6.4,0,9.59h-9.16c-1.08-3.22-1.09-6.38,0-9.59.55-1.29,4.75-1.01,6.34-.87,1.48-.29,2.41,0,2.81.87Z" fill="#61b6cf"/><path d="M223.29,112.29c0,3.19,0,6.4,0,9.59h-9.16c-.34-.04-.85-.14-.87-.39-.11-1.1-.12-8.5.29-8.92.14-.15.35-.23.58-.29l.49-.87h8.05l.61.87Z" fill="#23203b"/><path d="M223.29,103.13c0,3.05,0,6.11,0,9.16h-9.16c-.34-.09-.85-.23-.87-.49-.19-1.86-.19-6.2,0-8.05l.87-.61c.09-.34.23-.85.49-.87,1.86-.19,6.2-.19,8.05,0l.61.87Z" fill="#3e9ac1"/><path d="M74.58,214.77c.34.09.84.23.87.49.09.8.2,7.7,0,8.05-.18.33-.52.5-.87.61h-9.16c-.34-.09-.85-.23-.87-.49-.19-1.86-.19-6.2,0-8.05l.87-.61c.09-.34.23-.85.49-.87,1.86-.19,6.2-.19,8.05,0l.61.87Z" fill="#749a3e"/><path d="M46.67,205.61c1.01-.24,2.03-.45,3.05-.58,2.05-.27,6.05-.7,6.57.06,1.19,1.71.14,7.18-.47,9.68.04-.34.14-.85.39-.87,1.1-.11,8.5-.12,8.92.29.15.14.23.35.29.58v9.16c-3.19,0-6.4,0-9.59,0-1.09-3.07-1.07-6.08,0-9.16-.09.34-.23.84-.49.87-.8.09-7.7.2-8.05,0-.33-.18-.5-.52-.61-.87,0-3.05,0-6.11,0-9.16Z" fill="#6d953e"/><path d="M55.83,214.77c.01,3.05,0,6.11,0,9.16-3.05,0-6.11,0-9.16,0,0-3.05,0-6.11,0-9.16h9.16Z" fill="#22243c"/><path d="M167.47,242.68v9.16c-3.05-.01-6.11,0-9.16,0,0-3.05.02-6.11,0-9.16,3.05.01,6.11,0,9.16,0Z" fill="#3791b9"/><path d="M177.07,214.77l.87.49v8.05l-.87.61c-.04.34-.14.84-.39.87-.8.1-8.1.15-8.59,0l-.62-.87c-.01-3.05,0-6.11,0-9.16h9.59Z" fill="#3c95bb"/><path d="M121.24,186.86v9.16c-3.19,0-6.4,0-9.59,0-.86-3.04-.86-6.12,0-9.16.04-.34.14-.85.39-.87,1.1-.11,8.5-.12,8.92.29.15.14.23.35.29.58Z" fill="#3c99c2"/><path d="M111.65,196.02c0,3.19,0,6.4,0,9.59-3.04.85-6.12.86-9.16,0-.34-.04-.85-.14-.87-.39-.11-1.1-.12-8.5.29-8.92.14-.15.35-.23.58-.29,3.04-.86,6.12-.86,9.16,0Z" fill="#2b2b40"/><path d="M204.98,205.61c.86,6.1.86,12.22,0,18.32-6.24.85-12.51.86-18.75,0-.34-.09-.85-.23-.87-.49-.19-1.86-.19-6.2,0-8.05l.87-.61c3.05-.01,6.11,0,9.16,0,0-3.05-.02-6.11,0-9.16,3.19,0,6.4,0,9.59,0Z" fill="#3c97bd"/><path d="M214.13,186.86c0,3.05,0,6.11,0,9.16.86,3.19.86,6.41,0,9.59-3.04.86-6.12.86-9.16,0,0-3.19,0-6.4,0-9.59-.86-3.04-.86-6.12,0-9.16h9.16Z" fill="#3b93bd"/><path d="M204.98,186.86c0,3.05,0,6.11,0,9.16h-9.59c0-3.05,0-6.11,0-9.16.04-.34.14-.85.39-.87,1.1-.11,8.5-.12,8.92.29.15.14.23.35.29.58Z" fill="#3f99c2"/><path d="M177.07,177.7l.87.49v8.05l-.87.61h-9.59c-.01-3.05,0-6.11,0-9.16.04-.34.14-.85.39-.87,1.1-.11,8.5-.12,8.92.29.15.14.23.35.29.58Z" fill="#3d97bf"/><path d="M186.22,214.77v9.16l-.49.87h-8.05l-.61-.87v-9.16c3.05,0,6.11.01,9.16,0Z" fill="#4199c3"/><path d="M195.38,177.7c.86,3.04.86,6.12,0,9.16h-9.16c-.34-.09-.85-.23-.87-.49-.19-1.86-.19-6.2,0-8.05l.87-.61c.09-.34.23-.85.49-.87,1.86-.19,6.2-.19,8.05,0l.61.87Z" fill="#3e99c1"/><path d="M130.4,177.7v9.16h-9.16c-.34-.09-.84-.23-.87-.49-.1-.79-.16-7.69,0-8.05.14-.32.53-.48.87-.61.09-.34.23-.85.49-.87,1.86-.19,6.2-.19,8.05,0l.61.87Z" fill="#409bc2"/><path d="M177.07,223.93c.34.04.84.14.87.39.1.8.15,8.1,0,8.59l-.87.62c-3.19-.01-6.4,0-9.6,0,0-3.19.02-6.4,0-9.6h9.59Z" fill="#3793ba"/><path d="M186.22,223.93c.34.04.83.14.87.39.15.94.18,7.71,0,8.59l-.87.62c-3.05,0-6.11.01-9.16,0v-9.59h9.16Z" fill="#3d95bf"/><path d="M111.65,205.61c0,3.05,0,6.11,0,9.16h-9.16v9.16h-9.16c-.34-.09-.84-.23-.87-.49-.1-.79-.16-7.69,0-8.05.14-.32.53-.48.87-.61l.49-.87h8.05l.61.87c-.34-.09-.85-.23-.87-.49-.19-1.86-.19-6.2,0-8.05l.87-.61c3.05,0,6.11,0,9.16,0Z" fill="#749e3f"/><path d="M102.49,233.52v9.16h-9.16c.01-3.05,0-6.11,0-9.16,3.05,0,6.11.02,9.16,0Z" fill="#70983f"/><path d="M93.33,205.61c.34.09.84.23.87.49.09.8.2,7.7,0,8.05-.18.33-.52.5-.87.61v9.16h-9.59c-.34-.09-.85-.23-.87-.49-.19-1.86-.19-6.2,0-8.05l.87-.61c-.34-.09-.85-.23-.87-.49-.19-1.86-.19-6.2,0-8.05l.87-.61c.04-.34.14-.84.39-.87.79-.1,8.18-.15,8.59,0l.62.87Z" fill="#78a03f"/><path d="M83.74,214.77v9.16h-9.16v-9.16l.49-.87h8.05l.61.87Z" fill="#709a3f"/><path d="M214.13,251.84v9.59c-3.05,0-6.11.01-9.16,0v-9.59c.09-.34.23-.84.49-.87.79-.1,7.69-.16,8.05,0,.32.14.48.53.61.87Z" fill="#409ac0"/><path d="M223.29,242.68v9.16c-3.05,0-6.11,0-9.16,0-.34-.09-.85-.23-.87-.49-.19-1.86-.19-6.2,0-8.05l.87-.61c.09-.34.23-.85.49-.87,1.86-.19,6.2-.19,8.05,0l.61.87Z" fill="#409ec5"/><path d="M232.89,233.52v9.16h-9.59c-.34-.09-.85-.23-.87-.49-.19-1.86-.19-6.2,0-8.05l.87-.61c.04-.34.14-.85.39-.87,1.1-.11,8.5-.12,8.92.29.15.14.23.35.29.58Z" fill="#2b4e6e"/><path d="M223.29,223.93c.34.04.84.14.87.39.13.9.17,7.87,0,8.59l-.87.62v9.16h-9.16c-.09.34-.23.84-.49.87-1.07.11-7.97.12-8.38-.29-.15-.14-.22-.35-.28-.58v-9.16c2.84-.95,5.74-1.11,8.66-.49-.61-3.07-.45-6.12.5-9.11,3.07-1.08,6.09-1.09,9.16,0Z" fill="#3c98c0"/><path d="M204.98,223.93c.86,3.19.86,6.41,0,9.59-6.24.03-12.51.02-18.75,0v-9.59c6.24,0,12.51,0,18.75,0Z" fill="#3c97c0"/><rect x="204.98" y="242.68" width="9.16" height="9.16" fill="#3c98bd"/><path d="M55.83,131.04c.95,2.84,1.11,5.74.49,8.66,3.07-.61,6.12-.45,9.11.5.86,3.19.86,6.41,0,9.59-.04.34-.14.84-.39.87-.9.13-7.87.17-8.59,0l-.62-.87h-9.16v-18.75c3.05,0,6.11,0,9.16,0Z" fill="#3a95bd"/><path d="M65.42,131.04l.87.49v8.05l-.87.61c-3.19-.01-6.4,0-9.6,0,0-3.05.02-6.11,0-9.16,3.19,0,6.4.02,9.59,0Z" fill="#3d9ac2"/><path d="M83.74,121.88c0,3.05,0,6.11,0,9.16.86,3.04.86,6.12,0,9.16l-.49.87h-8.05l-.61-.87c-3.07,1.09-6.09,1.09-9.16,0v-9.16c3.05-.01,6.11,0,9.16,0,0-3.05-.02-6.11,0-9.16h9.16Z" fill="#3c97c0"/><path d="M93.33,112.29c0,3.19,0,6.4,0,9.59h-9.59c0-3.19,0-6.4,0-9.59,3.19,0,6.4,0,9.59,0Z" fill="#3c98c0"/><path d="M102.49,121.88h9.16l.87.49v8.05l-.87.61-.49.87h-8.05l-.61-.87c-.09.34-.23.84-.49.87-1.07.11-7.97.12-8.38-.29-.15-.14-.22-.35-.28-.58v-9.16h9.16Z" fill="#409ac3"/><path d="M149.15,103.13c1.08,3.07,1.09,6.09,0,9.16,1.08,3.22,1.09,6.38,0,9.59-.04.34-.14.84-.39.87-.8.1-8.1.15-8.59,0l-.62-.87c-.34-.04-.84-.14-.87-.39-.1-.83-.17-8.19,0-8.59.14-.33.53-.49.87-.62v-9.16c.04-.34.14-.85.39-.87,1.1-.11,8.5-.12,8.92.29.15.14.23.35.29.58Z" fill="#3e99c0"/><path d="M130.4,121.88c1.07,3.07,1.09,6.09,0,9.16,1.08,3.07,1.08,6.09,0,9.16l-.49.87h-8.05l-.61-.87c-.34-.09-.84-.23-.87-.49-.1-.79-.16-7.69,0-8.05.14-.32.53-.48.87-.61-.34-.09-.84-.23-.87-.49-.1-.79-.16-7.69,0-8.05.14-.32.53-.48.87-.61h9.16Z" fill="#25233c"/><path d="M121.24,121.88v9.16c-.04.34-.14.84-.39.87-.8.1-8.1.15-8.59,0l-.62-.87v-9.16h9.59Z" fill="#2c3247"/><path d="M139.56,112.29v9.59c-.09.34-.23.84-.49.87-1.07.11-7.97.12-8.38-.29-.15-.14-.22-.35-.28-.58.01-3.19,0-6.4,0-9.6h9.16Z" fill="#3794bc"/><path d="M149.15,93.97c.86,3.04.86,6.12,0,9.16h-9.59v-9.16h9.59Z" fill="#3b96c0"/><path d="M177.07,93.97v9.16c-.04.34-.14.84-.39.87-.9.13-7.87.17-8.59,0l-.62-.87c-.86-3.04-.86-6.12,0-9.16h9.59Z" fill="#3892ba"/><path d="M223.29,93.97c0,3.05,0,6.11,0,9.16h-9.16c-.34-.09-.85-.23-.87-.49-.19-1.86-.19-6.2,0-8.05l.87-.61h9.16Z" fill="#3f9ac3"/><path d="M186.22,103.13c1.07,3.07,1.09,6.09,0,9.16-.09.34-.23.84-.49.87-.8.09-7.7.2-8.05,0-.33-.18-.5-.52-.61-.87-.34-.09-.85-.23-.87-.49-.19-1.86-.19-6.2,0-8.05l.87-.61h9.16Z" fill="#3c9ac1"/><path d="M195.38,93.97c.01,3.05,0,6.11,0,9.16-.09.34-.23.84-.49.87-1.07.11-7.97.12-8.38-.29-.15-.14-.22-.35-.28-.58.01-3.05,0-6.11,0-9.16,3.05,0,6.11.02,9.16,0Z" fill="#25233b"/><path d="M214.13,93.97v9.16c-.09.34-.23.84-.49.87-1.07.11-7.97.12-8.38-.29-.15-.14-.22-.35-.28-.58,0-3.05-.01-6.11,0-9.16,3.05,0,6.11,0,9.16,0Z" fill="#3c96be"/><path d="M204.98,103.13c1.08,3.07,1.08,6.09,0,9.16-.04.34-.14.84-.39.87-.8.1-8.1.15-8.59,0l-.62-.87c-1.09-3.07-1.08-6.08,0-9.16h9.59Z" fill="#222439"/><path d="M74.58,196.02c.34.04.84.14.87.39.1.8.15,8.1,0,8.59l-.87.62c.34.09.84.23.87.49.09.8.2,7.7,0,8.05-.18.33-.52.5-.87.61h-18.75c-.01-3.05,0-6.11,0-9.16-3.05,0-6.11,0-9.16,0,0-2.9,0-5.82,0-8.72l1.01-.9,5.59.03c1.08-.42,1.93-.42,2.56,0,.25-.24.51-.46.8-.63,1.31-.78,13.61-.36,16.25-.17l1.7.81Z" fill="#70993f"/><path d="M55.83,186.86l.87.49v8.05l-.87.61c-.13,0-1.1.75-1.99.84-2.36.21-4.8-.08-7.16.04,0-3.34,0-6.69,0-10.03,3.07-1.08,6.08-1.07,9.16,0Z" fill="#6f973f"/><path d="M55.83,158.95l.87.49v8.05l-.87.61c-.09.34-.23.84-.49.87-.8.09-7.7.2-8.05,0-.33-.18-.5-.52-.61-.87v-9.16c3.05,0,6.11,0,9.16,0Z" fill="#161143"/><path d="M65.42,149.79c.86,3.04.86,6.12,0,9.16-.04.34-.14.83-.39.87-.94.15-7.71.18-8.59,0l-.62-.87v-9.16h9.59Z" fill="#3693bb"/><path d="M55.83,177.7l.87.49v8.05l-.87.61c-3.05.01-6.11,0-9.16,0,0-3.05,0-6.11,0-9.16l.49-.87h8.05l.61.87Z" fill="#749c3f"/><path d="M55.83,168.11c.04-.34.14-.85.39-.87,1.1-.11,8.5-.12,8.92.29.15.14.23.35.29.58,1.08,3.22,1.09,6.38,0,9.59-.04.34-.14.84-.39.87-.8.1-8.1.15-8.59,0l-.62-.87h-9.16v-9.59h9.16Z" fill="#709a3f"/><path d="M167.47,93.97c0,3.05,0,6.11,0,9.16.86,3.04.86,6.12,0,9.16l-.49.87h-8.05l-.61-.87c-1.09-3.07-1.08-6.08,0-9.16-.86-3.04-.86-6.12,0-9.16h9.16Z" fill="#3b97bf"/><path d="M158.31,93.97c0,3.05,0,6.11,0,9.16-.09.34-.23.84-.49.87-1.07.11-7.97.12-8.38-.29-.15-.14-.22-.35-.28-.58,0-3.05,0-6.11,0-9.16h9.16Z" fill="#3d9ac1"/><path d="M223.29,205.61h9.59v9.16c-3.19.02-6.4,0-9.59,0-.09.34-.23.84-.49.87-.8.09-7.7.2-8.05,0-.33-.18-.5-.52-.61-.87-1.08-3.07-1.08-6.09,0-9.16,3.04-.86,6.12-.86,9.16,0Z" fill="#3d95c0"/><path d="M232.89,223.93v9.59h-9.59v-9.59c3.19,0,6.4-.02,9.59,0Z" fill="#2a3248"/><path d="M223.29,214.77v9.16c-3.05,0-6.11,0-9.16,0-1.07-3.07-1.09-6.09,0-9.16h9.16Z" fill="#3e9ac1"/><path d="M186.22,149.79c3.05.01,6.11,0,9.16,0,0,3.05-.02,6.11,0,9.16,1.09,3.07,1.08,6.08,0,9.16,1.09,3.22,1.08,6.38,0,9.59h-9.16c-.34-.04-.85-.14-.87-.39-.11-1.1-.12-8.5.29-8.92.14-.15.35-.23.58-.29-.34-.09-.85-.23-.87-.49-.19-1.86-.19-6.2,0-8.05l.87-.61c-.34-.09-.85-.23-.87-.49-.19-1.86-.19-6.2,0-8.05l.87-.61Z" fill="#3d95be"/><path d="M195.38,121.88c.95,2.84,1.11,5.74.49,8.66,3.07-.61,6.12-.45,9.11.5-.01,3.05,0,6.11,0,9.16-6.24,0-12.51-.02-18.75,0-.86-3.04-.86-6.12,0-9.16-.86-3.04-.86-6.12,0-9.16l.49-.87h8.05l.61.87Z" fill="#24243b"/><path d="M186.22,140.2c0,3.19,0,6.4,0,9.59-3.03,1.19-6.14,1.21-9.16,0-.34-.04-.85-.14-.87-.39-.11-1.1-.12-8.5.29-8.92.14-.15.35-.23.58-.29,3.07-1.08,6.08-1.08,9.16,0Z" fill="#3b95be"/><path d="M204.98,158.95c1.07,3.07,1.09,6.09,0,9.16-.04.34-.15.85-.39.87-2.07.2-6.5.2-8.59,0l-.62-.87c0-3.05.01-6.11,0-9.16h9.59Z" fill="#3c99c2"/><path d="M204.98,121.88c0,3.05.01,6.11,0,9.16-3.19-.01-6.4,0-9.6,0,0-3.05.02-6.11,0-9.16.04-.34.14-.84.39-.87.83-.1,8.19-.17,8.59,0,.33.14.49.53.62.87Z" fill="#282037"/><path d="M214.13,112.29v9.59h-9.16c-1.08-3.22-1.08-6.38,0-9.59l.49-.87h8.05l.61.87Z" fill="#30334f"/><path d="M214.13,158.95v9.16h-9.16c0-3.05-.01-6.11,0-9.16,3.05,0,6.11-.01,9.16,0Z" fill="#247aa4"/><path d="M223.29,196.02v9.59c-3.05,0-6.11,0-9.16,0,0-3.19,0-6.4,0-9.59h9.16Z" fill="#409ac3"/><path d="M204.98,177.7c0,3.05,0,6.11,0,9.16h-9.59c0-3.05,0-6.11,0-9.16.04-.34.14-.85.39-.87,1.1-.11,8.5-.12,8.92.29.15.14.23.35.29.58Z" fill="#3b95be"/><path d="M204.98,168.11c0,3.19,0,6.4,0,9.59h-9.59c0-3.19,0-6.4,0-9.59h9.59Z" fill="#3594bb"/><path d="M214.13,103.13v9.16h-9.16c0-3.05,0-6.11,0-9.16h9.16Z" fill="#325776"/><path d="M121.24,177.7v9.16h-9.59c-.86-3.04-.86-6.12,0-9.16.04-.34.14-.85.39-.87,1.1-.11,8.5-.12,8.92.29.15.14.23.35.29.58Z" fill="#3693bb"/><path d="M111.65,186.86c0,3.05,0,6.11,0,9.16-3.05,0-6.11,0-9.16,0-.34-.09-.85-.23-.87-.49-.19-1.86-.19-6.2,0-8.05l.87-.61c.09-.34.23-.85.49-.87,1.86-.19,6.2-.19,8.05,0l.61.87Z" fill="#429ac4"/><path d="M102.49,196.02v9.59c-3.04.86-6.12.86-9.16,0-.34-.04-.85-.14-.87-.39-.11-1.1-.12-8.5.29-8.92.14-.15.35-.23.58-.29l.49-.87h8.05l.61.87Z" fill="#221d3e"/><path d="M214.13,205.61c0,3.05,0,6.11,0,9.16s.01,6.11,0,9.16c-3.04.85-6.12.86-9.16,0,0-6.1,0-12.22,0-18.32,3.05,0,6.11,0,9.16,0Z" fill="#3d9ac3"/><path d="M139.56,149.79c1.07,3.07,1.09,6.09,0,9.16,1.08,3.07,1.08,6.09,0,9.16,0,3.19,0,6.4,0,9.59h-27.91c-.34-.04-.85-.14-.87-.39-.11-1.1-.12-8.5.29-8.92.14-.15.35-.23.58-.29-1.3-.57-1-4.72-.87-6.34-.29-1.48,0-2.41.87-2.81.04-.34.14-.85.39-.87,1.1-.11,8.5-.12,8.92.29.15.14.23.35.29.58,1.09,3.07,1.08,6.08,0,9.16.55-1.29,4.75-1.01,6.34-.87,1.48-.29,2.41,0,2.81.87-1.08-3.07-1.09-6.09,0-9.16-1.07-3.07-1.09-6.09,0-9.16.09-.34.23-.85.49-.87,1.86-.19,6.2-.19,8.05,0l.61.87Z" fill="#3d99c0"/><path d="M149.15,158.95c0-.34.08-.86.29-.87,2.12-.11,16.7-.33,17.51,0l.51.87c.86,3.04.85,6.12,0,9.16h-9.16l-.49.87h-8.05l-.61-.87h-9.59c0-3.05,0-6.11,0-9.16.04-.34.14-.85.39-.87,1.1-.11,8.5-.12,8.92.29.15.14.23.35.29.58Z" fill="#3b96bd"/><path d="M186.22,168.11v9.59h-9.16v-9.59c.09-.34.23-.84.49-.87.81-.09,7.73-.24,8.05,0,.31.22.53.49.61.87Z" fill="#389ac0"/><path d="M102.49,205.61v9.16h-9.16v-9.16c3.05,0,6.11,0,9.16,0Z" fill="#729b3f"/><path d="M93.33,196.02v9.59h-9.59c-.34-.04-.85-.14-.87-.39-.11-1.1-.12-8.5.29-8.92.14-.15.35-.23.58-.29.04-.34.14-.85.39-.87,1.1-.11,8.5-.12,8.92.29.15.14.23.35.29.58Z" fill="#759d3f"/><path d="M83.74,205.61v9.16h-9.16v-9.16l.49-.87h8.05l.61.87Z" fill="#739c3f"/><path d="M214.13,223.93c-.01,3.19,0,6.4,0,9.6-3.05,0-6.11-.02-9.16,0,0-3.19,0-6.4,0-9.59,3.05,0,6.11,0,9.16,0Z" fill="#3d93bd"/><path d="M74.58,140.2c.34.04.84.14.87.39.1.8.15,8.1,0,8.59l-.87.62c.34.09.84.23.87.49.09.8.2,7.7,0,8.05-.18.33-.52.5-.87.61.34.09.84.23.87.49.09.8.2,7.7,0,8.05-.18.33-.52.5-.87.61l-.49.87h-8.05l-.61-.87c-1.08-3.07-1.08-6.09,0-9.16,0-3.05,0-6.11,0-9.16s0-6.4,0-9.59c3.05.01,6.11,0,9.16,0Z" fill="#409bc2"/><path d="M93.33,131.04c.34.09.84.23.87.49.09.8.2,7.7,0,8.05-.18.33-.52.5-.87.61.34.04.84.14.87.39.1.8.15,8.1,0,8.59l-.87.62c-.04.34-.14.84-.39.87-.9.13-7.87.17-8.59,0l-.62-.87c-.86-3.19-.86-6.41,0-9.59,0-3.05,0-6.11,0-9.16h9.59Z" fill="#3d98c1"/><path d="M83.74,140.2c0,3.19,0,6.4,0,9.59l-.49.87h-8.05l-.61-.87v-9.59h9.16Z" fill="#3793ba"/><path d="M111.65,131.04c.34,0,.85.08.87.29.4,4.59.45,13.4,0,17.95l-.87.51-.49.87h-8.05l-.61-.87c-.34-.04-.85-.14-.87-.39-.11-1.1-.12-8.5.29-8.92.14-.15.35-.23.58-.29-.34-.09-.85-.23-.87-.49-.19-1.86-.19-6.2,0-8.05l.87-.61h9.16Z" fill="#24253d"/><path d="M102.49,131.04v9.16c-.09.34-.23.84-.49.87-1.07.11-7.97.12-8.38-.29-.15-.14-.22-.35-.28-.58v-9.16h9.16Z" fill="#419cc3"/><path d="M158.31,112.29c1.09,3.22,1.07,6.38,0,9.59.95,2.84,1.11,5.74.49,8.66,2.92-.62,5.82-.45,8.66.49.86,3.04.86,6.12,0,9.16-3.07,1.08-6.08,1.08-9.16,0-3.07,1.09-6.08,1.07-9.16,0-2.99.95-6.03,1.11-9.1.49.61,3.07.46,6.11-.49,9.1h-9.16c-1.08-3.22-1.08-6.38,0-9.59,0-3.05,0-6.11,0-9.16l.49-.87h8.05l.61.87c3.02-.7,6.08-1.08,9.14-.52-.62-2.91-.51-5.8.46-8.63.02-3.19,0-6.4,0-9.59.57-1.3,4.72-1,6.34-.87,1.48-.29,2.41,0,2.81.87Z" fill="#3c97bf"/><path d="M149.15,121.88c-.01,3.05,0,6.11,0,9.16-3.19,0-6.4,0-9.6,0-.34-.09-.85-.23-.87-.49-.19-1.86-.19-6.2,0-8.05l.87-.61h9.59Z" fill="#3b93bd"/><path d="M158.31,103.13c0,3.05,0,6.11,0,9.16h-9.16c0-3.05,0-6.11,0-9.16h9.16Z" fill="#409cc4"/><path d="M121.24,131.04v9.16c1.08,3.22,1.07,6.38,0,9.59,1.09,3.07,1.07,6.08,0,9.16h-9.59c-1.3-.57-1-4.72-.87-6.34-.29-1.48,0-2.41.87-2.81v-18.75h9.59Z" fill="#23243a"/><path d="M130.4,140.2c0,3.19,0,6.4,0,9.59l-.49.87h-8.05l-.61-.87c0-3.19,0-6.4,0-9.59h9.16Z" fill="#1d1e36"/><path d="M139.56,121.88v9.16h-9.16c0-3.05-.01-6.11,0-9.16h9.16Z" fill="#3d99c0"/><path d="M177.07,103.13v9.16c-.04.34-.14.84-.39.87-.8.1-8.1.15-8.59,0l-.62-.87c0-3.05,0-6.11,0-9.16h9.59Z" fill="#419bc4"/><path d="M186.22,112.29c1.08,3.22,1.08,6.38,0,9.59-.09.34-.23.84-.49.87-1.07.11-7.97.12-8.38-.29-.15-.14-.22-.35-.28-.58-.34-.04-.85-.14-.87-.39-.11-1.1-.12-8.5.29-8.92.14-.15.35-.23.58-.29h9.16Z" fill="#3a97bd"/><path d="M195.38,103.13c0,3.05,0,6.11,0,9.16-.09.34-.23.84-.49.87-.8.09-7.7.2-8.05,0-.33-.18-.5-.52-.61-.87,0-3.05-.01-6.11,0-9.16h9.16Z" fill="#3e9cc4"/><path d="M204.98,112.29c0,3.19,0,6.4,0,9.59h-9.59c-1.09-3.22-1.08-6.38,0-9.59h9.59Z" fill="#3999be"/><path d="M74.58,177.7c.34.09.84.23.87.49.09.8.2,7.7,0,8.05-.18.33-.52.5-.87.61.34.09.84.23.87.49.09.8.2,7.7,0,8.05-.18.33-.52.5-.87.61-6.12.33-12.69-.45-18.75,0v-9.16c2.99-.95,6.04-1.11,9.11-.5-.62-2.92-.46-5.82.49-8.66l.49-.87h8.05l.61.87Z" fill="#749e40"/><path d="M83.74,186.86l.87.49v8.05l-.87.61v9.59h-9.16v-18.75c.09-.34.23-.85.49-.87,1.86-.19,6.2-.19,8.05,0l.61.87Z" fill="#6e993f"/><path d="M65.42,158.95c0,3.05,0,6.11,0,9.16h-9.59v-9.16h9.59Z" fill="#1f2236"/><path d="M65.42,177.7c-.01,3.05,0,6.11,0,9.16-3.19,0-6.4-.02-9.6,0v-9.16h9.59Z" fill="#6c963f"/><path d="M74.58,168.11c.34.04.84.14.87.39.1.8.15,8.1,0,8.59l-.87.62h-9.16c.02-3.19,0-6.4,0-9.59h9.16Z" fill="#212237"/><path d="M167.47,112.29c.86,3.19.86,6.41,0,9.59-.09.34-.23.84-.49.87-1.07.11-7.97.12-8.38-.29-.15-.14-.22-.35-.28-.58-.02-3.19,0-6.4,0-9.59h9.16Z" fill="#348fb6"/><path d="M186.22,158.95v9.16h-9.16c-.34-.09-.85-.23-.87-.49-.19-1.86-.19-6.2,0-8.05l.87-.61.49-.87h8.05l.61.87Z" fill="#409cc4"/><path d="M186.22,149.79v9.16h-9.16c-.34-.09-.85-.23-.87-.49-.19-1.86-.19-6.2,0-8.05l.87-.61c3.05.01,6.11-.01,9.16,0Z" fill="#3e9ac0"/><path d="M177.07,121.88h9.16c0,3.05,0,6.11,0,9.16l-.49.87h-8.05l-.61-.87c-3.22,1.09-6.38,1.1-9.59,0-.86-3.04-.86-6.12,0-9.16.04-.34.14-.84.39-.87.83-.1,8.19-.17,8.59,0,.33.14.49.53.62.87Z" fill="#3b95be"/><path d="M195.38,112.29c0,3.19-.02,6.4,0,9.59h-9.16c0-3.19,0-6.4,0-9.59h9.16Z" fill="#3a94ba"/><path d="M186.22,131.04c0,3.05,0,6.11,0,9.16-3.05,0-6.11,0-9.16,0-.34-.09-.85-.23-.87-.49-.19-1.86-.19-6.2,0-8.05l.87-.61h9.16Z" fill="#3f99c3"/><path d="M177.07,140.2v9.59c-3.17,1.19-6.43,1.21-9.59,0-.86-3.19-.86-6.41,0-9.59,3.19-.86,6.41-.85,9.59,0Z" fill="#3e99c1"/><path d="M111.65,177.7c0,3.05,0,6.11,0,9.16h-9.16c-.34-.09-.85-.23-.87-.49-.19-1.86-.19-6.2,0-8.05l.87-.61c.09-.34.23-.85.49-.87,1.86-.19,6.2-.19,8.05,0l.61.87Z" fill="#19709c"/><path d="M102.49,186.86v9.16h-9.16c-.34-.09-.84-.23-.87-.49-.1-.79-.16-7.69,0-8.05.14-.32.53-.48.87-.61.09-.34.23-.85.49-.87,1.86-.19,6.2-.19,8.05,0l.61.87Z" fill="#3d98bd"/><path d="M149.15,149.79l.87.49v8.05l-.87.61h-9.59c0-3.05-.01-6.11,0-9.16.04-.34.14-.84.39-.87.83-.1,8.19-.17,8.59,0,.33.14.49.53.62.87Z" fill="#419ec8"/><path d="M111.65,168.11v9.59h-9.16c-.34-.04-.85-.14-.87-.39-.11-1.1-.12-8.5.29-8.92.14-.15.35-.23.58-.29.09-.34.23-.84.49-.87.81-.09,7.73-.24,8.05,0,.31.22.53.49.61.87Z" fill="#67b9d2"/><path d="M130.4,158.95c-.02,3.05.01,6.11,0,9.16h-9.16c-.01-3.05.02-6.11,0-9.16l.49-.87h8.05l.61.87Z" fill="#3995bc"/><path d="M111.65,158.95v9.16h-9.16c-.34-.09-.85-.23-.87-.49-.19-1.86-.19-6.2,0-8.05l.87-.61c.09-.34.23-.85.49-.87,1.86-.19,6.2-.19,8.05,0l.61.87Z" fill="#2c7fab"/><path d="M130.4,149.79c0,3.05.02,6.11,0,9.16h-9.16c-.02-3.05,0-6.11,0-9.16h9.16Z" fill="#3d93ba"/><path d="M158.31,140.2l.87.39v8.31c2.8-.03,5.6-.02,8.29.9.86,3.04.86,6.12,0,9.16h-18.32v-9.16c-.34-.04-.84-.14-.87-.39-.1-.83-.17-8.19,0-8.59.14-.33.53-.49.87-.62,3.05-.01,6.11,0,9.16,0Z" fill="#3f9ac2"/><path d="M177.07,158.95v9.16h-9.59c0-3.05,0-6.11,0-9.16.04-.34.13-.83.39-.87.93-.16,7.68-.17,8.59,0l.62.87Z" fill="#3a9ac0"/><path d="M93.33,186.86v9.16h-9.59v-9.16c.04-.34.14-.85.39-.87,1.1-.11,8.5-.12,8.92.29.15.14.23.35.29.58Z" fill="#232539"/><path d="M83.74,158.95l.87.49v8.05l-.87.61c-.09.34-.23.84-.49.87-.8.09-7.7.2-8.05,0-.33-.18-.5-.52-.61-.87v-9.16l.49-.87h8.05l.61.87Z" fill="#4199c2"/><path d="M83.74,149.79l.87.49v8.05l-.87.61h-9.16v-9.16h9.16Z" fill="#3b95bd"/><path d="M102.49,140.2v9.59c.34.09.84.23.87.49.11,1.07.12,7.97-.29,8.38-.14.15-.35.22-.58.28l-.49.87h-8.05l-.61-.87c-.34-.09-.84-.23-.87-.49-.1-.79-.16-7.69,0-8.05.14-.32.53-.48.87-.61v-9.59h9.16Z" fill="#3c9ac1"/><path d="M93.33,149.79v9.16c-.04.34-.14.83-.39.87-.94.15-7.71.18-8.59,0l-.62-.87v-9.16h9.59Z" fill="#3793bd"/><rect x="102.49" y="149.79" width="9.16" height="9.16" fill="#2383b0"/><path d="M149.15,140.2v9.59h-9.59c.01-3.19,0-6.4,0-9.6,3.19,0,6.4.02,9.6,0Z" fill="#3a93bc"/><path d="M177.07,131.04v9.16c-3.19,0-6.4,0-9.59,0,0-3.05,0-6.11,0-9.16,3.19.02,6.4,0,9.59,0Z" fill="#419cc2"/><path d="M167.47,140.2c0,3.19,0,6.4,0,9.59-3.05-.01-6.11,0-9.16,0v-9.6c3.05,0,6.11,0,9.16,0Z" fill="#3e9cc1"/><path d="M167.47,121.88c0,3.05,0,6.11,0,9.16-3.05-.01-6.11,0-9.16,0,0-3.05.02-6.11,0-9.16h9.16Z" fill="#3c97bd"/><path d="M177.07,112.29v9.59h-9.59c0-3.19,0-6.4,0-9.59h9.59Z" fill="#3d98c1"/><path d="M83.74,177.7l.87.49v8.05l-.87.61h-9.16v-9.16c.09-.34.23-.85.49-.87,1.86-.19,6.2-.19,8.05,0l.61.87Z" fill="#24243a"/><path d="M83.74,168.11c.34.04.84.14.87.39.1.8.15,8.1,0,8.59l-.87.62h-9.16v-9.59h9.16Z" fill="#38a2c8"/><path d="M177.07,149.79v9.16h-9.59c0-3.05,0-6.11,0-9.16,3.19.02,6.4-.01,9.59,0Z" fill="#3a95bd"/><path d="M102.49,177.7v9.16h-9.16c-.34-.09-.84-.23-.87-.49-.1-.79-.16-7.69,0-8.05.14-.32.53-.48.87-.61l.49-.87h8.05l.61.87Z" fill="#2676a1"/><path d="M102.49,168.11v9.59h-9.16c-.34-.04-.85-.14-.87-.39-.11-1.1-.12-8.5.29-8.92.14-.15.35-.23.58-.29.55-1.29,4.75-1.01,6.34-.87,1.48-.29,2.41,0,2.81.87Z" fill="#6bbed3"/><path d="M102.49,158.95v9.16h-9.16c-.34-.09-.84-.23-.87-.49-.1-.79-.16-7.69,0-8.05.14-.32.53-.48.87-.61h9.16Z" fill="#21779f"/><path d="M93.33,177.7v9.16h-9.59v-9.16c.04-.34.14-.85.39-.87,1.1-.11,8.5-.12,8.92.29.15.14.23.35.29.58Z" fill="#419bc5"/><polygon points="93.33 158.95 93.33 168.11 93.33 177.7 83.74 177.7 83.74 168.11 83.74 158.95 93.33 158.95" fill="#3d9ac1"/><path d="M195.38,187.15c0,3.19,0,6.4,0,9.59-3.05-.01-6.11,0-9.16,0v-9.6c3.05,0,6.11,0,9.16,0Z" fill="#3e9cc1"/><path d="M186.72,177.38c0,3.19,0,6.4,0,9.59-3.05-.01-6.11,0-9.16,0v-9.6c3.05,0,6.11,0,9.16,0Z" fill="#3e9cc1"/><path d="M176.88,167.61c0,3.19,0,6.4,0,9.59-3.05-.01-6.11,0-9.16,0v-9.6c3.05,0,6.11,0,9.16,0Z" fill="#3e9cc1"/><path d="M167.91,168.12c0,3.19,0,6.4,0,9.59-3.05-.01-6.11,0-9.16,0v-9.6c3.05,0,6.11,0,9.16,0Z" fill="#3e9cc1"/><path d="M158.53,168.12c0,3.19,0,6.4,0,9.59-3.05-.01-6.11,0-9.16,0v-9.6c3.05,0,6.11,0,9.16,0Z" fill="#3e9cc1"/><path d="M148.94,168.12c0,3.19,0,6.4,0,9.59-3.05-.01-6.11,0-9.16,0v-9.6c3.05,0,6.11,0,9.16,0Z" fill="#3e9cc1"/><path d="M139.06,176.98c0,3.19,0,6.4,0,9.59-3.05-.01-6.11,0-9.16,0v-9.6c3.05,0,6.11,0,9.16,0Z" fill="#3e9cc1"/><path d="M129.92,186.86c0,3.19,0,6.4,0,9.59-3.05-.01-6.11,0-9.16,0v-9.6c3.05,0,6.11,0,9.16,0Z" fill="#3e9cc1"/><path d="M131.71,179.23v9.16h-9.16v-9.16c.09-.34.23-.85.49-.87,1.86-.19,6.2-.19,8.05,0l.61.87Z" fill="#26253c"/><path d="M140.87,188.73v9.16h-9.16v-9.16c.09-.34.23-.85.49-.87,1.86-.19,6.2-.19,8.05,0l.61.87Z" fill="#26253c"/><path d="M150.03,196.45v9.16h-9.16v-9.16c.09-.34.23-.85.49-.87,1.86-.19,6.2-.19,8.05,0l.61.87Z" fill="#26253c"/><path d="M131.71,168.22v9.16h-9.16v-9.16c.09-.34.23-.85.49-.87,1.86-.19,6.2-.19,8.05,0l.61.87Z" fill="#26253c"/><path d="M159.18,196.94v9.16h-9.16v-9.16c.09-.34.23-.85.49-.87,1.86-.19,6.2-.19,8.05,0l.61.87Z" fill="#26253c"/><path d="M168.34,196.14v9.16h-9.16v-9.16c.09-.34.23-.85.49-.87,1.86-.19,6.2-.19,8.05,0l.61.87Z" fill="#26253c"/><path d="M177.5,191.05v9.16h-9.16v-9.16c.09-.34.23-.85.49-.87,1.86-.19,6.2-.19,8.05,0l.61.87Z" fill="#26253c"/><path d="M186.66,184.31v9.16h-9.16v-9.16c.09-.34.23-.85.49-.87,1.86-.19,6.2-.19,8.05,0l.61.87Z" fill="#26253c"/><path d="M194,168.49v19.56h-9.16v-19.56c.09-.72.23-1.81.49-1.86,1.86-.41,6.2-.4,8.05,0l.61,1.86Z" fill="#26253c"/><path d="M220.14,153.78v14.96h-13.74v-14.96c.14-.55.35-1.38.74-1.42,2.79-.31,9.3-.3,12.08,0l.92,1.42Z" fill="#fab9a7"/><path d="M110.35,157.39v14.96h-13.74v-14.96c.14-.55.35-1.38.74-1.42,2.79-.31,9.3-.3,12.08,0l.92,1.42Z" fill="#fab9a7"/></g></svg>