<?xml version="1.0" encoding="UTF-8"?><svg id="Layer_2" xmlns="http://www.w3.org/2000/svg" viewBox="0 0 750.35 596.46"><g id="Layer_4"><path d="M351.75,1.79h41.96c.33,0,.67,0,1,0h63.94c.67,0,1.33,0,2,0,4.71,1.68,12.34,1.67,16.98,0,2.66,0,5.33,0,7.99,0,1.04,1.66,3.79,1,5.48,1.02,74.46.92,152.33,1.85,226.29-.02,1.14,4.58.1,8.39,0,12.98l14.98-.99c0,.33,0,.67,0,1-.18,9.64.13,19.34,0,28.98h-14.99c2.32,10.45-.09,21.33,1,31.96h-16.98v29.97h-14.99v30.97h-16.98c2.63,10.56,1.43,21.26,2,31.97h-15.98c-.58,1.4,1,2.99,1,3.5v27.47h-15.98c1.68,10.07-.15,19.84,0,29.97h-15.98c-.58,1.4,1,2.99,1,3.5v25.48h-15.98c2.72,9.99.42,20.59,1,30.97h-15.98c1.6,4.78,3.5,29.64.89,31.86-1.24,1.06-14.88-1.41-14.88,1.61v26.47h-15.99c1.58,10.03.06,19.89,0,29.98H2.09c-.07-9.65.05-19.34.01-28.98,2.02.69,5.3.58,6.98-.99,2.98-.09,6.01.07,9,0l-1.01-30.97,15.99-1v-27.97l15.98-1v-28.47c0-2.45,10.74-1.25,12.99-1.49l1.99-30.97h15.98v-30.97l13.98,1.99-1-31.97c4.4-.79,13.48,1.98,15.99-1.99,2.92-4.63-.11-22.5,1-28.97,4.19-.82,10.49.59,14.99,0v-30.97h14.99v-29.97h14.99c-1.7-10.61-.79-21.3,0-31.97h14.49c6.08,0,.55-2.38.49-2.64-1.36-5.83,1.89-6.19,2.09-7.78.41-3.24.35-11.79.01-15.12-.25-2.41-2.28-.61-2.08-2.41h14.99c.05-2.99-.08-6.01,0-9l1.99-4c26.75-.77,53.73,1.07,80.47,0,1.93-.08,4.01,1.03,3.45-2,3.68,0,7.89,0,11.49,0h56.94c3.98,0,8.44.99,12.49,1ZM225.87,29.76h-22.98v30.97c-4.19,1.44-8.62.98-12.99,1-.61-.84-.6-.25-1,0-.33.2-1.52-.27-2,1-.16.43.08,1.36,0,2-1.41,1.25-1.38,2.79,0,4-.02.33.02.67,0,1-2.13,2.37-.57,6.85-1,9.99-.39,3-.73,5.98-1,8.99-3.21-.31-7.6.58-10.44.07-1.41-.26.5-3.41-1.53-3.06l-2.01,3.99c-.33,0-.67-.02-1,0-.66.04-1.34-.06-2,0-.05,3.28-.05,7.21,2,10-.04,1.41.04,3.07,0,4-.26,5.72-1.83,11.91-1,17.98-4.97-.18-10.01.13-14.99,0-.03,4.98.06,10.01,0,14.99-.66.03-1.33-.05-2,0v15s-14.48-.01-14.48-.01l2.49,1c-.11.02-1.92.92-2,1-1.63,1.64-1.19,7.83-1.07,10.61.08,1.77,1.06,3.18,1.07,3.38.26,4.94-.93,10.43,1,14.99-4.64-.18-9.35.13-13.99,0-.18,4.63.27,9.37,0,13.99-.28,4.94-1.71,10.48-1.14,15.84l-17.84,2.14v14.99c-4.32.05-8.67-.03-12.99,0-.03,4.98.05,10.01,0,14.99-.04,4.32,0,8.67,0,12.99v15.98c-3.95-.11-9.77,1.06-13.99,1-1.67.89-.89,3.37-1,5-.07.99,0,2.01,0,3,0,1.66-.08,3.34,0,5,.05,1.09-.31,2.52,1,3-.7,3.68.49,9.04,0,12.99-3.34-.08-14.24-.76-15.98,1-.39.39-1.11.6-.99,1.47l-1.01,26.51c-5.31.15-10.68-.11-15.99,0v15.99s.57.91.57.91c11.01,2.3,21.61.21,32.41.09,35.24-.39,70.61.05,105.9,0,5.26,0,9.83,1.01,14.99,1,4.52-.01,9.83-.98,14.99-1,28.29-.1,56.63.09,84.92,0,2.04,0,3.94-.99,5.99-1,4.61-.02,10.29.02,14.99,0,5.65-.02,11.34.02,16.98,0,.67,0,1.33,0,2,0,3.32-.01,6.67.01,9.99,0,5.98-.02,12,.02,17.98,0,6.65-.02,13.33-.01,19.98,0,.33,0,.67,0,1,0,12.64.03,25.33-.12,37.96,0,.33,0,.67,0,1,0,4.8.05,10.24.03,14.99,0,1.33,0,2.67-.02,4,0,.16,0,.69.97,3,1,.67,0,1.33,0,2,0,1.75,0,1.89-1,2-1,.67,0,1.33,0,2,0,.07,0,.32.99,1,1,1,0,2,.02,3,0,5.13-.08,9.19-.64,13.99-1,2.14,1.18,5.13,1,7.49,1h23.98c6.58,0,14.25.84,20.48-1,8.82.37,17.15.77,25.97,1v-27.97l13.4-.22c.58,0,.42-.6.59-.77,2.56-2.67.15-23.82,1-28.97,3.18-2.77,12.6,1.09,15.98,0,1.55-.5.9-1.33,1.03-2.46.51-4.32-1.05-27.5-.04-28.51,3.32-.53,9.75,1.23,11.99-.99,1.85-1.83.97-12.49,1-15.98.03-4.58-.75-9.8,1-13.99.58-.03,1.87-.92,3-1,1.32-.09,2.68.1,4,0,.66-.05,1.34.04,2,0,1.66-.1,3.35.08,5,0,.11-6.98-.17-14.01,0-20.98.06-2.66-.05-5.34,0-8,.51-.51,12.01.4,14.41.02,1.25-.2.3-3.81.58-5.01.01.27,1.16,5.14,1.99,4.99v-29.97c3.86-.6,11.26,1.31,14-.99.15-.13-.12-.68,0-1,.43-1.17,0-.88,0-1,.04-.66-.02-1.33,0-2,1.58-.66,1.58-4.34,0-5,.02-2,0-4,0-5.99,0-5.65,0-11.33,0-16.98.58-.03,2-.9,3.44-1.01,3.82-.27,7.73.2,11.55.01.03-4.32-.05-8.67,0-12.99.06-5.65-.04-11.34,0-16.98h14.49c2.6-3.08.3-9.05.41-12.49.19-5.78,2.05-12.29,1.09-18.48h14.99c.09-3.64-.14-7.34,0-10.99l1.99,3.99v-21.98c4.17,0,7.12.56,11-.99.51-.2,1.8.6,2.04-.63l-.04-14.36c-5.83.04-11.69-.02-17.53-.04-28.79-.1-58.28.08-87.37.04-5.89,0-12.32,0-17.98,0-35.28-.02-70.61,0-105.9,0-5.98,0-12,0-17.98,0-33.83.01-67.88-.02-101.9,0-6.37,0-12.88,0-18.98,0-35.9,0-73.17-1.28-108.89,0Z" fill="#a3a09b"/><path d="M733.37,15.78l13.99.99.99,41.96c-.17,4.29.3,8.71,0,12.99-.06.86-.6,1.77,0,2.99l-14.36-.04c-1.23.24-.42,1.53-.63,2.04-1.51,3.78-1.16,7.39-1,11.53.07,1.92-1.02,4.01,2,3.45,0,1.33.02,2.67,0,4l-1.99-2.99v11.99c-2.77.52-14.3-1.16-15,.99-.36,1.1.05,4.38,0,5.99-2.27,8.09-2.06,16.65-1.99,24.98-3.16.07-6.37-.11-9.54,0-1.92.06-4.01-1.02-3.45,2-.36.05-.78-.1-1,0-1.4.66-.94,1.21-1.05,2.44-.48,5.42-.03,12.43.03,18.06.02,1.69-.64,4.44,1.02,5.48-.03,1.33.04,2.67,0,4-.54.52-11.9-1.02-14.99,0-1.01.33-.9.43-1.03,1.44-1.17,8.96.93,20.29.03,29.53-2.93.96-10.31-.89-13.44-.06-1.25.33-.23,2.43-.55,3.06-2.95,5.91-1.08,3.61-.96,9.45.11,5.17-.17,10.37-.04,15.53-3.82.1-7.68-.16-11.51,0-2.46.1-3.26-.7-1.48,2-.33,0-.67-.02-1,0-.66.04-1.34-.06-2,0v28.98s-12.49-.01-12.49-.01l1.5,2c-1.44.18-1.77-.34-3,1-1.7,1.86-1.07,17-1.3,21.19-.09,1.69-2.17,3.2,1.3,2.79-.03,1,.04,2,0,3h-15.99s.99,31.96.99,31.96h-13.98c-2.03.67-.88,12.53-.99,15.42-.08,2.04-1.19,3.96-1.02,6.05l2.01-2.49c-.05,3.32.04,6.68,0,10h-15c-.15,1.27.21,2.78,0,3.99l-2-1.5v26.48c-.89.9-12.87-1.43-14.98.99v1c-.51.11-.72.65-1,1-2.38,2.97-.33,11.86-1,15.98-9.38.96-21.22-.13-30.97,0-4.81-1.85-11.57-.99-16.98-1-33.47-.06-66.97.06-100.46.06-6.55,0-3.08.44-5.11.92-1.6.38-4.33-.78-5.33,1.02-2.73-.28-5.29-.53-7.99-1-.9-.16-1.64-.92-3,0-.08-.11-.65.06-1,0l-.5-.98-.5.98c-1.6-.16-3.36.05-5,0l-.51-.99-1.49.99c-1-.02-2,0-3,0l-.5-.98-.5.98c-.33,0-.67,0-1,0,.59-3.33-3.4-2.83-1,0-9.01-.04-17.96.12-26.97,0,.1-.63-.04-1.35,0-1.99-.65-.09-1.35.07-1.99,0-1.25-.15-2.7.02-4,0-.33,0-.67-.02-1,0-.99.05-2.01-.09-3,0-.33.03-.67-.04-1,0-6.3.17-12.68-.23-18.98,0-2.9.11-5.52.98-8.45,1.05-51.23,1.23-102.64-1.02-153.89-.05l7.49,2h-90.91c1.8-.18,5.14-2,7.99-1.01v-.99s-95.9,0-95.9,0c-.03-5.31.04-10.67,0-15.98h562.46c.05-10.08,1.57-19.94,0-29.97h15.99s0-26.47,0-26.47c0-3.02,13.64-.55,14.88-1.61,2.61-2.22.71-27.08-.89-31.86h15.98c-.58-10.38,1.72-20.97-1-30.97h15.98v-25.48c0-.5-1.58-2.1-1-3.5h15.98c-.15-10.13,1.68-19.9,0-29.97h15.98v-27.47c0-.5-1.58-2.1-1-3.5h15.98c-.57-10.71.63-21.41-2-31.97h16.98v-30.97h14.99v-29.97h16.98c-1.09-10.63,1.33-21.51-1-31.96h14.99c.12-9.64-.18-19.34,0-28.98h1Z" fill="#5d5f66"/><path d="M282.81,565.24c-1.5.16-3.82,1.71-5.99,1,.95,4.17-2.6,14.16,3,14.98,4.89.72,12.67,0,17.98,0,.33,0,.67,0,1,0,25.42.19,51.39.11,76.92,0,.33,0,.67,0,1,0,34.26-.18,69.22-.91,103.36-1.04,12.17-.05,24.35.13,36.5.04.66-.14.72-.69,1-1,.16-.18-.15-.73,0-1,2.11-3.85,2.65-7.53,2-11.99-.07-.47-.52-.89-1-1,.35-.04,1.49-1.66,2.99-.99v15.98h150.86c-.49,2.99,1.09,13.13-.93,14.55-1.53,1.07-10.84-.36-13.56-.34-160.81.95-322.96,2.58-483.48,1.83-27.19-.13-54.31-.68-81.47-1.05l1-14.99h180.82v-14.49c0-1.74,6.63-2.34,7.99-.5Z" fill="#bdb7ac"/><path d="M392.71,397.4c.33,0,.67,0,1,0s.67,0,1,0,.67,0,1,0c1,0,2-.02,3,0,.54.01,1.52-.01,2,0,1.64.05,3.4-.16,5,0,.33.03.68-.05,1,0,.35.06.92-.11,1,0,.43.6-.37,5.01,3,0,2.7.47,5.27.72,7.99,1,4.02.41,3.56.55,7.99,0v36.96c0,3.32-.02,6.67,0,9.99,0,.67,0,1.33,0,2,.02,2.33-.03,4.67,0,6.99.03,2.66-.04,5.33,0,7.99.06,3.98-.11,8.01,0,11.99.25,9.63,1.7,19.28,1,28.97h13.99v15.98h16.99c.89,2.23-1.23,14.24-.59,15.01,2.58,3.11,12.6-1.27,13.43,1.62,1.06,3.69-.02,10.52-.86,14.35h17.98c-.33,4.64.94,9.63-1,13.98,9.67-1.57,21.86,2.1,30.97,1.01.48.11.93.53,1,1h-7.99c-.32,1.97,2.47.55,3,1s-5.49,13.17,2.99,10.98c-.15.27.16.82,0,1l-1,1c-12.15.08-24.34-.09-36.5-.04-34.14.13-69.1.87-103.36,1.04h-1c-25.54.11-51.51.19-76.92,0h-1c-5.31,0-13.09.72-17.98,0-.56-3.02,1.53-1.93,3.45-2,38.7-1.29,78.58.18,117.43,0,1.66,0,3.33,0,5,0,.67,0,1.33,0,2,0,21.3-.12,42.5-.91,63.6-1.63,3.37-.11,20.97,1.65,22.31.63,1.11-4.02-7.07-1.04-7.99-2-1.78-1.85,2.02-3.38,2.05-3.61.14-1.09-1.8-8.25-2.7-8.45-2.08-.47-5.28,1.13-7.8,1.11-3.11-.02-8.45.03-11.11-.12-1.65-.09-2.36-1.94-3.92-1.96-.67,0-.35,2-1.07,2.06-7.43.6-18.34-1.07-25.91-1.1-3.84-.02-9.47,1.14-13.03,1.12-2.85-.01-9.1-2.11-11.44-1.04-1.13-19.34,1.17-39.19.03-58.47-.14-2.35-1.96-4.3-1.82-5.8,2.51-27.26,1.89-55.6,1.73-83.05,0-1.56,1.04-2.97,1.06-4.52-5.63-2.43-11.53.07-16.49,0-5.55-.09-11.72-1.4-16.93-1.87-1.83-.17-4.32,1.87-6.9-.05-1.31-.97-.6-4.79-3.64-4.07v24.97s-2-4-2-4c.04-1-.06-2.01,0-3,0-.07.94-.26,1-1,.14-1.8.14-4.19,0-5.99-.07-.85-.03-1.73-1-2-.09-.98.12-2.03,0-3-.85-6.66-1.03-8.21,0-14.99,9.02.12,17.96-.04,26.97,0Z" fill="#37373f"/><path d="M367.73,431.37l24.31-.04c.99.23,1.25,1.95,1.39,2.76,2.05,11.57.28,33.01.31,45.77.07,23.29.56,47.39,0,70.93-.11,4.81-1.86,9.1-.04,14.44h-85.91s0-9.99,0-9.99c.55-.55,9.37.53,11.37.05,1.24-.3.42-1.56.63-2.04.45-1.06.89-2.88,1-3,.22-.22,1.83.24,2,0,.42-.56-.21-10.37-.04-12.55.2-2.59,1.64-1.25,3.03-1.45l-3.99-.99c.81-2.54,10.65.26,13.05-1.43,1.62-1.14.81-5.51.94-7.56,1.83-.64.6-4.57,1-5,.47-.51,11.86.39,13.98,0-.55-1.86-5.34-.99-6.99-.99,1.22-2.22,5.84-.22,6.89-1.1,1.52-1.27.96-13.05,1.1-15.88,3.51-1.21,9.47-.25,12.34-.98,1.03-.26.56-1.95.65-2.01.09-.06,1.89,1.16,1.99,1,.22-13.15-.25-26.35-.04-39.51.06-4.09,2.46-8.39-.95-12.45.03-4.32-.07-8.67,0-12.99l1.99,1c.09-2.37.68-3.44-1.99-3,.05-2.32-.1-4.67,0-6.99l2,4Z" fill="#505461"/><path d="M367.73,431.37v-24.97c3.04-.72,2.34,3.1,3.64,4.07,2.58,1.91,5.07-.12,6.9.05,5.21.47,11.38,1.79,16.93,1.87,4.96.08,10.86-2.42,16.49,0-.02,1.55-1.07,2.96-1.06,4.52.16,27.46.78,55.79-1.73,83.05-.14,1.5,1.68,3.45,1.82,5.8,1.14,19.28-1.16,39.13-.03,58.47-.41.19-.53,2.27-1.28,2.77-.84.56-2.55.07-2.72.23-1.16,1.14,2.81,5.17,2,6.98-3.14.64-8.74.1-7.99,5-38.85.18-78.73-1.29-117.43,0-1.92.06-4.01-1.02-3.45,2-5.59-.82-2.05-10.82-3-14.98,2.17.7,4.49-.84,5.99-1,.98-.1,2.01.05,3,0,6.4,2.28,14.24.41,20.98.99.26-.8-.98-.9-1-.99-.59-3.53.42-8.28,0-11.99,1.66-.07,3.34.09,5,0l.5.98.5-.98c2.65-.11,5.34.07,7.99,0-.21.48.61,1.74-.63,2.04-2,.48-10.82-.6-11.37-.05v10s85.92,0,85.92,0c-1.82-5.34-.07-9.63.04-14.44.56-23.54.07-47.65,0-70.93-.04-12.77,1.73-34.21-.31-45.77-.14-.82-.4-2.53-1.39-2.76l-24.31.04Z" fill="#42444d"/><rect x="687.42" y="580.23" width="28.97" height="14.99" fill="#bdb7ac"/><path d="M726.38,1.79c-2.89.29-5.37.91-8.99,1-73.96,1.87-151.83.94-226.29.02-1.69-.02-4.44.64-5.48-1.02,39.12-.03,78.29.26,117.43.04,38.21-.22,77.59-3.19,115.88-1.08,2.54.14,4.9,1.15,7.46,1.04Z" fill="#918d87"/><path d="M335.76,395.41l8.99,2c-36.22-.44-72.24.95-108.44,1.05-14.71.04-29.69.15-44.41-.05l-1.49-.99-.51.99c-1,0-2,.02-3,0-.41-1.56-3.67-1.49-4,0-.66-.04-1.33.03-2,0l-7.49-2c51.25-.96,102.66,1.29,153.89.05,2.93-.07,5.54-.94,8.45-1.05Z" fill="#505461"/><path d="M529.57,396.4v1c-3.42.05-8.22,1-11.49,1h-73.93c-6.45,0-9.44-.88-16.48,0-.33.04-.67-.04-1,0-4.43.55-3.98.41-7.99,0,.99-1.8,3.72-.64,5.33-1.02,2.03-.48-1.44-.92,5.11-.92,33.49,0,66.99-.12,100.46-.06Z" fill="#505461"/><path d="M726.38,1.79c1.93-.19,4.01.03,5.95.05.13,2.87,1.14,5.55,1.13,8.47,0,1.92-1.07,3.72-1.09,4.47l-14.98.99c.1-4.59,1.13-8.4,0-12.98,3.62-.09,6.1-.71,8.99-1Z" fill="#bdb7ac"/><path d="M365.73,415.39c.08.85.02,1.72,1,2,.14,1.8.14,4.19,0,5.99l-1,1c-.06.99.04,2,0,3-.1,2.32.05,4.67,0,6.99-.01.67.01,1.33,0,2-.07,4.32.03,8.67,0,12.99-.12,16.97.78,34.11-1,50.95-.09.06.38,1.75-.65,2.01-2.87.74-8.83-.23-12.34.98.03-.66-.05-1.34,0-2,1.57-1.18,11.65,2.37,12-2.5l2-86.42c.12.96-.09,2.02,0,3Z" fill="#fff"/><path d="M246.85.79c.14,1.5,2.86,1.5,3,0,6.98-.02,14,0,20.98,0,.56,3.03-1.53,1.92-3.45,2-26.74,1.06-53.72-.78-80.47,0l-1.99,4c.05-1.99-.04-4.01,0-6,10.25.84,20.21-.02,30.51-.04s20.89.06,31.43.04Z" fill="#918d87"/><path d="M2.09,380.42c.04,5.31-.03,10.67,0,15.98h95.91v.99c-2.85-.99-6.19.83-7.99,1.01-.65.06-1.34-.04-2,0-.66-1.58-4.34-1.58-5,0-.66.02-1.33-.02-2,0-3.7-1.66-11.08-1.69-14.99,0-.67,0-1.33,0-2,0-3.7-1.66-11.08-1.69-14.99,0-1.45-.02-3.42-1-5.44-1.04-14.49-.29-29.03.29-43.51.04.18-4.83-.21-9.73-.04-14.57.05-1.29,1.04-2.29,1.04-2.42h1Z" fill="#3d3f47"/><path d="M733.37,15.78h14.99c.96,14.5.58,28.49,0,42.96l-.99-41.96-13.99-.99Z" fill="#3d3f47"/><path d="M717.39,111.68c-.26,8.96.19,18.01,0,26.98-.53.53-12.44-.35-14.99,0-.56-3.02,1.53-1.93,3.45-2,3.17-.11,6.38.08,9.54,0-.07-8.33-.27-16.89,1.99-24.98Z" fill="#42444d"/><path d="M656.45,229.57v2l-.99,1.49.99.51c.02,4.96-.93,9.19-1,13.99l1,1c-.03,3.92-1.35,7.07,0,10.99l-1,1c-1.69.3-4.11-.08-5.99,0-.41-1.56-3.67-1.49-4,0-.66.04-1.35-.08-2,0l-1.5-2h12.49s0-28.97,0-28.97c.66-.05,1.34.05,2,0Z" fill="#42444d"/><path d="M458.64,1.79h-63.94c21.3.04,42.64,0,63.94,0Z" fill="#918d87"/><path d="M671.43,202.59v26.98c-1.32.03-2.66-.04-4,0l-.5-.98-.5.98c-2.98.12-6.01-.07-8.99,0-1.78-2.7-.98-1.9,1.48-2,3.82-.15,7.69.11,11.51,0-.13-5.16.15-10.36.04-15.53-.13-5.84-1.99-3.54.96-9.45Z" fill="#3d3f47"/><path d="M596.51,353.45c-1.14,6.82.23,22.39-1,25.97-1.6.06-4.14-.62-5,1-.99.07-2-.05-3,0-1.72-2-5.49-.68-7.99-1,2.11-2.42,14.09-.1,14.99-.99v-26.48s1.99,1.5,1.99,1.5Z" fill="#3d3f47"/><path d="M393.7,1.79h-41.96c13.97.04,27.99-.03,41.96,0Z" fill="#918d87"/><path d="M9.08,350.45c-1.68,1.57-4.96,1.68-6.98.99.04,9.64-.08,19.33-.01,28.98h-1c.27-9.89-.47-20.04,0-29.98,2.65-.06,5.34.09,8,0Z" fill="#918d87"/><path d="M108.98,165.63c-1.1-9.25-.07-18.26-.58-27.49.08-.88.79-1.33,1.58-1.48-1.1,6.48,1.92,24.34-1,28.97Z" fill="#918d87"/><path d="M426.67,433.37v-34.97c.33-.04.67.04,1,0l-1,34.97Z" fill="#bdb7ac"/><path d="M734.37,95.7c-.01.67.02,1.33,0,2-1.58.66-1.58,4.34,0,5-.03,1,.05,2,0,3h-16.99c.7-2.15,12.23-.48,14.99-1v-11.99s1.99,2.99,1.99,2.99Z" fill="#3d3f47"/><path d="M685.42,199.6c.9-9.24-1.2-20.57-.03-29.53.13-1.02.02-1.11,1.03-1.44-.88,9.27,1.18,20.52.03,29.52-.13,1.01-.01,1.12-1.03,1.45Z" fill="#37373f"/><path d="M701.4,164.63c-1.65-1.04-1-3.79-1.02-5.48-.06-5.63-.51-12.64-.03-18.06.11-1.23-.35-1.78,1.05-2.44-.12,8.64.16,17.34,0,25.97Z" fill="#37373f"/><path d="M640.46,285.51c-3.47.41-1.39-1.1-1.3-2.79.23-4.19-.4-19.33,1.3-21.19-.17,7.97.23,16.01,0,23.98Z" fill="#42444d"/><path d="M611.49,339.46l-2.01,2.49c-.17-2.1.94-4.01,1.02-6.05.11-2.89-1.04-14.75.99-15.41-.08,6.31.1,12.67,0,18.98Z" fill="#3d3f47"/><path d="M354.74,395.41c-1.37.15-5.58,1.28-6.99,2-.99-.05-2,.03-3,0l-8.99-2c6.3-.23,12.68.17,18.98,0Z" fill="#42444d"/><path d="M748.36,71.72l1.99,3.99c-.78.7-12.8-.67-15.34-.03-.95.24-.73,1.3-.64,2.03h-1v-1c.2-.51-.6-1.8.63-2.04l14.36.04c-.61-1.23-.07-2.13,0-2.99Z" fill="#3d3f47"/><path d="M733.37,77.72c.06,1.6-.62,4.14,1,5v2c-1.5.14-1.5,2.86,0,3,0,1.33,0,2.66,0,4-3.02.56-1.93-1.53-2-3.45-.16-4.14-.51-7.75,1-11.53v1Z" fill="#42444d"/><path d="M305.79,565.24c.02.09,1.25.19,1,.99-6.74-.58-14.58,1.29-20.98-.99,6.61-.35,13.36.26,19.98,0Z" fill="#37373f"/><path d="M321.77,535.27l3.99.99c-1.39.21-2.83-1.14-3.03,1.45-.17,2.18.46,11.99.04,12.55-.17.23-1.78-.23-2,0,.14-.93-.2-2.17,0-3l1-1c.16-.89-.08-2.02,0-3v-1c.17-2.3-.12-4.68,0-6.99Z" fill="#37373f"/><path d="M343.75,520.28c1.65,0,6.44-.87,6.99.99-2.12.4-13.51-.51-13.98,0-.4.43.83,4.36-1,5,.12-1.98-.1-4.01,0-6,2.66,0,5.34.01,8,0Z" fill="#37373f"/><path d="M578.52,381.42c.16,5.36-.65,10.8.99,15.98-.65.06-1.34-.06-1.99,0,.67-4.13-1.38-13.02,1-15.98Z" fill="#42444d"/><path d="M546.55,397.4c-5.65.08-11.34-.09-16.98,0v-1c5.41,0,12.17-.85,16.98,1Z" fill="#42444d"/><path d="M477.62,1.79c-4.64,1.67-12.28,1.68-16.98,0,5.65,0,11.34,0,16.98,0Z" fill="#918d87"/><path d="M64.03,398.4c-4.98-.04-10,.07-14.99,0,3.91-1.69,11.29-1.66,14.99,0Z" fill="#5d5f66"/><path d="M81.01,398.4c-4.96.14-10.02.04-14.99,0,3.91-1.69,11.29-1.66,14.99,0Z" fill="#5d5f66"/><path d="M426.67,474.33c-.11-3.98.06-8.01,0-11.99,1.66,2.67,1.7,9.12,0,11.99Z" fill="#bdb7ac"/><path d="M363.73,395.41c.65.08,1.34-.08,1.99,0-.04.65.1,1.36,0,1.99-2.66-.04-5.33.06-7.99,0l1-2c.33-.02.67,0,1,0,.41,1.56,3.67,1.49,4,0Z" fill="#505461"/><path d="M426.67,445.36c-.02-3.32,0-6.67,0-9.99,1.66,2.02,1.71,7.78,0,9.99Z" fill="#bdb7ac"/><path d="M355.74,397.4c-2.65-.08-5.35.13-7.99,0,1.41-.72,5.62-1.85,6.99-2,.33-.04.67.03,1,0v2Z" fill="#505461"/><path d="M587.51,380.42c-2.41.11-5.93-.43-7.99,0v-1c2.5.32,6.27-1,7.99,1Z" fill="#918d87"/><path d="M426.67,454.35c-.03-2.33.02-4.67,0-6.99,1.65,1.26,1.65,5.73,0,6.99Z" fill="#bdb7ac"/><path d="M734.37,82.71c-1.62-.85-.94-3.39-1-5h1v5Z" fill="#5d5f66"/><path d="M595.51,379.42c-.13.39.07.83-.57.91-1.46.3-2.96,0-4.42.09.85-1.62,3.39-.94,5-1Z" fill="#918d87"/><path d="M358.74,395.41l-1,2c-.67-.02-1.33.02-2,0v-2c.99-.09,2.01.05,3,0Z" fill="#42444d"/><path d="M88,398.4c-1.65.11-3.34-.06-5,0,.66-1.58,4.34-1.58,5,0Z" fill="#5d5f66"/><path d="M734.37,102.69c-1.58-.66-1.58-4.34,0-5-.04,1.66.05,3.33,0,5Z" fill="#5d5f66"/><path d="M649.45,260.54c-1.33.06-2.67-.08-4,0,.32-1.49,3.58-1.56,4,0Z" fill="#5d5f66"/><path d="M186.91,398.4c-1.33-.03-2.68.08-4,0,.32-1.49,3.58-1.56,4,0Z" fill="#5d5f66"/><path d="M249.84.79c-.14,1.5-2.86,1.5-3,0,1,0,2,0,3,0Z" fill="#bdb7ac"/><path d="M734.37,87.71c-1.5-.14-1.5-2.86,0-3v3Z" fill="#5d5f66"/><path d="M656.45,233.56l-.99-.51.99-1.49c0,.67,0,1.33,0,2Z" fill="#5d5f66"/><path d="M191.9,398.4c-.67,0-1.33,0-2,0l.51-.99,1.49.99Z" fill="#5d5f66"/><path d="M667.44,229.57c-.33,0-.67-.01-1,0l.5-.98.5.98Z" fill="#5d5f66"/><path d="M656.45,248.55l-1-1c0,.07,1,.32,1,1Z" fill="#5d5f66"/><path d="M655.45,260.54l1-1c.11.83-.33.88-1,1Z" fill="#5d5f66"/><path d="M321.77,543.26c0-.1-.04-.47,0-1v1Z" fill="#505461"/><path d="M320.78,547.26c.19-.8.99-.93,1-1l-1,1Z" fill="#505461"/><path d="M310.79,553.25c.33-.02.67.01,1,0l-.5.98-.5-.98Z" fill="#505461"/><path d="M259.83,167.63l14.98,1.01c-1.03,3.26-1.07,6.21-1.07,9.6,0,1.89,1.07,3.2,1.07,3.38,0,.33,0,.67,0,1s0,.67,0,1c0,.07-.99.32-1,1,0,1,.05,2,0,3s0,2,0,3v6.99c-.99-.06-2,.03-3,0-.66-.02-1.33.01-2,0-.33,0-.67,0-1,0-1.87.05-4.33-.29-5.99,0l-3,1v30.97c4.31,0,8.67-.02,12.99,0,.33,0,.67,0,1,0,1-.01,2,.03,3,0,6.69-.18,13.24-.9,19.98-1h1c1.66-.02,3.33.02,5,0,20.96-.24,41.98.18,62.94,0v-30.97l12.99,1c.06.08,1.73-.39,2.01.65.64,2.39-.06,9.15-.01,12.34.08,5.98-.06,12.01,0,17.99,2.3-.14,4.71.19,7,0,5.98,0,12,0,17.98,0,1.66,0,3.33-.01,5,0,1,0,2,0,3,0s2,0,3,0c.67,0,1.33,0,2,0,9.3,0,18.64.04,27.97,0,14.31-.06,28.66.04,42.96,0-.65-10.68,1-21.56,0-31.97,4.98-.07,10,.08,14.98,0,.05-9.64-.03-19.33,0-28.98,3.65,0,7.34,0,10.99,0,1,0,2,0,3,0h2c-1.06,2.63-.89,5.24-1,7.99-.03.66.02,1.33,0,2-.06,1.99.04,4,0,5.99-.02,1,.02,2,0,3,0,.33,0,.67,0,1-.02.67.03,1.33,0,2-.09,2.32.07,4.68,0,7-4.98.06-10.01-.09-14.99,0-.02,4.65.04,9.34,0,13.99-.05,6,.24,12.18-1,17.98,5.98.03,12-.02,17.98,0,24.77.12,51.35,1.14,75.93,0-1.75,4.18-.97,9.4-1,13.99-3.11.59-6.29,1.11-9.51,1.08-2.28-.02-5.79-1.33-6.88-1.16s-.14,2.1-1.1,2.1.41-1.81-1.93-2.1c-24.9.28-49.76-.32-74.5,1.09-4.62.26-9.36-.19-13.99,0,.37,4.96-.98,10.31,1.01,14.98-1.36-.43-3.24,1-4.01,1.01-1.47.02-3.77-.94-5.99-1-.66-.02-1.34-.03-2,0-1.33.06-2.67-.07-4,0-.05.66.04,1.33,0,2-.22,4.28.01,8.69,0,12.99,0,2.33,0,4.66,0,6.99v7.99c-4.98,0-10.01,0-14.99,0-.36-6.96.96-14.22-.99-20.98.41-2.55,1.78-5.6,1-8.99,4.65-.07,9.34.05,13.99,0v-15.98c-29.76.89-59.78-1.16-89.53-.07-1.79.07-3.17,1.06-3.38,1.07-.99.05-2.01-.07-3,0-.66.05-1.34-.05-2,0s-1.34-.03-2,0c-.33.01-.67,0-1,0-1.66.03-3.34-.04-5,0v14.99s-14.98,0-14.98,0c-.75,0,0,13.4,0,14.99v14.99c-3.84-.18-11.6-.61-14.99,0-.1-.47-.55-.96-1-1,.02-.66-.03-1.34,0-2,.17-3.39.87-6.41,1-9.99.2-5.64-.14-11.34,0-16.98,4.64-.16,9.34.12,13.99,0v-15.98h-104.89c-.05.66.04,1.34,0,2-.32,4.64-.37,9.35,0,13.99h-14.99c-.75,0,0,13.4,0,14.99v14.99c-5.26-.39-10.71.28-15.99,0v-28.98s0-1,0-1c4.98-.06,10,.05,14.99,0v-14.99c-16.97-.03-33.98.04-50.95,0-11.97-.03-23.99,0-35.96,0h-48.95c.04-4.98-.03-10.01,0-14.99,4.32-.03,8.67.05,12.99,0,11.3-.12,22.66.03,33.97,0,.67,0,1.33,0,2,0h1c1,0,2,0,3,0,1.67-.01,3.35.02,5,0,29.42-.27,59.06-1.79,88.47-1.06,1.7.04,2.93.32,4.43,1.06l1.01-31.97h13.99c.25-7.81-.32-15.71-.04-23.52.08-2.21,1.21-4.57,1.04-6.45Z" fill="#a1b3c7"/><path d="M213.88,259.54v1c-2.57,5.33.02,12.88-1.04,18.44-.37,1.96-1.92,2.91-2.51,4.49s-.27,4.86-.45,5.04c-.73.78-9.32-1.32-10.99,1-.02,9.98.03,19.99,0,29.97-4.98.06-10.01-.04-14.99,0v29.98c-35.28.05-70.65-.39-105.89,0-.11-.48-.53-.93-1-1,.56-2.72-.77-14.81,0-15.98.06-.09,1.73.4,2.01-.66.87-3.26-.64-9.59-.02-13.33,2.77.03,14.8.52,15.84-1.14,1.45-2.18-1.26-10.47-.86-10.84.42-.39,2.74.64,3.01-.51.75-3.26-1.91-2.33-2.01-2.49-.35-.61,1.03-10.73,0-13.99,2.58-.8,12.82,1.54,13.86-.13.35-4.59,0-9.25.13-13.85,0-.29.66-.91.68-1.63.15-4.35-2.21-9.97.93-14.41l27.86,1.15c24.98-1,49.94-.77,75.43-1.09Z" fill="#485d79"/><path d="M597.51,29.76c-1.59,3.79,1.38,12.32-.45,15.04-1.49,2.21-12.39-1.74-15.6.38-1.66,1.15-.89,9.91-.94,12.55-.06,3.3-.13,6.7,0,9.99.01.33-.02.67,0,1,.07,1.27-.22,2.88,0,4,.12,3.5.62,2.76-2.45,3-4.16.33-8.48-.63-12.6.43-1.74,1.21-.73,7.15-.94,9.55-.03.33.03.67,0,1-.08.99.06,2.01,0,3-.01.21-.99,1.6-1.07,3.38-.17,3.67-.39,8.3,1.07,11.61-4.43,0-10.77.91-15.98,1,.05,3.28-1.09,16.09,1.64,16.88l57.3.1c.33,0,.67,0,1,0,.67,0,1.33,0,2,0,15.3.03,30.65-.02,45.96,0-.05,4.32.03,8.67,0,12.99-3.82.19-7.73-.28-11.55-.01-1.45.1-2.87.98-3.44,1.01-18.82.93-38.95-.09-57.94,0l-.51-.99-1.49.99c-1.33,0-2.66,0-4,0l-.5-.98-.5.98c-1.33,0-2.66,0-4,0-.95-1.61-4.99-1.64-5.99,0-2.33.02-4.67-.03-6.99,0-1.86-1.68-7.13-1.68-8.99,0-3.87.07-13.67-.72-15.98,1-1.03.76-.81.88-1,2-.13.76-.1,2.2,0,3,.06.46.53.88,1,1-.13,1.59-.9,3.17-1,5-.02.33.01.67,0,1-.05,1.33.03,2.67,0,4-.07,3.65.14,7.34,0,10.99-.04.98.14,2.1,0,3-5.35,0-7.71.66-13.99,0-.29-.03-.72-.06-1,0l1-30.97c-30.95.26-61.97-.33-92.91,0-2.89.03-13.6-.57-15.05.44-1.64,1.14-.91,9.88-.94,12.55-.01,1.14,1,2.79,1,4,0,.11-.99.25-1,2,0,.67.02,1.33,0,2-.01.33.01.67,0,1-.03.66,0,1.33,0,2v5.99c-.21,0-1.88,1.03-4,1-1-.01-2,0-3,0-2.66-.02-5.33-.04-7.99,0,0,.67,0,1.33,0,2,0,.33,0,.67,0,1-.01,3.65.02,7.34,0,10.99-.03,5.65.03,11.33,0,16.98-4.03-1.88-8.66-.71-12.98-1-.48-.29-2.74.67-3.06-.54-.58-2.14-.03-11.36.06-14.45.16-5.06,1.17-9.92.99-14.99,4.98-.04,10.01.07,14.99,0-.01-4.65.04-9.34,0-13.99-.04-5.65.03-11.34,0-16.98h-98.4c-1.63,0-4.25,1.58-7.49,1-.09-.02-.18-1.25-.99-1v7.99c-.19,1.95.06,4.02-.01,5.99-.12,3.3-.02,6.68,0,9.99.01,1.66-.02,3.33,0,5,0,.7.99.93,1,1,.07,1.09-.67.78-1,1h-12.99c-.13-.13-1.35.29-1.76-.19-1.34-1.54.69-10.89.76-13.8.04-1.66-.02-3.33,0-5,0-.33,0-.67,0-1-.02-3.78-.5-6.39,0-9.99.05-.33-.03-.67,0-1l-.51-.99-1.49.99c-1.32-.1-2.67.04-4,0-3.01-2.19-7.91-.52-11.49-.99-.54.14-.5.55-.5.99-1.32.03-2.68-.09-4,0l-.49-.94c-.28.25-.39.92-.51.94-.32.05-.67-.02-1,0-.66.04-1.33-.02-2,0-.66-1.58-4.34-1.58-5,0-.66-.03-1.34.05-2,0-.33-.03-.67.04-1,0s-2.24-2.33-3,0c-1-.03-2,.03-3,0-.33-.01-.67,0-1,0l-.5-.98-.5.98c-1.31-.04-2.7.13-4,0-.1,0-.24-.59-.56-.73l-.44.73c-.99-.07-2,.05-3,0-.14-1.5-2.86-1.5-3,0-.33-.01-.67,0-1,0-1-.03-2,.02-3,0-.66-1.58-4.34-1.58-5,0-1-.01-2,0-3,0-1.26-1.65-5.73-1.65-6.99,0-.67,0-1.33,0-2,0,.05-1.98-9.85-.57-11.5-1.02l-5.48,1.02c-.67,0-1.33,0-2,0-1.26-1.65-5.73-1.65-6.99,0-2.33,0-4.67.04-6.99,0-.67-.01-1.33.02-2,0-1-.03-2-.02-3,0-2.98.05-6.02-.14-8.99,0,.05-4.98-.04-10.01,0-14.99,4.98.14,10.02-.17,14.99,0,5.43.19,11.27.91,16.98,1,1,.02,2-.01,3,0,1.66.02,3.33-.02,5,0,2,.02,4-.02,5.99,0h1c2.33.02,4.66-.01,6.99,0,.95,1.61,4.99,1.64,5.99,0,2,0,4,0,5.99,0,.85,1.45,3.1,1.24,4,0,1.66,0,3.33,0,5,0,1,1.2,2,1.2,3,0,2,0,4,0,5.99,0,.66,1.58,4.34,1.58,5,0,1.67,0,3.33,0,5,0,1.26,1.39,2.78,1.38,4,0,.67,0,1.33,0,2,0,.81,1.61,11.05,1.65,12.99,0,1,0,2,0,3,0,4.64,1.67,12.28,1.68,16.98,0,.35-.03.73.08,1,0,.71-.2.84-.21,1-1,.4-1.99-.01-5.66,0-7.99,0-1,0-2,0-3v-5c.33-.02.67,0,1,0,4.65-.11,9.34.08,13.99,0l1,16.98c4.98.06,10-.05,14.98,0,.35,0,.67,0,1,0,1.66.01,3.33,0,5,0,1.04,1.65,3.79,1,5.48,1.02,7.65.08,15.35.09,23.01,0,1.69-.02,4.44.64,5.48-1.02,1,0,2,0,3,0,2.87,1.7,9.32,1.66,11.99,0,.67,0,1.33,0,2,0,1.04,1.65,3.79,1,5.48,1.02,7.89.08,16.93.74,24.49-1.02.67,0,1.33,0,2,0,.53,0-.08,1.39,1,0,2.41-3.12.31-12.68,1-16.98,4.95-.24,10.02.06,14.99,0-.09-5.23-.87-26.95.51-29.99.29-.63,1.03-.69,1.49-.98l13.99.99c.03,4.32-.06,8.67,0,12.99.06,4.98-.04,10,0,14.99-.09.56.17,1.87,0,2-.64.48-13.56-.03-15.99,0,.05,2.98-.75,15.37.93,16.55,1.43,1,14.17-.47,17.05-.56,1.36,1.74,4.8.98,6.99,1,.66,0,1.33.02,2,0s1.33,0,2,0c7.25-.06,14.59.09,21.98,0,.33,0,.67,0,1,0,1-.01,2,.01,3,0,.33,0,.67,0,1,0,9.64-.14,19.15-.85,28.97-1,.33,0,.67,0,1,0,2.66-.05,5.33.03,7.99,0,4.32-.05,8.67.04,12.99,0v-15.98c5.31-.07,10.67.09,15.98,0-.13-8.17-.93-19.83-.05-27.58.16-1.39.07-1.42,1.05-2.39,8.16-1.44,15.61,4.55,13.99-5.99-.1-.63.06-1.35,0-2,1.46-1.45.95-3.23,1-5,.03-1-.01-2,0-3,.04-3.99,0-8,0-11.99v-2c.13,0,1.15-.98,2.42-1.03,4.17-.18,8.4.2,12.57.04v-14.99c5.66,0,12.09,0,17.98,0Z" fill="#a1b3c7"/><path d="M503.6,259.54h75.93c.77,8.11-1.51,18.51.99,25.97.03.66-.06,1.34,0,2,.12,1.3.8,2.68,1,4-3.38,1.09-12.8-2.77-15.98,0-1.07.93-.92,1.03-1.05,2.4-.84,8.34.73,18.07.06,26.57-.17.18,0,.77-.59.77l-13.4.22v27.97c-8.82-.23-17.16-.63-25.97-1-17.6-.73-34.4-1.3-51.95,0-4.79.36-8.85.92-13.99,1,4.37-2.36.16-1.6.03-2.61-.15-1.17-.09-5.46-.01-6.81.12-2.07,3.15-3.19-.01-6.57.09-.07-.28-2.04.56-2.07,1.33-.04,3.02,1.49,4.36,1.63,1.5.16,3.37-2.34,6.44-1.58.49.12.79,3.06,5.62,1.01.43-1.64-1.74-.47-2.03-1.63-.63-2.55,1.01-6.08,1.12-8.88.05-1.29-1.08-2.33-1.08-2.46.15-4.46,1.92-10,1-14.99,5.32,0,10.66.01,15.98-.01.43-1.64-1.74-.46-2.02-1.63-.2-.84-.21-6.14.02-6.36.53-.53,4.23,1.11,4-.98-4.78-.69-3.82-1.16-3.99-5.01-.2-4.63.14-9.35,0-13.99.56.41,13.17-.37,13.56-.93l1.42-16.05ZM564.04,289.51v1c.65-.33.65-.67,0-1Z" fill="#485d79"/><path d="M335.76,259.54c-.14,5.64.2,11.35,0,16.98-3.3-1.17-2.51,7.85-1,9.99-.03.66.02,1.33,0,2-2.33-.23-10.59-.48-12.33-.02-1.11.3-.54,1.89-.66,2.02-.13.13-1.35-.29-1.76.19-.98,1.13-.24,25.8-.24,29.78-3.66.22-12.52-.81-14.99,0-1.01.33-.9.43-1.03,1.45-.5,3.93.93,24.62.03,25.53-.73.74-5.85-1.79-5,1.99-28.29.09-56.63-.1-84.92,0v-15.98c2.03-.17,6.46-2.35,8.39-2.08,1.13.16-.08,2.53,1.59,2.07l.52-3c1.91-.78,2.44,4.03,3.47,3,1.83-1.83,1.81-7.66,1.91-10.43.04-1.17-.91-2.25-.9-2.55.18-5.24.99-10.7,1-15.98,1.91.09,13.02.56,13.54.12,2.53-2.15,1.26-9.57,1.45-13.11.28-5.32,1.29-11.1,0-15.98,2.75.1,13.39.63,14.56-.97.41-.57-.5-11.69-.58-14.02,8.75-2.63,18.69.55,27.48.43,16.29-.22,33.32-.86,49.45-1.43Z" fill="#485d79"/><path d="M457.64,259.54c.78,3.39-.59,6.44-1,8.99-.02.13-.87.9-1.06,2.39-.66,5.38.6,12.04.06,17.59h-14.99c-.51,3.31.68,11.94-.37,14.54-.63,1.55-2.48,1.27-2.63,1.47-.38.47,2.04,1.9,2.02,3.46s-2.79,3.32-2.02,5.5c4.79-.53,1.5.77,3,3.99h-13c-.04.67.04,1.34,0,2-.43,9.64-1.67,19.25-1,28.97-.33,0-.67,0-1,0-1.04-1.66-3.79-1-5.48-1.02-8.98-.11-18.02-.09-27,0-1.69.02-4.44-.64-5.48,1.02-.33,0-.67,0-1,0-5.35-2.35-14.21-1.3-19.98,0-5.98.02-12-.02-17.98,0-2.02-1.66-7.78-1.71-9.99,0-.67,0-1.33,0-2,0l1-13.99c1.99.17,1.94-1.8,2.72-1.96,2.65-.55,6.04.52,8.58-.05.5-.11,2.16-3.77,4.68-2.99.34-1.94-2.32-.47-2.92-1.04-.29-.28-.17-6.56-.07-7.94.05-.64,1.1-2.13,1.1-4.46,0-3.85-1.73-7.58-1.1-11.53,6.4,0,16.04,3.43,17.01-5.48.35-3.2-1.07-5.99-1.02-7.5.02-.59.99-2,1-3.45.03-4.18-.01-8.37,0-12.53,3.91.18,7.94.02,11.85-.13.98-.61.18-13.28.13-15.86,7.49,1.07,14.95,1.14,22.53,1.05,18.46-.24,36.84-.75,55.4-1.05Z" fill="#485d79"/><path d="M597.51,60.73c3.54.39,7.38,1.41,11,1.55,4.91.19,1.67-2.38,2.19-4.8.21-.98,1.62-1.84,1.75-3.31.21-2.39-.64-6.88-.95-9.43,3.03-.56,6.5,1.45,8.61,1.71,2.72.34,6.04-2.02,9.35,1.29v-3.01s56.95,1,56.95,1v27.97c-2.67.51-13.29-1.14-13.99,1,.96,6.19-.9,12.7-1.09,18.48-.11,3.44,2.19,9.41-.41,12.49h-14.49c-.04,5.65.06,11.34,0,16.98-15.3-.02-30.65.03-45.96,0,.56-3.02-1.53-1.93-3.45-2-9.48-.32-19.03.24-28.51,0-.19-1.8,1.81,0,2.08-2.41.3-2.68-1.56-11.92-1.09-12.56.13-.18,1.73.42,1.82-.45.44-3.96-1-10.35-.83-14.53l15.85-2.14c.55-3.9-.21-7.95.14-11.85.02-.21.87-.8.93-1.59.32-4.84.8-9.63.07-14.4Z" fill="#485d79"/><path d="M597.51,29.76c29.09.03,58.58-.14,87.37-.04,5.84.02,11.7.08,17.53.04l.04,14.36c-.24,1.23-1.53.42-2.04.63h-11.99c-.56.56.39,13.31,0,15.98-.47.14-.91.53-1,1-.11.57.02,1.35,0,2-.13,3.65.1,7.35,0,10.99h-14.99c.7-2.15,11.32-.49,13.99-1v-27.97l-56.94-1v3.01c-3.33-3.31-6.65-.95-9.37-1.29-2.11-.26-5.58-2.27-8.61-1.71.32,2.55,1.16,7.04.95,9.43-.13,1.47-1.54,2.33-1.75,3.31-.52,2.41,2.72,4.99-2.19,4.8-3.63-.14-7.47-1.16-11-1.55-.13-.01-1.03-.89-2.4-1.05-3.6-.43-8.6.76-11.9.03-.84-.19-.68-2.68-2.69-1.98.05-2.65-.72-11.4.94-12.55,3.22-2.12,14.12,1.82,15.6-.38,1.83-2.72-1.14-11.25.45-15.04Z" fill="#40546e"/><path d="M579.52,29.76v14.99c-4.16.16-8.39-.22-12.56-.04-1.28.06-2.29,1.03-2.42,1.03-3.22.05-7.98-1.08-11.43-1.05-21.03.18-41.8,1.21-62.82.14-5.68,2.94.44,15.91-5.18,16.92-3.22-1.04-7.81.23-10.48-.03-.36-.03-2.5-1.7-4.57-1.91s-11.01.32-11.42-.08c-.73-.72,1.29-8.46-.99-10,.07-1.66-.06-3.34,0-5l15.98,1v-15.98c35.29,0,70.62-.02,105.9,0Z" fill="#3e516b"/><path d="M108.98,244.55l1.49.99.51-.99h3c4.05,1.66,11.73,1.69,15.98,0h2l.5.98.5-.98h2c-.77,3.59,3.58,1.98,5,0h2c1.04,1.66,3.79,1,5.48,1.02,8.85.11,17.65.33,26.49.53,1.82.04,2.86.31,3.99-1.55,16.97.04,33.98-.03,50.95,0v14.99c-4.98.05-10-.06-14.99,0-25.49.32-50.45.09-75.43,1.09l-27.86-1.15c-3.14,4.44-.79,10.06-.93,14.41-.02.73-.67,1.35-.68,1.63-5.02-1.27-9.63-.88-14.39-1.08-.86-.03-1.44-.92-1.6-.92v-15.98c2.53,4.14,9.84,1.12,13.99,2l-1-14.99h3Z" fill="#36465e"/><path d="M455.64,29.76l1,14.99h-14.99v18.98c-.02-.2-.88-.79-.93-1.58-.37-5.32-.73-10.48,0-15.75-.25-1.08-17.62-4.41-16.55,2.36l-.49-4.01c-5.84,1.16-54.95-1.24-54.95,1.51v15.48c-4.71.41-9.37-.76-13.99-1-3.09-.16-12.48.27-14.72-.68-2.98-1.26.65-4.97-3.26-4.31.06-3.65-.04-7.34,0-10.99h16.98v-14.99c34.03-.02,68.07.01,101.9,0Z" fill="#40546e"/><path d="M334.76,29.76c.09,5.03-.56,10.13,1,14.99h-14.99c-.03,6.31.04,12.67,0,18.98-2.87.59-2.15-1.63-2.04-3.49.24-4,2.17-9.98.9-13.85-1.06-3.23-5.5-.93-7.52-1.01-9.21-.38-17.66.13-26.75.41-3,.09-6.38-2.98-9.05.95-1.02-3.87-3.59-1.24-6.16-1.37-17.42-.83-34.08.32-51.28.37-4.81.01-9.25-.47-13.99-1v-13.99c6.15-.24,12.4.31,18.56.04,1.29-.06,2.29-1.03,2.42-1.04,35.72-1.28,73,0,108.89,0Z" fill="#3e516b"/><path d="M550.55,136.66c2.99-.05,6,.04,8.99,0,2.33-.03,4.66.02,6.99,0,2-.02,4,.01,5.99,0,1.33,0,2.66,0,4,0,.33,0,.67,0,1,0,1.33,0,2.66,0,4,0,.67,0,1.33,0,2,0,19-.09,39.12.93,57.94,0,0,5.65,0,11.33,0,16.98-3.53-.36-8.18-.65-11.66-.63-22.53.17-44.94.71-67.81.68-2.38,0-10.12-1.81-11.49.61-1.58,2.79-.84,10.74-.95,14.32-5.38-.43-10.55-1-15.98-1,.14-.9-.04-2.02,0-3,1.66-2.34,1.71-8.45,0-10.99.03-1.33-.05-2.67,0-4l.98-.5-.98-.5c.1-1.83.86-3.41,1-5,.03-.41-.41-1.19-1-1-.1-.8-.13-2.24,0-3l1-2c2.31-1.72,12.12-.93,15.98-1ZM535.57,138.66v13.99h13.99c-1.94-4.35-.67-9.35-.99-13.99h-12.99Z" fill="#36465e"/><path d="M501.6,244.55c24.74-1.41,49.6-.81,74.5-1.09,2.34.29.94,2.1,1.93,2.1s0-1.93,1.1-2.1,4.6,1.14,6.88,1.16c3.22.03,6.39-.48,9.51-1.08-.03,3.49.85,14.15-1,15.98h-12.99l-1,2c-.52,2.45.08,7.09,0,9.99,0,.33,0,.67,0,1-.05,2.32-.03,4.67,0,6.99,0,.33,0,.67,0,1,.03,1.66-.08,3.34,0,5-2.51-7.46-.22-17.86-.99-25.98h-75.93c-3.91-3.94-.43-10.06-2-14.98Z" fill="#36465e"/><path d="M320.78,75.72c0,4.65-.04,9.34,0,13.99s-.23,9.37,0,13.99h-1c-3.32-.94-7.79.87-9.99,1-.33.02-.67-.04-1,0h-1c-.61-.14-1.59.19-2,0-.59-5.73,1.27-12.63-1-17.98.04-.66-.06-1.34,0-2,.02-.17.78-.77.93-1.58.24-1.39-.12-5.22.07-5.41.76-.77,6.15,1.7,5-1.99,3.23-.23,6.72.02,9.99,0Z" fill="#a1b3c7"/><path d="M353.74,29.76v14.99h-16.98c-.04,3.65.06,7.34,0,10.99-.03,1.66,0,3.33,0,5v14.99c-5.23-.14-10.84-.03-15.98,0,0-1.33,0-2.66,0-4,0-2.66-.02-5.33,0-7.99.04-6.31-.03-12.67,0-18.98h14.99c-1.56-4.85-.9-9.96-1-14.99,6.1,0,12.61,0,18.98,0Z" fill="#a1b3c7"/><path d="M473.63,29.76v15.98s-15.99-1-15.99-1c-.06,1.66.08,3.34,0,5-.36,8.38-1.09,16.69,0,24.98-5.27-.38-10.71.27-15.99,0-.19-2.95.27-6.07,0-9-.06-.66.06-1.34,0-2v-18.98h14.99l-1-14.99c5.98,0,12,0,17.98,0Z" fill="#a1b3c7"/><path d="M77.01,332.47c-.77,1.17.56,13.27,0,15.98-9.53-1.38-22.08,1.02-31.97,0v-15.99c5.31-.1,10.68.16,15.98,0,.38-.01,1.49,1,3.22.8,3.94-.44,7.82-3.59,12.76-.8Z" fill="#3e516b"/><path d="M162.93,136.66l-1.5,2c1.35.27,5.98-.43,6.45.04.95.95-.1,9.51-.01,11.52.06,1.28,1.05,2.29,1.06,2.43.03,5.56-.88,10.51-1.01,15.98-4.52-1.08-10.4-.28-14.98,1-.09-.28-1.83-1.96-2-2-.78-2.02,1.96-1.89,1.99-2.59.09-2.83-1.47-7.08,0-10.39l-14.98-1.01c.08-.08,1.89-.98,2-1,3.45-.56,10.35.86,12.99,0,1.77-.58.94-6.81,1-8.99.06-2.33-.02-4.67,0-6.99,2.98-.14,6.01.05,8.99,0Z" fill="#3e516b"/><path d="M185.91,89.7c.18,0,1.62.99,3.38,1.07,4.25.19,9.6.43,13.6-1.07-.2,5.27-1.55,10.73,0,15.98-5.31-.06-10.67.11-15.99,0-2.83-.05-6.68-.89-9.49-.99s-4.77,2.23-7.5-1.01c.04-.93-.04-2.58,0-4,.1-3.32-.07-6.67,0-9.99.33-.02.67,0,1,0,4.94-.12,10.05-.18,14.99,0Z" fill="#40546e"/><path d="M137.95,213.58c-.14,4.35-1.44,13.41,2,15.98-11.31.03-22.66-.12-33.97,0v-14.99l31.97-1Z" fill="#3e516b"/><path d="M79.01,303.5c2.8.07,7.2.87,10.46,1.06,1.63.1,4.52.5,5.52-1.06.09.16,2.75-.77,2.01,2.49-.27,1.15-2.58.12-3.01.51-.4.37,2.31,8.67.86,10.84-1.04,1.67-13.08,1.18-15.84,1.14-5.51-.07-10.42-2.27-15.98,0v-13.98c1.74-1.76,12.63-1.08,15.98-1Z" fill="#40546e"/><path d="M208.88,290.51h1c.91.02,3.84-.17,4,0,.45.47-.03,11.01,0,12.99.06,5.32-.04,10.67,0,15.98-.33-.01-.67.01-1,0-1-.04-2,.03-3,0-.67-.02-1.33.01-2,0-1.33-.03-2.66,0-4,0-1,0-2,0-3,0-.67,0-1.33,0-2,0,0,.67,0,1.33,0,2s0,1.33,0,2v26.97c-5.16.01-9.73-1.01-14.99-1v-29.98c4.98-.03,10,.06,14.99,0,.03-9.98-.02-19.99,0-29.97l9.99,1Z" fill="#a1b3c7"/><path d="M441.66,319.48c0-9.6-.12-19.24.13-28.84.72-1.16,12.48-.42,14.81-.08.32,2.94-.2,6,.05,8.94.09,1.07.48,2.07,1,3-.12.62.12,1.39,0,2-.25,1.29-1.03,2.06-1,4,0,.48.47.98,1,1-.13,1.52-.78,3.24-1,5-.18,1.46.35,3.94,0,5-4.98-.01-10,.01-14.99,0,0,9.64,0,19.33,0,28.97-4.74.03-10.18.05-14.99,0-.68-9.72.57-19.34,1-28.97h1c.33,0,.67,0,1,0,4,.03,8.02-.01,11.99,0Z" fill="#a1b3c7"/><path d="M334.76,290.51c.69,5.25.11,10.67,0,15.98-.01.67.02,1.33,0,2,0,.33,0,.67,0,1-.01.67.02,1.33,0,2-.08,2.65.06,5.34,0,8-5.13-.79-10.16.7-14.99.99,0,1.66-.01,3.33,0,5,0,1-.01,2,0,3,0,.33,0,.67,0,1,0,.67-.01,1.33,0,2,0,.33,0,.67,0,1,.02,1-.03,2,0,3,.02.69,1,.93,1,1,.05,1.39-1.13,3.18-1,5,.04.5.44.99,1,1-.02,1.75-1.45,3.95-1,5.99-4.69.02-10.37-.02-14.99,0v-27.97c2.47-.81,11.33.22,14.99,0,0-3.99-.74-28.66.24-29.78.41-.47,1.63-.06,1.76-.19h12.99Z" fill="#a1b3c7"/><path d="M138.95,182.61c.54.02,2,.91,3.44,1.01,3.49.24,7.05-.17,10.54,0,0,4.89,2.04,6.13,2.06,6.51.1,1.9-3.54,4.95-1.06,8.47-4.89.42-10.39-1.03-14.98,1.01-.03-.66.05-1.33,0-2-4.68-.13-9.49.59-13.99-1,.26-4.62-.19-9.36,0-13.99,4.64.13,9.35-.17,13.99,0Z" fill="#40546e"/><path d="M186.91,62.73c8.21,1.65,19.89-2.54,27.42-1.07,1.06.21.31,1.64.55,2.31.54,1.51,1.19.48,2,.75.66.22,2.15-.48,2.01.5-3.92-.21-1.5,11.1-2.01,11.48-4.64-.13-9.35.2-13.99,0-.13,0-1.13-.97-2.42-1.04-4.49-.25-9.08.26-13.57.04.17-1.97-.13-4.02,0-5.99.02-.33-.02-.67,0-1,.06-1.3-.16-2.74,0-4,.08-.64-.16-1.56,0-2Z" fill="#40546e"/><path d="M225.87,29.76c-.13,0-1.13.98-2.42,1.04-6.16.27-12.41-.28-18.56-.04v13.99c4.73.53,9.18,1.01,13.99,1-.8,3.95.84,8.87.69,12.39-.11,2.55-4.14,2.72-2.69,6.59-.81-.27-1.46.76-2-.75-.24-.67.51-2.11-.55-2.31-7.53-1.48-19.21,2.72-27.42,1.07.48-1.26,1.67-.8,2-1h1c4.37-.02,8.8.44,12.99-1v-30.97h22.98Z" fill="#36465e"/><path d="M186.91,105.69c-.37,4.96.99,10.29-1,14.98,1.32.97,8.7-2.07,7.99,2.01-1.66-.02-3.33.02-5,0-.14-1.5-2.86-1.5-3,0-5.71-.09-11.55-.8-16.98-1-.83-6.07.74-12.26,1-17.98,2.73,3.24,4.82.91,7.5,1.01s6.66.94,9.49.99Z" fill="#36465e"/><path d="M456.64,319.48c-.71,2.14-10.42.5-12.99.99v12.99c2.94.04,5.51-1.04,8.5-1.1,1.81-.03,6.24,1.31,6.49,1.1,3.17,3.38.13,4.5.01,6.57-.08,1.35-.14,5.64.01,6.81.13,1.02,4.34.25-.03,2.61-1,.02-2,0-3,0l-1-1c-.67,0-1.33,0-2,0l-2,1c-.67,0-1.33,0-2,0l-3-1c-1.33-.02-2.66,0-4,0,0-9.64,0-19.33,0-28.97,4.98.01,10-.01,14.99,0Z" fill="#36465e"/><path d="M319.78,325.47l2-1.5v8.48c5.19.07,10.94,1.57,15.98,2.01l-1,13.99c-5.65.02-11.34-.02-16.98,0-.45-2.04.98-4.25,1-5.99,0-.45-.4-1.18-1-1-.14-1.82,1.05-3.61,1-5l-1-1c-.03-1,.02-2,0-3l.98-.5-.98-.5c-.01-.67,0-1.33,0-2l.98-.5-.98-.5c-.01-1,0-2,0-3Z" fill="#36465e"/><path d="M63.03,304.49v13.98c5.56-2.27,10.48-.06,15.98,0-.63,3.74.89,10.07.02,13.33-.28,1.05-1.96.57-2.01.66-4.94-2.78-8.82.37-12.76.8-1.73.19-2.84-.82-3.22-.8l1.01-26.51c-.12-.87.6-1.08.99-1.47Z" fill="#36465e"/><path d="M93,273.52c.16,0,.74.88,1.6.92,4.76.19,9.37-.19,14.39,1.08-.13,4.6.23,9.26-.13,13.85-1.04,1.68-11.28-.66-13.86.13-.19-.59-.2-1.07-1-1v-12.99h-13.99v13.99c-.75.14-.86.25-1,1-1.31-.48-.95-1.9-1-3,1.58-.66,1.58-4.34,0-5,0-.99-.07-2.01,0-3,1.62-.85.94-3.39,1-5,4.22.06,10.03-1.11,13.99-1Z" fill="#3e516b"/><path d="M124.97,196.6c4.5,1.59,9.31.87,13.99,1,.05.66-.04,1.33,0,2,.25,5.15-.87,9.82-1,13.99l-31.97,1,17.84-2.14c-.57-5.36.86-10.9,1.14-15.84Z" fill="#36465e"/><path d="M202.89,76.72c-.11,4.31.16,8.68,0,12.99-4,1.51-9.36,1.26-13.6,1.07-1.76-.08-3.2-1.07-3.38-1.07-.1-.47-.55-.96-1-1,.27-3.01.61-5.99,1-8.99.1-.78.82-1.93,1-4,4.49.22,9.07-.29,13.57-.04,1.29.07,2.29,1.03,2.42,1.04Z" fill="#36465e"/><path d="M94,288.51c.8-.08.81.41,1,1,1.03,3.26-.35,13.38,0,13.99-1.01,1.56-3.89,1.15-5.52,1.06-3.26-.19-7.66-.99-10.46-1.06.49-3.94-.7-9.3,0-12.99.14-.75.25-.86,1-1,3.87-.73,9.66.39,13.99-1Z" fill="#36465e"/><path d="M213.88,333.47v15.98c-5.15.02-10.47.99-14.99,1v-16.98c4.89-.29,10.16.41,14.99,0Z" fill="#36465e"/><path d="M150.94,167.63c.17.04,1.91,1.71,2,2,.73,2.3.8,9.43.9,12.38.03.81-.9,1.45-.9,1.61-3.49-.16-7.05.24-10.54,0-1.44-.1-2.9-.98-3.44-1.01-1.93-4.55-.74-10.05-1-14.99,3.68.59,9.74-.83,12.99,0Z" fill="#36465e"/><path d="M100.99,244.55c.14,1.5,2.86,1.5,3,0h2l1,14.99c-4.15-.88-11.46,2.13-13.99-2,0-4.32-.04-8.67,0-12.99h7.99Z" fill="#40546e"/><path d="M137.95,153.64l14.98,1.01c-1.48,3.32.08,7.56,0,10.39-.02.7-2.76.56-1.99,2.59-3.25-.83-9.3.59-12.99,0-.01-.2-1-1.6-1.07-3.38-.12-2.78-.55-8.97,1.07-10.61Z" fill="#485d79"/><path d="M524.58,348.45c-6.23,1.83-13.9,1-20.48,1h-23.98c-2.36,0-5.35.18-7.49-1,17.55-1.3,34.35-.73,51.95,0Z" fill="#3e516b"/><path d="M594.51,259.54c-2.24,2.23-8.68.47-11.99.99-1.01,1.01.55,24.2.04,28.51-.13,1.13.51,1.97-1.03,2.46-.2-1.32-.88-2.69-1-4l1.01-.53c.32-.92-.95-1.28-1.01-1.47-.08-1.66.03-3.33,0-5l.98-.5-.98-.5c-.03-2.32-.05-4.67,0-6.99l.98-.5-.98-.5c.08-2.9-.52-7.54,0-9.99.04-.19,1.37-1.04,1-2h12.99Z" fill="#bdb7ac"/><path d="M77.01,348.45c.47.07.89.52,1,1-10.79.12-21.39,2.21-32.41-.09l-.56-.91c9.89,1.02,22.44-1.38,31.97,0Z" fill="#36465e"/><path d="M641.46,168.63c-2.74,2.3-10.13.39-13.99.99v29.97c-.84.15-1.98-4.72-1.99-4.99-.03-.66,0-1.34,0-2l1-1c.1-7.64-.07-15.34,0-22.98h14.99Z" fill="#bdb7ac"/><path d="M153.94,136.66c-.02,2.33.06,4.67,0,6.99-2.07,2.04-.62,6.17-1,8.99-2.64.86-9.53-.56-12.99,0l-2.49-1h14.49s0-14.99,0-14.99c.66-.05,1.33.04,2,0Z" fill="#bdb7ac"/><path d="M425.67,348.45c-12.64-.12-25.33.03-37.96,0,1.04-1.65,3.79-1,5.48-1.02,8.98-.09,18.02-.11,27,0,1.69.02,4.44-.64,5.48,1.02Z" fill="#3e516b"/><path d="M304.79,348.45c-2.06,0-3.96.99-5.99,1-.85-3.79,4.27-1.25,5-1.99.9-.91-.53-21.6-.03-25.53.13-1.01.01-1.12,1.03-1.45v27.97Z" fill="#3e516b"/><path d="M700.4,44.75c-3.88,1.55-6.83.99-10.99.99v21.98s-1.99-3.99-1.99-3.99c.02-.65-.11-1.43,0-2,.48-.11.93-.53,1-1,.39-2.67-.57-15.42,0-15.99h11.99Z" fill="#bdb7ac"/><path d="M564.54,320.48c.68-8.5-.9-18.24-.06-26.57.14-1.36-.02-1.46,1.05-2.4-.85,5.15,1.56,26.3-1,28.97Z" fill="#36465e"/><path d="M610.49,207.59c-.16,6.97.12,14.01,0,20.98-1.66.07-3.34-.1-5,0,.48-1.62,3.83-.32,4.06-1.57,1.03-5.67-1.72-13.88.94-19.41Z" fill="#3e516b"/><path d="M386.71,348.45c-6.65-.01-13.33-.02-19.98,0,5.77-1.3,14.63-2.35,19.98,0Z" fill="#3e516b"/><path d="M170.92,89.7l2.01-3.99c2.03-.35.12,2.8,1.53,3.06,2.85.52,7.23-.38,10.44-.07.45.04.89.53,1,1-4.93-.18-10.05-.12-14.99,0Z" fill="#bdb7ac"/><path d="M169.92,89.7c-.07,3.32.1,6.67,0,9.99-2.05-2.79-2.04-6.71-2-10,.66-.05,1.33.05,2,0Z" fill="#bdb7ac"/><path d="M186.91,75.72c-.17,2.07-.9,3.21-1,4,.43-3.14-1.13-7.62,1-9.99-.13,1.98.17,4.02,0,5.99Z" fill="#918d87"/><path d="M348.75,348.45c-3.32.01-6.67-.01-9.99,0,2.21-1.71,7.97-1.66,9.99,0Z" fill="#36465e"/><path d="M78.01,279.52c.11-1.63-.68-4.1,1-5-.06,1.6.62,4.14-1,5Z" fill="#485d79"/><path d="M78.01,287.51c-.08-1.65,0-3.34,0-5,1.58.66,1.58,4.34,0,5Z" fill="#485d79"/><path d="M641.46,164.63c.05-1.66-.02-3.33,0-5,1.58.66,1.58,4.34,0,5Z" fill="#bdb7ac"/><path d="M603.5,228.57c-1.32.1-2.68-.09-4,0,.93-1.3,3.43-1.66,4,0Z" fill="#3e516b"/><path d="M186.91,68.72c-1.38-1.2-1.41-2.75,0-4-.16,1.26.06,2.69,0,4Z" fill="#918d87"/><path d="M448.65,349.45c-2.31-.02-2.84-1-3-1l3,1Z" fill="#485d79"/><path d="M452.65,348.45c-.11,0-.25,1-2,1l2-1Z" fill="#485d79"/><path d="M641.46,167.63v-1c0,.12.43-.17,0,1Z" fill="#bdb7ac"/><path d="M455.64,349.45c-.68,0-.93-1-1-1l1,1Z" fill="#485d79"/><path d="M189.9,61.73h-1c.4-.25.39-.84,1,0Z" fill="#918d87"/><path d="M410.69,397.4c-3.37,5.01-2.56.6-3,0,1.36-.92,2.1-.16,3,0Z" fill="#505461"/><path d="M363.73,395.41c-.32,1.49-3.58,1.56-4,0,1.3.02,2.75-.15,4,0Z" fill="#42444d"/><path d="M400.7,397.4c-.48-.01-1.45.01-2,0l1.49-.99.51.99Z" fill="#505461"/><path d="M392.71,397.4c-2.4-2.83,1.59-3.33,1,0-.33,0-.67,0-1,0Z" fill="#505461"/><path d="M395.7,397.4c-.33,0-.67,0-1,0l.5-.98.5.98Z" fill="#505461"/><path d="M406.69,397.4c-.32-.05-.67.03-1,0l.5-.98.5.98Z" fill="#505461"/><path d="M519.58,566.24c.65,4.46.11,8.13-2,11.99-8.48,2.19-2.45-10.52-2.99-10.98s-3.32.97-3-.99h7.99Z" fill="#505461"/><path d="M516.58,580.23l1-1c-.28.31-.34.86-1,1Z" fill="#505461"/><path d="M298.8,581.22c-.33,0-.67,0-1,0h1Z" fill="#42444d"/><path d="M376.72,581.22c-.33,0-.67,0-1,0h1Z" fill="#42444d"/><path d="M410.69,564.24c2.34-1.07,8.59,1.03,11.44,1.04,3.56.02,9.19-1.14,13.03-1.12,7.58.04,18.49,1.7,25.91,1.1.72-.06.41-2.07,1.07-2.06,1.56.02,2.27,1.87,3.92,1.96,2.66.15,8,.09,11.11.12,2.52.02,5.72-1.58,7.8-1.11.89.2,2.84,7.36,2.7,8.45-.03.23-3.83,1.76-2.05,3.61.92.96,9.1-2.03,7.99,2-1.35,1.02-18.95-.74-22.31-.63-21.1.72-42.3,1.52-63.6,1.63.61-2.97-2.55-3.13-2,0-1.66,0-3.33,0-5,0-.75-4.91,4.85-4.36,7.99-5,.82-1.8-3.15-5.83-2-6.98.17-.16,1.88.33,2.72-.23.75-.5.87-2.58,1.28-2.77Z" fill="#3d3f47"/><path d="M405.69,579.23c-.55-3.13,2.61-2.97,2,0-.67,0-1.33,0-2,0Z" fill="#42444d"/><path d="M366.73,417.38c-.98-.28-.92-1.15-1-2,.97.27.93,1.15,1,2Z" fill="#505461"/><path d="M365.73,424.38l1-1c-.06.74-.99.93-1,1Z" fill="#505461"/><path d="M365.73,449.35c3.41,4.06,1.02,8.35.95,12.45-.21,13.16.26,26.36.04,39.51-.1.16-1.9-1.07-1.99-1,1.77-16.84.88-33.98,1-50.95Z" fill="#3d3f47"/><path d="M365.73,434.37c2.67-.44,2.08.63,1.99,3l-1.99-1c.01-.67-.01-1.33,0-2Z" fill="#37373f"/><path d="M272.82,153.64c-.24,1.37.35,6.63,0,7-.69.72-6.41-1.63-6,1.48,3.12.99,6.74-.34,6,4.5l-13.98.02c-.26.77.99.86,1,.99.17,1.88-.97,4.24-1.04,6.45-.27,7.81.29,15.71.04,23.52h-13.99l-1.01,31.97c-1.5-.74-2.73-1.01-4.43-1.06-29.41-.73-59.05.79-88.47,1.06,1-3.27-6.27-2.95-5,0-1,0-2,0-3,0-.33,0-.67,0-1,0-.67,0-1.33,0-2,0-3.44-2.57-2.14-11.64-2-15.98s1.25-8.83,1-13.99c4.6-2.04,10.09-.58,14.98-1.01-2.48-3.52,1.16-6.57,1.06-8.47-.02-.39-2.06-1.62-2.06-6.51,0-.16.93-.8.9-1.61-.1-2.95-.17-10.08-.9-12.38,4.58-1.28,10.46-2.09,14.98-1,.12-5.47,1.04-10.42,1.01-15.98,5.55.84,11.01-.16,16.53-.04,19.4.4,39.25.82,58.74.67,7.68-.06,21.93-1.71,28.64.37Z" fill="#485d79"/><path d="M426.67,168.63c.04-2.58-.61-14.31.65-15.03,9.59-.7,19.22.16,28.86.09,4.02-.03,7.94.04,11.91,0,16.63-.17,32.83-1.87,49.5-.05-.35,2.01.46,12.54,0,13-.29.29-3.47-.21-4.5-.01l1.5,2c-3.65,0-7.34,0-10.99,0-.03,9.64.05,19.33,0,28.98-4.98.09-10-.07-14.98,0,1,10.4-.65,21.29,0,31.97-14.31.04-28.66-.07-42.96,0-8.08-2.15-17.2-.91-25.41-1.07-1.69-.03-2.91-2.49-2.56,1.07-.67,0-1.33,0-2,0l2.99-3.98-5.98-3.01c-.77,2.35,1.39,3.29,1.98,4.5.28.57-2.94.34-1.99,2.49-1,0-2,0-3,0-.96-2.64-5.91-3.3-5,0-5.98,0-12,0-17.98,0,2.57-.22,6.52-1.94,10-.99l-1-15.99c1.7-.25,8.27-3.74,8.99-3-1.53,3.1,2.95,3.99,4,3,.28-.27-.23-5.8.06-7.44.12-.65,1.64-5.68,1.95-6.55.11-.3.79-1.63,1-2,.04-.06,1.16.14,1-.99-.58-.12-1.87.15-2-.01-1.1-1.38,1.51-9.59,1-11.99,3.08-.56,12,.99,14.05-.44,1.67-1.16.9-11.77.94-14.55Z" fill="#485d79"/><path d="M395.7,153.64c.04,4.65-.01,9.34,0,13.99-4.98.07-10.01-.05-14.99,0,.18,5.07-.83,9.93-.99,14.99-1.9,2.85-.9,7.81-1,11.49-.03,1.21-1.27,4.13-1,4.49l-12.99-1v30.97c-20.96.18-41.98-.24-62.94,0-8.13-2.29-17.54-.39-25.97-1,.07-5.32-1.4-9.69,0-14.99.15-.02.96-1.28,1.91-1.56,1.5-.44,4.45-.19,4.93-.6.37-.32.24-2.33,1.1-3.4.79-.97,2.33-.97,3.04-2.21s.76-4.91,1.01-5.22c.08-.1,1.73.42,2.01-.66.27-1,.26-14.44-.02-15.33h14.99c.04-4.98-.07-10,0-14.99,0-.32.83-1.26.84-2.43.02-2.32-1.93-12.24-.83-13.55l90.9,1Z" fill="#485d79"/><path d="M378.72,244.55c.21-.01,1.59-1.01,3.38-1.07,29.75-1.09,59.77.96,89.53.07v15.98c-4.65.05-9.34-.07-13.99,0-18.56.3-36.94.81-55.4,1.05-7.57.1-15.04.02-22.53-1.05,0-.13-.84-.64-.86-1.46-.07-3.91,2.49-9.36-.14-13.53Z" fill="#36465e"/><path d="M244.85,245.55c.05-.66-.04-1.34,0-2h104.89s0,15.98,0,15.98c-4.64.12-9.35-.16-13.99,0-16.13.57-33.16,1.22-49.45,1.43-8.79.12-18.73-3.06-27.48-.43-.17-5.33-1.68-10,0-14.98h-13.98Z" fill="#36465e"/><path d="M501.6,244.55c1.57,4.92-1.91,11.04,2,14.99l-1.42,16.05c-.4.57-13.01,1.35-13.56.93-.21-.16.23-1.83,0-2-.88-.66-13.44.48-15.99,0,.01-4.29-.22-8.71,0-12.99,2.51-.12,4.62,1,4-2,.66-.03,1.34-.02,2,0l4.99,3.5c-1.88-.2-4.71,1.9-2.99,3.49.75.7,4.04-2.81,5.98-1l-1.99-4.99c.77-.01,2.64-1.44,4.01-1.01-1.99-4.67-.64-10.02-1.01-14.98,4.63-.18,9.37.27,13.99,0Z" fill="#3e516b"/><path d="M370.73,244.55l.5.98.5-.98c.66-.03,1.34.05,2,0l1.49.99.51-.99c.99-.07,2,.05,3,0,2.64,4.17.07,9.62.14,13.53.01.82.86,1.33.86,1.46.04,2.58.85,15.25-.13,15.86-3.91.14-7.94.31-11.85.13-.14,0-1.13-.97-2.42-1.04-4.82-.26-9.74.26-14.56.04,0-1.58-.75-14.99,0-14.99h14.99v-14.99c1.65-.03,3.33.04,5,0Z" fill="#3e516b"/><path d="M244.85,245.55h13.98c-1.67,4.98-.17,9.65,0,14.99.07,2.33.99,13.45.58,14.02-1.17,1.6-11.81,1.07-14.56.97-.13,0-1.13-.96-2.42-1.04-4.16-.25-8.41.25-12.57.04,0-1.58-.75-14.99,0-14.99h14.99c-.37-4.63-.32-9.35,0-13.99Z" fill="#3e516b"/><path d="M456.64,268.53c1.95,6.76.63,14.03.99,20.98,4.98-.01,10.01,0,14.99,0,6.21,0,2.87.58,4.66.99,3.08.71,7.94-.47,11.33,0,.17,3.85-.79,4.31,3.99,5.01.23,2.09-3.47.45-4,.98-.23.22-.21,5.52-.02,6.36.28,1.17,2.45-.01,2.02,1.63-5.32.02-10.66,0-15.98.01-5.65,0-11.33,0-16.98,0,.12-.61-.12-1.38,0-2,.21-1.11,1.92-2.94.99-4.99h-.98s-1.01,1.99-1.01,1.99c-.26-2.94.27-5.99-.05-8.94-2.33-.34-14.09-1.08-14.81.08-.24,9.59-.12,19.24-.13,28.84-3.97-.01-7.99.03-11.99,0h-2c.03-.66-.05-1.33,0-2h13c-1.5-3.23,1.79-4.53-3-4-.76-2.18,2.01-3.91,2.02-5.5s-2.4-3-2.02-3.46c.16-.19,2.01.08,2.63-1.47,1.05-2.59-.14-11.23.37-14.54h14.99c.54-5.55-.72-12.21-.06-17.59.18-1.49,1.04-2.26,1.06-2.39Z" fill="#40546e"/><path d="M213.88,260.54v28.98c5.27.27,10.72-.39,15.98,0,.15.01,1.13.93,2.41,1.04,4.17.36,8.44-.04,12.57.95-.19,3.54,1.08,10.95-1.45,13.11-.52.44-11.62-.03-13.54-.12-5.36-.27-10.6-1.21-15.98-1-.02-1.98.46-12.53,0-12.99-.16-.16-3.09.03-4,0-.17,0-.57-.52-1,0l-9.99-1c1.66-2.32,10.26-.22,10.99-1,.17-.18-.13-3.52.45-5.04s2.14-2.52,2.51-4.49c1.06-5.56-1.52-13.11,1.04-18.44Z" fill="#40546e"/><path d="M350.75,289.51c.13,0,1.13.96,2.42,1.04,4.48.28,9.45-.99,13.57.96-.05,1.51,1.37,4.3,1.02,7.5-.97,8.91-10.61,5.47-17.01,5.48-4.55,0-13.27-1.55-15.98,2,.11-5.31.69-10.73,0-15.98-.11-.84.33-.88,1-1,3.39-.61,11.15-.18,14.99,0Z" fill="#40546e"/><path d="M379.72,182.61c-.1,3.09-.64,12.3-.06,14.45.33,1.21,2.58.25,3.06.54.09.06-.25,1.34.2,1.74,1.72,1.52,23.36-1.13,27.77-.74-.31.86-1.83,5.89-1.95,6.55-.29,1.64.23,7.18-.06,7.44-1.04.99-5.52.1-4-3-.71-.74-7.29,2.75-8.99,3-4.63.68-11.41.08-15.98-1-.04-3.18.65-9.95.01-12.34-.28-1.04-1.95-.57-2.01-.65-.27-.36.96-3.28,1-4.49.1-3.68-.9-8.64,1-11.49Z" fill="#40546e"/><path d="M518.58,190.61l1,7.99c4.01-1.19,8.01.77,11.98,1,4.11,9.12-2.09,13.13-10.5,10.01.39,1.07-.48,2.56-.48,2.97-5.55-.45-11.79,1.09-16.98-1,.04-4.65-.02-9.34,0-13.99,4.98-.09,10.01.06,14.99,0,.06-2.32-.1-4.68,0-7Z" fill="#40546e"/><path d="M267.83,197.6l.5.98.5-.98c.67.01,1.33-.02,2,0,.56,3.03-1.53,1.92-3.45,2-2.18.09-4.38-.07-6.55,0,.53,2.71-1.69,8.47,1.99,8.01.83.65-3.1,1.75-2.96,3.48.16,2.08,13.73,1.84,15.96,1.5-1.4,5.29.07,9.67,0,14.99,0,.67,0,1.33,0,2-1,.03-2-.01-3,0l-.5-.98-.5.98c-4.32-.02-8.67.01-12.99,0v-30.97c1.29.58,2.54-.92,3-1,1.67-.29,4.13.05,5.99,0Z" fill="#36465e"/><path d="M520.58,212.58c-.01,5.58.93,11.41,0,16.98-5.98-.03-12,.03-17.98,0,1.24-5.8.94-11.98,1-17.98,5.19,2.08,11.43.55,16.98,1Z" fill="#36465e"/><path d="M395.7,212.58l1,15.99c-3.47-.95-7.42.77-10,.99-2.29.2-4.7-.13-7,0-.05-5.98.09-12.01,0-17.99,4.57,1.08,11.36,1.67,15.98,1Z" fill="#36465e"/><path d="M367.73,275.52c-.01,4.17.03,8.35,0,12.53-.01,1.46-.98,2.86-1,3.45-4.12-1.95-9.08-.68-13.57-.96-1.29-.08-2.29-1.03-2.42-1.04v-14.99c4.82.22,9.74-.3,14.56-.04,1.29.07,2.28,1.03,2.42,1.04Z" fill="#36465e"/><path d="M472.63,274.52c2.55.48,15.11-.66,15.99,0,.22.17-.22,1.84,0,2,.14,4.64-.2,9.35,0,13.99-3.38-.48-8.24.71-11.33,0-1.78-.41,1.55-1-4.66-.99v-6.99l.98-.5-.98-.5c0-2.33,0-4.66,0-6.99Z" fill="#36465e"/><path d="M244.85,275.52c1.29,4.88.28,10.67,0,15.98-4.14-.99-8.4-.59-12.57-.95-1.29-.11-2.26-1.03-2.41-1.04v-14.99c4.16.21,8.41-.29,12.57-.04,1.29.08,2.29,1.03,2.42,1.04Z" fill="#36465e"/><path d="M177.91,244.55c-1.14,1.86-2.17,1.59-3.99,1.55-8.84-.2-17.64-.43-26.49-.53-1.69-.02-4.44.64-5.48-1.02,11.97,0,23.99-.03,35.96,0Z" fill="#3d3f47"/><path d="M301.79,228.57c-1.66.02-3.33-.02-5,0-.33,0-.67,0-1,0-6.74.1-13.29.82-19.98,1,0-.67,0-1.33,0-2,8.44.61,17.84-1.29,25.97,1Z" fill="#3e516b"/><path d="M445.65,229.57c-9.33.04-18.67,0-27.97,0-.35-3.57.87-1.11,2.56-1.07,8.21.16,17.33-1.08,25.41,1.07Z" fill="#3e516b"/><path d="M484.62,260.54l1.99,4.99c-1.94-1.82-5.23,1.69-5.98,1-1.72-1.59,1.11-3.68,2.99-3.49l-4.99-3.5c2.22.06,4.52,1.02,5.99,1Z" fill="#40546e"/><path d="M334.76,288.51c.45.04.89.53,1,1-.67.12-1.11.16-1,1h-12.99c.12-.12-.45-1.72.66-2.02,1.73-.46,9.99-.21,12.33.02Z" fill="#3e516b"/><path d="M412.69,229.57c-.94-2.16,2.27-1.92,1.99-2.49-.59-1.21-2.75-2.15-1.98-4.5l5.98,3.01-2.99,3.98c-1,0-2,0-3,0Z" fill="#3e516b"/><path d="M335.76,276.52c-.13,3.58-.83,6.6-1,9.99-1.51-2.14-2.3-11.16,1-9.99Z" fill="#3e516b"/><path d="M129.96,244.55c-4.26,1.69-11.93,1.66-15.98,0h15.98Z" fill="#3d3f47"/><path d="M145.95,229.57c-1.27-2.95,5.99-3.27,5,0-1.65.02-3.32-.01-5,0Z" fill="#3e516b"/><path d="M409.69,229.57c-1.66-.01-3.33,0-5,0-.91-3.3,4.03-2.64,5,0Z" fill="#3e516b"/><path d="M476.62,259.54c.62,3-1.48,1.87-4,2,.03-.66-.06-1.34,0-2,1.33-.07,2.67.05,4,0Z" fill="#40546e"/><path d="M139.95,244.55c-1.42,1.98-5.77,3.59-5,0h5Z" fill="#3d3f47"/><path d="M261.83,197.6c-.46.08-1.72,1.58-3,1l3-1Z" fill="#40546e"/><path d="M103.99,244.55c-.14,1.5-2.86,1.5-3,0h3Z" fill="#36465e"/><polygon points="110.98 244.55 110.47 245.55 108.98 244.55 110.98 244.55" fill="#3d3f47"/><path d="M375.72,244.55l-.51.99-1.49-.99c.66-.05,1.34.05,2,0Z" fill="#36465e"/><path d="M142.95,229.57h-1c.33,0,.67,0,1,0Z" fill="#3e516b"/><path d="M272.82,229.57c-.33,0-.67,0-1,0l.5-.98.5.98Z" fill="#485d79"/><path d="M295.8,228.57c.33,0,.67,0,1,0h-1Z" fill="#485d79"/><polygon points="131.96 244.55 132.96 244.55 132.46 245.53 131.96 244.55" fill="#3d3f47"/><path d="M370.73,244.55c.33,0,.67.01,1,0l-.5.98-.5-.98Z" fill="#36465e"/><polygon points="472.63 282.52 472.63 281.52 473.61 282.02 472.63 282.52" fill="#40546e"/><path d="M218.87,45.75c17.19-.05,33.86-1.2,51.28-.37,2.57.12,5.14-2.5,6.16,1.37,2.67-3.94,6.05-.86,9.05-.95,9.09-.29,17.54-.8,26.75-.41,2.02.08,6.46-2.22,7.52,1.01,1.27,3.87-.65,9.84-.9,13.85-.11,1.87-.83,4.09,2.04,3.49-.02,2.66,0,5.33,0,7.99-5.01-1.71-3.59,2.83-4.54,3.07-2.73.67-7.99-.83-10.78-.09-1.11.29-.54,1.89-.66,2.02s-1.75-.47-2.03.67c-.31,1.24.46,3.69-.06,4.29s-5.19-1.09-2.37,3.05c.4.58,2.23.62,2.5,1.69.13.54.26,10.78-.11,11.21-.22.26-4.87,1.16-5.89,3.08.64-2.48-6.42-5.65-7.01-4.99v9.99c-.34,0-.67-.02-1,0-.66.04-1.34-.06-2,0,.26,2.36-1.29,5.74,2,5,0,1,0,2,0,3-2.09,1.04-.46,6.46-.99,7-1.14,1.16-27.62-.64-32.5-.02-1.54.2-2.34.28-1.47,2.01-.67,0-1.33,0-2,0-.33,0-.67,0-1,0l1.5-2c-9.76.91-21.5-1.21-30.98,0-1.51.19-2.47.31-1.48,2-2,0-4,0-5.99,0s-4,.01-5.99,0c-2.33-.01-4.66.02-6.99,0-.33,0-.67,0-1,0-2-.02-4,.02-5.99,0,.71-4.08-6.67-1.04-7.99-2.01,1.98-4.68.63-10.01,1-14.98,5.31.1,10.67-.06,15.99,0-1.55-5.25-.2-10.71,0-15.98.16-4.31-.11-8.68,0-12.99,4.64.19,9.35-.14,13.99,0,.51-.38-1.91-11.7,2.01-11.48.15-.98-1.35-.28-2.01-.5-1.45-3.87,2.59-4.04,2.69-6.59.14-3.52-1.49-8.44-.69-12.39Z" fill="#485d79"/><path d="M564.54,45.75v2c-3.03-.56-1.92,1.53-2,3.45-.23,5.89.5,11.06,1,16.53.06.65-.1,1.37,0,2-1.83.64-.6,4.57-1,5-.83.9-10.54-1.43-12.99,1-.98.97-.9,1-1.05,2.39-.87,7.75-.07,19.41.05,27.58-5.31.09-10.67-.07-15.98,0v15.98c-4.32.04-8.67-.05-12.99,0-1.57-1.68-6.46-1.67-7.99,0-.33,0-.67,0-1,0l-55.94-1.01c-.42-1.65,1.43-.53,1.8-1.44.71-1.74-.67-6.31-.6-8.07.06-1.5.74-2.94.79-4.47.19-5.71-.52-11.4,1-16.98,2.98.04,13.34.56,15-.48,3.28-2.05-1.02-2.73-1.09-3.12-.08-.47.82-8.99,1.07-9.39.06-.09,1.73.4,2.01-.66.93-3.48-.69-10.34-.02-14.33,2.67.26,7.25-1.01,10.48.03,5.62-1.01-.5-13.98,5.18-16.92,21.02,1.07,41.79.04,62.82-.14,3.45-.03,8.21,1.1,11.43,1.05Z" fill="#485d79"/><path d="M354.74,60.73c4.62.24,9.28,1.41,13.99,1v-15.48c0-2.75,49.11-.34,54.95-1.51l.49,4.01c-1.07-6.76,16.3-3.44,16.55-2.36-.73,5.27-.36,10.43,0,15.75.05.79.91,1.38.93,1.58.06.66-.06,1.34,0,2l-1.95,7.54c-4.05,1.43-8.43-.84-12.03,1.46-.45.29-1.2.35-1.49.98-1.39,3.04-.6,24.76-.51,29.99-4.97.06-10.03-.24-14.99,0-.66.03-1.34-.05-2,0-.29,4.93.89,10.19-1.14,14.85-.81.51-17.79.52-19.2.16-1.13-.29-.21-2.06-1.14-2.03-.99,4.06-5.2,1.3-8.16,1.39-14.08.42-28.22.9-42.28.62,1.29-5.04.92-9.88.99-14.98.07-4.92-.28-10.02,0-14.99,4.93.01,9.86-1.75,14.99-1-1.35-4.85.48-8.19,1-12.98.02-.2.91-1.12,1.04-2.42.43-4.3-.38-9.18-.04-13.57Z" fill="#485d79"/><path d="M289.81,137.66c3.24.58,5.86-1,7.49-1h98.4c.03,5.65-.04,11.34,0,16.98l-90.9-1c-1.1,1.31.85,11.23.83,13.55,0,1.17-.83,2.11-.84,2.43-4.12.27-8.51-.36-12.58-.05-1.41.11-2.27,1.04-2.4,1.05-3.34.17-10.54.74-13.33.02-1.1-.28-.54-1.9-.66-2.02h2c2.35,1.71,8.47,1.64,10.99,0,.33-.22,1.06.09,1-1l-1-1c-.02-1.66.01-3.33,0-5,1.98-2.04.75-6.12,1-8.99,4.25,1.93,9.39.73,13.93.94,1.48-4.93.13-8.99.06-13.93h-13c-.23,3.14.33,6.47.05,9.58-.12,1.3-1.03,2.28-1.04,2.41h-1c.07-1.97-.18-4.05,0-5.99.13-1.39,2-4.5,1-6.99Z" fill="#36465e"/><path d="M426.67,136.66c30.95-.33,61.96.25,92.91,0l-1,30.97c-.5.1-.87.5-1,1-1,0-2,0-3,0l-1.5-2c1.02-.2,4.2.3,4.5.01.46-.46-.35-10.99,0-13-16.66-1.82-32.86-.12-49.5.05-3.97.04-7.89-.03-11.91,0-9.64.07-19.27-.8-28.86-.09-1.26.72-.61,12.45-.65,15.03-2.34-1.42-4.6.16-7.33-.07-2.48-.21-6.71-1.88-8.66-1.92v-3c1.5-.14,1.5-2.86,0-3,0-.66-.03-1.34,0-2l.98-.5-.98-.5c.02-.66,0-1.33,0-2l1-2c0-1.21-1.01-2.85-1-4,3.2-.89,1.26,2.74,2.55,3.06,1.36.34,11.47.09,12.49-.53,1.62-.99-.67-7.84-.84-10.05-.14-1.84,2.43-3.87-1.2-3.48l2.99-1.99Z" fill="#36465e"/><path d="M165.93,136.66l1.49.99.51-.99c2.33.04,4.67,0,6.99,0,2.05,0,4.95,0,6.99,0,.67,0,1.33,0,2,0,3.2,0,7.25,0,10.99,0l1.49.99.51-.99c.67,0,1.33,0,2,0l.51.99c.89.19,1.46.05,1.49-.99.67,0,1.33,0,2,0,.33,0,.67,0,1,0,.14,1.5,2.86,1.5,3,0,1,0,2,0,3,0s2-.01,3,0c.33,0,.67,0,1,0,1.26,1.65,5.73,1.65,6.99,0,.33,0,.67-.01,1,0,1,.03,2-.05,3,0s2.01-.07,3,0c.33.02.67-.03,1,0,1,.09,4.39,2.75,5.99,0,1,.03,2-.03,3,0s2.02-.09,3,0c.09,0,.23.6.55.75l.45-.75c.66.05,1.34-.03,2,0,1.64.08,3.35.05,5,0,.66-.02,1.34.04,2,0l.48.91c.29-.23.4-.89.52-.91.32-.05.67.02,1,0,1.32-.09,2.67.03,4,0-.01,1.59,3.62,1.46,4,0,1.33-.01,2.67-.02,4,0,2.37,2.13,6.85.57,9.99,1-.5,3.6-.02,6.21,0,9.99l-.98.5.98.5c-.02,1.66.04,3.33,0,5-.62-.11-1.48.16-2,0-6.71-2.08-20.96-.43-28.64-.37-19.48.15-39.34-.27-58.74-.67-5.51-.11-10.97.88-16.53.04,0-.13-1-1.15-1.06-2.43-.09-2.01.96-10.57.01-11.52-.47-.47-5.1.23-6.45-.04l1.5-2c1-.02,2-.03,3,0Z" fill="#36465e"/><path d="M336.76,75.72c.53.01,1.99.94,3.44,1.01,4.5.2,9.05-.15,13.54,0-.52,4.8-2.35,8.13-1,12.98-5.13-.75-10.05,1.02-14.99,1-.47,0-2-.96-3.44-1.01-4.51-.14-9.04.11-13.54,0-.04-4.65,0-9.34,0-13.99,5.15-.03,10.75-.14,15.98,0ZM349.74,84.71h-1.99v2.99h1.99v-2.99Z" fill="#40546e"/><path d="M320.78,71.72c0,1.33,0,2.66,0,4-3.27.02-6.76-.23-9.99,0-1.14.08-5.68.51-5.99,1-.5.77.35,6.34,0,7.99-.06.65.04,1.34,0,2-.27,4.28-.51,11.45-.05,15.55.14,1.23-.39,1.77,1.05,2.43.41.19,1.39-.14,2,0,.84.2.42.07,1,0,.33-.04.67.02,1,0,2.86,1.27,8.44,2.35,9.99-1h1c.03.66-.05,1.34,0,2h16.99c-.07,5.11.3,9.95-.99,14.98,14.06.28,28.2-.2,42.28-.62,2.96-.09,7.17,2.67,8.16-1.39.93-.03,0,1.75,1.14,2.03,1.4.36,18.38.35,19.2-.16,2.04-4.67.86-9.92,1.14-14.85.66-.05,1.33.04,2,0-.69,4.31,1.41,13.86-1,16.98h-1c-.67,0-1.33,0-2,0-9.98,0-20-.03-29.97,0-.67,0-1.33,0-2,0-3.99.01-8,0-11.99,0-1,0-2,0-3,0-11.31.02-22.66.04-33.97,0-1.66,0-3.33.01-5,0h-1c-4.98-.05-10,.05-14.98,0l-1-16.98c-4.65.09-9.35-.11-13.99,0v-9.99c.6-.66,7.66,2.51,7.01,4.99,1.02-1.93,5.66-2.83,5.89-3.08.37-.42.25-10.66.11-11.21-.26-1.07-2.1-1.1-2.5-1.69-2.82-4.13,1.85-2.45,2.37-3.05s-.24-3.04.06-4.29c.28-1.14,1.9-.54,2.03-.67s-.45-1.72.66-2.02c2.79-.74,8.05.76,10.78.09.96-.24-.46-4.78,4.54-3.07ZM300.3,102.69v1c.65-.33.65-.67,0-1ZM297.3,103.69v1c.65-.33.65-.67,0-1Z" fill="#40546e"/><path d="M579.52,105.69c-.48.65,1.38,9.88,1.09,12.56-.27,2.41-2.27.61-2.08,2.41,9.48.25,19.03-.31,28.51,0,1.92.06,4.01-1.02,3.45,2-.67,0-1.33,0-2,0l-.5-.98-.5.98-57.3-.1c-2.73-.79-1.59-13.6-1.64-16.88,5.22-.09,11.56-1,15.98-1,.13,0,1.15,1.02,2.43,1.03,4.19.02,8.38-.07,12.56-.03Z" fill="#3e516b"/><path d="M441.66,103.69c3.1,4.48,10.11,2.64,14.99,3-.05,1.53-.73,2.96-.79,4.47-.07,1.77,1.31,6.33.6,8.07-.37.91-2.21-.22-1.8,1.44l55.94,1.01c-9.82.15-19.33.86-28.97,1l-.5-.98-.5.98c-1,.01-2-.01-3,0l-.5-.98-.5.98c-7.39.09-14.73-.06-21.98,0l-1.49-.99-.51.99c-.66.02-1.33,0-2,0-1.31-1.67-4.86-1.07-6.99-1-2.88.09-15.63,1.56-17.05.56-1.68-1.17-.88-13.57-.93-16.55,2.43-.03,15.35.48,15.99,0,.16-.12-.09-1.44,0-2Z" fill="#3e516b"/><path d="M426.67,168.63c-.04,2.77.73,13.39-.94,14.55-2.05,1.43-10.97-.13-14.05.44l-15.98-2c.02-3.65-.01-7.34,0-10.99l.98-.5-.98-.5c0-.67,0-1.33,0-2,2.66-.04,5.33-.02,7.99,0,.34,1.55,2.26,1.07,3,0,2.12.03,3.79-1,4-1,1.95.05,6.18,1.71,8.66,1.92,2.72.24,4.99-1.35,7.33.07Z" fill="#40546e"/><path d="M426.67,136.66l-2.99,1.99c3.62-.39,1.05,1.64,1.2,3.48.17,2.21,2.47,9.06.84,10.05-1.02.62-11.13.87-12.49.53-1.28-.32.65-3.96-2.55-3.06.03-2.67-.71-11.41.94-12.55,1.45-1.01,12.15-.4,15.05-.44Z" fill="#40546e"/><path d="M274.82,153.64c-.07,2.91-2.1,12.26-.76,13.8.41.47,1.63.06,1.76.19.12.12-.44,1.73.66,2.02,2.79.72,9.99.15,13.33-.02.41.88-2,5.56-2.24,5.76-.8.68-2.51.04-2.76.24-2.62,2.09,2.74,1.9,2.89,2.06.61.61-.22,3.06.1,3.93-.94.13-2.15-.19-3,0l-.51-.99c-1.85-.35-1.59.29-1.49,1.99-.33.04-.67-.03-1,0,.55-3.13-2.61-2.97-2,0-.67.01-1.33,0-2,0,.46-2.77-.92-2.46-3-1,0-.18-1.07-1.49-1.07-3.38,0-3.39.04-6.34,1.07-9.6l-14.98-1.01c-.01-.13-1.26-.21-1-.99l13.98-.02c.74-4.84-2.87-3.51-6-4.5-.41-3.11,5.32-.76,6-1.48.35-.37-.25-5.63,0-7,.52.16,1.37-.11,2,0ZM281.67,175.75c-.09-.12-2.75-1.25-2.85-1.13-.66.83,1.51,5.69,2.98,3.99.11-.13.14-2.5-.13-2.86Z" fill="#40546e"/><path d="M288.81,121.67l-1,1c-.27.08-.65-.03-1,0-5.39.41-11.48-.04-16.98,0-1,0-2,0-3,0-4.32.03-8.67-.02-12.99,0-.86-1.72-.06-1.81,1.47-2.01,4.88-.62,31.35,1.17,32.5.02.54-.54-1.1-5.96.99-7-.01,2.33.4,6,0,7.99Z" fill="#3e516b"/><path d="M219.87,122.67c-.99-1.69-.03-1.81,1.48-2,9.48-1.21,21.23.9,30.98,0l-1.5,2c-1,0-2,0-3,0-1.66,0-3.33,0-5,0s-3.33,0-5,0c-2,0-4,0-5.99,0-1,0-2,0-3,0-1.66,0-3.33,0-5,0-1.33,0-2.67,0-4,0Z" fill="#3e516b"/><path d="M533.57,167.63c-.57,3.66-1.75,1.13-2.81,2.19-.58.58.3,2.66-.74,2.87-.77.16-5.1.07-5.38-.18-.63-.54,1.17-3.82-2.05-2.89.11,2.33-.8,7.16-4,7,.1-2.75-.07-5.37,1-7.99v-1c6.28.66,8.64,0,13.99,0Z" fill="#40546e"/><path d="M359.74,122.67c-1.04,1.66-3.79,1-5.48,1.02-7.65.09-15.35.08-23.01,0-1.69-.02-4.44.64-5.48-1.02,11.31.04,22.66.02,33.97,0Z" fill="#b3c6da"/><path d="M406.69,122.67c-7.56,1.75-16.6,1.1-24.49,1.02-1.69-.02-4.44.64-5.48-1.02,9.98-.03,20,0,29.97,0Z" fill="#b3c6da"/><path d="M200.89,136.66c-.67,0-1.33,0-2,0s-1.33,0-2,0-1.33,0-2,0c-3.74,0-7.79,0-10.99,0l5.48-1.02c1.65.44,11.55-.97,11.5,1.02Z" fill="#b3c6da"/><path d="M286.81,122.67c-4.71,1.68-12.34,1.67-16.98,0,5.51-.04,11.6.41,16.98,0Z" fill="#b3c6da"/><path d="M181.91,136.66c-2.05,0-4.94,0-6.99,0,1.26-1.65,5.73-1.65,6.99,0Z" fill="#b3c6da"/><path d="M266.83,122.67c-1.93,1.65-12.18,1.61-12.99,0,4.32-.02,8.67.03,12.99,0Z" fill="#b3c6da"/><path d="M268.83,136.66c-1.33-.04-2.67.02-4,0s-2.67-.01-4,0-2.67-.03-4,0c0-.44-.04-.85.5-.99,3.57.47,8.47-1.2,11.49.99Z" fill="#b3c6da"/><path d="M374.72,122.67c-2.67,1.66-9.12,1.7-11.99,0,3.99,0,8,.01,11.99,0Z" fill="#b3c6da"/><path d="M533.57,164.63c.14-3.64-.07-7.34,0-10.99,1.71,2.54,1.66,8.65,0,10.99Z" fill="#40546e"/><path d="M288.81,167.63c-2.52,1.64-8.64,1.71-10.99,0h10.99Z" fill="#485d79"/><path d="M288.81,105.69v5c-3.28.74-1.74-2.65-2-5,.66-.05,1.34.05,2,0Z" fill="#40546e"/><path d="M268.83,136.66c1.32.04,2.68-.1,4,0,.66.05,1.34-.03,2,0-.03.33.05.67,0,1-3.14-.43-7.62,1.13-9.99-1,1.33.02,2.67-.04,4,0Z" fill="#40546e"/><path d="M289.81,151.64c-.24,2.87.98,6.95-1,8.99-.02-3.31-.12-6.69,0-9.99h1c-.02.33.03.67,0,1Z" fill="#485d79"/><path d="M559.54,136.66c-2.99.04-6-.05-8.99,0,1.86-1.68,7.13-1.68,8.99,0Z" fill="#b3c6da"/><path d="M519.58,121.67c-2.66.03-5.33-.05-7.99,0,1.53-1.67,6.42-1.68,7.99,0Z" fill="#3e516b"/><path d="M289.81,137.66c1,2.49-.87,5.6-1,6.99v-7.99c.82-.25.91.98,1,1Z" fill="#485d79"/><path d="M217.88,136.66c1,.02,2-.03,3,0-1.26,1.65-5.73,1.65-6.99,0,1.33.02,2.67-.03,4,0Z" fill="#40546e"/><path d="M450.65,122.67c-2.19-.02-5.63.74-6.99-1,2.14-.07,5.68-.67,6.99,1Z" fill="#485d79"/><path d="M209.88,136.66c-1,0-2,0-3,0s-2,0-3,0c-.33,0-.67,0-1,0,1.26-1.65,5.73-1.65,6.99,0Z" fill="#b3c6da"/><path d="M232.86,136.66c.33,0,.67,0,1,0s.67-.01,1,0c-1.6,2.75-5,.09-5.99,0,1.3.13,2.68-.04,4,0Z" fill="#40546e"/><path d="M572.53,136.66c-2,.01-4-.02-5.99,0,1.01-1.64,5.05-1.61,5.99,0Z" fill="#b3c6da"/><path d="M213.88,122.67c-1.01,1.64-5.05,1.61-5.99,0,2,.01,4,0,5.99,0Z" fill="#b3c6da"/><path d="M248.85,136.66c-1.64.05-3.36.08-5,0,.66-1.58,4.34-1.58,5,0Z" fill="#b3c6da"/><path d="M242.85,122.67c-.66,1.58-4.34,1.58-5,0,1.66,0,3.33,0,5,0Z" fill="#b3c6da"/><path d="M217.88,136.66c-1.33-.03-2.66.02-4,0-.33,0-.67,0-1,0,.66-1.58,4.34-1.58,5,0Z" fill="#b3c6da"/><path d="M223.87,122.67c-.9,1.24-3.14,1.45-4,0,1.33,0,2.66,0,4,0Z" fill="#b3c6da"/><path d="M250.84,122.67c.33,0,.67,0,1,0-1.22,1.38-2.73,1.39-4,0,1,0,2,0,3,0Z" fill="#b3c6da"/><path d="M188.9,122.67c-1-.01-2,.02-3,0,.14-1.5,2.86-1.5,3,0Z" fill="#485d79"/><path d="M406.69,167.63c-.74,1.07-2.65,1.55-3,0,1,0,2-.01,3,0Z" fill="#485d79"/><path d="M231.86,122.67c-1,1.2-2,1.2-3,0,1,0,2,0,3,0Z" fill="#b3c6da"/><path d="M410.69,163.63v-3c1.5.14,1.5,2.86,0,3Z" fill="#40546e"/><path d="M224.87,136.66c-1-.05-2,.03-3,0,.14-1.5,2.86-1.5,3,0Z" fill="#b3c6da"/><path d="M240.85,136.66c-.98-.09-2.01.03-3,0,.76-2.33,2.66-.05,3,0Z" fill="#b3c6da"/><path d="M583.52,136.66c-.67,0-1.33,0-2,0l1.49-.99.51.99Z" fill="#b3c6da"/><path d="M167.92,136.66l-.51.99-1.49-.99c.67.02,1.33-.01,2,0Z" fill="#3e516b"/><path d="M274.82,136.66c-.66-.03-1.34.05-2,0l1.49-.99.51.99Z" fill="#b3c6da"/><path d="M533.57,139.66c.19-1.12-.03-1.24,1-2l-1,2Z" fill="#40546e"/><path d="M410.69,155.64c.01-1.75,1-1.89,1-2l-1,2Z" fill="#40546e"/><path d="M454.64,122.67c-.67,0-1.33-.02-2,0l.51-.99,1.49.99Z" fill="#485d79"/><path d="M519.58,167.63v1h-2c.13-.49.5-.9,1-1,.28-.06.71-.03,1,0Z" fill="#485d79"/><path d="M289.81,166.63c0-.07-.99-.3-1-1l1,1Z" fill="#485d79"/><path d="M410.69,158.64c.01-.33-.01-.67,0-1l.98.5-.98.5Z" fill="#40546e"/><path d="M533.57,149.65c.01-.33-.02-.67,0-1l.98.5-.98.5Z" fill="#40546e"/><path d="M274.82,148.65l-.98-.5.98-.5c0,.33,0,.67,0,1Z" fill="#485d79"/><path d="M534.57,143.65c-.46-.12-.94-.54-1-1,.59-.19,1.03.59,1,1Z" fill="#40546e"/><path d="M250.84,136.66c.33-.02.68.05,1,0-.12.02-.23.68-.52.91l-.48-.91Z" fill="#40546e"/><path d="M240.85,136.66c.32.04.67-.03,1,0l-.45.75c-.32-.15-.46-.75-.55-.75Z" fill="#40546e"/><path d="M577.52,136.66c-.33,0-.67,0-1,0l.5-.98.5.98Z" fill="#b3c6da"/><path d="M252.84,136.66c-.33.02-.68-.05-1,0,.12-.02.23-.69.51-.94l.49.94Z" fill="#b3c6da"/><path d="M233.86,136.66c-.33,0-.67,0-1,0l.5-.98.5.98Z" fill="#b3c6da"/><path d="M228.87,136.66c-.33-.03-.67.02-1,0l.44-.73c.32.14.46.72.56.73Z" fill="#b3c6da"/><path d="M408.69,122.67h1c-1.08,1.39-.47,0-1,0Z" fill="#b3c6da"/><path d="M319.78,122.67h1c-.33,0-.65,0-1,0Z" fill="#b3c6da"/><path d="M199.89,122.67c.33,0,.67,0,1,0h-1Z" fill="#b3c6da"/><path d="M608.49,122.67c-.33,0-.67,0-1,0l.5-.98.5.98Z" fill="#485d79"/><path d="M481.62,122.67c-.33,0-.67,0-1,0l.5-.98.5.98Z" fill="#485d79"/><path d="M477.62,122.67c-.33,0-.67,0-1,0l.5-.98.5.98Z" fill="#485d79"/><path d="M287.81,122.67l1-1c-.16.79-.29.8-1,1Z" fill="#485d79"/><path d="M456.64,314.48c1.83.64.56,4.49,1.03,4.97,1.28,1.3,13.46-.44,15.96.03,0,.13,1.13,1.17,1.08,2.46-.11,2.8-1.75,6.33-1.12,8.88.29,1.17,2.46-.01,2.03,1.63-4.84,2.05-5.13-.89-5.62-1.01-3.07-.76-4.94,1.74-6.44,1.58-1.34-.14-3.03-1.67-4.36-1.63-.84.03-.47,2-.56,2.07-.25.21-4.69-1.13-6.49-1.1-2.99.05-5.56,1.13-8.49,1.1v-12.99c2.56-.5,12.27,1.14,12.98-.99.35-1.06-.18-3.54,0-5Z" fill="#40546e"/><path d="M474.63,304.49c.92,4.99-.85,10.52-1,14.99-2.5-.47-14.67,1.28-15.96-.03-.47-.48.8-4.33-1.03-4.97.22-1.76.87-3.47,1-5,.03-.41-.41-1.19-1-1-.03-1.93.75-2.71,1-4,5.65,0,11.33,0,16.98,0Z" fill="#36465e"/><path d="M580.52,287.51c-.06-.66.03-1.34,0-2,.06.18,1.33.55,1.01,1.47l-1.01.53Z" fill="#a3a09b"/><path d="M564.04,289.51c.65.33.65.67,0,1v-1Z" fill="#36465e"/><path d="M203.89,319.48c.41,1.56,3.67,1.49,4,0,.67.01,1.33-.02,2,0,1.86,1.71,3.48,3.32,3,0,.33.01.67-.01,1,0,5.04.23,9.93,1.12,14.99,1-.01.3.94,1.38.9,2.55-.1,2.77-.08,8.59-1.91,10.43-1.03,1.03-1.56-3.78-3.47-3l-.52,3c-1.67.45-.45-1.92-1.59-2.07-1.93-.27-6.36,1.91-8.39,2.08-4.82.41-10.1-.29-14.99,0v-2c1.56-.41,1.49-3.67,0-4v-3l.98-.5-.98-.5c0-.67,0-1.33,0-2l2-2c1,0,2,0,3,0Z" fill="#40546e"/><path d="M229.86,304.49c0,5.29-.82,10.74-1,15.98-5.05.12-9.94-.77-14.99-1-.04-5.32.06-10.67,0-15.98,5.38-.21,10.62.73,15.98,1Z" fill="#36465e"/><path d="M334.76,311.49c2.22,1.29.29,7.17,1.05,7.95.93.95,12.65,1.16,14.94,1.04-.1,1.37-.21,7.66.07,7.94.6.58,3.26-.9,2.92,1.04-2.52-.77-4.18,2.88-4.68,2.99-2.54.57-5.93-.5-8.58.05-.77.16-.73,2.13-2.72,1.96-5.04-.43-10.79-1.93-15.98-2.01v-8.48s-2.01,1.5-2.01,1.5c-.01-1.66,0-3.33,0-5,4.83-.29,9.86-1.78,14.99-.99.06-2.65-.09-5.34,0-8Z" fill="#40546e"/><path d="M350.75,304.49c-.63,3.94,1.09,7.67,1.1,11.53,0,2.33-1.05,3.82-1.1,4.46-2.29.11-14-.09-14.94-1.04-.76-.77,1.18-6.66-1.05-7.95.02-.66-.01-1.33,0-2l.98-.5-.98-.5c.02-.67-.01-1.33,0-2,2.71-3.55,11.44-1.99,15.98-2Z" fill="#36465e"/><path d="M549.55,168.63c-.15,4.98.11,10.01,0,14.99-3.84-.86-8.01,0-11.43-.11-1.28-.04-2.56-.85-3.56-.89-1.99-.08-4,.03-5.99,0,1.14-4.15-3.25-4-2.01-7.99-1.59-.06-.98,1.86-2.65,2.84-1.4.82-3.69.96-5.34,1.16.02-.66-.03-1.33,0-2,3.2.16,4.11-4.67,4-7,3.22-.93,1.42,2.35,2.05,2.89.29.25,4.61.34,5.38.18,1.05-.21.17-2.29.74-2.87,1.06-1.07,2.24,1.47,2.81-2.19,5.43,0,10.61.57,15.98,1Z" fill="#3e516b"/><path d="M525.58,182.61c1,0,2-.02,3,0,1.99.03,4-.08,5.99,0,.7,5.9-1.69,11.29,0,16.98-.99-.02-2,.06-2.99,0-3.98-.23-7.98-2.19-11.98-1l-1-7.99c.03-.66-.02-1.33,0-2l.98-.5-.98-.5c.02-1-.02-2,0-3,.67-.64,1.43-1.25,2-2h5Z" fill="#36465e"/><path d="M625.48,192.6c0-.74,1-.93,1-1l-1,1Z" fill="#a3a09b"/><path d="M580.52,72.72c1.09,5.59,11.4,2.78,15.98,4-.35,3.89.41,7.95-.14,11.85l-15.85,2.14c-4.58-1.83-10.73,0-15.98-1,.06-.99-.08-2.01,0-3l.98-.5-.98-.5c.2-2.4-.8-8.34.94-9.55,4.12-1.07,8.44-.1,12.6-.43,3.06-.24,2.57.5,2.45-3Z" fill="#40546e"/><path d="M580.52,57.74c2.01-.7,1.84,1.79,2.69,1.98,3.29.73,8.29-.46,11.9-.03,1.37.16,2.27,1.03,2.4,1.05.73,4.76.25,9.55-.07,14.4-.05.78-.91,1.38-.93,1.59-4.58-1.21-14.89,1.59-15.98-4-.22-1.12.07-2.73,0-4l.98-.5-.98-.5c-.13-3.29-.06-6.69,0-9.99Z" fill="#36465e"/><path d="M580.52,90.7c-.17,4.19,1.26,10.57.83,14.53-.1.87-1.69.27-1.82.45-4.17-.04-8.37.05-12.56.03-1.28,0-2.3-1.03-2.43-1.03-1.46-3.31-1.24-7.94-1.07-11.61.08-1.78,1.06-3.17,1.07-3.38,5.26.99,11.4-.83,15.98,1Z" fill="#36465e"/><path d="M687.42,61.73c.09-.47.53-.86,1-1-.07.47-.52.89-1,1Z" fill="#a3a09b"/><path d="M457.64,49.74c2.29,1.53.27,9.28.99,10,.41.4,9.27-.14,11.42.08s4.22,1.88,4.57,1.91c-.67,3.99.95,10.85.02,14.33-.28,1.05-1.96.57-2.01.66-4.39-.84-8.91-.77-13.38-1.1-.82-.06-1.43-.89-1.6-.9-1.09-8.28-.36-16.59,0-24.98Z" fill="#36465e"/><path d="M336.76,55.74c3.92-.66.28,3.05,3.26,4.31,2.24.95,11.63.52,14.72.68-.34,4.38.47,9.27.04,13.57-.13,1.3-1.02,2.22-1.04,2.42-4.49-.15-9.04.21-13.54,0-1.46-.07-2.92-.99-3.44-1.01v-10.99c1.56-.41,1.49-3.67,0-4,0-1.66-.03-3.33,0-5Z" fill="#36465e"/><path d="M535.57,138.66h12.99c.33,4.64-.94,9.63.99,13.99h-13.99v-13.99Z" fill="#40546e"/><path d="M580.52,261.54l1-2c.37.96-.96,1.81-1,2Z" fill="#a3a09b"/><path d="M580.52,272.53c0-.33,0-.67,0-1l.98.5-.98.5Z" fill="#a3a09b"/><path d="M580.52,280.52c0-.33,0-.67,0-1l.98.5-.98.5Z" fill="#a3a09b"/><path d="M564.54,47.75c0,3.99.04,8,0,11.99-1.5.14-1.5,2.86,0,3-.05,1.76.46,3.54-1,5-.5-5.47-1.23-10.64-1-16.53.08-1.92-1.03-4.01,2-3.45Z" fill="#3e516b"/><path d="M563.54,69.72c1.62,10.55-5.83,4.55-13.99,5.99,2.45-2.43,12.15-.1,12.99-1,.4-.43-.83-4.36,1-5Z" fill="#3e516b"/><path d="M564.54,62.73c-1.5-.14-1.5-2.86,0-3-.01,1,.03,2,0,3Z" fill="#485d79"/><path d="M564.54,86.71c.03-.33-.03-.67,0-1l.98.5-.98.5Z" fill="#36465e"/><path d="M580.52,68.72c-.02-.33.01-.67,0-1l.98.5-.98.5Z" fill="#40546e"/><path d="M336.76,64.73v-4c1.49.32,1.56,3.58,0,4Z" fill="#40546e"/><path d="M441.66,65.73c.27,2.93-.19,6.04,0,9,5.28.27,10.72-.38,15.99,0,.18.01.78.84,1.6.9,4.47.33,9,.25,13.38,1.1-.25.4-1.15,8.92-1.07,9.39.06.39,4.36,1.07,1.09,3.12-1.66,1.04-12.02.52-15,.48-5.35-.06-10.69-.49-15.98-1-.05-4.32.03-8.67,0-12.99l-13.99-.99c3.6-2.3,7.99-.03,12.03-1.46l1.95-7.54Z" fill="#40546e"/><path d="M152.94,152.64c.38-2.82-1.08-6.95,1-8.99-.06,2.18.78,8.41-1,8.99Z" fill="#a3a09b"/><path d="M198.89,331.47v-4c1.49.32,1.56,3.58,0,4Z" fill="#36465e"/><path d="M200.89,319.48l-2,2c0-.67,0-1.33,0-2,.67,0,1.33,0,2,0Z" fill="#36465e"/><polygon points="198.89 324.47 198.89 323.48 199.87 323.98 198.89 324.47" fill="#36465e"/><path d="M429.67,319.48c-.33,0-.67,0-1,0h1Z" fill="#485d79"/><path d="M320.78,336.46c0-.07-.98-.31-1-1l1,1Z" fill="#40546e"/><path d="M319.78,332.47c0-.33,0-.67,0-1l.98.5-.98.5Z" fill="#40546e"/><path d="M320.78,342.46c-.55,0-.96-.49-1-1,.6-.18,1,.55,1,1Z" fill="#40546e"/><path d="M319.78,329.47c0-.33,0-.67,0-1l.98.5-.98.5Z" fill="#40546e"/><path d="M80.01,289.51v-13.99h13.99v12.99c-4.33,1.39-10.12.27-13.99,1Z" fill="#485d79"/><path d="M411.69,183.61c.51,2.4-2.1,10.61-1,11.99l1,1c-.21.36-.89,1.69-1,2-4.41-.39-26.05,2.26-27.77.74-.45-.4-.11-1.68-.2-1.74,4.32.28,8.94-.88,12.98,1,.04-5.65-.02-11.33,0-16.98l15.98,2Z" fill="#36465e"/><path d="M410.69,195.6c.13.16,1.42-.11,2,.01.17,1.13-.96.93-1,.99l-1-1Z" fill="#40546e"/><path d="M273.82,197.6c.6.03,1.99.9,3.44,1.01,3.41.25,7.97-1.01,10.54.99-.25.32-.3,3.97-1.01,5.22s-2.25,1.24-3.04,2.21c-.86,1.06-.73,3.08-1.1,3.4-.48.41-3.43.15-4.93.6-.95.28-1.76,1.54-1.91,1.56-2.23.35-15.8.59-15.96-1.5-.14-1.73,3.8-2.84,2.96-3.48-3.69.45-1.46-5.3-1.99-8.01,2.17-.07,4.37.1,6.55,0,1.92-.08,4.01,1.03,3.45-2,1,.03,2-.06,3,0Z" fill="#40546e"/><path d="M287.81,181.61c.47,1.26,1.96,1.86,2,2,.27.89.28,14.33.02,15.33-.29,1.08-1.94.56-2.01.66-2.57-2.01-7.13-.74-10.54-.99-1.45-.11-2.84-.97-3.44-1.01v-6.99c1.5-.14,1.5-2.86,0-3,.05-.99,0-2,0-3l1-1c0-.33,0-.67,0-1h3c.67,0,1.33.01,2,0s1.35.06,2,0c.33-.03.67.04,1,0,.96-.12,1.62-.91,2-1,.85-.19,2.06.13,3,0Z" fill="#36465e"/><path d="M304.79,168.63c-.06,4.98.04,10.01,0,14.99h-14.99c-.04-.14-1.53-.74-2-2-.32-.87.51-3.33-.1-3.93-.15-.15-5.51.03-2.89-2.06.25-.2,1.96.44,2.76-.24.23-.2,2.65-4.88,2.24-5.76.13,0,.99-.94,2.4-1.05,4.08-.31,8.47.32,12.58.05Z" fill="#3e516b"/><path d="M457.64,302.5c-.52-.92-.9-1.93-1-3l1.01-1.99h.98c.93,2.05-.78,3.88-.99,4.99Z" fill="#36465e"/><path d="M209.88,290.51h-1c.43-.52.83,0,1,0Z" fill="#485d79"/><path d="M641.46,153.64c0,2,.02,4,0,5.99-.02,1.66.05,3.33,0,5-.02.66.04,1.34,0,2v1c-.12.32.15.87,0,1h-14.99c-.06,7.64.1,15.33,0,22.98,0,.07-.99.26-1,1,0,.66-.03,1.34,0,2-.27,1.2.68,4.82-.58,5.01-2.4.38-13.91-.54-14.41-.02-.04,2.66.07,5.34,0,8-2.66,5.53.09,13.75-.94,19.41-.23,1.25-3.57-.06-4.06,1.57-.66.04-1.34-.05-2,0-.56-1.66-3.07-1.3-4,0-1.12.08-2.42.97-3,1-24.57,1.14-51.15.12-75.93,0,.93-5.58-.01-11.41,0-16.98,0-.41.88-1.9.48-2.97,8.42,3.12,14.61-.89,10.5-10.01.99.06,2-.02,2.99,0-1.68-5.68.7-11.08,0-16.98,1.01.04,2.28.85,3.56.89,3.42.11,7.58-.75,11.43.11.11-4.98-.15-10.01,0-14.99.11-3.58-.63-11.53.95-14.32,1.37-2.42,9.11-.61,11.49-.61,22.87.03,45.27-.52,67.81-.68,3.48-.03,8.13.26,11.66.63Z" fill="#485d79"/><path d="M267.83,197.6c.33,0,.67,0,1,0l-.5.98-.5-.98Z" fill="#40546e"/><path d="M212.88,319.48c.48,3.32-1.14,1.71-3,0,1,.03,2-.04,3,0Z" fill="#36465e"/><path d="M207.89,319.48c-.32,1.49-3.58,1.56-4,0,1.33,0,2.67-.03,4,0Z" fill="#36465e"/><path d="M457.64,89.7c-1.51,5.59-.81,11.28-1,16.98-4.88-.36-11.89,1.48-14.99-3-.04-4.98.06-10,0-14.99,5.3.51,10.63.93,15.98,1Z" fill="#36465e"/><path d="M337.76,90.7c-.28,4.97.07,10.07,0,14.99h-16.99c-.05-.66.04-1.33,0-2-.23-4.62.04-9.36,0-13.99,4.5.1,9.03-.15,13.54,0,1.45.05,2.97,1,3.44,1.01Z" fill="#36465e"/><path d="M289.81,150.64c0-.13.93-1.11,1.04-2.41.28-3.11-.28-6.45-.05-9.58h13c.08,4.95,1.42,9-.06,13.93-4.55-.21-9.69.99-13.93-.94.03-.33-.02-.67,0-1Z" fill="#40546e"/><path d="M260.83,136.66c-.38,1.46-4.01,1.59-4,0,1.33-.03,2.66.01,4,0Z" fill="#40546e"/><path d="M206.89,136.66c-.14,1.5-2.86,1.5-3,0,1,0,2,0,3,0Z" fill="#40546e"/><path d="M196.9,136.66l-.51.99-1.49-.99c.67,0,1.33,0,2,0Z" fill="#40546e"/><path d="M200.89,136.66c-.02,1.04-.6,1.18-1.49.99l-.51-.99c.67,0,1.33,0,2,0Z" fill="#40546e"/><path d="M319.78,103.69c-1.55,3.35-7.13,2.27-9.99,1,2.2-.13,6.67-1.94,9.99-1Z" fill="#b3c6da"/><path d="M305.79,104.69c-1.43-.66-.91-1.19-1.05-2.43-.46-4.1-.22-11.27.05-15.55,2.27,5.35.41,12.26,1,17.98Z" fill="#b3c6da"/><path d="M310.79,75.72c1.15,3.69-4.24,1.23-5,1.99-.19.19.18,4.03-.07,5.41-.14.81-.91,1.42-.93,1.58.35-1.65-.5-7.22,0-7.99.31-.49,4.85-.92,5.99-1Z" fill="#b3c6da"/><path d="M307.79,104.69h1c-.58.07-.16.2-1,0Z" fill="#b3c6da"/><path d="M297.3,103.69c.65.33.65.67,0,1v-1Z" fill="#485d79"/><path d="M300.3,102.69c.65.33.65.67,0,1v-1Z" fill="#485d79"/><path d="M395.7,170.63c0-.33,0-.67,0-1l.98.5-.98.5Z" fill="#485d79"/><path d="M281.67,175.75c.27.36.25,2.73.13,2.86-1.48,1.7-3.64-3.16-2.98-3.99.1-.12,2.76,1.01,2.85,1.13Z" fill="#3e516b"/><path d="M274.82,181.61c2.07-1.46,3.46-1.77,3,1h-3c0-.33,0-.67,0-1Z" fill="#3e516b"/><path d="M284.81,181.61c-.37.09-1.03.88-2,1-.1-1.7-.36-2.34,1.49-1.99l.51.99Z" fill="#3e516b"/><path d="M279.82,182.61c-.61-2.97,2.55-3.13,2,0-.65.06-1.34-.01-2,0Z" fill="#3e516b"/><path d="M457.64,309.49c-.53-.02-.99-.52-1-1,.59-.19,1.03.59,1,1Z" fill="#40546e"/><path d="M334.76,309.49c0-.33,0-.67,0-1l.98.5-.98.5Z" fill="#40546e"/><path d="M518.58,178.62c1.64-.2,3.93-.33,5.34-1.16,1.67-.98,1.05-2.9,2.65-2.84-1.25,3.99,3.15,3.84,2.01,7.99-1-.02-2,0-3,0l-.51-3.01c-4.4.22-3.53,1.76-4.48,3.01-.57.74-1.33,1.35-2,2,.04-2-.06-4,0-5.99Z" fill="#40546e"/><path d="M520.58,182.61c.95-1.25.08-2.79,4.48-3.01l.51,3.01h-5Z" fill="#3e516b"/><path d="M518.58,188.61c0-.33,0-.67,0-1l.98.5-.98.5Z" fill="#40546e"/><rect x="347.75" y="84.71" width="1.99" height="2.99" fill="#485d79"/><path d="M273.82,190.61c0-.99-.05-2.01,0-3,1.5.14,1.5,2.86,0,3Z" fill="#40546e"/><path d="M273.82,184.61c0-.68,1-.93,1-1l-1,1Z" fill="#40546e"/></g></svg>