<?xml version="1.0" encoding="UTF-8"?><svg id="Layer_2" xmlns="http://www.w3.org/2000/svg" viewBox="0 0 417.44 445.15"><g id="Layer_4"><path d="M112.44,264c13.65.13,27.35-.1,41,0v14c9.32.02,18.68-.03,28,0v14c13.98-.04,28.02.04,42,0v14c-13.98.1-28.02.04-42,0v-14c-9.32.03-18.68-.02-28,0v14c4.65.03,9.35-.05,14,0v14c-2.73.02-26.82-.76-27.02.58v12.43c9,.01,18.03-.03,27.02,0,.33,0,.67,0,1,0,.79,1.57-.93,3.41-1,4,.12-3.5.62-2.76-2.45-3-7.93-.62-16.55.47-24.55,0l-.99,12.01c.2-.58.25-10.69.06-11.38-.49-.56-3.25-1.62-3.56-1.62h-37.5v-13.01c-9.31-.07-18.68.11-28,0-2.7-.03-13.42.76-14-1h14v-27c4.65-.02,9.35.03,14,0v-14c4.65.05,9.35-.03,14,0v14c-4.65.02-9.35-.03-14,0,0,1.53-.7,14,0,14h55v-28h-28c1.94-4.36.67-9.35,1-14Z" fill="#324049"/><path d="M42.44,167h28.01s0,14,0,14c-9.32-.09-18.68.09-28,0,.19,13.25-2.61,16.63,14,13v14c13.98.04,28.02-.06,42,0,4.63.02,9.33.26,14,0,0,.33,0,.67,0,1-.05,4.32.04,8.68,0,13.01-4.66.03-9.35-.05-14.01,0-9.32.09-18.68-.07-28,0v14c-9.32-.09-18.68.13-28,0v-14.01c-4.65,0-9.34,0-14,0-.12-8.98.03-18.02,0-27,0-.33,0-.67,0-1,0-4.32,0-8.68,0-13v-1h1c3.54,1.86,8.82.96,13,1-.07-4.65.05-9.35,0-14Z" fill="#4aab51"/><path d="M237.44,320c4.65.1,9.35-.07,14.01,0v13.01s54.99,0,54.99,0c.05-4.32-.06-8.68,0-13,13.98.05,28.02.13,42,0-.03,2.89.61,11.2,0,13-5.01.62-41.24-1.24-42,1-.91,2.66.66,9.69,0,13h-40.5c-.11,0-1.5,1.39-1.5,1.5v40.5c-3.37.65-10.24-.9-13,0-2.13.7-.5,11.3-1,14-4.32-.04-8.68.01-13,0,.02-4.66-.04-9.35,0-14,3.45-.04,14,1.49,14-2.5v-52.5h-14c-.02-4.39-.07-9.3,0-14Z" fill="#1f1e2b"/><path d="M152.44,14c.02-.13.98-.97,1.03-2.42.13-3.85-.15-7.74-.03-11.58h84c.05,4.65-.06,9.35,0,14-26.78-.08-53.84-.77-80.61-.06-1.94.05-3.02,1.02-3.39,1.06-.73.1-1.1-.27-1-1Z" fill="#24252c"/><path d="M70.44,320c9.32.11,18.69-.08,28.01,0v13.01s37.49,0,37.49,0c.31,0,3.07,1.07,3.56,1.62.19.69.14,10.79-.06,11.38-.76,2.24-36.08.37-41.01,1.01-.29-2.35,1.02-14.01-1.49-14.01h-26.5v-13Z" fill="#1f1e2b"/><path d="M389.44,167c-.04,4.65,0,9.35,0,14-3.87-.1-9.82.99-13-1v-1l-1-11c3.74,0,9.43-.9,14-1Z" fill="#24252c"/><path d="M389.44,70c2.18,1.01.47,10.46.99,13.01h13.01c.01,9.31.02,18.71,0,27.99,4.65.03,9.35-.02,14,0v28c-2.16.3-14-1.02-14,1.5v26.5c-4.32.05-8.68-.07-13,0-.33,0-.67,0-1,0,.04-5.48-1.08-22.64.14-26.36,1.03-3.15,10.93-1.06,13.87-1.63.04-4.65-.06-9.35,0-14.01s-.01-9.35,0-14c-2.47-.02-12.5.94-13.03.56-1.73-1.24-.93-10.82-.97-13.56-.08-4.65,0-9.35,0-14v-14Z" fill="#24252c"/><path d="M181.44,333v56c-4.32.05-8.68-.04-13,0l-1-3c.03-14.9-1.59-34.81,0-49,.07-.59,1.79-2.43,1-4,4.32,0,8.68,0,13,0Z" fill="#1f1e2b"/><path d="M29.44,250h27.01c.01,9.32-.03,18.68,0,28,4.65.05,9.35-.03,14,0s9.35-.05,14,0v14c-4.65.03-9.35-.02-14,0v27h-14c-.03-13.65.04-27.35,0-41-4.65-.05-9.35.03-14,0v-14h-13c-.02-4.65.03-9.35,0-14Z" fill="#1f1e2b"/><path d="M348.44,278c4.32-.02,8.68.04,13,0l1,4c-.05,11.07.66,23.08,0,34-1.33,5.64-9.17,2.07-14,3,.08-8.99-.06-18.02,0-27.01-4.66-.01-9.35.03-14.01,0,.01-4.65-.01-9.35,0-14,4.65-.05,9.35.02,14,0Z" fill="#1f1e2b"/><path d="M405.44,195c3.99.06,8.01-.04,12,0v27c-2.16.3-14-1.02-14,1.5v26.5h-13c.46-8.94-.33-18.05,0-27,1.92.2,12.25-.32,12.95-1.04,1.14-1.17-1.91-12.57,2.05-14.46.03-1.03-1.82-.26-2-.49-.52-.66.37-9.96,0-12,.67,0,1.33,0,2,0Z" fill="#1f1e2b"/><path d="M264.44,27c3.54,2.44,27.01,0,28.01.99.06,4.65-.1,9.35,0,14.01,13.99.04,28.02-.03,42.01,0,.06,4.65-.1,9.35,0,14.01,13.99.04,28.02-.02,42.01,0v13.01s11.99.99,11.99.99c-2.84-.32-5.99.99-9,0,0,3.09,1.06,4.64-3,4.01-.05-.35-1.36-4.03-1.57-4.07l-40.43.08c-.06-4.65.1-9.35,0-14.01-13.99-.04-28.02.02-42.01,0-.06-4.65.1-9.35,0-14.01-9.32-.03-18.68.02-28.01,0-.1-3.84.15-7.73.04-11.59-.04-1.45-1.02-2.29-1.03-2.42-.09-.74.26-1.09,1-1Z" fill="#24252c"/><path d="M403.44,207c.18.23,2.03-.54,2,.49-3.96,1.89-.91,13.29-2.05,14.46-.7.72-11.03,1.25-12.95,1.04-.33,8.95.46,18.06,0,27-.01.26-.98.76-1,1-3.32-1.85-8.89-.98-13-1v24c-.3-2.73-1.89-6.45-.99-10-4.32-.02-8.68.04-13.01,0-.05,4.65.01,9.35,0,14-.33,0-.67,0-1,0-4.32.04-8.68-.02-13,0v-14.01c4.65.04,9.34-.04,14,0,.05-4.65-.03-9.35,0-14.01,4.66.02,9.35-.01,14.01,0v-28c4.32-.05,8.68.03,13.01,0,.54-2.93-.97-11.06.43-13.07,1.77-2.54,10.99.71,13.56-1.94Z" fill="#324049"/><path d="M127.44,14c-1.74,4.35-.91,9.38-1,14s.06,9.35,0,14.01c-9.32.06-18.69-.1-28.01,0-.09,9.3-.13,18.7,0,28-9.32,0-18.68-.02-28,0-.03,4.66.02,9.35,0,14.01-9.32.07-18.69-.11-28.01,0-4.32.05-8.68-.03-13.01,0-.17,4.3.25,8.71,0,13.01-.17,3.05-.63,5.98-1,9-.04.33.04.67,0,1-.07.65.06,1.34,0,2s.04,1.34,0,2c-1,.04-2.01-.07-3,0-3.28.22-6.7-.03-10,0-.33,0-.67,0-1,0v-14h14c-.91-14.77-.78-14.92,14.01-13.99v-13.01c6.82-.08,13.69.11,20.53.05,2.55-.02,5.14-.04,7.46-.04.03-4.65-.02-9.35,0-14h14v-14c4.65-.03,9.35.05,14,0,.05-4.65-.03-9.35,0-14h27v-14.01c.66-.05,1.34.04,2,0Z" fill="#24252c"/><path d="M28.44,181c0,4.32,0,8.68,0,13l-3,1c-3.33,0-6.67-.01-10,0-.51,9.03-1,17.84-1,27v13c-.81-.02-1.02.19-1,1H1.44s0-41,0-41c4.65-.01,9.35.02,14,0,.26-4.63-.19-9.37,0-14h13Z" fill="#1f1e2b"/><path d="M167.44,389c0,9.32,0,18.68,0,28h-13l-1-1c0-8.99,0-18.02,0-27.01,4.65-.03,9.35.05,14.01,0Z" fill="#24252c"/><path d="M30.44,153c3.99.05,8.02-.03,12.01,0,.03,4.66-.05,9.35,0,14.01s-.07,9.35,0,14c-4.18-.04-9.46.86-13-1l-1-2v-24c1.11.02,1.89-1,2-1Z" fill="#1f1e2b"/><path d="M237.44,403c-.02,4.66,0,9.34,0,14-4.65-.05-9.34.03-14,0,0-4.65-.05-9.35,0-14,4.66-.01,9.34-.01,14,0Z" fill="#8b422a"/><path d="M181.44,320v13h14c0,.33,0,.67,0,1,.04,2.74-.75,12.32.97,13.58.53.39,10.65-.58,13.03-.58,4.66,0,9.34,0,14,0s9.35-.05,14,0c4.32.05,8.68-.04,13,0v15c-2.08-1.57-11.92-1.36-12.86.14-.71,1.14-.11,23.06-.14,26.86-4.65.05-9.35-.03-14.01,0-.03,4.65.05,9.35,0,14.01-4.65.01-9.35-.05-14,0s-9.35-.03-14.01,0c-.03,4.66.05,9.35,0,14.01,4.65-.05,9.35.01,14,0v14h28v14c-2.33,0-4.67,0-7,0-3.35-1.67-10.44-1.7-14,0-2.33,0-4.67,0-7,0v-14h-14c0-4.65-.05-9.35,0-14-4.65.05-9.35-.03-14,0v14c-4.66,0-9.34,0-14,0v-14c0-9.32,0-18.68,0-28,.33,0,.67,0,1,0,4.32-.04,8.68.05,13,0,4.65-.05,9.35.04,14,0v-14c4.65-.02,9.35.03,14,0s9.35.02,14,0v-14c-5.32-.03-10.68.04-16,0-3.99-.03-8.01-.05-12,0v-13.01s-14,0-14,0v-15c-4.32,0-8.68,0-13,0-.33,0-.67,0-1,0v-13c4.65-.03,9.35-.01,14,0Z" fill="#8b422a"/><path d="M152.44,14c-.1.73.27,1.1,1,1v1c-2.83-.4-2.83,1.4,0,1,0,3.66,0,7.35,0,11.01h-27.01c.09-4.62-.74-9.65,1-14.01,8.28-.4,16.71.29,25,0Z" fill="#1f1e2b"/><path d="M237.44,14c8.99.03,18.02-.02,27.01,0v13.01c-.75-.09-1.1.26-1.01,1-7.61-.35-15.41.49-23,0-.43-1.43-1.54-1.99-3-2-.41-3.63.05-8.19,0-12Z" fill="#1f1e2b"/><path d="M7.44,111l1.49.99.51-.99c.66-.03,1.33.02,2,0l1.49.99.51-.99c.33,0,.67,0,1,0s.67,0,1,0v2l-.98.5.98.5c0,2.64.16,5.37,0,8l-.99,1.49.99.51c-.02.33.02.67,0,1-.21,4.44-1,8.93-1,14-2.94-.03-11.12.62-13,0v-27c1.78-1.76,3.74-.85,6-1Z" fill="#1f1e2b"/><path d="M14.44,235c.62.02,2.05.95,3.46,1,3.85.12,7.71-.08,11.55,0,.01,4.66-.03,9.35,0,14.01s-.02,9.35,0,14c-2.24-3.82-.45-9.58-1-14h-14c.98-4.56-.89-10.13-1-14-.02-.81.19-1.02,1-1Z" fill="#24252c"/><path d="M139.44,429c.42,0,.73,1.84,2.47,2.08,3.17.43,7.21-.45,10.53-.08,1.54,4.53.92,9.29,1,14-7.16,0-14.35.09-21.51.02-1.69-.02-4.45.64-5.49-1.02h13.01s0-13.01,0-13.01c-3.89.29-8.2-.39-12.01,0,2.17-1.84,6.58-.97,9.59-.96,1.53,0,2.28-1.04,2.41-1.04Z" fill="#ae7964"/><path d="M28.44,139c.33,0,.67,0,1,0,.54,4.42-1.24,10.18,1,14-.11,0-.89,1.02-2,1-.13,0-1.12-1-2.42-1.04-3.86-.1-7.74.14-11.58.04,0-4.66,0-9.35,0-14.01,4.65.05,9.35-.03,14,0Z" fill="#24252c"/><path d="M278.44,431c.01,4.32,0,8.68,0,13v1c-1,.01-2,0-3,0l-.5-.98-.5.98c-3.33.02-6.67-.02-10,0v-1c0-4.32.01-8.68,0-13,0-.33,0-.67,0-1,4.19,1.76,9.41.95,14,1Z" fill="#8b422a"/><path d="M251.44,403c4.32.05,8.68-.04,13.01,0,.16,3.64-.23,7.37,0,11.01.05.8-.15,1.62.09,2.41.11.59.51.46.91.59,2.13.64,12.39-.62,13.01,0,0,4.66-.02,9.35,0,14.01,4.66.05,9.35-.03,14.01,0-.66,3.37.9,10.25,0,13.01h-14c0-4.32.01-8.68,0-13-4.59-.05-9.81.76-14-1-.05-4.32.04-8.68,0-13.01h-13.01c-.05-2.98.08-6,0-8.99-.02-1,.01-2,0-3,0-.67,0-1.33,0-2Z" fill="#1f1e2b"/><path d="M167.44,431v13c-2.5.02-6.34-.78-8,1-2,0-4,0-6,0-.08-4.71.54-9.47-1-14l1-1c4.24,1.69,9.39,1,14,1Z" fill="#6b252a"/><path d="M209.44,431v13l-2,1c-.67,0-1.33,0-2,0-1.26-1.65-5.74-1.65-7,0h-3v-14h14Z" fill="#6b252a"/><path d="M362.44,264c4.32.04,8.68-.03,13.01,0-.9,3.56.7,7.27.99,10,.11.98-.07,2.01,0,3l-1,1c-3.29.62-9.24-.05-13,0,.01-4.65-.05-9.35,0-14Z" fill="#1f1e2b"/><path d="M237.44,417c0,4.65,0,9.35,0,14h14c0,4.32,0,8.68,0,13v1c-.67,0-1.33,0-2,0-3.04-2.2-8.21-.5-12-1v-13h-14v-14c4.66.03,9.35-.05,14,0Z" fill="#3c1b30"/><path d="M153.44,417c0,4.32,0,8.68,0,13l-1,1c-3.32-.37-7.36.51-10.53.08-1.74-.23-2.05-2.08-2.47-2.08.11-.63-.16-1.48,0-2,1.1-3.59,1.32-6.07,1-10,4.32-.04,8.68.05,13,0Z" fill="#1f1e2b"/><path d="M389.44,251c-.28,4.29.2,8.71,0,13.01h-13.01v-14.01c4.11.02,9.68-.85,13,1Z" fill="#1f1e2b"/><path d="M390.44,181c4.32.06,8.68-.04,13.01,0v13.01c-1.31-.03-3.33-.45-4.01,1-2.66-.02-5.34,0-8,0-2.38-3.59.49-8.87-2-12,0-.67,0-1.33,0-2,.33,0,.67,0,1,0Z" fill="#1f1e2b"/><path d="M127.44,431c3.81-.39,8.12.28,12.01,0v13.01s-13.01,0-13.01,0c-.03-.33.03-.67,0-1-.39-3.81.28-8.12,0-12,.33-.03.67.03,1,0Z" fill="#1f1e2b"/><path d="M388.44,70c.36.04.79-.1,1,0v14h-4c-.66-1.58-4.34-1.58-5,0-.96-.06-2.19.18-3,0l-1-2c-.09-2.57.31-5.58,0-8,4.06.63,2.99-.92,3-4.01,3.01,1,6.16-.32,9,0Z" fill="#1f1e2b"/><path d="M348.44,333c-.76,2.24-36.99.38-42,1,.76-2.24,36.99-.38,42-1Z" fill="#326e69"/><path d="M167.44,444c9.32-.07,18.68.05,28,0v1c-11.99,0-24.01,0-36,0,1.66-1.78,5.5-.98,8-1Z" fill="#ae7964"/><path d="M1.44,139c-1.48-.49-.91-1.34-1.04-2.45-.61-4.91-.44-16.03-.01-21.14.13-1.62-.28-2.09,1.06-3.41v27Z" fill="#326e69"/><path d="M15.44,195c-4.65.02-9.35-.01-14,0l13.01-.99.99-13.01c-.19,4.63.26,9.37,0,14Z" fill="#324049"/><path d="M362.44,316c-.08,1.33.07,2.68,0,4-4.65.03-9.35-.05-14.01,0,0-.33,0-.67,0-1,4.83-.93,12.67,2.64,14-3Z" fill="#326e69"/><path d="M292.44,444c-.58,1.77-11.3.96-14,1v-1h14Z" fill="#ae7964"/><path d="M230.44,445c-4.66,0-9.34,0-14,0,3.56-1.7,10.65-1.67,14,0Z" fill="#ae7964"/><path d="M251.44,403c-.33,0-.67,0-1,0,.5-2.7-1.13-13.3,1-14v14Z" fill="#ae7964"/><path d="M308.44,195c-.67-.02-1.33.02-2,0,0-.33,0-.67,0-1l2,1Z" fill="#326e69"/><path d="M390.44,181c-.33,0-.67,0-1,0,0-4.65-.04-9.35,0-14,.33,0,.67,0,1,0v14Z" fill="#326e69"/><path d="M183.44,84c2.63-.13,5.36-.05,8,0,1.33.03,2.68-.04,4,0-.03,4.66.04,9.35,0,14.01-.04,4.32.03,8.68,0,13.01-4.66.01-9.35-.03-14.01,0s-9.35-.02-14,0v14c4.65.03,9.35-.05,14,0,0,1.53-.7,14,0,14h14v14h56v-14c6.19-1.13,13.51,3.52,14.04-4.52.16-2.44.02-6.79-.04-9.48h13.01s0-14,0-14c4.65,0,9.35.01,14,0,.01,4.65-.01,9.35,0,14s-.01,9.35,0,14h98c-3.14-14.62-1.19-14.94,13-14-.06,4.65.04,9.35,0,14.01-2.94.58-12.83-1.52-13.87,1.63-1.22,3.72-.1,20.88-.14,26.36-4.57.1-10.26.99-14,1-17.88.04-36.74-1.06-55-1-5.4.02-39.38-.74-41.06.44-1.39.97-1.41,11.32-.5,12.63,1.16,1.67,10.84.89,13.56.94.42,2.29-.65,12,.11,12.89,1.18,1.38,11.37,1.03,13.89,1.11.04,2.72-.73,12.4.94,13.56,3.11,2.16,25.26-1.26,27.01.49l.05,12.95c13.65-.1,27.35.12,41.01,0,.33,0,.67,0,1,0v28c-4.66-.02-9.35.01-14.01,0-.03,4.65.05,9.35,0,14.01-4.66-.04-9.35.03-14.01,0v14.01c-4.65.02-9.34-.05-13.99,0s-9.35-.03-14,0v14c4.65.02,9.35-.03,14,0-.01,4.65.01,9.35,0,14h-28c-.05,4.65.07,9.35,0,14-5.4-.02-39.38.74-41.06-.44s-.94-23.59-.94-27.56c4.96-.06,10.14.47,15.01-.51-1.71-4.31-.85-8.97-1.01-13.49-4.65-.03-9.35.05-14.01,0s-9.35.01-14,0c-.27,4.63.19,9.37,0,14.01-8.99.01-18.02-.03-27.01,0-13.98.04-28.02-.04-42,0v-14c18.65.05,37.35-.06,56,0,4.32.01,8.68-.01,13,0,.27-4.65,1.66-9.23.99-14,4.32-.03,8.68.05,13.01,0,9.23-.1,19.12-.97,28-1,.68,0,2.57,1.05,4.43,1.04,7.86-.03,15.73-.07,23.57-.04v-14.01c4.65-.05,9.34.03,13.99,0v-14c-9.32-.02-18.68.03-28,0v-14h-14v-13l-.53-1.01c-1.05-.3-1.38,1-1.47,1.01-.65.04-1.36.05-2,0-.07,0-.28-.96-1-1-11.66-.57-24.23-.03-36,0-14.03.04-28.1.84-42,1-.05,4.32.04,8.68,0,13h-14v14c-4.65-.01-9.35.01-14,0s-9.35,0-14,0c0-4.66,0-9.34,0-14,0-1-.02-2,0-3,1.4,5.71,9.44,2.01,14.01,3.01v-14.01c4.64-.07,9.35-.04,13.99,0,3.78.03,9.15,1.05,14,1,.06-4.65-.04-9.35,0-14,4.65-.05,9.35.03,14,0v-14c-9.32-.07-18.68.09-28,0-4.65-.05-9.35.03-14,0v-14c-4.65-.03-9.35.05-14,0v-28h-28l.56,13.03c-1.46,2.08-10.66.49-13.56.97v26.5c0,2.51-11.66,1.21-14.01,1.49.88,4.16-2.14,11.48,2.01,14.01-.66.03-1.34-.05-2,0-.04,4.32.04,8.68,0,13.01-4.67.26-9.37.02-14,0v-13.01c-14.77.92-14.92.78-13.99-14-4.66-.03-9.35.05-14.01,0v-14.01s-28,0-28,0c-.05-4.66.03-9.35,0-14.01-3.99-.03-8.02.05-12.01,0-2.24-3.82-.46-9.58-1-14,8.99.03,18.01-.02,27,0v14h42v-14c14.77.91,14.91.78,14-14h26.5c.19,0,1.29-1.13,1.39-1.58.13-.61-.82-10.08-.89-12.42,4.65-.04,9.35.03,14.01,0,.68-3.12-2-14.01,2.49-14.01h25.5v-13.01c.66-.05,1.34.04,2,0Z" fill="#326e69"/><path d="M264.44,444v1c-4.32.03-8.68-.01-13,0v-1h13Z" fill="#ae7964"/><path d="M249.44,445c-3.99.01-8.01,0-12,0v-1c3.79.5,8.96-1.2,12,1Z" fill="#ae7964"/><path d="M126.44,443c-1.67-2.67-1.7-9.13,0-12,.28,3.88-.39,8.19,0,12Z" fill="#ae7964"/><path d="M139.44,427c.43-3.14-1.13-7.63,1-10,.32,3.93.1,6.41-1,10Z" fill="#ae7964"/><path d="M205.44,445c-2.33,0-4.67,0-7,0,1.26-1.65,5.74-1.65,7,0Z" fill="#ae7964"/><path d="M403.44,194c.85.02,1.72.06,2,1-.67,0-1.33,0-2,0-1.33-.01-2.67,0-4,0,.67-1.45,2.7-1.03,4-1Z" fill="#324049"/><path d="M362.44,282l-1-4c.33,0,.67,0,1,0,0,1.33,0,2.67,0,4Z" fill="#326e69"/><path d="M168.44,389c-.33,0-.67,0-1,0,0-1,0-2,0-3l1,3Z" fill="#324049"/><path d="M265.44,417c-.41-.12-.81,0-.91-.59-.24-.79-.04-1.62-.09-2.41l1,3Z" fill="#8b422a"/><polygon points="29.44 180 28.44 180 28.44 178 29.44 180" fill="#24252c"/><path d="M9.44,111l-.51.99-1.49-.99c.66-.04,1.34.03,2,0Z" fill="#326e69"/><polygon points="209.44 444 209.44 445 207.44 445 209.44 444" fill="#ae7964"/><path d="M13.44,111l-.51.99-1.49-.99c.67-.02,1.33.01,2,0Z" fill="#326e69"/><path d="M154.44,417c-.33,0-.67,0-1,0v-1l1,1Z" fill="#6b252a"/><path d="M275.44,445c-.33,0-.67,0-1,0l.5-.98.5.98Z" fill="#ae7964"/><path d="M375.44,278l1-1c-.01.72-.35.88-1,1Z" fill="#324049"/><path d="M112.44,209h14.01s-.01,13.01-.01,13.01c4.32.03,8.68-.05,13.01,0,.33,0,.67,0,1,0v14c-.33,0-.67,0-1,0-8.98.03-18.02-.02-27,0v14h-14v14c4.65.03,9.35-.05,14,0-.33,4.65.94,9.64-1,14h28v28h-55c-.7,0,0-12.47,0-14,4.65-.03,9.35.02,14,0v-14c-4.65-.03-9.35.05-14,0s-9.35.03-14,0v-28h14v-14h14v-14c4.66-.04,9.35.03,14.01,0,.03-4.32-.06-8.68,0-13.01Z" fill="#326e69"/><path d="M139.44,236v14h28v14c13.98.03,28.02-.04,42,0,9.32.03,18.68-.02,28.01,0v14.01c-18.66-.06-37.35.05-56.01,0-9.32-.03-18.68.02-28,0v-14c-13.65-.1-27.35.13-41,0-4.65-.05-9.35.03-14,0v-14h14v-14c8.98-.02,18.02.03,27,0Z" fill="#4aab51"/><path d="M264.44,278v14c-4.32.05-8.68-.03-13.01,0,.9,16.87.36,13.8-13.99,14.01-4.65.07-9.35-.03-14,0,0,4.66,0,9.35,0,14.01,4.65.06,9.35-.1,14.01,0-.07,4.7-.02,9.61,0,14s-.01,8.68,0,13c-4.65-.05-9.35,0-14,0v-13.01c-4.65,0-9.34,0-14,0,0-4.66,0-9.35,0-14.01-4.65-.03-9.35.06-14.01,0-.33,0-.67,0-1,0-2.54-1.71-8.66-1.66-11,0-.67,0-1.33,0-2,0v-14c-4.65-.01-9.35.05-14,0s-9.35.03-14,0v-14c9.32-.02,18.68.03,28,0v14c13.98.04,28.02.1,42,0v-14c8.99-.03,18.02.02,27.01,0,.19-4.63-.28-9.38,0-14.01,4.65.01,9.35-.05,14,0Z" fill="#3c1b30"/><path d="M167.44,320v13c-8.99-.03-18.02.02-27.01,0v-12.43c.19-1.34,24.27-.56,27.01-.58Z" fill="#1f1e2b"/><path d="M181.44,306v14c-4.65-.01-9.35-.03-14,0v-14c4.65.05,9.35-.01,14,0Z" fill="#6b252a"/><path d="M28.44,222c.04,2.72-.73,12.41.94,13.56,1.44,1,10.37.4,13.06.44,9.32.13,18.68-.09,28,0v-14c9.32-.07,18.68.09,28,0v14h-14v14h-14v28c-4.65-.03-9.35.05-14,0-.03-9.32.02-18.68,0-28.01h-27.01c-.03-4.65.02-9.34,0-14-3.83-.07-7.7.13-11.55,0-1.41-.04-2.84-.98-3.46-1v-13h14Z" fill="#324049"/><path d="M70.44,181c4.66.04,9.35-.03,14.01,0-.93,14.78-.77,14.92,14,14v13.01c-13.99-.06-28.02.04-42.01,0v-14c-16.61,3.63-13.81.25-14-13,9.32.09,18.68-.09,28,0Z" fill="#a9c74b"/><path d="M25.44,195h3c.03,8.98-.12,18.02,0,27,4.66,0,9.35,0,14.01,0v14.01c-2.7-.04-11.63.56-13.07-.44-1.66-1.16-.9-10.84-.94-13.56h-14c0-9.16.49-17.97,1-27,3.33-.01,6.67,0,10,0Z" fill="#326e69"/><path d="M114.44,195c2.86-.14,6.14-.15,9,0,.33.02.68-.04,1,0,.64.08,1.35-.09,2,0,.1.65-.08,1.36,0,2l-.98.5.98.5c.09,1.32-.06,2.67,0,4l-.98.5.98.5c.1,1.66-.08,3.35,0,5.01.35.36,8.14-.25,10.01,0l1,1c.43.2,1.81-.59,2.05.62-.03,2.79-.04,5.6-.05,8.38,0,.33,0,.67,0,1,0,1,0,2,0,3-4.32-.05-8.68.03-13.01,0v-13.01s-13.99,0-13.99,0c0-.33,0-.67,0-1,.04-4.32-.03-8.68,0-13.01.66-.05,1.33.04,2,0Z" fill="#324049"/><path d="M28.44,194c0,.33,0,.67,0,1h-3l3-1Z" fill="#324049"/><path d="M264.44,278c4.65.05,9.35-.03,14.01,0,.16,4.52-.7,9.18,1.01,13.49-4.88.99-10.06.46-15.01.51,0,3.97-.73,26.4.94,27.56s35.66.42,41.06.44c.07-4.65-.05-9.35,0-14h28c.01-4.65-.01-9.35,0-14-4.65-.03-9.35.02-14,0v-14c4.65-.03,9.35.05,14,0-.01,4.65.01,9.35,0,14,4.66.03,9.35-.02,14.01,0-.06,8.99.07,18.02,0,27.01,0,.33,0,.67,0,1-13.98.13-28.02.05-42,0-.06,4.32.05,8.68,0,13h-55v-13.01c-4.65-.06-9.35.1-14,0,.07-4.65-.05-9.35,0-14,14.35-.2,14.89,2.86,13.99-14.01,4.32-.03,8.68.05,13.01,0v-14Z" fill="#324049"/><path d="M237.44,334h14v52.5c0,3.99-10.55,2.46-14,2.5-.04,4.65.02,9.34,0,14-4.66-.01-9.34-.01-14,0,.05-4.65-.03-9.35,0-14.01,4.65-.03,9.35.05,14.01,0,.03-3.79-.57-25.72.14-26.86.94-1.5,10.78-1.72,12.86-.14v-15c-4.32-.04-8.68.05-13,0-.01-4.32.02-8.68,0-13Z" fill="#6b252a"/><path d="M223.44,403c-.05,4.65,0,9.35,0,14-4.65-.03-9.35-.01-14,0v-14c4.65-.05,9.35.01,14,0Z" fill="#6b252a"/><path d="M278.44,111v14.01s-13,0-13,0c-.08-3.84-.91-9.4-1-14,4.65-.02,9.35,0,14,0Z" fill="#a9c74b"/><path d="M306.44,111c-.08,4.65.06,9.35,0,14.01h-14.01c-.01-4.66.01-9.35,0-14.01,4.65-.01,9.35.01,14,0Z" fill="#a9c74b"/><path d="M237.44,14c.05,3.81-.41,8.37,0,12,.07.65-.09,1.34,0,2,.99.08,2.01-.06,3,0,7.59.49,15.39-.35,23,0,.02.13.99.97,1.03,2.42.11,3.86-.14,7.74-.04,11.59,9.32.01,18.68-.03,28.01,0,.1,4.65-.07,9.35,0,14.01,13.99.02,28.02-.04,42.01,0,.1,4.65-.07,9.35,0,14.01l40.43-.08c.21.04,1.53,3.72,1.57,4.07.31,2.42-.09,5.43,0,8,0,.15-1.98,1.34,1,2,.81.18,2.04-.06,3,0,1.64.11,3.35,0,5,0h4c0,4.65-.08,9.35,0,14l-52.5-1c-4.93.28-1.31,12.82-2.49,14.01-9.32.01-18.68-.03-28.01,0,.22-13.23-2.66-16.63,14-13v-15h-40.5c-2.45,0-1.25-10.75-1.5-13h-14v13.01s-13,0-13,0v15c15.92-3.91,12.77.83,13,13-13.65.05-27.35-.03-41,0v14c-13.98-.1-28.02.14-42,0v-14c4.66-.03,9.35.02,14.01,0,.02-4.32-.04-8.68,0-13.01,4.37-1.96,9.56-1.11,14,0v-15c-5.73.6-12.64-1.28-18,1-2.64-.05-5.37-.13-8,0-4.23-1.38-.83-12.84-1.99-14.01-27.65.03-55.35-.02-83.01,0,.19,14.36-2.85,14.89,14,14v14c3.63-1.18,24.18-1.87,26.06-.56,1.7,1.18.86,10.81.94,13.56-18.32.17-36.69-.13-55.01,0-.58-2.94,1.52-12.83-1.63-13.87l-35.93-.1c-1.85,0-3.74-1.04-4.43-1.04v-12c9.32-.1,18.69.07,28.01,0,.01-4.66-.03-9.35,0-14.01,9.32-.02,18.68,0,28,0-.13-9.3-.09-18.7,0-28,9.32-.09,18.69.06,28.01,0,.06-4.65-.09-9.35,0-14.01h27.01c0-3.65,0-7.34,0-11v-2c.37-.05,1.45-1.01,3.39-1.06,26.77-.7,53.83-.02,80.61.06ZM209.44,56c-.03-4.65.02-9.35,0-14h-28v14c9.32.02,18.68-.03,28,0,.03,4.65-.02,9.35,0,14h14v14c14.77.91,14.92.78,13.99-14.01,14.79.93,14.91.77,14.01-14-13.99-.02-28.02.05-42.01,0Z" fill="#a9c74b"/><path d="M181.44,111v14c13.98.14,28.02-.1,42,0v-14c13.65-.03,27.35.05,41,0,.09,4.6.92,10.16,1,14,.06,2.7.19,7.04.04,9.48-.52,8.04-7.85,3.38-14.04,4.52v14h-56v-14h-14c-.7,0,0-12.47,0-14-4.65-.05-9.35.03-14,0v-14c4.65-.02,9.35.03,14,0Z" fill="#4aab51"/><path d="M264.44,111c-.23-12.17,2.92-16.91-13-13v-15h13.01s0-13,0-13h14c.25,2.25-.95,13,1.5,13h40.5v15c-16.66-3.63-13.78-.23-14,13-4.65.01-9.35-.01-14,0s-9.35,0-14,0-9.35-.02-14,0Z" fill="#4aab51"/><path d="M389.44,98c.05,2.74-.76,12.32.97,13.56.53.38,10.56-.58,13.03-.56-.01,4.65.06,9.35,0,14-14.19-.94-16.14-.62-13,14h-98c-.01-4.65.01-9.35,0-14h14.01c.05-4.65-.08-9.35,0-14,9.32-.03,18.68.02,28.01,0,1.18-1.18-2.44-13.73,2.49-14.01l52.5,1Z" fill="#4aab51"/><path d="M195.44,361c3.99-.05,8.01-.03,12,0,4.07,2.34,1.18,9.65,2,14-4.65.03-9.35-.02-14,0v14c-4.65.04-9.35-.05-14,0v-27c4.49-1.55,9.32-.95,14-1Z" fill="#3c1b30"/><path d="M181.44,348h14.01s0,13,0,13c-4.68.05-9.51-.55-14,1v-14Z" fill="#6b252a"/><path d="M320.44,167v14h28v14c13.65.03,27.35-.03,41,0,.67,0,1.33,0,2,0,2.66,0,5.34-.02,8,0,1.33,0,2.67-.01,4,0,.37,2.04-.52,11.34,0,12-2.57,2.64-11.79-.6-13.56,1.94-1.4,2.01.11,10.14-.43,13.07-4.32.03-8.68-.05-13.01,0-.33,0-.67,0-1,0,1.26-2.22,1.69-10.43.57-12.07-.23-.34-6.56-1.93-7.07-1.93h-34.5v-13.01c-.66-.05-1.34.05-2,0l-.5-.98-.5.98c-7.64-.18-15.35.18-23,0l-2-1c-.06-4.32.04-8.68,0-13.01-4.65-.05-9.35.08-14.01,0-2.73-.05-12.4.73-13.56-.94-.91-1.31-.89-11.66.5-12.63,1.69-1.17,35.66-.42,41.06-.44Z" fill="#4aab51"/><path d="M42.44,84v12c-.16,0-1.36.98-3,1-3.32.04-6.68-.03-10,0,.24-4.3-.18-8.7,0-13.01,4.32-.03,8.68.05,13.01,0Z" fill="#1f1e2b"/><path d="M167.44,417v14c-4.61,0-9.76.69-14-1,0-4.32,0-8.68,0-13,.33,0,.67,0,1,0h13Z" fill="#c57649"/><path d="M209.44,403v14c4.65-.01,9.35-.03,14,0v14h-14v-14c-4.65.01-9.35-.05-14,0,.05-4.66-.03-9.35,0-14.01,4.66-.03,9.35.05,14.01,0Z" fill="#c57649"/><path d="M153.44,16v1c-2.83.4-2.83-1.4,0-1Z" fill="#24252c"/><path d="M240.44,28c-.99-.06-2.01.08-3,0-.08-.65.08-1.35,0-2,1.46.01,2.57.57,3,2Z" fill="#24252c"/><path d="M98.44,70c27.65-.03,55.35.03,83.01,0,1.17,1.17-2.24,12.62,1.99,14.01-.66.03-1.34-.05-2,0v13.01h-25.5c-4.5,0-1.82,10.89-2.49,14.01-4.65.03-9.35-.05-14.01,0,.07,2.34,1.03,11.81.89,12.42-.1.44-1.2,1.58-1.39,1.58h-26.5c.91,14.78.77,14.91-14,14v14h-42v-14c-8.99-.02-18.01.03-27,0-.33,0-.67,0-1,0v-14.01s-13,0-13,0c.02-.33-.02-.67,0-1,.04-.66-.04-1.34,0-2,.16-2.63,0-5.36,0-8v-3c3.3-.03,6.72.22,10,0,.06,1.54,2.94,1.54,3,0,.04-.66-.06-1.34,0-2,2.53,4.14,9.85,1.12,14.01,2.01-1-4.57,2.7-12.6-3.01-14.01,1.64-.02,2.84-1,3-1,.7,0,2.58,1.04,4.43,1.04l35.93.1c3.15,1.03,1.06,10.93,1.63,13.87,18.32-.14,36.69.17,55.01,0-.08-2.76.76-12.38-.94-13.56-1.88-1.31-22.44-.62-26.06.56v-14c-16.85.89-13.81.36-14-14Z" fill="#4aab51"/><path d="M15.44,125h13.01s0,14,0,14c-4.65-.03-9.35.05-14,0,0-5.07.79-9.56,1-14Z" fill="#326e69"/><path d="M15.44,124l-.99-.51.99-1.49c-.04.66.04,1.34,0,2Z" fill="#326e69"/><polygon points="15.44 114 14.46 113.5 15.44 113 15.44 114" fill="#326e69"/><path d="M39.44,97c5.71,1.4,2.01,9.44,3.01,14.01-4.16-.88-11.48,2.14-14.01-2.01.06-.66-.07-1.35,0-2l.98-.5-.98-.5c.37-3.02.83-5.95,1-9,3.32-.03,6.68.04,10,0Z" fill="#a9c74b"/><path d="M28.44,111c-.06,1.54-2.94,1.54-3,0,.99-.07,2,.04,3,0Z" fill="#326e69"/><path d="M28.44,107c.04-.33-.04-.67,0-1l.98.5-.98.5Z" fill="#4aab51"/><path d="M250.44,403c.33,0,.67,0,1,0,0,.67,0,1.33,0,2-1.22.99-1.2,2,0,3,.07,2.99-.05,6.02,0,9.01h13.01c.03,4.31-.06,8.67,0,12.99,0,.33,0,.67,0,1h-13c0-.67.01-1.33,0-2-.02-1.33.05-2.67,0-4-.07-2.07.78-7.41-1-8-1.88-.62-10.07.03-13,0,0-4.66-.02-9.34,0-14,4.32.01,8.68-.04,13,0Z" fill="#c57649"/><path d="M264.44,431c.01,4.32,0,8.68,0,13h-13c0-4.32,0-8.68,0-13h13Z" fill="#6b252a"/><path d="M195.44,417c-.05,4.65,0,9.35,0,14v13c-9.32.05-18.68-.07-28,0v-13c4.66,0,9.34,0,14,0v-14c4.65-.03,9.35.05,14,0Z" fill="#3c1b30"/><path d="M250.44,417c.32,2.5-1,6.27,1,8,.05,1.33-.02,2.67,0,4l-1,2h-13c0-4.65,0-9.35,0-14,2.93.03,11.12-.62,13,0Z" fill="#6b252a"/><path d="M251.44,431h-1l1-2c.01.67,0,1.33,0,2Z" fill="#ae7964"/><path d="M251.44,408c-1.2-1-1.22-2.01,0-3,.01,1-.02,2,0,3Z" fill="#ae7964"/><path d="M375.44,168l1,11-.72.57c.04.47.48.28.72.43,3.18,1.99,9.13.9,13,1,0,.67,0,1.33,0,2v12c-13.65-.03-27.35.03-41,0v-14h-28v-14c18.26-.06,37.12,1.04,55,1Z" fill="#a9c74b"/><path d="M391.44,195c-.67,0-1.33,0-2,0v-12c2.49,3.13-.38,8.41,2,12Z" fill="#324049"/><path d="M385.44,84c-1.65,0-3.36.11-5,0,.66-1.58,4.34-1.58,5,0Z" fill="#24252c"/><path d="M377.44,84c-2.98-.66-.99-1.85-1-2l1,2Z" fill="#24252c"/><path d="M114.44,195c-4.14-2.53-1.12-9.85-2.01-14.01,2.35-.29,14.01,1.02,14.01-1.49v-26.5c2.9-.49,12.1,1.1,13.56-.97l-.56-13.03h28v28c-9.32-.09-18.69.07-28.01,0-.9,14.77-.78,14.93,14.01,14,.58,2.94-1.52,12.83,1.63,13.87,13.45.23,26.92.18,40.36.14v-14c9.32.09,18.68-.07,28,0v14c-4.65.03-9.35-.05-14,0s-9.35-.01-14,0v13c-4.65-.04-9.35-.07-14,0-3.07.05-7.2-.44-10,0l-3,1c-1.8.89-.95,7.7-1,10-.02,1,0,2,0,3-8.98-.06-18.02.08-27,0-.33,0-.67,0-1,0,0-1,0-2,0-3v-1c0-2.79.01-5.59.05-8.38-.24-1.21-1.62-.42-2.05-.62-.35-.16-.72-.96-1-1-1.87-.25-9.66.36-10.01,0-.08-1.66.11-3.35,0-5.01-.02-.33.01-.67,0-1-.06-1.33.09-2.68,0-4-.02-.33.04-.68,0-1-.09-.64.1-1.35,0-2-.65-.1-1.36.08-2,0l-.5-.98-.5.98c-2.86-.15-6.14-.14-9,0Z" fill="#4aab51"/><path d="M167.44,236c4.65,0,9.35-.01,14,0v14h28v14c-13.98-.04-28.02.03-42,0v-14h-28v-14c.33,0,.67,0,1,0,8.98-.03,18.01,0,27,0Z" fill="#a9c74b"/><path d="M167.44,222c0,4.66,0,9.34,0,14-8.99,0-18.02-.03-27,0v-14c8.98.08,18.02-.06,27,0Z" fill="#324049"/><path d="M195.44,236c9.32.03,18.68-.02,28,0v14h41v14c-4.32.05-8.68-.03-13.01,0,.67,4.78-.72,9.35-.99,14-4.32-.01-8.68.01-13,0v-14.01c-9.32-.01-18.68.03-28,0v-14h-28v-14c4.65.01,9.35-.01,14,0Z" fill="#324049"/><path d="M183.44,320c3.66.01,7.34-.03,11,0,.33,0,.67,0,1,0,0,4.32,0,8.68,0,13h-14v-13c.67,0,1.33,0,2,0Z" fill="#c57649"/><path d="M251.44,208c.8,2.58-1.55,12.83.13,13.87l12.87.13v14c13.98.03,28.02-.04,42,0,9.32.03,18.68-.02,28,0v14c-4.65.03-9.35-.05-14,0-9.32.09-18.69-.06-28.01,0,0,2.99,0,6.01,0,9.01v1c0,1,0,2,0,3-8.88.03-18.77.9-28,1v-14h-41v-14c-9.32-.02-18.68.03-28,0v-14h14c.04-4.32-.05-8.68,0-13,13.9-.16,27.97-.96,42-1Z" fill="#4aab51"/><path d="M167.44,167c4.65.05,9.35-.03,14,0v14c4.65.03,9.35-.05,14,0v14c-13.44.04-26.92.09-40.36-.14-3.15-1.03-1.06-10.93-1.63-13.87-14.79.93-14.91.77-14.01-14,9.32.08,18.69-.09,28.01,0Z" fill="#a9c74b"/><path d="M287.44,208l1,1c.64.05,1.35.04,2,0h2v13h14v14c-13.98-.04-28.02.03-42,0v-14l-12.87-.13c-1.68-1.04.66-11.29-.13-13.87,11.77-.03,24.34-.57,36,0Z" fill="#a9c74b"/><path d="M292.44,181c4.65.08,9.35-.06,14.01,0,.04,4.32-.07,8.68,0,13.01,0,.33,0,.67,0,1-2.52-.08-12.71.27-13.89-1.11-.76-.89.31-10.61-.11-12.89Z" fill="#324049"/><path d="M308.44,195c7.65.18,15.36-.18,23,0,.33,0,.67-.02,1,0,.66.04,1.34-.06,2,0v13.01h34.5c.5,0,6.84,1.59,7.07,1.93,1.12,1.64.69,9.85-.57,12.07-13.65.12-27.35-.09-41.01,0l-.05-12.95c-1.75-1.75-23.9,1.67-27.01-.49-1.66-1.16-.9-10.84-.94-13.56.67.02,1.33-.02,2,0Z" fill="#324049"/><path d="M320.44,250v14.01c-7.84-.03-15.71,0-23.57.04-1.86,0-3.75-1.04-4.43-1.04,0-1,0-2,0-3l.98-.5-.98-.5c0-2.99,0-6.01,0-9.01,9.32-.06,18.69.1,28.01,0Z" fill="#324049"/><path d="M191.44,84c5.36-2.28,12.27-.4,18-1v15c-4.44-1.11-9.63-1.96-14,0,.04-4.66-.03-9.35,0-14.01-1.33-.03-2.67.03-4,0Z" fill="#4aab51"/><path d="M209.44,195c-.04,4.65.06,9.35,0,14-4.85.05-10.22-.97-14-1v-13c4.65-.01,9.35.05,14,0Z" fill="#324049"/><path d="M292.44,209h-2c.09,0,.42-1.31,1.47-1.01l.53,1.01Z" fill="#4aab51"/><path d="M288.44,209l-1-1c.72.04.93.99,1,1Z" fill="#4aab51"/><path d="M124.44,195c-.32-.04-.67.02-1,0l.5-.98.5.98Z" fill="#326e69"/><path d="M126.44,198l-.98-.5.98-.5c.04.32-.02.67,0,1Z" fill="#326e69"/><path d="M126.44,203l-.98-.5.98-.5c.01.33-.02.67,0,1Z" fill="#326e69"/><path d="M137.44,209l-1-1c.28.04.65.84,1,1Z" fill="#326e69"/><path d="M139.44,219c0-.33,0-.67,0-1v1Z" fill="#326e69"/><path d="M237.44,306c-.05,4.65.07,9.35,0,14-4.65-.1-9.35.07-14.01,0,0-4.66,0-9.35,0-14.01,4.65-.03,9.35.07,14,0Z" fill="#6b252a"/><path d="M195.44,320c4.65.05,9.35-.04,14.01,0,0,4.66,0,9.35,0,14.01,4.66,0,9.35,0,14.01,0v13.01c-4.66,0-9.35,0-14.01,0v-13h-14c0-.33,0-.67,0-1,0-4.32,0-8.68,0-13Z" fill="#6b252a"/><path d="M194.44,320c-3.66-.03-7.34.01-11,0,2.34-1.66,8.46-1.71,11,0Z" fill="#6b252a"/><path d="M209.44,56c-9.32-.03-18.68.02-28,0v-14h28c.02,4.65-.03,9.35,0,14,13.99.04,28.02-.03,42.01,0,.9,14.77.78,14.93-14.01,14,.92,14.78.77,14.92-13.99,14.01v-14h-14c-.02-4.65.03-9.35,0-14Z" fill="#4aab51"/><path d="M207.44,361c5.32.04,10.68-.03,16,0v14c-4.65.02-9.35-.03-14,0-.82-4.35,2.07-11.66-2-14Z" fill="#6b252a"/><path d="M209.44,334v13c-2.38,0-12.5.96-13.03.58-1.72-1.26-.93-10.83-.97-13.58h14Z" fill="#c57649"/><path d="M332.44,195c-.33-.02-.67,0-1,0l.5-.98.5.98Z" fill="#326e69"/><path d="M251.44,425c-2-1.73-.68-5.5-1-8,1.78.59.93,5.93,1,8Z" fill="#ae7964"/><path d="M376.44,180c-.23-.15-.68.04-.72-.43l.72-.57v1Z" fill="#326e69"/><path d="M181.44,208v14.01c-4.56-1-12.6,2.7-14-3.01.05-2.3-.8-9.11,1-10,.14-.07,2.84-.98,3-1,2.8-.44,6.93.05,10,0Z" fill="#324049"/><path d="M171.44,208c-.16.02-2.86.93-3,1l3-1Z" fill="#326e69"/><polygon points="292.44 260 292.44 259 293.42 259.5 292.44 260" fill="#326e69"/></g></svg>